<?xml version="1.0" ?><!DOCTYPE svg  PUBLIC '-//W3C//DTD SVG 1.1//EN'  'http://www.w3.org/Graphics/SVG/1.1/DTD/svg11.dtd'><!-- Generated by graphviz version 2.40.1 (20161225.0304)
 --><!-- Pages: 1 --><svg height="355pt" viewBox="0.00 0.00 460.39 354.91" width="460pt" xmlns="http://www.w3.org/2000/svg" xmlns:xlink="http://www.w3.org/1999/xlink">
<g class="graph" id="graph0" transform="scale(1 1) rotate(0) translate(4 350.91)">
<polygon fill="#ffffff" points="-4,4 -4,-350.91 456.39,-350.91 456.39,4 -4,4" stroke="transparent"/>
<!-- person#touching#table -->

<!-- table -->

<!-- person#touching#table&#45;&gt;table -->

<!-- table#in front of#person -->

<!-- table&#45;&gt;table#in front of#person -->

<!-- person -->
<g class="node" id="node4">
<title>person</title>
<path d="M249.54,-186.71C249.54,-186.71 203.54,-186.71 203.54,-186.71 197.54,-186.71 191.54,-180.71 191.54,-174.71 191.54,-174.71 191.54,-162.71 191.54,-162.71 191.54,-156.71 197.54,-150.71 203.54,-150.71 203.54,-150.71 249.54,-150.71 249.54,-150.71 255.54,-150.71 261.54,-156.71 261.54,-162.71 261.54,-162.71 261.54,-174.71 261.54,-174.71 261.54,-180.71 255.54,-186.71 249.54,-186.71" fill="#ffb0b9" stroke="#000000"/>
<text fill="#000000" font-family="Times,serif" font-size="20.00" text-anchor="middle" x="226.54" y="-163.71">person</text>
</g>
<!-- table#in front of#person&#45;&gt;person -->

<!-- person&#45;&gt;person#touching#table -->

<!-- person#touching#laptop -->
<g class="node" id="node6">
<title>person#touching#laptop</title>
<path d="M364.26,-273.81C364.26,-273.81 323.26,-273.81 323.26,-273.81 317.26,-273.81 311.26,-267.81 311.26,-261.81 311.26,-261.81 311.26,-249.81 311.26,-249.81 311.26,-243.81 317.26,-237.81 323.26,-237.81 323.26,-237.81 364.26,-237.81 364.26,-237.81 370.26,-237.81 376.26,-243.81 376.26,-249.81 376.26,-249.81 376.26,-261.81 376.26,-261.81 376.26,-267.81 370.26,-273.81 364.26,-273.81" fill="#c3e2b3" stroke="#000000"/>
<text fill="#000000" font-family="Times,serif" font-size="14.00" text-anchor="middle" x="343.76" y="-252.11">touching</text>
</g>
<!-- person&#45;&gt;person#touching#laptop -->
<g class="edge" id="edge6">
<title>person-&gt;person#touching#laptop</title>
<path d="M250.83,-186.76C269.53,-200.66 295.44,-219.9 315.15,-234.54" fill="none" stroke="#7f7f7f"/>
<polygon fill="#7f7f7f" points="319.51,-237.78 314.1547,-236.6036 317.5034,-236.2888 315.4968,-234.7977 315.4968,-234.7977 315.4968,-234.7977 317.5034,-236.2888 316.8388,-232.9917 319.51,-237.78 319.51,-237.78" stroke="#7f7f7f"/>
</g>
<!-- person#not looking at#chair -->

<!-- person&#45;&gt;person#not looking at#chair -->

<!-- person#not looking at#table -->

<!-- person&#45;&gt;person#not looking at#table -->

<!-- person#looking at#shoe -->

<!-- person&#45;&gt;person#looking at#shoe -->

<!-- person#not looking at#sofa/couch -->

<!-- person&#45;&gt;person#not looking at#sofa/couch -->

<!-- person#holding#shoe -->

<!-- person&#45;&gt;person#holding#shoe -->

<!-- person#sitting on#chair -->

<!-- person&#45;&gt;person#sitting on#chair -->

<!-- person#looking at#laptop -->
<g class="node" id="node13">
<title>person#looking at#laptop</title>
<path d="M281.83,-267.42C281.83,-267.42 232.83,-267.42 232.83,-267.42 226.83,-267.42 220.83,-261.42 220.83,-255.42 220.83,-255.42 220.83,-243.42 220.83,-243.42 220.83,-237.42 226.83,-231.42 232.83,-231.42 232.83,-231.42 281.83,-231.42 281.83,-231.42 287.83,-231.42 293.83,-237.42 293.83,-243.42 293.83,-243.42 293.83,-255.42 293.83,-255.42 293.83,-261.42 287.83,-267.42 281.83,-267.42" fill="#c3e2b3" stroke="#000000"/>
<text fill="#000000" font-family="Times,serif" font-size="14.00" text-anchor="middle" x="257.33" y="-245.72">looking at</text>
</g>
<!-- person&#45;&gt;person#looking at#laptop -->
<g class="edge" id="edge13">
<title>person-&gt;person#looking at#laptop</title>
<path d="M233.53,-187.03C237.98,-198.69 243.77,-213.89 248.53,-226.37" fill="none" stroke="#7f7f7f"/>
<polygon fill="#7f7f7f" points="250.37,-231.18 246.482,-227.3139 249.4768,-228.845 248.5835,-226.51 248.5835,-226.51 248.5835,-226.51 249.4768,-228.845 250.685,-225.7061 250.37,-231.18 250.37,-231.18" stroke="#7f7f7f"/>
</g>
<!-- person#sitting on#sofa/couch -->

<!-- person&#45;&gt;person#sitting on#sofa/couch -->

<!-- person#not contacting#table -->

<!-- person&#45;&gt;person#not contacting#table -->

<!-- laptop#in front of#person -->
<g class="node" id="node5">
<title>laptop#in front of#person</title>
<path d="M308.52,-346.91C308.52,-346.91 259.52,-346.91 259.52,-346.91 253.52,-346.91 247.52,-340.91 247.52,-334.91 247.52,-334.91 247.52,-322.91 247.52,-322.91 247.52,-316.91 253.52,-310.91 259.52,-310.91 259.52,-310.91 308.52,-310.91 308.52,-310.91 314.52,-310.91 320.52,-316.91 320.52,-322.91 320.52,-322.91 320.52,-334.91 320.52,-334.91 320.52,-340.91 314.52,-346.91 308.52,-346.91" fill="#c3e2b3" stroke="#000000"/>
<text fill="#000000" font-family="Times,serif" font-size="14.00" text-anchor="middle" x="284.02" y="-325.21">in front of</text>
</g>
<!-- laptop#in front of#person&#45;&gt;person -->
<g class="edge" id="edge4">
<title>laptop#in front of#person-&gt;person</title>
<path d="M277.54,-310.84C267.06,-281.64 246.41,-224.09 234.86,-191.9" fill="none" stroke="#7f7f7f"/>
<polygon fill="#7f7f7f" points="233.09,-186.96 236.8947,-190.908 233.9333,-189.3135 234.7766,-191.667 234.7766,-191.667 234.7766,-191.667 233.9333,-189.3135 232.6584,-192.4259 233.09,-186.96 233.09,-186.96" stroke="#7f7f7f"/>
</g>
<!-- laptop -->
<g class="node" id="node16">
<title>laptop</title>
<path d="M426.32,-333.08C426.32,-333.08 384.32,-333.08 384.32,-333.08 378.32,-333.08 372.32,-327.08 372.32,-321.08 372.32,-321.08 372.32,-309.08 372.32,-309.08 372.32,-303.08 378.32,-297.08 384.32,-297.08 384.32,-297.08 426.32,-297.08 426.32,-297.08 432.32,-297.08 438.32,-303.08 438.32,-309.08 438.32,-309.08 438.32,-321.08 438.32,-321.08 438.32,-327.08 432.32,-333.08 426.32,-333.08" fill="#ffb0b9" stroke="#000000"/>
<text fill="#000000" font-family="Times,serif" font-size="20.00" text-anchor="middle" x="405.32" y="-310.08">laptop</text>
</g>
<!-- person#touching#laptop&#45;&gt;laptop -->
<g class="edge" id="edge16">
<title>person#touching#laptop-&gt;laptop</title>
<path d="M362.57,-273.91C368.78,-279.89 375.75,-286.61 382.24,-292.86" fill="none" stroke="#7f7f7f"/>
<polygon fill="#7f7f7f" points="386.21,-296.68 381.047,-294.8345 384.4085,-294.9466 382.607,-293.2132 382.607,-293.2132 382.607,-293.2132 384.4085,-294.9466 384.1671,-291.5918 386.21,-296.68 386.21,-296.68" stroke="#7f7f7f"/>
</g>
<!-- chair -->

<!-- person#not looking at#chair&#45;&gt;chair -->

<!-- person#not looking at#table&#45;&gt;table -->

<!-- shoe -->

<!-- person#looking at#shoe&#45;&gt;shoe -->

<!-- sofa/couch -->

<!-- person#not looking at#sofa/couch&#45;&gt;sofa/couch -->

<!-- person#holding#shoe&#45;&gt;shoe -->

<!-- person#sitting on#chair&#45;&gt;chair -->

<!-- person#looking at#laptop&#45;&gt;laptop -->
<g class="edge" id="edge23">
<title>person#looking at#laptop-&gt;laptop</title>
<path d="M293.91,-265.65C316.29,-275.58 344.86,-288.25 367.46,-298.28" fill="none" stroke="#7f7f7f"/>
<polygon fill="#7f7f7f" points="372.19,-300.38 366.7071,-300.4075 369.9051,-299.3655 367.6201,-298.351 367.6201,-298.351 367.6201,-298.351 369.9051,-299.3655 368.5332,-296.2946 372.19,-300.38 372.19,-300.38" stroke="#7f7f7f"/>
</g>
<!-- person#sitting on#sofa/couch&#45;&gt;sofa/couch -->

<!-- person#not contacting#table&#45;&gt;table -->

<!-- laptop&#45;&gt;laptop#in front of#person -->
<g class="edge" id="edge26">
<title>laptop-&gt;laptop#in front of#person</title>
<path d="M372.18,-318.86C357.81,-320.5 340.82,-322.43 325.62,-324.17" fill="none" stroke="#7f7f7f"/>
<polygon fill="#7f7f7f" points="320.54,-324.75 325.2525,-321.9473 323.0239,-324.4664 325.5077,-324.1827 325.5077,-324.1827 325.5077,-324.1827 323.0239,-324.4664 325.763,-326.4182 320.54,-324.75 320.54,-324.75" stroke="#7f7f7f"/>
</g>
<!-- chair#beneath#person -->

<!-- chair&#45;&gt;chair#beneath#person -->

<!-- shoe#in front of#person -->

<!-- shoe&#45;&gt;shoe#in front of#person -->

<!-- sofa/couch#behind#person -->

<!-- sofa/couch&#45;&gt;sofa/couch#behind#person -->

<!-- chair#beneath#person&#45;&gt;person -->

<!-- shoe#in front of#person&#45;&gt;person -->

<!-- sofa/couch#behind#person&#45;&gt;person -->

</g>
</svg>