<?xml version="1.0" ?><!DOCTYPE svg  PUBLIC '-//W3C//DTD SVG 1.1//EN'  'http://www.w3.org/Graphics/SVG/1.1/DTD/svg11.dtd'><!-- Generated by graphviz version 2.40.1 (20161225.0304)
 --><!-- Pages: 1 --><svg height="451pt" viewBox="0.00 0.00 621.97 450.70" width="622pt" xmlns="http://www.w3.org/2000/svg" xmlns:xlink="http://www.w3.org/1999/xlink">
<g class="graph" id="graph0" transform="scale(1 1) rotate(0) translate(4 446.7)">
<polygon fill="#ffffff" points="-4,4 -4,-446.7 617.97,-446.7 617.97,4 -4,4" stroke="transparent"/>
<!-- shoe#in front of#person -->

<!-- person -->
<g class="node" id="node2">
<title>person</title>
<path d="M326.44,-245.74C326.44,-245.74 280.44,-245.74 280.44,-245.74 274.44,-245.74 268.44,-239.74 268.44,-233.74 268.44,-233.74 268.44,-221.74 268.44,-221.74 268.44,-215.74 274.44,-209.74 280.44,-209.74 280.44,-209.74 326.44,-209.74 326.44,-209.74 332.44,-209.74 338.44,-215.74 338.44,-221.74 338.44,-221.74 338.44,-233.74 338.44,-233.74 338.44,-239.74 332.44,-245.74 326.44,-245.74" fill="#ffb0b9" stroke="#000000"/>
<text fill="#000000" font-family="Times,serif" font-size="20.00" text-anchor="middle" x="303.44" y="-222.74">person</text>
</g>
<!-- shoe#in front of#person&#45;&gt;person -->

<!-- person#sitting on#sofa/couch -->

<!-- person&#45;&gt;person#sitting on#sofa/couch -->

<!-- person#not looking at#sofa/couch -->

<!-- person&#45;&gt;person#not looking at#sofa/couch -->

<!-- person#looking at#shoe -->

<!-- person&#45;&gt;person#looking at#shoe -->

<!-- person#looking at#laptop -->
<g class="node" id="node6">
<title>person#looking at#laptop</title>
<path d="M165.79,-139.85C165.79,-139.85 116.79,-139.85 116.79,-139.85 110.79,-139.85 104.79,-133.85 104.79,-127.85 104.79,-127.85 104.79,-115.85 104.79,-115.85 104.79,-109.85 110.79,-103.85 116.79,-103.85 116.79,-103.85 165.79,-103.85 165.79,-103.85 171.79,-103.85 177.79,-109.85 177.79,-115.85 177.79,-115.85 177.79,-127.85 177.79,-127.85 177.79,-133.85 171.79,-139.85 165.79,-139.85" fill="#c3e2b3" stroke="#000000"/>
<text fill="#000000" font-family="Times,serif" font-size="14.00" text-anchor="middle" x="141.29" y="-118.15">looking at</text>
</g>
<!-- person&#45;&gt;person#looking at#laptop -->
<g class="edge" id="edge5">
<title>person-&gt;person#looking at#laptop</title>
<path d="M275.57,-209.54C247.17,-191 203.19,-162.28 173.36,-142.8" fill="none" stroke="#7f7f7f"/>
<polygon fill="#7f7f7f" points="169.07,-140 174.4869,-140.8487 171.1635,-141.3664 173.2571,-142.7329 173.2571,-142.7329 173.2571,-142.7329 171.1635,-141.3664 172.0273,-144.6171 169.07,-140 169.07,-140" stroke="#7f7f7f"/>
</g>
<!-- person#touching#table -->

<!-- person&#45;&gt;person#touching#table -->

<!-- person#holding#shoe -->

<!-- person&#45;&gt;person#holding#shoe -->

<!-- person#not looking at#table -->

<!-- person&#45;&gt;person#not looking at#table -->

<!-- person#not contacting#table -->

<!-- person&#45;&gt;person#not contacting#table -->

<!-- person#sitting on#chair -->

<!-- person&#45;&gt;person#sitting on#chair -->

<!-- person#not looking at#chair -->

<!-- person&#45;&gt;person#not looking at#chair -->

<!-- person#touching#laptop -->
<g class="node" id="node13">
<title>person#touching#laptop</title>
<path d="M280.78,-140.38C280.78,-140.38 239.78,-140.38 239.78,-140.38 233.78,-140.38 227.78,-134.38 227.78,-128.38 227.78,-128.38 227.78,-116.38 227.78,-116.38 227.78,-110.38 233.78,-104.38 239.78,-104.38 239.78,-104.38 280.78,-104.38 280.78,-104.38 286.78,-104.38 292.78,-110.38 292.78,-116.38 292.78,-116.38 292.78,-128.38 292.78,-128.38 292.78,-134.38 286.78,-140.38 280.78,-140.38" fill="#c3e2b3" stroke="#000000"/>
<text fill="#000000" font-family="Times,serif" font-size="14.00" text-anchor="middle" x="260.28" y="-118.68">touching</text>
</g>
<!-- person&#45;&gt;person#touching#laptop -->
<g class="edge" id="edge12">
<title>person-&gt;person#touching#laptop</title>
<path d="M295.93,-209.39C288.62,-191.56 277.52,-164.44 269.64,-145.23" fill="none" stroke="#7f7f7f"/>
<polygon fill="#7f7f7f" points="267.72,-140.52 271.691,-144.3007 268.6637,-142.835 269.6075,-145.1501 269.6075,-145.1501 269.6075,-145.1501 268.6637,-142.835 267.5239,-145.9995 267.72,-140.52 267.72,-140.52" stroke="#7f7f7f"/>
</g>
<!-- sofa/couch -->

<!-- person#sitting on#sofa/couch&#45;&gt;sofa/couch -->

<!-- person#not looking at#sofa/couch&#45;&gt;sofa/couch -->

<!-- shoe -->

<!-- person#looking at#shoe&#45;&gt;shoe -->

<!-- laptop -->
<g class="node" id="node16">
<title>laptop</title>
<path d="M68.465,-56.354C68.465,-56.354 26.465,-56.354 26.465,-56.354 20.465,-56.354 14.465,-50.354 14.465,-44.354 14.465,-44.354 14.465,-32.354 14.465,-32.354 14.465,-26.354 20.465,-20.354 26.465,-20.354 26.465,-20.354 68.465,-20.354 68.465,-20.354 74.465,-20.354 80.465,-26.354 80.465,-32.354 80.465,-32.354 80.465,-44.354 80.465,-44.354 80.465,-50.354 74.465,-56.354 68.465,-56.354" fill="#ffb0b9" stroke="#000000"/>
<text fill="#000000" font-family="Times,serif" font-size="20.00" text-anchor="middle" x="47.465" y="-33.354">laptop</text>
</g>
<!-- person#looking at#laptop&#45;&gt;laptop -->
<g class="edge" id="edge16">
<title>person#looking at#laptop-&gt;laptop</title>
<path d="M120.93,-103.74C106.42,-90.824 86.862,-73.417 71.573,-59.81" fill="none" stroke="#7f7f7f"/>
<polygon fill="#7f7f7f" points="67.783,-56.437 73.0139,-58.0803 69.6505,-58.0991 71.5181,-59.7611 71.5181,-59.7611 71.5181,-59.7611 69.6505,-58.0991 70.0222,-61.4419 67.783,-56.437 67.783,-56.437" stroke="#7f7f7f"/>
</g>
<!-- table -->

<!-- person#touching#table&#45;&gt;table -->

<!-- person#holding#shoe&#45;&gt;shoe -->

<!-- person#not looking at#table&#45;&gt;table -->

<!-- person#not contacting#table&#45;&gt;table -->

<!-- chair -->

<!-- person#sitting on#chair&#45;&gt;chair -->

<!-- person#not looking at#chair&#45;&gt;chair -->

<!-- person#touching#laptop&#45;&gt;laptop -->
<g class="edge" id="edge23">
<title>person#touching#laptop-&gt;laptop</title>
<path d="M227.5,-109.43C189.18,-94.306 125.88,-69.313 85.453,-53.353" fill="none" stroke="#7f7f7f"/>
<polygon fill="#7f7f7f" points="80.64,-51.452 86.117,-51.1962 82.9652,-52.3704 85.2904,-53.2888 85.2904,-53.2888 85.2904,-53.2888 82.9652,-52.3704 84.4638,-55.3815 80.64,-51.452 80.64,-51.452" stroke="#7f7f7f"/>
</g>
<!-- sofa/couch#behind#person -->

<!-- sofa/couch&#45;&gt;sofa/couch#behind#person -->

<!-- shoe&#45;&gt;shoe#in front of#person -->

<!-- laptop#in front of#person -->
<g class="node" id="node21">
<title>laptop#in front of#person</title>
<path d="M242.36,-36C242.36,-36 193.36,-36 193.36,-36 187.36,-36 181.36,-30 181.36,-24 181.36,-24 181.36,-12 181.36,-12 181.36,-6 187.36,0 193.36,0 193.36,0 242.36,0 242.36,0 248.36,0 254.36,-6 254.36,-12 254.36,-12 254.36,-24 254.36,-24 254.36,-30 248.36,-36 242.36,-36" fill="#c3e2b3" stroke="#000000"/>
<text fill="#000000" font-family="Times,serif" font-size="14.00" text-anchor="middle" x="217.86" y="-14.3">in front of</text>
</g>
<!-- laptop&#45;&gt;laptop#in front of#person -->
<g class="edge" id="edge29">
<title>laptop-&gt;laptop#in front of#person</title>
<path d="M80.724,-34.382C108.01,-31.122 146.78,-26.491 176.15,-22.983" fill="none" stroke="#7f7f7f"/>
<polygon fill="#7f7f7f" points="181.14,-22.386 176.4427,-25.2141 178.6577,-22.683 176.1754,-22.98 176.1754,-22.98 176.1754,-22.98 178.6577,-22.683 175.9081,-20.746 181.14,-22.386 181.14,-22.386" stroke="#7f7f7f"/>
</g>
<!-- table#in front of#person -->

<!-- table&#45;&gt;table#in front of#person -->

<!-- chair#beneath#person -->

<!-- chair&#45;&gt;chair#beneath#person -->

<!-- chair#beneath#person&#45;&gt;person -->

<!-- sofa/couch#behind#person&#45;&gt;person -->

<!-- laptop#in front of#person&#45;&gt;person -->
<g class="edge" id="edge27">
<title>laptop#in front of#person-&gt;person</title>
<path d="M225.31,-36.246C240.9,-74.459 276.96,-162.83 294.09,-204.8" fill="none" stroke="#7f7f7f"/>
<polygon fill="#7f7f7f" points="296.08,-209.69 292.1112,-205.9069 295.1376,-207.3744 294.1953,-205.0588 294.1953,-205.0588 294.1953,-205.0588 295.1376,-207.3744 296.2793,-204.2107 296.08,-209.69 296.08,-209.69" stroke="#7f7f7f"/>
</g>
<!-- table#in front of#person&#45;&gt;person -->

</g>
</svg>