<?xml version="1.0" ?><!DOCTYPE svg  PUBLIC '-//W3C//DTD SVG 1.1//EN'  'http://www.w3.org/Graphics/SVG/1.1/DTD/svg11.dtd'><!-- Generated by graphviz version 2.40.1 (20161225.0304)
 --><!-- Pages: 1 --><svg height="451pt" viewBox="0.00 0.00 621.97 450.70" width="622pt" xmlns="http://www.w3.org/2000/svg" xmlns:xlink="http://www.w3.org/1999/xlink">
<g class="graph" id="graph0" transform="scale(1 1) rotate(0) translate(4 446.7)">
<polygon fill="#ffffff" points="-4,4 -4,-446.7 617.97,-446.7 617.97,4 -4,4" stroke="transparent"/>
<!-- shoe#in front of#person -->

<!-- person -->
<g class="node" id="node2">
<title>person</title>
<path d="M326.44,-245.74C326.44,-245.74 280.44,-245.74 280.44,-245.74 274.44,-245.74 268.44,-239.74 268.44,-233.74 268.44,-233.74 268.44,-221.74 268.44,-221.74 268.44,-215.74 274.44,-209.74 280.44,-209.74 280.44,-209.74 326.44,-209.74 326.44,-209.74 332.44,-209.74 338.44,-215.74 338.44,-221.74 338.44,-221.74 338.44,-233.74 338.44,-233.74 338.44,-239.74 332.44,-245.74 326.44,-245.74" fill="#ffb0b9" stroke="#000000"/>
<text fill="#000000" font-family="Times,serif" font-size="20.00" text-anchor="middle" x="303.44" y="-222.74">person</text>
</g>
<!-- shoe#in front of#person&#45;&gt;person -->

<!-- person#sitting on#sofa/couch -->

<!-- person&#45;&gt;person#sitting on#sofa/couch -->

<!-- person#not looking at#sofa/couch -->

<!-- person&#45;&gt;person#not looking at#sofa/couch -->

<!-- person#looking at#shoe -->

<!-- person&#45;&gt;person#looking at#shoe -->

<!-- person#looking at#laptop -->
<g class="node" id="node6">
<title>person#looking at#laptop</title>
<path d="M165.79,-139.85C165.79,-139.85 116.79,-139.85 116.79,-139.85 110.79,-139.85 104.79,-133.85 104.79,-127.85 104.79,-127.85 104.79,-115.85 104.79,-115.85 104.79,-109.85 110.79,-103.85 116.79,-103.85 116.79,-103.85 165.79,-103.85 165.79,-103.85 171.79,-103.85 177.79,-109.85 177.79,-115.85 177.79,-115.85 177.79,-127.85 177.79,-127.85 177.79,-133.85 171.79,-139.85 165.79,-139.85" fill="#c3e2b3" stroke="#000000"/>
<text fill="#000000" font-family="Times,serif" font-size="14.00" text-anchor="middle" x="141.29" y="-118.15">looking at</text>
</g>
<!-- person&#45;&gt;person#looking at#laptop -->
<g class="edge" id="edge5">
<title>person-&gt;person#looking at#laptop</title>
<path d="M275.57,-209.54C247.17,-191 203.19,-162.28 173.36,-142.8" fill="none" stroke="#7f7f7f"/>
<polygon fill="#7f7f7f" points="169.07,-140 174.4869,-140.8487 171.1635,-141.3664 173.2571,-142.7329 173.2571,-142.7329 173.2571,-142.7329 171.1635,-141.3664 172.0273,-144.6171 169.07,-140 169.07,-140" stroke="#7f7f7f"/>
</g>
<!-- person#touching#table -->

<!-- person&#45;&gt;person#touching#table -->

<!-- person#holding#shoe -->

<!-- person&#45;&gt;person#holding#shoe -->

<!-- person#not looking at#table -->

<!-- person&#45;&gt;person#not looking at#table -->

<!-- person#not contacting#table -->

<!-- person&#45;&gt;person#not contacting#table -->

<!-- person#sitting on#chair -->
<g class="node" id="node11">
<title>person#sitting on#chair</title>
<path d="M140.43,-310.98C140.43,-310.98 95.43,-310.98 95.43,-310.98 89.43,-310.98 83.43,-304.98 83.43,-298.98 83.43,-298.98 83.43,-286.98 83.43,-286.98 83.43,-280.98 89.43,-274.98 95.43,-274.98 95.43,-274.98 140.43,-274.98 140.43,-274.98 146.43,-274.98 152.43,-280.98 152.43,-286.98 152.43,-286.98 152.43,-298.98 152.43,-298.98 152.43,-304.98 146.43,-310.98 140.43,-310.98" fill="#c3e2b3" stroke="#000000"/>
<text fill="#000000" font-family="Times,serif" font-size="14.00" text-anchor="middle" x="117.93" y="-289.28">sitting on</text>
</g>
<!-- person&#45;&gt;person#sitting on#chair -->
<g class="edge" id="edge10">
<title>person-&gt;person#sitting on#chair</title>
<path d="M268.11,-240.16C236.45,-251.3 190.07,-267.61 157.24,-279.15" fill="none" stroke="#7f7f7f"/>
<polygon fill="#7f7f7f" points="152.5,-280.82 156.4682,-277.0363 154.8579,-279.9892 157.2159,-279.1584 157.2159,-279.1584 157.2159,-279.1584 154.8579,-279.9892 157.9636,-281.2806 152.5,-280.82 152.5,-280.82" stroke="#7f7f7f"/>
</g>
<!-- person#not looking at#chair -->
<g class="node" id="node12">
<title>person#not looking at#chair</title>
<path d="M225.14,-230.85C225.14,-230.85 155.14,-230.85 155.14,-230.85 149.14,-230.85 143.14,-224.85 143.14,-218.85 143.14,-218.85 143.14,-206.85 143.14,-206.85 143.14,-200.85 149.14,-194.85 155.14,-194.85 155.14,-194.85 225.14,-194.85 225.14,-194.85 231.14,-194.85 237.14,-200.85 237.14,-206.85 237.14,-206.85 237.14,-218.85 237.14,-218.85 237.14,-224.85 231.14,-230.85 225.14,-230.85" fill="#c3e2b3" stroke="#000000"/>
<text fill="#000000" font-family="Times,serif" font-size="14.00" text-anchor="middle" x="190.14" y="-209.15">not looking at</text>
</g>
<!-- person&#45;&gt;person#not looking at#chair -->
<g class="edge" id="edge11">
<title>person-&gt;person#not looking at#chair</title>
<path d="M268.22,-223.11C260.15,-222.05 251.4,-220.9 242.77,-219.77" fill="none" stroke="#7f7f7f"/>
<polygon fill="#7f7f7f" points="237.43,-219.06 242.683,-217.4887 239.9082,-219.3895 242.3864,-219.7191 242.3864,-219.7191 242.3864,-219.7191 239.9082,-219.3895 242.0898,-221.9494 237.43,-219.06 237.43,-219.06" stroke="#7f7f7f"/>
</g>
<!-- person#touching#laptop -->
<g class="node" id="node13">
<title>person#touching#laptop</title>
<path d="M280.78,-140.38C280.78,-140.38 239.78,-140.38 239.78,-140.38 233.78,-140.38 227.78,-134.38 227.78,-128.38 227.78,-128.38 227.78,-116.38 227.78,-116.38 227.78,-110.38 233.78,-104.38 239.78,-104.38 239.78,-104.38 280.78,-104.38 280.78,-104.38 286.78,-104.38 292.78,-110.38 292.78,-116.38 292.78,-116.38 292.78,-128.38 292.78,-128.38 292.78,-134.38 286.78,-140.38 280.78,-140.38" fill="#c3e2b3" stroke="#000000"/>
<text fill="#000000" font-family="Times,serif" font-size="14.00" text-anchor="middle" x="260.28" y="-118.68">touching</text>
</g>
<!-- person&#45;&gt;person#touching#laptop -->
<g class="edge" id="edge12">
<title>person-&gt;person#touching#laptop</title>
<path d="M295.93,-209.39C288.62,-191.56 277.52,-164.44 269.64,-145.23" fill="none" stroke="#7f7f7f"/>
<polygon fill="#7f7f7f" points="267.72,-140.52 271.691,-144.3007 268.6637,-142.835 269.6075,-145.1501 269.6075,-145.1501 269.6075,-145.1501 268.6637,-142.835 267.5239,-145.9995 267.72,-140.52 267.72,-140.52" stroke="#7f7f7f"/>
</g>
<!-- sofa/couch -->

<!-- person#sitting on#sofa/couch&#45;&gt;sofa/couch -->

<!-- person#not looking at#sofa/couch&#45;&gt;sofa/couch -->

<!-- shoe -->

<!-- person#looking at#shoe&#45;&gt;shoe -->

<!-- laptop -->
<g class="node" id="node16">
<title>laptop</title>
<path d="M68.465,-56.354C68.465,-56.354 26.465,-56.354 26.465,-56.354 20.465,-56.354 14.465,-50.354 14.465,-44.354 14.465,-44.354 14.465,-32.354 14.465,-32.354 14.465,-26.354 20.465,-20.354 26.465,-20.354 26.465,-20.354 68.465,-20.354 68.465,-20.354 74.465,-20.354 80.465,-26.354 80.465,-32.354 80.465,-32.354 80.465,-44.354 80.465,-44.354 80.465,-50.354 74.465,-56.354 68.465,-56.354" fill="#ffb0b9" stroke="#000000"/>
<text fill="#000000" font-family="Times,serif" font-size="20.00" text-anchor="middle" x="47.465" y="-33.354">laptop</text>
</g>
<!-- person#looking at#laptop&#45;&gt;laptop -->
<g class="edge" id="edge16">
<title>person#looking at#laptop-&gt;laptop</title>
<path d="M120.93,-103.74C106.42,-90.824 86.862,-73.417 71.573,-59.81" fill="none" stroke="#7f7f7f"/>
<polygon fill="#7f7f7f" points="67.783,-56.437 73.0139,-58.0803 69.6505,-58.0991 71.5181,-59.7611 71.5181,-59.7611 71.5181,-59.7611 69.6505,-58.0991 70.0222,-61.4419 67.783,-56.437 67.783,-56.437" stroke="#7f7f7f"/>
</g>
<!-- table -->

<!-- person#touching#table&#45;&gt;table -->

<!-- person#holding#shoe&#45;&gt;shoe -->

<!-- person#not looking at#table&#45;&gt;table -->

<!-- person#not contacting#table&#45;&gt;table -->

<!-- chair -->
<g class="node" id="node18">
<title>chair</title>
<path d="M45.572,-408.98C45.572,-408.98 13.572,-408.98 13.572,-408.98 7.572,-408.98 1.572,-402.98 1.572,-396.98 1.572,-396.98 1.572,-384.98 1.572,-384.98 1.572,-378.98 7.572,-372.98 13.572,-372.98 13.572,-372.98 45.572,-372.98 45.572,-372.98 51.572,-372.98 57.572,-378.98 57.572,-384.98 57.572,-384.98 57.572,-396.98 57.572,-396.98 57.572,-402.98 51.572,-408.98 45.572,-408.98" fill="#ffb0b9" stroke="#000000"/>
<text fill="#000000" font-family="Times,serif" font-size="20.00" text-anchor="middle" x="29.572" y="-385.98">chair</text>
</g>
<!-- person#sitting on#chair&#45;&gt;chair -->
<g class="edge" id="edge21">
<title>person#sitting on#chair-&gt;chair</title>
<path d="M101.31,-311.41C86.528,-327.8 64.899,-351.79 49.258,-369.14" fill="none" stroke="#7f7f7f"/>
<polygon fill="#7f7f7f" points="45.817,-372.96 47.4917,-367.739 47.4902,-371.1025 49.1635,-369.245 49.1635,-369.245 49.1635,-369.245 47.4902,-371.1025 50.8352,-370.7509 45.817,-372.96 45.817,-372.96" stroke="#7f7f7f"/>
</g>
<!-- person#not looking at#chair&#45;&gt;chair -->
<g class="edge" id="edge22">
<title>person#not looking at#chair-&gt;chair</title>
<path d="M173.86,-230.91C144.17,-263.85 81.327,-333.56 49.273,-369.12" fill="none" stroke="#7f7f7f"/>
<polygon fill="#7f7f7f" points="45.895,-372.87 47.5697,-367.6491 47.5682,-371.0125 49.2415,-369.155 49.2415,-369.155 49.2415,-369.155 47.5682,-371.0125 50.9133,-370.6609 45.895,-372.87 45.895,-372.87" stroke="#7f7f7f"/>
</g>
<!-- person#touching#laptop&#45;&gt;laptop -->
<g class="edge" id="edge23">
<title>person#touching#laptop-&gt;laptop</title>
<path d="M227.5,-109.43C189.18,-94.306 125.88,-69.313 85.453,-53.353" fill="none" stroke="#7f7f7f"/>
<polygon fill="#7f7f7f" points="80.64,-51.452 86.117,-51.1962 82.9652,-52.3704 85.2904,-53.2888 85.2904,-53.2888 85.2904,-53.2888 82.9652,-52.3704 84.4638,-55.3815 80.64,-51.452 80.64,-51.452" stroke="#7f7f7f"/>
</g>
<!-- sofa/couch#behind#person -->

<!-- sofa/couch&#45;&gt;sofa/couch#behind#person -->

<!-- shoe&#45;&gt;shoe#in front of#person -->

<!-- laptop#in front of#person -->
<g class="node" id="node21">
<title>laptop#in front of#person</title>
<path d="M242.36,-36C242.36,-36 193.36,-36 193.36,-36 187.36,-36 181.36,-30 181.36,-24 181.36,-24 181.36,-12 181.36,-12 181.36,-6 187.36,0 193.36,0 193.36,0 242.36,0 242.36,0 248.36,0 254.36,-6 254.36,-12 254.36,-12 254.36,-24 254.36,-24 254.36,-30 248.36,-36 242.36,-36" fill="#c3e2b3" stroke="#000000"/>
<text fill="#000000" font-family="Times,serif" font-size="14.00" text-anchor="middle" x="217.86" y="-14.3">in front of</text>
</g>
<!-- laptop&#45;&gt;laptop#in front of#person -->
<g class="edge" id="edge29">
<title>laptop-&gt;laptop#in front of#person</title>
<path d="M80.724,-34.382C108.01,-31.122 146.78,-26.491 176.15,-22.983" fill="none" stroke="#7f7f7f"/>
<polygon fill="#7f7f7f" points="181.14,-22.386 176.4427,-25.2141 178.6577,-22.683 176.1754,-22.98 176.1754,-22.98 176.1754,-22.98 178.6577,-22.683 175.9081,-20.746 181.14,-22.386 181.14,-22.386" stroke="#7f7f7f"/>
</g>
<!-- table#in front of#person -->

<!-- table&#45;&gt;table#in front of#person -->

<!-- chair#beneath#person -->
<g class="node" id="node19">
<title>chair#beneath#person</title>
<path d="M48,-222.73C48,-222.73 12,-222.73 12,-222.73 6,-222.73 0,-216.73 0,-210.73 0,-210.73 0,-198.73 0,-198.73 0,-192.73 6,-186.73 12,-186.73 12,-186.73 48,-186.73 48,-186.73 54,-186.73 60,-192.73 60,-198.73 60,-198.73 60,-210.73 60,-210.73 60,-216.73 54,-222.73 48,-222.73" fill="#c3e2b3" stroke="#000000"/>
<text fill="#000000" font-family="Times,serif" font-size="14.00" text-anchor="middle" x="30" y="-201.03">beneath</text>
</g>
<!-- chair&#45;&gt;chair#beneath#person -->
<g class="edge" id="edge32">
<title>chair-&gt;chair#beneath#person</title>
<path d="M29.613,-372.78C29.692,-338.84 29.859,-265.93 29.946,-228.29" fill="none" stroke="#7f7f7f"/>
<polygon fill="#7f7f7f" points="29.958,-223 32.1966,-228.0051 29.9523,-225.5 29.9466,-228 29.9466,-228 29.9466,-228 29.9523,-225.5 27.6966,-227.9948 29.958,-223 29.958,-223" stroke="#7f7f7f"/>
</g>
<!-- chair#beneath#person&#45;&gt;person -->
<g class="edge" id="edge24">
<title>chair#beneath#person-&gt;person</title>
<path d="M60.045,-207.26C109.37,-211.41 207.56,-219.67 262.96,-224.33" fill="none" stroke="#7f7f7f"/>
<polygon fill="#7f7f7f" points="268.19,-224.77 263.0189,-226.5928 265.6988,-224.5604 263.2076,-224.3507 263.2076,-224.3507 263.2076,-224.3507 265.6988,-224.5604 263.3963,-222.1087 268.19,-224.77 268.19,-224.77" stroke="#7f7f7f"/>
</g>
<!-- sofa/couch#behind#person&#45;&gt;person -->

<!-- laptop#in front of#person&#45;&gt;person -->
<g class="edge" id="edge27">
<title>laptop#in front of#person-&gt;person</title>
<path d="M225.31,-36.246C240.9,-74.459 276.96,-162.83 294.09,-204.8" fill="none" stroke="#7f7f7f"/>
<polygon fill="#7f7f7f" points="296.08,-209.69 292.1112,-205.9069 295.1376,-207.3744 294.1953,-205.0588 294.1953,-205.0588 294.1953,-205.0588 295.1376,-207.3744 296.2793,-204.2107 296.08,-209.69 296.08,-209.69" stroke="#7f7f7f"/>
</g>
<!-- table#in front of#person&#45;&gt;person -->

</g>
</svg>