<?xml version="1.0" encoding="UTF-8" standalone="no"?>
<!DOCTYPE svg PUBLIC "-//W3C//DTD SVG 1.1//EN"
 "http://www.w3.org/Graphics/SVG/1.1/DTD/svg11.dtd">
<!-- Generated by graphviz version 2.40.1 (20161225.0304)
 -->
<!-- Pages: 1 -->
<svg width="737pt" height="523pt"
 viewBox="0.00 0.00 736.98 522.69" xmlns="http://www.w3.org/2000/svg" xmlns:xlink="http://www.w3.org/1999/xlink">
<g id="graph0" class="graph" transform="scale(1 1) rotate(0) translate(4 518.69)">
<polygon fill="#ffffff" stroke="transparent" points="-4,4 -4,-518.69 732.98,-518.69 732.98,4 -4,4"/>
<!-- person#sitting on#bed -->
<g id="node1" class="node">
<title>person#sitting on#bed</title>
<path fill="#c3e2b3" stroke="#000000" d="M191.4,-280.17C191.4,-280.17 146.4,-280.17 146.4,-280.17 140.4,-280.17 134.4,-274.17 134.4,-268.17 134.4,-268.17 134.4,-256.17 134.4,-256.17 134.4,-250.17 140.4,-244.17 146.4,-244.17 146.4,-244.17 191.4,-244.17 191.4,-244.17 197.4,-244.17 203.4,-250.17 203.4,-256.17 203.4,-256.17 203.4,-268.17 203.4,-268.17 203.4,-274.17 197.4,-280.17 191.4,-280.17"/>
<text text-anchor="middle" x="168.9" y="-258.47" font-family="Times,serif" font-size="14.00" fill="#000000">sitting on</text>
</g>
<!-- bed -->
<g id="node2" class="node">
<title>bed</title>
<path fill="#ffb0b9" stroke="#000000" d="M63.995,-213.64C63.995,-213.64 33.995,-213.64 33.995,-213.64 27.995,-213.64 21.995,-207.64 21.995,-201.64 21.995,-201.64 21.995,-189.64 21.995,-189.64 21.995,-183.64 27.995,-177.64 33.995,-177.64 33.995,-177.64 63.995,-177.64 63.995,-177.64 69.995,-177.64 75.995,-183.64 75.995,-189.64 75.995,-189.64 75.995,-201.64 75.995,-201.64 75.995,-207.64 69.995,-213.64 63.995,-213.64"/>
<text text-anchor="middle" x="48.995" y="-190.64" font-family="Times,serif" font-size="20.00" fill="#000000">bed</text>
</g>
<!-- person#sitting on#bed&#45;&gt;bed -->
<g id="edge1" class="edge">
<title>person#sitting on#bed&#45;&gt;bed</title>
<path fill="none" stroke="#7f7f7f" d="M136.45,-244.16C119.21,-234.6 98.089,-222.88 80.924,-213.35"/>
<polygon fill="#7f7f7f" stroke="#7f7f7f" points="76.194,-210.73 81.6581,-211.1845 78.3809,-211.9414 80.5678,-213.1528 80.5678,-213.1528 80.5678,-213.1528 78.3809,-211.9414 79.4776,-215.121 76.194,-210.73 76.194,-210.73"/>
</g>
<!-- bed#beneath#person -->
<g id="node3" class="node">
<title>bed#beneath#person</title>
<path fill="#c3e2b3" stroke="#000000" d="M69.361,-67.569C69.361,-67.569 33.361,-67.569 33.361,-67.569 27.361,-67.569 21.361,-61.569 21.361,-55.569 21.361,-55.569 21.361,-43.569 21.361,-43.569 21.361,-37.569 27.361,-31.569 33.361,-31.569 33.361,-31.569 69.361,-31.569 69.361,-31.569 75.361,-31.569 81.361,-37.569 81.361,-43.569 81.361,-43.569 81.361,-55.569 81.361,-55.569 81.361,-61.569 75.361,-67.569 69.361,-67.569"/>
<text text-anchor="middle" x="51.361" y="-45.869" font-family="Times,serif" font-size="14.00" fill="#000000">beneath</text>
</g>
<!-- bed&#45;&gt;bed#beneath#person -->
<g id="edge2" class="edge">
<title>bed&#45;&gt;bed#beneath#person</title>
<path fill="none" stroke="#7f7f7f" d="M49.289,-177.43C49.716,-151.08 50.507,-102.29 50.978,-73.196"/>
<polygon fill="#7f7f7f" stroke="#7f7f7f" points="51.062,-68.003 53.2307,-73.0388 51.0215,-70.5027 50.981,-73.0023 50.981,-73.0023 50.981,-73.0023 51.0215,-70.5027 48.7313,-72.9659 51.062,-68.003 51.062,-68.003"/>
</g>
<!-- bed#on the side of#person -->
<g id="node4" class="node">
<title>bed#on the side of#person</title>
<path fill="#c3e2b3" stroke="#000000" d="M80,-349.36C80,-349.36 12,-349.36 12,-349.36 6,-349.36 0,-343.36 0,-337.36 0,-337.36 0,-325.36 0,-325.36 0,-319.36 6,-313.36 12,-313.36 12,-313.36 80,-313.36 80,-313.36 86,-313.36 92,-319.36 92,-325.36 92,-325.36 92,-337.36 92,-337.36 92,-343.36 86,-349.36 80,-349.36"/>
<text text-anchor="middle" x="46" y="-327.66" font-family="Times,serif" font-size="14.00" fill="#000000">on the side of</text>
</g>
<!-- bed&#45;&gt;bed#on the side of#person -->
<g id="edge3" class="edge">
<title>bed&#45;&gt;bed#on the side of#person</title>
<path fill="none" stroke="#7f7f7f" d="M48.597,-213.66C48.06,-238 47.102,-281.39 46.512,-308.15"/>
<polygon fill="#7f7f7f" stroke="#7f7f7f" points="46.399,-313.27 44.26,-308.2215 46.4542,-310.7706 46.5094,-308.2712 46.5094,-308.2712 46.5094,-308.2712 46.4542,-310.7706 48.7589,-308.3209 46.399,-313.27 46.399,-313.27"/>
</g>
<!-- person -->
<g id="node5" class="node">
<title>person</title>
<path fill="#ffb0b9" stroke="#000000" d="M376.01,-325.87C376.01,-325.87 330.01,-325.87 330.01,-325.87 324.01,-325.87 318.01,-319.87 318.01,-313.87 318.01,-313.87 318.01,-301.87 318.01,-301.87 318.01,-295.87 324.01,-289.87 330.01,-289.87 330.01,-289.87 376.01,-289.87 376.01,-289.87 382.01,-289.87 388.01,-295.87 388.01,-301.87 388.01,-301.87 388.01,-313.87 388.01,-313.87 388.01,-319.87 382.01,-325.87 376.01,-325.87"/>
<text text-anchor="middle" x="353.01" y="-302.87" font-family="Times,serif" font-size="20.00" fill="#000000">person</text>
</g>
<!-- bed#beneath#person&#45;&gt;person -->
<g id="edge4" class="edge">
<title>bed#beneath#person&#45;&gt;person</title>
<path fill="none" stroke="#7f7f7f" d="M72.572,-67.732C126.66,-114.05 269.55,-236.41 327.78,-286.26"/>
<polygon fill="#7f7f7f" stroke="#7f7f7f" points="331.82,-289.73 326.561,-288.179 329.9235,-288.1011 328.027,-286.4721 328.027,-286.4721 328.027,-286.4721 329.9235,-288.1011 329.493,-284.7653 331.82,-289.73 331.82,-289.73"/>
</g>
<!-- bed#on the side of#person&#45;&gt;person -->
<g id="edge5" class="edge">
<title>bed#on the side of#person&#45;&gt;person</title>
<path fill="none" stroke="#7f7f7f" d="M92.295,-327.82C152.3,-323.23 255.95,-315.3 312.81,-310.95"/>
<polygon fill="#7f7f7f" stroke="#7f7f7f" points="317.82,-310.56 313.0097,-313.1914 315.3275,-310.7541 312.8351,-310.9481 312.8351,-310.9481 312.8351,-310.9481 315.3275,-310.7541 312.6604,-308.7049 317.82,-310.56 317.82,-310.56"/>
</g>
<!-- person&#45;&gt;person#sitting on#bed -->
<g id="edge7" class="edge">
<title>person&#45;&gt;person#sitting on#bed</title>
<path fill="none" stroke="#7f7f7f" d="M317.95,-299.17C286.75,-291.42 241.16,-280.1 208.63,-272.03"/>
<polygon fill="#7f7f7f" stroke="#7f7f7f" points="203.52,-270.76 208.9151,-269.7825 205.9462,-271.363 208.3724,-271.966 208.3724,-271.966 208.3724,-271.966 205.9462,-271.363 207.8297,-274.1496 203.52,-270.76 203.52,-270.76"/>
</g>
<!-- person#touching#shoe -->
<g id="node7" class="node">
<title>person#touching#shoe</title>
<path fill="#c3e2b3" stroke="#000000" d="M306.01,-63.681C306.01,-63.681 265.01,-63.681 265.01,-63.681 259.01,-63.681 253.01,-57.681 253.01,-51.681 253.01,-51.681 253.01,-39.681 253.01,-39.681 253.01,-33.681 259.01,-27.681 265.01,-27.681 265.01,-27.681 306.01,-27.681 306.01,-27.681 312.01,-27.681 318.01,-33.681 318.01,-39.681 318.01,-39.681 318.01,-51.681 318.01,-51.681 318.01,-57.681 312.01,-63.681 306.01,-63.681"/>
<text text-anchor="middle" x="285.51" y="-41.981" font-family="Times,serif" font-size="14.00" fill="#000000">touching</text>
</g>
<!-- person&#45;&gt;person#touching#shoe -->
<g id="edge8" class="edge">
<title>person&#45;&gt;person#touching#shoe</title>
<path fill="none" stroke="#7f7f7f" d="M348.37,-289.85C336.45,-243.54 304.75,-120.42 291.48,-68.879"/>
<polygon fill="#7f7f7f" stroke="#7f7f7f" points="290.18,-63.828 293.6053,-68.1093 290.8032,-66.2491 291.4263,-68.6702 291.4263,-68.6702 291.4263,-68.6702 290.8032,-66.2491 289.2473,-69.231 290.18,-63.828 290.18,-63.828"/>
</g>
<!-- person#not looking at#clothes -->
<g id="node8" class="node">
<title>person#not looking at#clothes</title>
<path fill="#c3e2b3" stroke="#000000" d="M211.47,-396.22C211.47,-396.22 141.47,-396.22 141.47,-396.22 135.47,-396.22 129.47,-390.22 129.47,-384.22 129.47,-384.22 129.47,-372.22 129.47,-372.22 129.47,-366.22 135.47,-360.22 141.47,-360.22 141.47,-360.22 211.47,-360.22 211.47,-360.22 217.47,-360.22 223.47,-366.22 223.47,-372.22 223.47,-372.22 223.47,-384.22 223.47,-384.22 223.47,-390.22 217.47,-396.22 211.47,-396.22"/>
<text text-anchor="middle" x="176.47" y="-374.52" font-family="Times,serif" font-size="14.00" fill="#000000">not looking at</text>
</g>
<!-- person&#45;&gt;person#not looking at#clothes -->
<g id="edge9" class="edge">
<title>person&#45;&gt;person#not looking at#clothes</title>
<path fill="none" stroke="#7f7f7f" d="M317.71,-321.94C291.65,-332.32 255.81,-346.6 226.75,-358.18"/>
<polygon fill="#7f7f7f" stroke="#7f7f7f" points="221.78,-360.16 225.5922,-356.2192 224.1025,-359.2347 226.425,-358.3094 226.425,-358.3094 226.425,-358.3094 224.1025,-359.2347 227.2577,-360.3997 221.78,-360.16 221.78,-360.16"/>
</g>
<!-- person#not contacting#laptop -->
<g id="node9" class="node">
<title>person#not contacting#laptop</title>
<path fill="#c3e2b3" stroke="#000000" d="M716.98,-353.85C716.98,-353.85 644.98,-353.85 644.98,-353.85 638.98,-353.85 632.98,-347.85 632.98,-341.85 632.98,-341.85 632.98,-329.85 632.98,-329.85 632.98,-323.85 638.98,-317.85 644.98,-317.85 644.98,-317.85 716.98,-317.85 716.98,-317.85 722.98,-317.85 728.98,-323.85 728.98,-329.85 728.98,-329.85 728.98,-341.85 728.98,-341.85 728.98,-347.85 722.98,-353.85 716.98,-353.85"/>
<text text-anchor="middle" x="680.98" y="-332.15" font-family="Times,serif" font-size="14.00" fill="#000000">not contacting</text>
</g>
<!-- person&#45;&gt;person#not contacting#laptop -->
<g id="edge10" class="edge">
<title>person&#45;&gt;person#not contacting#laptop</title>
<path fill="none" stroke="#7f7f7f" d="M388.11,-310.86C445.61,-315.77 560.21,-325.55 627.75,-331.31"/>
<polygon fill="#7f7f7f" stroke="#7f7f7f" points="632.93,-331.75 627.7575,-333.5687 630.439,-331.5384 627.9479,-331.3267 627.9479,-331.3267 627.9479,-331.3267 630.439,-331.5384 628.1384,-329.0848 632.93,-331.75 632.93,-331.75"/>
</g>
<!-- person#holding#food -->
<g id="node10" class="node">
<title>person#holding#food</title>
<path fill="#c3e2b3" stroke="#000000" d="M573.88,-282.98C573.88,-282.98 538.88,-282.98 538.88,-282.98 532.88,-282.98 526.88,-276.98 526.88,-270.98 526.88,-270.98 526.88,-258.98 526.88,-258.98 526.88,-252.98 532.88,-246.98 538.88,-246.98 538.88,-246.98 573.88,-246.98 573.88,-246.98 579.88,-246.98 585.88,-252.98 585.88,-258.98 585.88,-258.98 585.88,-270.98 585.88,-270.98 585.88,-276.98 579.88,-282.98 573.88,-282.98"/>
<text text-anchor="middle" x="556.38" y="-261.28" font-family="Times,serif" font-size="14.00" fill="#000000">holding</text>
</g>
<!-- person&#45;&gt;person#holding#food -->
<g id="edge11" class="edge">
<title>person&#45;&gt;person#holding#food</title>
<path fill="none" stroke="#7f7f7f" d="M388.44,-300.4C425.75,-292.53 484.15,-280.21 521.32,-272.37"/>
<polygon fill="#7f7f7f" stroke="#7f7f7f" points="526.65,-271.25 522.2196,-274.4802 524.2034,-271.7641 521.7569,-272.2783 521.7569,-272.2783 521.7569,-272.2783 524.2034,-271.7641 521.2941,-270.0764 526.65,-271.25 526.65,-271.25"/>
</g>
<!-- person#looking at#shoe -->
<g id="node11" class="node">
<title>person#looking at#shoe</title>
<path fill="#c3e2b3" stroke="#000000" d="M317.89,-173.74C317.89,-173.74 268.89,-173.74 268.89,-173.74 262.89,-173.74 256.89,-167.74 256.89,-161.74 256.89,-161.74 256.89,-149.74 256.89,-149.74 256.89,-143.74 262.89,-137.74 268.89,-137.74 268.89,-137.74 317.89,-137.74 317.89,-137.74 323.89,-137.74 329.89,-143.74 329.89,-149.74 329.89,-149.74 329.89,-161.74 329.89,-161.74 329.89,-167.74 323.89,-173.74 317.89,-173.74"/>
<text text-anchor="middle" x="293.39" y="-152.04" font-family="Times,serif" font-size="14.00" fill="#000000">looking at</text>
</g>
<!-- person&#45;&gt;person#looking at#shoe -->
<g id="edge12" class="edge">
<title>person&#45;&gt;person#looking at#shoe</title>
<path fill="none" stroke="#7f7f7f" d="M345.94,-289.82C335.05,-262.03 314.18,-208.8 302.29,-178.44"/>
<polygon fill="#7f7f7f" stroke="#7f7f7f" points="300.46,-173.77 304.3792,-177.6044 301.3722,-176.0977 302.2843,-178.4253 302.2843,-178.4253 302.2843,-178.4253 301.3722,-176.0977 300.1894,-179.2463 300.46,-173.77 300.46,-173.77"/>
</g>
<!-- person#looking at#laptop -->
<g id="node12" class="node">
<title>person#looking at#laptop</title>
<path fill="#c3e2b3" stroke="#000000" d="M565.29,-509.5C565.29,-509.5 516.29,-509.5 516.29,-509.5 510.29,-509.5 504.29,-503.5 504.29,-497.5 504.29,-497.5 504.29,-485.5 504.29,-485.5 504.29,-479.5 510.29,-473.5 516.29,-473.5 516.29,-473.5 565.29,-473.5 565.29,-473.5 571.29,-473.5 577.29,-479.5 577.29,-485.5 577.29,-485.5 577.29,-497.5 577.29,-497.5 577.29,-503.5 571.29,-509.5 565.29,-509.5"/>
<text text-anchor="middle" x="540.79" y="-487.8" font-family="Times,serif" font-size="14.00" fill="#000000">looking at</text>
</g>
<!-- person&#45;&gt;person#looking at#laptop -->
<g id="edge13" class="edge">
<title>person&#45;&gt;person#looking at#laptop</title>
<path fill="none" stroke="#7f7f7f" d="M371.7,-326.15C406.43,-360.11 480.77,-432.81 518.23,-469.44"/>
<polygon fill="#7f7f7f" stroke="#7f7f7f" points="522.18,-473.3 517.0314,-471.4146 520.392,-471.5527 518.6039,-469.8054 518.6039,-469.8054 518.6039,-469.8054 520.392,-471.5527 520.1765,-468.1962 522.18,-473.3 522.18,-473.3"/>
</g>
<!-- person#not looking at#bed -->
<g id="node13" class="node">
<title>person#not looking at#bed</title>
<path fill="#c3e2b3" stroke="#000000" d="M312.18,-254.22C312.18,-254.22 242.18,-254.22 242.18,-254.22 236.18,-254.22 230.18,-248.22 230.18,-242.22 230.18,-242.22 230.18,-230.22 230.18,-230.22 230.18,-224.22 236.18,-218.22 242.18,-218.22 242.18,-218.22 312.18,-218.22 312.18,-218.22 318.18,-218.22 324.18,-224.22 324.18,-230.22 324.18,-230.22 324.18,-242.22 324.18,-242.22 324.18,-248.22 318.18,-254.22 312.18,-254.22"/>
<text text-anchor="middle" x="277.18" y="-232.52" font-family="Times,serif" font-size="14.00" fill="#000000">not looking at</text>
</g>
<!-- person&#45;&gt;person#not looking at#bed -->
<g id="edge14" class="edge">
<title>person&#45;&gt;person#not looking at#bed</title>
<path fill="none" stroke="#7f7f7f" d="M333.88,-289.79C323.64,-280.11 310.96,-268.13 300.19,-257.95"/>
<polygon fill="#7f7f7f" stroke="#7f7f7f" points="296.31,-254.29 301.4911,-256.0842 298.1286,-256.0055 299.9472,-257.7209 299.9472,-257.7209 299.9472,-257.7209 298.1286,-256.0055 298.4032,-259.3577 296.31,-254.29 296.31,-254.29"/>
</g>
<!-- person#looking at#clothes -->
<g id="node14" class="node">
<title>person#looking at#clothes</title>
<path fill="#c3e2b3" stroke="#000000" d="M81.968,-498.21C81.968,-498.21 32.968,-498.21 32.968,-498.21 26.968,-498.21 20.968,-492.21 20.968,-486.21 20.968,-486.21 20.968,-474.21 20.968,-474.21 20.968,-468.21 26.968,-462.21 32.968,-462.21 32.968,-462.21 81.968,-462.21 81.968,-462.21 87.968,-462.21 93.968,-468.21 93.968,-474.21 93.968,-474.21 93.968,-486.21 93.968,-486.21 93.968,-492.21 87.968,-498.21 81.968,-498.21"/>
<text text-anchor="middle" x="57.468" y="-476.51" font-family="Times,serif" font-size="14.00" fill="#000000">looking at</text>
</g>
<!-- person&#45;&gt;person#looking at#clothes -->
<g id="edge15" class="edge">
<title>person&#45;&gt;person#looking at#clothes</title>
<path fill="none" stroke="#7f7f7f" d="M321.94,-325.99C266.62,-358.25 151.39,-425.44 93.01,-459.48"/>
<polygon fill="#7f7f7f" stroke="#7f7f7f" points="88.565,-462.08 91.7449,-457.6133 90.723,-460.8177 92.8809,-459.5555 92.8809,-459.5555 92.8809,-459.5555 90.723,-460.8177 94.017,-461.4976 88.565,-462.08 88.565,-462.08"/>
</g>
<!-- person#not contacting#shoe -->
<g id="node15" class="node">
<title>person#not contacting#shoe</title>
<path fill="#c3e2b3" stroke="#000000" d="M410.77,-244.35C410.77,-244.35 338.77,-244.35 338.77,-244.35 332.77,-244.35 326.77,-238.35 326.77,-232.35 326.77,-232.35 326.77,-220.35 326.77,-220.35 326.77,-214.35 332.77,-208.35 338.77,-208.35 338.77,-208.35 410.77,-208.35 410.77,-208.35 416.77,-208.35 422.77,-214.35 422.77,-220.35 422.77,-220.35 422.77,-232.35 422.77,-232.35 422.77,-238.35 416.77,-244.35 410.77,-244.35"/>
<text text-anchor="middle" x="374.77" y="-222.65" font-family="Times,serif" font-size="14.00" fill="#000000">not contacting</text>
</g>
<!-- person&#45;&gt;person#not contacting#shoe -->
<g id="edge16" class="edge">
<title>person&#45;&gt;person#not contacting#shoe</title>
<path fill="none" stroke="#7f7f7f" d="M357.84,-289.78C361.02,-277.85 365.22,-262.13 368.64,-249.32"/>
<polygon fill="#7f7f7f" stroke="#7f7f7f" points="369.96,-244.39 370.8402,-249.8018 369.3134,-246.8049 368.6667,-249.2199 368.6667,-249.2199 368.6667,-249.2199 369.3134,-246.8049 366.4933,-248.6379 369.96,-244.39 369.96,-244.39"/>
</g>
<!-- person#looking at#food -->
<g id="node16" class="node">
<title>person#looking at#food</title>
<path fill="#c3e2b3" stroke="#000000" d="M712.63,-221.74C712.63,-221.74 663.63,-221.74 663.63,-221.74 657.63,-221.74 651.63,-215.74 651.63,-209.74 651.63,-209.74 651.63,-197.74 651.63,-197.74 651.63,-191.74 657.63,-185.74 663.63,-185.74 663.63,-185.74 712.63,-185.74 712.63,-185.74 718.63,-185.74 724.63,-191.74 724.63,-197.74 724.63,-197.74 724.63,-209.74 724.63,-209.74 724.63,-215.74 718.63,-221.74 712.63,-221.74"/>
<text text-anchor="middle" x="688.13" y="-200.04" font-family="Times,serif" font-size="14.00" fill="#000000">looking at</text>
</g>
<!-- person&#45;&gt;person#looking at#food -->
<g id="edge17" class="edge">
<title>person&#45;&gt;person#looking at#food</title>
<path fill="none" stroke="#7f7f7f" d="M388.24,-296.92C450.56,-277.56 579.93,-237.36 646.52,-216.67"/>
<polygon fill="#7f7f7f" stroke="#7f7f7f" points="651.6,-215.09 647.4939,-218.7235 649.2128,-215.8325 646.8256,-216.575 646.8256,-216.575 646.8256,-216.575 649.2128,-215.8325 646.1573,-214.4265 651.6,-215.09 651.6,-215.09"/>
</g>
<!-- person#lying on#bed -->
<g id="node17" class="node">
<title>person#lying on#bed</title>
<path fill="#c3e2b3" stroke="#000000" d="M205.9,-172.39C205.9,-172.39 166.9,-172.39 166.9,-172.39 160.9,-172.39 154.9,-166.39 154.9,-160.39 154.9,-160.39 154.9,-148.39 154.9,-148.39 154.9,-142.39 160.9,-136.39 166.9,-136.39 166.9,-136.39 205.9,-136.39 205.9,-136.39 211.9,-136.39 217.9,-142.39 217.9,-148.39 217.9,-148.39 217.9,-160.39 217.9,-160.39 217.9,-166.39 211.9,-172.39 205.9,-172.39"/>
<text text-anchor="middle" x="186.4" y="-150.69" font-family="Times,serif" font-size="14.00" fill="#000000">lying on</text>
</g>
<!-- person&#45;&gt;person#lying on#bed -->
<g id="edge18" class="edge">
<title>person&#45;&gt;person#lying on#bed</title>
<path fill="none" stroke="#7f7f7f" d="M333.24,-289.66C302.43,-261.28 243.06,-206.59 210.03,-176.16"/>
<polygon fill="#7f7f7f" stroke="#7f7f7f" points="206.14,-172.57 211.3404,-174.3076 207.9772,-174.2655 209.8144,-175.961 209.8144,-175.961 209.8144,-175.961 207.9772,-174.2655 208.2884,-177.6145 206.14,-172.57 206.14,-172.57"/>
</g>
<!-- person#not looking at#shoe -->
<g id="node18" class="node">
<title>person#not looking at#shoe</title>
<path fill="#c3e2b3" stroke="#000000" d="M583.24,-44.927C583.24,-44.927 513.24,-44.927 513.24,-44.927 507.24,-44.927 501.24,-38.927 501.24,-32.927 501.24,-32.927 501.24,-20.927 501.24,-20.927 501.24,-14.927 507.24,-8.927 513.24,-8.927 513.24,-8.927 583.24,-8.927 583.24,-8.927 589.24,-8.927 595.24,-14.927 595.24,-20.927 595.24,-20.927 595.24,-32.927 595.24,-32.927 595.24,-38.927 589.24,-44.927 583.24,-44.927"/>
<text text-anchor="middle" x="548.24" y="-23.227" font-family="Times,serif" font-size="14.00" fill="#000000">not looking at</text>
</g>
<!-- person&#45;&gt;person#not looking at#shoe -->
<g id="edge19" class="edge">
<title>person&#45;&gt;person#not looking at#shoe</title>
<path fill="none" stroke="#7f7f7f" d="M365.52,-289.87C399.74,-240.63 494.83,-103.79 532.54,-49.519"/>
<polygon fill="#7f7f7f" stroke="#7f7f7f" points="535.58,-45.142 534.5757,-50.5322 534.1539,-47.1953 532.7277,-49.2487 532.7277,-49.2487 532.7277,-49.2487 534.1539,-47.1953 530.8797,-47.9652 535.58,-45.142 535.58,-45.142"/>
</g>
<!-- person#holding#clothes -->
<g id="node19" class="node">
<title>person#holding#clothes</title>
<path fill="#c3e2b3" stroke="#000000" d="M274.72,-333.89C274.72,-333.89 239.72,-333.89 239.72,-333.89 233.72,-333.89 227.72,-327.89 227.72,-321.89 227.72,-321.89 227.72,-309.89 227.72,-309.89 227.72,-303.89 233.72,-297.89 239.72,-297.89 239.72,-297.89 274.72,-297.89 274.72,-297.89 280.72,-297.89 286.72,-303.89 286.72,-309.89 286.72,-309.89 286.72,-321.89 286.72,-321.89 286.72,-327.89 280.72,-333.89 274.72,-333.89"/>
<text text-anchor="middle" x="257.22" y="-312.19" font-family="Times,serif" font-size="14.00" fill="#000000">holding</text>
</g>
<!-- person&#45;&gt;person#holding#clothes -->
<g id="edge20" class="edge">
<title>person&#45;&gt;person#holding#clothes</title>
<path fill="none" stroke="#7f7f7f" d="M317.89,-310.81C309.48,-311.51 300.52,-312.27 292.12,-312.97"/>
<polygon fill="#7f7f7f" stroke="#7f7f7f" points="286.98,-313.4 291.775,-310.7409 289.4713,-313.1915 291.9626,-312.9831 291.9626,-312.9831 291.9626,-312.9831 289.4713,-313.1915 292.1502,-315.2252 286.98,-313.4 286.98,-313.4"/>
</g>
<!-- person#lying on#shoe -->
<g id="node20" class="node">
<title>person#lying on#shoe</title>
<path fill="#c3e2b3" stroke="#000000" d="M477.73,-82.08C477.73,-82.08 438.73,-82.08 438.73,-82.08 432.73,-82.08 426.73,-76.08 426.73,-70.08 426.73,-70.08 426.73,-58.08 426.73,-58.08 426.73,-52.08 432.73,-46.08 438.73,-46.08 438.73,-46.08 477.73,-46.08 477.73,-46.08 483.73,-46.08 489.73,-52.08 489.73,-58.08 489.73,-58.08 489.73,-70.08 489.73,-70.08 489.73,-76.08 483.73,-82.08 477.73,-82.08"/>
<text text-anchor="middle" x="458.23" y="-60.38" font-family="Times,serif" font-size="14.00" fill="#000000">lying on</text>
</g>
<!-- person&#45;&gt;person#lying on#shoe -->
<g id="edge21" class="edge">
<title>person&#45;&gt;person#lying on#shoe</title>
<path fill="none" stroke="#7f7f7f" d="M360.92,-289.55C379.82,-245.76 427.57,-135.13 448.33,-87.014"/>
<polygon fill="#7f7f7f" stroke="#7f7f7f" points="450.37,-82.284 450.4558,-87.7663 449.3799,-84.5796 448.3898,-86.8752 448.3898,-86.8752 448.3898,-86.8752 449.3799,-84.5796 446.3238,-85.9841 450.37,-82.284 450.37,-82.284"/>
</g>
<!-- person#lying on#clothes -->
<g id="node21" class="node">
<title>person#lying on#clothes</title>
<path fill="#c3e2b3" stroke="#000000" d="M450.96,-509.89C450.96,-509.89 411.96,-509.89 411.96,-509.89 405.96,-509.89 399.96,-503.89 399.96,-497.89 399.96,-497.89 399.96,-485.89 399.96,-485.89 399.96,-479.89 405.96,-473.89 411.96,-473.89 411.96,-473.89 450.96,-473.89 450.96,-473.89 456.96,-473.89 462.96,-479.89 462.96,-485.89 462.96,-485.89 462.96,-497.89 462.96,-497.89 462.96,-503.89 456.96,-509.89 450.96,-509.89"/>
<text text-anchor="middle" x="431.46" y="-488.19" font-family="Times,serif" font-size="14.00" fill="#000000">lying on</text>
</g>
<!-- person&#45;&gt;person#lying on#clothes -->
<g id="edge22" class="edge">
<title>person&#45;&gt;person#lying on#clothes</title>
<path fill="none" stroke="#7f7f7f" d="M360.82,-326.19C375.21,-359.94 405.89,-431.89 421.65,-468.88"/>
<polygon fill="#7f7f7f" stroke="#7f7f7f" points="423.69,-473.64 419.6523,-469.9306 422.7052,-471.3421 421.7203,-469.0443 421.7203,-469.0443 421.7203,-469.0443 422.7052,-471.3421 423.7884,-468.1579 423.69,-473.64 423.69,-473.64"/>
</g>
<!-- person#wearing#clothes -->
<g id="node22" class="node">
<title>person#wearing#clothes</title>
<path fill="#c3e2b3" stroke="#000000" d="M346.11,-514.69C346.11,-514.69 308.11,-514.69 308.11,-514.69 302.11,-514.69 296.11,-508.69 296.11,-502.69 296.11,-502.69 296.11,-490.69 296.11,-490.69 296.11,-484.69 302.11,-478.69 308.11,-478.69 308.11,-478.69 346.11,-478.69 346.11,-478.69 352.11,-478.69 358.11,-484.69 358.11,-490.69 358.11,-490.69 358.11,-502.69 358.11,-502.69 358.11,-508.69 352.11,-514.69 346.11,-514.69"/>
<text text-anchor="middle" x="327.11" y="-492.99" font-family="Times,serif" font-size="14.00" fill="#000000">wearing</text>
</g>
<!-- person&#45;&gt;person#wearing#clothes -->
<g id="edge23" class="edge">
<title>person&#45;&gt;person#wearing#clothes</title>
<path fill="none" stroke="#7f7f7f" d="M350.53,-325.97C345.81,-360.37 335.55,-435.14 330.32,-473.29"/>
<polygon fill="#7f7f7f" stroke="#7f7f7f" points="329.58,-478.64 328.0364,-473.3788 329.9226,-476.1636 330.2651,-473.6872 330.2651,-473.6872 330.2651,-473.6872 329.9226,-476.1636 332.4939,-473.9955 329.58,-478.64 329.58,-478.64"/>
</g>
<!-- person#touching#laptop -->
<g id="node23" class="node">
<title>person#touching#laptop</title>
<path fill="#c3e2b3" stroke="#000000" d="M472.46,-307.66C472.46,-307.66 431.46,-307.66 431.46,-307.66 425.46,-307.66 419.46,-301.66 419.46,-295.66 419.46,-295.66 419.46,-283.66 419.46,-283.66 419.46,-277.66 425.46,-271.66 431.46,-271.66 431.46,-271.66 472.46,-271.66 472.46,-271.66 478.46,-271.66 484.46,-277.66 484.46,-283.66 484.46,-283.66 484.46,-295.66 484.46,-295.66 484.46,-301.66 478.46,-307.66 472.46,-307.66"/>
<text text-anchor="middle" x="451.96" y="-285.96" font-family="Times,serif" font-size="14.00" fill="#000000">touching</text>
</g>
<!-- person&#45;&gt;person#touching#laptop -->
<g id="edge24" class="edge">
<title>person&#45;&gt;person#touching#laptop</title>
<path fill="none" stroke="#7f7f7f" d="M388.18,-301.4C396.55,-299.86 405.52,-298.21 414.01,-296.64"/>
<polygon fill="#7f7f7f" stroke="#7f7f7f" points="419.23,-295.68 414.7195,-298.7973 416.7712,-296.1322 414.3125,-296.5845 414.3125,-296.5845 414.3125,-296.5845 416.7712,-296.1322 413.9055,-294.3716 419.23,-295.68 419.23,-295.68"/>
</g>
<!-- person#wearing#shoe -->
<g id="node24" class="node">
<title>person#wearing#shoe</title>
<path fill="#c3e2b3" stroke="#000000" d="M482.86,-206.35C482.86,-206.35 444.86,-206.35 444.86,-206.35 438.86,-206.35 432.86,-200.35 432.86,-194.35 432.86,-194.35 432.86,-182.35 432.86,-182.35 432.86,-176.35 438.86,-170.35 444.86,-170.35 444.86,-170.35 482.86,-170.35 482.86,-170.35 488.86,-170.35 494.86,-176.35 494.86,-182.35 494.86,-182.35 494.86,-194.35 494.86,-194.35 494.86,-200.35 488.86,-206.35 482.86,-206.35"/>
<text text-anchor="middle" x="463.86" y="-184.65" font-family="Times,serif" font-size="14.00" fill="#000000">wearing</text>
</g>
<!-- person&#45;&gt;person#wearing#shoe -->
<g id="edge25" class="edge">
<title>person&#45;&gt;person#wearing#shoe</title>
<path fill="none" stroke="#7f7f7f" d="M369.85,-289.72C389.54,-268.48 422.14,-233.33 443.31,-210.51"/>
<polygon fill="#7f7f7f" stroke="#7f7f7f" points="446.86,-206.67 445.118,-211.8689 445.1629,-208.5057 443.4658,-210.3415 443.4658,-210.3415 443.4658,-210.3415 445.1629,-208.5057 441.8136,-208.8141 446.86,-206.67 446.86,-206.67"/>
</g>
<!-- shoe#in front of#person -->
<g id="node6" class="node">
<title>shoe#in front of#person</title>
<path fill="#c3e2b3" stroke="#000000" d="M210.87,-48.921C210.87,-48.921 161.87,-48.921 161.87,-48.921 155.87,-48.921 149.87,-42.921 149.87,-36.921 149.87,-36.921 149.87,-24.921 149.87,-24.921 149.87,-18.921 155.87,-12.921 161.87,-12.921 161.87,-12.921 210.87,-12.921 210.87,-12.921 216.87,-12.921 222.87,-18.921 222.87,-24.921 222.87,-24.921 222.87,-36.921 222.87,-36.921 222.87,-42.921 216.87,-48.921 210.87,-48.921"/>
<text text-anchor="middle" x="186.37" y="-27.221" font-family="Times,serif" font-size="14.00" fill="#000000">in front of</text>
</g>
<!-- shoe#in front of#person&#45;&gt;person -->
<g id="edge6" class="edge">
<title>shoe#in front of#person&#45;&gt;person</title>
<path fill="none" stroke="#7f7f7f" d="M197.3,-49.093C226.67,-97.902 307.22,-231.78 339.44,-285.31"/>
<polygon fill="#7f7f7f" stroke="#7f7f7f" points="342.04,-289.63 337.5339,-286.5063 340.7508,-287.488 339.4616,-285.346 339.4616,-285.346 339.4616,-285.346 340.7508,-287.488 341.3894,-284.1858 342.04,-289.63 342.04,-289.63"/>
</g>
<!-- shoe -->
<g id="node25" class="node">
<title>shoe</title>
<path fill="#ffb0b9" stroke="#000000" d="M392.45,-36C392.45,-36 362.45,-36 362.45,-36 356.45,-36 350.45,-30 350.45,-24 350.45,-24 350.45,-12 350.45,-12 350.45,-6 356.45,0 362.45,0 362.45,0 392.45,0 392.45,0 398.45,0 404.45,-6 404.45,-12 404.45,-12 404.45,-24 404.45,-24 404.45,-30 398.45,-36 392.45,-36"/>
<text text-anchor="middle" x="377.45" y="-13" font-family="Times,serif" font-size="20.00" fill="#000000">shoe</text>
</g>
<!-- person#touching#shoe&#45;&gt;shoe -->
<g id="edge26" class="edge">
<title>person#touching#shoe&#45;&gt;shoe</title>
<path fill="none" stroke="#7f7f7f" d="M318.18,-35.844C327.06,-33.169 336.67,-30.276 345.52,-27.614"/>
<polygon fill="#7f7f7f" stroke="#7f7f7f" points="350.34,-26.161 346.2022,-29.7584 347.9464,-26.8826 345.5528,-27.6042 345.5528,-27.6042 345.5528,-27.6042 347.9464,-26.8826 344.9033,-25.4499 350.34,-26.161 350.34,-26.161"/>
</g>
<!-- clothes -->
<g id="node26" class="node">
<title>clothes</title>
<path fill="#ffb0b9" stroke="#000000" d="M233.38,-512.43C233.38,-512.43 184.38,-512.43 184.38,-512.43 178.38,-512.43 172.38,-506.43 172.38,-500.43 172.38,-500.43 172.38,-488.43 172.38,-488.43 172.38,-482.43 178.38,-476.43 184.38,-476.43 184.38,-476.43 233.38,-476.43 233.38,-476.43 239.38,-476.43 245.38,-482.43 245.38,-488.43 245.38,-488.43 245.38,-500.43 245.38,-500.43 245.38,-506.43 239.38,-512.43 233.38,-512.43"/>
<text text-anchor="middle" x="208.88" y="-489.43" font-family="Times,serif" font-size="20.00" fill="#000000">clothes</text>
</g>
<!-- person#not looking at#clothes&#45;&gt;clothes -->
<g id="edge27" class="edge">
<title>person#not looking at#clothes&#45;&gt;clothes</title>
<path fill="none" stroke="#7f7f7f" d="M181.54,-396.37C187.17,-416.59 196.3,-449.3 202.44,-471.32"/>
<polygon fill="#7f7f7f" stroke="#7f7f7f" points="203.86,-476.4 200.347,-472.1903 203.1869,-473.9923 202.5139,-471.5846 202.5139,-471.5846 202.5139,-471.5846 203.1869,-473.9923 204.6808,-470.9788 203.86,-476.4 203.86,-476.4"/>
</g>
<!-- laptop -->
<g id="node27" class="node">
<title>laptop</title>
<path fill="#ffb0b9" stroke="#000000" d="M701.8,-496.01C701.8,-496.01 659.8,-496.01 659.8,-496.01 653.8,-496.01 647.8,-490.01 647.8,-484.01 647.8,-484.01 647.8,-472.01 647.8,-472.01 647.8,-466.01 653.8,-460.01 659.8,-460.01 659.8,-460.01 701.8,-460.01 701.8,-460.01 707.8,-460.01 713.8,-466.01 713.8,-472.01 713.8,-472.01 713.8,-484.01 713.8,-484.01 713.8,-490.01 707.8,-496.01 701.8,-496.01"/>
<text text-anchor="middle" x="680.8" y="-473.01" font-family="Times,serif" font-size="20.00" fill="#000000">laptop</text>
</g>
<!-- person#not contacting#laptop&#45;&gt;laptop -->
<g id="edge28" class="edge">
<title>person#not contacting#laptop&#45;&gt;laptop</title>
<path fill="none" stroke="#7f7f7f" d="M680.96,-353.86C680.92,-379.46 680.86,-426.41 680.83,-454.66"/>
<polygon fill="#7f7f7f" stroke="#7f7f7f" points="680.82,-459.71 678.58,-454.7055 680.825,-457.21 680.83,-454.71 680.83,-454.71 680.83,-454.71 680.825,-457.21 683.08,-454.7145 680.82,-459.71 680.82,-459.71"/>
</g>
<!-- food -->
<g id="node28" class="node">
<title>food</title>
<path fill="#ffb0b9" stroke="#000000" d="M700.52,-69.694C700.52,-69.694 670.52,-69.694 670.52,-69.694 664.52,-69.694 658.52,-63.694 658.52,-57.694 658.52,-57.694 658.52,-45.694 658.52,-45.694 658.52,-39.694 664.52,-33.694 670.52,-33.694 670.52,-33.694 700.52,-33.694 700.52,-33.694 706.52,-33.694 712.52,-39.694 712.52,-45.694 712.52,-45.694 712.52,-57.694 712.52,-57.694 712.52,-63.694 706.52,-69.694 700.52,-69.694"/>
<text text-anchor="middle" x="685.52" y="-46.694" font-family="Times,serif" font-size="20.00" fill="#000000">food</text>
</g>
<!-- person#holding#food&#45;&gt;food -->
<g id="edge29" class="edge">
<title>person#holding#food&#45;&gt;food</title>
<path fill="none" stroke="#7f7f7f" d="M567.39,-246.8C590.93,-207.92 646.1,-116.8 671.84,-74.282"/>
<polygon fill="#7f7f7f" stroke="#7f7f7f" points="674.54,-69.833 673.8694,-75.2748 673.2429,-71.9702 671.9459,-74.1075 671.9459,-74.1075 671.9459,-74.1075 673.2429,-71.9702 670.0224,-72.9401 674.54,-69.833 674.54,-69.833"/>
</g>
<!-- person#looking at#shoe&#45;&gt;shoe -->
<g id="edge30" class="edge">
<title>person#looking at#shoe&#45;&gt;shoe</title>
<path fill="none" stroke="#7f7f7f" d="M304.38,-137.74C319.61,-112.78 347.12,-67.696 363.69,-40.538"/>
<polygon fill="#7f7f7f" stroke="#7f7f7f" points="366.46,-36.012 365.769,-41.4513 365.1549,-38.1443 363.8499,-40.2767 363.8499,-40.2767 363.8499,-40.2767 365.1549,-38.1443 361.9308,-39.1021 366.46,-36.012 366.46,-36.012"/>
</g>
<!-- person#looking at#laptop&#45;&gt;laptop -->
<g id="edge31" class="edge">
<title>person#looking at#laptop&#45;&gt;laptop</title>
<path fill="none" stroke="#7f7f7f" d="M577.58,-487.96C597.59,-486.03 622.33,-483.65 642.56,-481.7"/>
<polygon fill="#7f7f7f" stroke="#7f7f7f" points="647.61,-481.21 642.8507,-483.9325 645.1217,-481.4515 642.6334,-481.693 642.6334,-481.693 642.6334,-481.693 645.1217,-481.4515 642.416,-479.4535 647.61,-481.21 647.61,-481.21"/>
</g>
<!-- person#not looking at#bed&#45;&gt;bed -->
<g id="edge32" class="edge">
<title>person#not looking at#bed&#45;&gt;bed</title>
<path fill="none" stroke="#7f7f7f" d="M230.18,-227.86C185.73,-219.95 120.21,-208.3 81.34,-201.39"/>
<polygon fill="#7f7f7f" stroke="#7f7f7f" points="76.27,-200.49 81.5863,-199.1486 78.7315,-200.927 81.193,-201.364 81.193,-201.364 81.193,-201.364 78.7315,-200.927 80.7997,-203.5794 76.27,-200.49 76.27,-200.49"/>
</g>
<!-- person#looking at#clothes&#45;&gt;clothes -->
<g id="edge33" class="edge">
<title>person#looking at#clothes&#45;&gt;clothes</title>
<path fill="none" stroke="#7f7f7f" d="M94.121,-483.65C116.17,-485.72 144.31,-488.36 167.21,-490.51"/>
<polygon fill="#7f7f7f" stroke="#7f7f7f" points="172.31,-490.99 167.1211,-492.7615 169.821,-490.7557 167.332,-490.5214 167.332,-490.5214 167.332,-490.5214 169.821,-490.7557 167.5429,-488.2813 172.31,-490.99 172.31,-490.99"/>
</g>
<!-- person#not contacting#shoe&#45;&gt;shoe -->
<g id="edge34" class="edge">
<title>person#not contacting#shoe&#45;&gt;shoe</title>
<path fill="none" stroke="#7f7f7f" d="M375.01,-208.22C375.49,-170.44 376.61,-83.278 377.15,-41.355"/>
<polygon fill="#7f7f7f" stroke="#7f7f7f" points="377.21,-36.232 379.4012,-41.2581 377.1807,-38.7318 377.1513,-41.2317 377.1513,-41.2317 377.1513,-41.2317 377.1807,-38.7318 374.9015,-41.2053 377.21,-36.232 377.21,-36.232"/>
</g>
<!-- person#looking at#food&#45;&gt;food -->
<g id="edge35" class="edge">
<title>person#looking at#food&#45;&gt;food</title>
<path fill="none" stroke="#7f7f7f" d="M687.82,-185.7C687.35,-158.04 686.44,-105.16 685.91,-74.753"/>
<polygon fill="#7f7f7f" stroke="#7f7f7f" points="685.83,-69.71 688.1591,-74.6736 685.8697,-72.2097 685.9094,-74.7094 685.9094,-74.7094 685.9094,-74.7094 685.8697,-72.2097 683.6597,-74.7451 685.83,-69.71 685.83,-69.71"/>
</g>
<!-- person#lying on#bed&#45;&gt;bed -->
<g id="edge36" class="edge">
<title>person#lying on#bed&#45;&gt;bed</title>
<path fill="none" stroke="#7f7f7f" d="M154.87,-163.85C132.78,-170.48 103.33,-179.32 81.108,-186"/>
<polygon fill="#7f7f7f" stroke="#7f7f7f" points="76.195,-187.47 80.3402,-183.8811 78.5901,-186.7533 80.9852,-186.0367 80.9852,-186.0367 80.9852,-186.0367 78.5901,-186.7533 81.6302,-188.1923 76.195,-187.47 76.195,-187.47"/>
</g>
<!-- person#not looking at#shoe&#45;&gt;shoe -->
<g id="edge37" class="edge">
<title>person#not looking at#shoe&#45;&gt;shoe</title>
<path fill="none" stroke="#7f7f7f" d="M501.12,-24.464C472.05,-22.945 435.53,-21.036 409.73,-19.687"/>
<polygon fill="#7f7f7f" stroke="#7f7f7f" points="404.72,-19.425 409.8307,-17.4393 407.2166,-19.5556 409.7132,-19.6862 409.7132,-19.6862 409.7132,-19.6862 407.2166,-19.5556 409.5956,-21.9331 404.72,-19.425 404.72,-19.425"/>
</g>
<!-- person#holding#clothes&#45;&gt;clothes -->
<g id="edge38" class="edge">
<title>person#holding#clothes&#45;&gt;clothes</title>
<path fill="none" stroke="#7f7f7f" d="M252.32,-333.99C243.49,-366.61 224.92,-435.19 215.17,-471.21"/>
<polygon fill="#7f7f7f" stroke="#7f7f7f" points="213.8,-476.28 212.9323,-470.8661 214.4522,-473.8666 215.1044,-471.4531 215.1044,-471.4531 215.1044,-471.4531 214.4522,-473.8666 217.2765,-472.0401 213.8,-476.28 213.8,-476.28"/>
</g>
<!-- person#lying on#shoe&#45;&gt;shoe -->
<g id="edge39" class="edge">
<title>person#lying on#shoe&#45;&gt;shoe</title>
<path fill="none" stroke="#7f7f7f" d="M426.3,-45.868C420.65,-42.645 414.77,-39.29 409.13,-36.07"/>
<polygon fill="#7f7f7f" stroke="#7f7f7f" points="404.45,-33.404 409.9083,-33.9239 406.6223,-34.6415 408.7945,-35.8789 408.7945,-35.8789 408.7945,-35.8789 406.6223,-34.6415 407.6808,-37.834 404.45,-33.404 404.45,-33.404"/>
</g>
<!-- person#lying on#clothes&#45;&gt;clothes -->
<g id="edge40" class="edge">
<title>person#lying on#clothes&#45;&gt;clothes</title>
<path fill="none" stroke="#7f7f7f" d="M399.57,-492.25C360.42,-492.7 293.89,-493.46 250.68,-493.95"/>
<polygon fill="#7f7f7f" stroke="#7f7f7f" points="245.53,-494.01 250.5034,-491.7018 248.0298,-493.9808 250.5297,-493.9517 250.5297,-493.9517 250.5297,-493.9517 248.0298,-493.9808 250.5559,-496.2015 245.53,-494.01 245.53,-494.01"/>
</g>
<!-- person#wearing#clothes&#45;&gt;clothes -->
<g id="edge41" class="edge">
<title>person#wearing#clothes&#45;&gt;clothes</title>
<path fill="none" stroke="#7f7f7f" d="M296.05,-496.1C282.15,-495.83 265.57,-495.51 250.62,-495.23"/>
<polygon fill="#7f7f7f" stroke="#7f7f7f" points="245.62,-495.13 250.664,-492.9805 248.1195,-495.18 250.619,-495.2301 250.619,-495.2301 250.619,-495.2301 248.1195,-495.18 250.574,-497.4796 245.62,-495.13 245.62,-495.13"/>
</g>
<!-- person#touching#laptop&#45;&gt;laptop -->
<g id="edge42" class="edge">
<title>person#touching#laptop&#45;&gt;laptop</title>
<path fill="none" stroke="#7f7f7f" d="M473.91,-307.72C516.36,-342.67 609.56,-419.38 654.95,-456.73"/>
<polygon fill="#7f7f7f" stroke="#7f7f7f" points="658.92,-460.01 653.6323,-458.5599 656.9927,-458.4177 655.0654,-456.8253 655.0654,-456.8253 655.0654,-456.8253 656.9927,-458.4177 656.4985,-455.0907 658.92,-460.01 658.92,-460.01"/>
</g>
<!-- person#wearing#shoe&#45;&gt;shoe -->
<g id="edge43" class="edge">
<title>person#wearing#shoe&#45;&gt;shoe</title>
<path fill="none" stroke="#7f7f7f" d="M454.61,-170.12C438.76,-138.87 406.43,-75.139 389.08,-40.926"/>
<polygon fill="#7f7f7f" stroke="#7f7f7f" points="386.63,-36.099 390.8994,-39.5392 387.7615,-38.3283 388.893,-40.5576 388.893,-40.5576 388.893,-40.5576 387.7615,-38.3283 386.8867,-41.576 386.63,-36.099 386.63,-36.099"/>
</g>
<!-- shoe&#45;&gt;shoe#in front of#person -->
<g id="edge44" class="edge">
<title>shoe&#45;&gt;shoe#in front of#person</title>
<path fill="none" stroke="#7f7f7f" d="M350.07,-19.851C318.3,-22 265.55,-25.567 228.54,-28.07"/>
<polygon fill="#7f7f7f" stroke="#7f7f7f" points="223.19,-28.431 228.0271,-25.8494 225.6843,-28.2626 228.1787,-28.0943 228.1787,-28.0943 228.1787,-28.0943 225.6843,-28.2626 228.3302,-30.3392 223.19,-28.431 223.19,-28.431"/>
</g>
<!-- shoe#beneath#person -->
<g id="node29" class="node">
<title>shoe#beneath#person</title>
<path fill="#c3e2b3" stroke="#000000" d="M398.91,-152.89C398.91,-152.89 362.91,-152.89 362.91,-152.89 356.91,-152.89 350.91,-146.89 350.91,-140.89 350.91,-140.89 350.91,-128.89 350.91,-128.89 350.91,-122.89 356.91,-116.89 362.91,-116.89 362.91,-116.89 398.91,-116.89 398.91,-116.89 404.91,-116.89 410.91,-122.89 410.91,-128.89 410.91,-128.89 410.91,-140.89 410.91,-140.89 410.91,-146.89 404.91,-152.89 398.91,-152.89"/>
<text text-anchor="middle" x="380.91" y="-131.19" font-family="Times,serif" font-size="14.00" fill="#000000">beneath</text>
</g>
<!-- shoe&#45;&gt;shoe#beneath#person -->
<g id="edge45" class="edge">
<title>shoe&#45;&gt;shoe#beneath#person</title>
<path fill="none" stroke="#7f7f7f" d="M377.98,-36.008C378.58,-56.283 379.56,-89.295 380.22,-111.54"/>
<polygon fill="#7f7f7f" stroke="#7f7f7f" points="380.37,-116.67 377.9747,-111.7379 380.2969,-114.1711 380.2238,-111.6721 380.2238,-111.6721 380.2238,-111.6721 380.2969,-114.1711 382.4728,-111.6063 380.37,-116.67 380.37,-116.67"/>
</g>
<!-- clothes#in front of#person -->
<g id="node30" class="node">
<title>clothes#in front of#person</title>
<path fill="#c3e2b3" stroke="#000000" d="M326.01,-411.35C326.01,-411.35 277.01,-411.35 277.01,-411.35 271.01,-411.35 265.01,-405.35 265.01,-399.35 265.01,-399.35 265.01,-387.35 265.01,-387.35 265.01,-381.35 271.01,-375.35 277.01,-375.35 277.01,-375.35 326.01,-375.35 326.01,-375.35 332.01,-375.35 338.01,-381.35 338.01,-387.35 338.01,-387.35 338.01,-399.35 338.01,-399.35 338.01,-405.35 332.01,-411.35 326.01,-411.35"/>
<text text-anchor="middle" x="301.51" y="-389.65" font-family="Times,serif" font-size="14.00" fill="#000000">in front of</text>
</g>
<!-- clothes&#45;&gt;clothes#in front of#person -->
<g id="edge47" class="edge">
<title>clothes&#45;&gt;clothes#in front of#person</title>
<path fill="none" stroke="#7f7f7f" d="M225.44,-476.36C241.02,-459.36 264.39,-433.86 281.11,-415.61"/>
<polygon fill="#7f7f7f" stroke="#7f7f7f" points="284.78,-411.61 283.0576,-416.8154 283.0898,-413.4521 281.3997,-415.2943 281.3997,-415.2943 281.3997,-415.2943 283.0898,-413.4521 279.7418,-413.7731 284.78,-411.61 284.78,-411.61"/>
</g>
<!-- clothes#in#person -->
<g id="node31" class="node">
<title>clothes#in#person</title>
<path fill="#c3e2b3" stroke="#000000" d="M429.35,-400.42C429.35,-400.42 399.35,-400.42 399.35,-400.42 393.35,-400.42 387.35,-394.42 387.35,-388.42 387.35,-388.42 387.35,-376.42 387.35,-376.42 387.35,-370.42 393.35,-364.42 399.35,-364.42 399.35,-364.42 429.35,-364.42 429.35,-364.42 435.35,-364.42 441.35,-370.42 441.35,-376.42 441.35,-376.42 441.35,-388.42 441.35,-388.42 441.35,-394.42 435.35,-400.42 429.35,-400.42"/>
<text text-anchor="middle" x="414.35" y="-378.72" font-family="Times,serif" font-size="14.00" fill="#000000">in</text>
</g>
<!-- clothes&#45;&gt;clothes#in#person -->
<g id="edge48" class="edge">
<title>clothes&#45;&gt;clothes#in#person</title>
<path fill="none" stroke="#7f7f7f" d="M242.35,-476.18C281.15,-455.04 344.6,-420.45 382.63,-399.71"/>
<polygon fill="#7f7f7f" stroke="#7f7f7f" points="387.14,-397.26 383.8205,-401.6239 384.9432,-398.4534 382.7464,-399.6468 382.7464,-399.6468 382.7464,-399.6468 384.9432,-398.4534 381.6724,-397.6697 387.14,-397.26 387.14,-397.26"/>
</g>
<!-- laptop#in front of#person -->
<g id="node32" class="node">
<title>laptop#in front of#person</title>
<path fill="#c3e2b3" stroke="#000000" d="M558.49,-389.86C558.49,-389.86 509.49,-389.86 509.49,-389.86 503.49,-389.86 497.49,-383.86 497.49,-377.86 497.49,-377.86 497.49,-365.86 497.49,-365.86 497.49,-359.86 503.49,-353.86 509.49,-353.86 509.49,-353.86 558.49,-353.86 558.49,-353.86 564.49,-353.86 570.49,-359.86 570.49,-365.86 570.49,-365.86 570.49,-377.86 570.49,-377.86 570.49,-383.86 564.49,-389.86 558.49,-389.86"/>
<text text-anchor="middle" x="533.99" y="-368.16" font-family="Times,serif" font-size="14.00" fill="#000000">in front of</text>
</g>
<!-- laptop&#45;&gt;laptop#in front of#person -->
<g id="edge51" class="edge">
<title>laptop&#45;&gt;laptop#in front of#person</title>
<path fill="none" stroke="#7f7f7f" d="M655.89,-460C630.27,-441.48 590.37,-412.63 563.26,-393.02"/>
<polygon fill="#7f7f7f" stroke="#7f7f7f" points="559.02,-389.95 564.3895,-391.0599 561.0449,-391.4162 563.0699,-392.8824 563.0699,-392.8824 563.0699,-392.8824 561.0449,-391.4162 561.7503,-394.7048 559.02,-389.95 559.02,-389.95"/>
</g>
<!-- food#in front of#person -->
<g id="node33" class="node">
<title>food#in front of#person</title>
<path fill="#c3e2b3" stroke="#000000" d="M584.17,-170.78C584.17,-170.78 535.17,-170.78 535.17,-170.78 529.17,-170.78 523.17,-164.78 523.17,-158.78 523.17,-158.78 523.17,-146.78 523.17,-146.78 523.17,-140.78 529.17,-134.78 535.17,-134.78 535.17,-134.78 584.17,-134.78 584.17,-134.78 590.17,-134.78 596.17,-140.78 596.17,-146.78 596.17,-146.78 596.17,-158.78 596.17,-158.78 596.17,-164.78 590.17,-170.78 584.17,-170.78"/>
<text text-anchor="middle" x="559.67" y="-149.08" font-family="Times,serif" font-size="14.00" fill="#000000">in front of</text>
</g>
<!-- food&#45;&gt;food#in front of#person -->
<g id="edge53" class="edge">
<title>food&#45;&gt;food#in front of#person</title>
<path fill="none" stroke="#7f7f7f" d="M663.02,-69.767C641.59,-86.981 609.31,-112.91 586.54,-131.2"/>
<polygon fill="#7f7f7f" stroke="#7f7f7f" points="582.4,-134.52 584.893,-129.6366 584.3503,-132.9559 586.3007,-131.3919 586.3007,-131.3919 586.3007,-131.3919 584.3503,-132.9559 587.7083,-133.1472 582.4,-134.52 582.4,-134.52"/>
</g>
<!-- shoe#beneath#person&#45;&gt;person -->
<g id="edge46" class="edge">
<title>shoe#beneath#person&#45;&gt;person</title>
<path fill="none" stroke="#7f7f7f" d="M377.97,-153.07C372.89,-184.61 362.44,-249.41 356.81,-284.33"/>
<polygon fill="#7f7f7f" stroke="#7f7f7f" points="355.95,-289.67 354.5237,-284.3758 356.3475,-287.2018 356.7451,-284.7336 356.7451,-284.7336 356.7451,-284.7336 356.3475,-287.2018 358.9665,-285.0914 355.95,-289.67 355.95,-289.67"/>
</g>
<!-- clothes#in front of#person&#45;&gt;person -->
<g id="edge49" class="edge">
<title>clothes#in front of#person&#45;&gt;person</title>
<path fill="none" stroke="#7f7f7f" d="M312.43,-375.22C320.28,-362.19 330.93,-344.52 339.34,-330.56"/>
<polygon fill="#7f7f7f" stroke="#7f7f7f" points="342.1,-325.97 341.4516,-331.4145 340.8117,-328.1125 339.5234,-330.255 339.5234,-330.255 339.5234,-330.255 340.8117,-328.1125 337.5951,-329.0955 342.1,-325.97 342.1,-325.97"/>
</g>
<!-- clothes#in#person&#45;&gt;person -->
<g id="edge50" class="edge">
<title>clothes#in#person&#45;&gt;person</title>
<path fill="none" stroke="#7f7f7f" d="M399.5,-364.37C390.98,-354.01 380.2,-340.92 371.18,-329.95"/>
<polygon fill="#7f7f7f" stroke="#7f7f7f" points="367.94,-326.01 372.8537,-328.4428 369.5279,-327.941 371.1158,-329.8719 371.1158,-329.8719 371.1158,-329.8719 369.5279,-327.941 369.378,-331.3011 367.94,-326.01 367.94,-326.01"/>
</g>
<!-- laptop#in front of#person&#45;&gt;person -->
<g id="edge52" class="edge">
<title>laptop#in front of#person&#45;&gt;person</title>
<path fill="none" stroke="#7f7f7f" d="M497.37,-358.91C467.07,-348.2 424.11,-333.01 392.94,-321.99"/>
<polygon fill="#7f7f7f" stroke="#7f7f7f" points="388.04,-320.26 393.5039,-319.803 390.3974,-321.0923 392.7548,-321.9247 392.7548,-321.9247 392.7548,-321.9247 390.3974,-321.0923 392.0057,-324.0463 388.04,-320.26 388.04,-320.26"/>
</g>
<!-- food#in front of#person&#45;&gt;person -->
<g id="edge54" class="edge">
<title>food#in front of#person&#45;&gt;person</title>
<path fill="none" stroke="#7f7f7f" d="M535.56,-170.87C497.24,-199.63 422.6,-255.65 381.63,-286.39"/>
<polygon fill="#7f7f7f" stroke="#7f7f7f" points="377.29,-289.65 379.9365,-284.848 379.2889,-288.1485 381.2878,-286.647 381.2878,-286.647 381.2878,-286.647 379.2889,-288.1485 382.6391,-288.446 377.29,-289.65 377.29,-289.65"/>
</g>
</g>
</svg>
