<?xml version="1.0" encoding="UTF-8" standalone="no"?>
<!DOCTYPE svg PUBLIC "-//W3C//DTD SVG 1.1//EN"
 "http://www.w3.org/Graphics/SVG/1.1/DTD/svg11.dtd">
<!-- Generated by graphviz version 2.40.1 (20161225.0304)
 -->
<!-- Pages: 1 -->
<svg width="687pt" height="550pt"
 viewBox="0.00 0.00 687.21 550.04" xmlns="http://www.w3.org/2000/svg" xmlns:xlink="http://www.w3.org/1999/xlink">
<g id="graph0" class="graph" transform="scale(1 1) rotate(0) translate(4 546.04)">
<polygon fill="#ffffff" stroke="transparent" points="-4,4 -4,-546.04 683.21,-546.04 683.21,4 -4,4"/>
<!-- person#wearing#clothes -->
<g id="node1" class="node">
<title>person#wearing#clothes</title>
<path fill="#c3e2b3" stroke="#000000" d="M362.79,-542.04C362.79,-542.04 324.79,-542.04 324.79,-542.04 318.79,-542.04 312.79,-536.04 312.79,-530.04 312.79,-530.04 312.79,-518.04 312.79,-518.04 312.79,-512.04 318.79,-506.04 324.79,-506.04 324.79,-506.04 362.79,-506.04 362.79,-506.04 368.79,-506.04 374.79,-512.04 374.79,-518.04 374.79,-518.04 374.79,-530.04 374.79,-530.04 374.79,-536.04 368.79,-542.04 362.79,-542.04"/>
<text text-anchor="middle" x="343.79" y="-520.34" font-family="Times,serif" font-size="14.00" fill="#000000">wearing</text>
</g>
<!-- clothes -->
<g id="node2" class="node">
<title>clothes</title>
<path fill="#ffb0b9" stroke="#000000" d="M222.59,-535.95C222.59,-535.95 173.59,-535.95 173.59,-535.95 167.59,-535.95 161.59,-529.95 161.59,-523.95 161.59,-523.95 161.59,-511.95 161.59,-511.95 161.59,-505.95 167.59,-499.95 173.59,-499.95 173.59,-499.95 222.59,-499.95 222.59,-499.95 228.59,-499.95 234.59,-505.95 234.59,-511.95 234.59,-511.95 234.59,-523.95 234.59,-523.95 234.59,-529.95 228.59,-535.95 222.59,-535.95"/>
<text text-anchor="middle" x="198.09" y="-512.95" font-family="Times,serif" font-size="20.00" fill="#000000">clothes</text>
</g>
<!-- person#wearing#clothes&#45;&gt;clothes -->
<g id="edge1" class="edge">
<title>person#wearing#clothes&#45;&gt;clothes</title>
<path fill="none" stroke="#7f7f7f" d="M312.53,-522.73C291.31,-521.84 263.01,-520.66 239.86,-519.69"/>
<polygon fill="#7f7f7f" stroke="#7f7f7f" points="234.7,-519.48 239.7874,-517.4353 237.1979,-519.5817 239.6959,-519.6834 239.6959,-519.6834 239.6959,-519.6834 237.1979,-519.5817 239.6043,-521.9316 234.7,-519.48 234.7,-519.48"/>
</g>
<!-- clothes#in#person -->
<g id="node3" class="node">
<title>clothes#in#person</title>
<path fill="#c3e2b3" stroke="#000000" d="M64.458,-514.39C64.458,-514.39 34.458,-514.39 34.458,-514.39 28.458,-514.39 22.458,-508.39 22.458,-502.39 22.458,-502.39 22.458,-490.39 22.458,-490.39 22.458,-484.39 28.458,-478.39 34.458,-478.39 34.458,-478.39 64.458,-478.39 64.458,-478.39 70.458,-478.39 76.458,-484.39 76.458,-490.39 76.458,-490.39 76.458,-502.39 76.458,-502.39 76.458,-508.39 70.458,-514.39 64.458,-514.39"/>
<text text-anchor="middle" x="49.458" y="-492.69" font-family="Times,serif" font-size="14.00" fill="#000000">in</text>
</g>
<!-- clothes&#45;&gt;clothes#in#person -->
<g id="edge2" class="edge">
<title>clothes&#45;&gt;clothes#in#person</title>
<path fill="none" stroke="#7f7f7f" d="M161.35,-512.62C137.05,-509.09 105.49,-504.51 82.079,-501.12"/>
<polygon fill="#7f7f7f" stroke="#7f7f7f" points="76.914,-500.37 82.1855,-498.8619 79.3881,-500.7293 81.8621,-501.0886 81.8621,-501.0886 81.8621,-501.0886 79.3881,-500.7293 81.5387,-503.3152 76.914,-500.37 76.914,-500.37"/>
</g>
<!-- clothes#in front of#person -->
<g id="node4" class="node">
<title>clothes#in front of#person</title>
<path fill="#c3e2b3" stroke="#000000" d="M237.47,-426.23C237.47,-426.23 188.47,-426.23 188.47,-426.23 182.47,-426.23 176.47,-420.23 176.47,-414.23 176.47,-414.23 176.47,-402.23 176.47,-402.23 176.47,-396.23 182.47,-390.23 188.47,-390.23 188.47,-390.23 237.47,-390.23 237.47,-390.23 243.47,-390.23 249.47,-396.23 249.47,-402.23 249.47,-402.23 249.47,-414.23 249.47,-414.23 249.47,-420.23 243.47,-426.23 237.47,-426.23"/>
<text text-anchor="middle" x="212.97" y="-404.53" font-family="Times,serif" font-size="14.00" fill="#000000">in front of</text>
</g>
<!-- clothes&#45;&gt;clothes#in front of#person -->
<g id="edge3" class="edge">
<title>clothes&#45;&gt;clothes#in front of#person</title>
<path fill="none" stroke="#7f7f7f" d="M200.55,-499.83C203.09,-481.09 207.06,-451.76 209.83,-431.36"/>
<polygon fill="#7f7f7f" stroke="#7f7f7f" points="210.51,-426.37 212.0642,-431.6281 210.1724,-428.8471 209.8348,-431.3242 209.8348,-431.3242 209.8348,-431.3242 210.1724,-428.8471 207.6054,-431.0204 210.51,-426.37 210.51,-426.37"/>
</g>
<!-- person -->
<g id="node5" class="node">
<title>person</title>
<path fill="#ffb0b9" stroke="#000000" d="M378.87,-283.59C378.87,-283.59 332.87,-283.59 332.87,-283.59 326.87,-283.59 320.87,-277.59 320.87,-271.59 320.87,-271.59 320.87,-259.59 320.87,-259.59 320.87,-253.59 326.87,-247.59 332.87,-247.59 332.87,-247.59 378.87,-247.59 378.87,-247.59 384.87,-247.59 390.87,-253.59 390.87,-259.59 390.87,-259.59 390.87,-271.59 390.87,-271.59 390.87,-277.59 384.87,-283.59 378.87,-283.59"/>
<text text-anchor="middle" x="355.87" y="-260.59" font-family="Times,serif" font-size="20.00" fill="#000000">person</text>
</g>
<!-- clothes#in#person&#45;&gt;person -->
<g id="edge4" class="edge">
<title>clothes#in#person&#45;&gt;person</title>
<path fill="none" stroke="#7f7f7f" d="M73.502,-478.28C129.44,-436.14 268.07,-331.72 327.78,-286.75"/>
<polygon fill="#7f7f7f" stroke="#7f7f7f" points="331.94,-283.62 329.2974,-288.4241 329.9423,-285.1231 327.9446,-286.6262 327.9446,-286.6262 327.9446,-286.6262 329.9423,-285.1231 326.5918,-284.8282 331.94,-283.62 331.94,-283.62"/>
</g>
<!-- clothes#in front of#person&#45;&gt;person -->
<g id="edge5" class="edge">
<title>clothes#in front of#person&#45;&gt;person</title>
<path fill="none" stroke="#7f7f7f" d="M231.07,-390.16C257.23,-364.05 305.57,-315.8 333.79,-287.63"/>
<polygon fill="#7f7f7f" stroke="#7f7f7f" points="337.47,-283.96 335.5185,-289.0839 335.6998,-285.7254 333.9296,-287.4907 333.9296,-287.4907 333.9296,-287.4907 335.6998,-285.7254 332.3408,-285.8976 337.47,-283.96 337.47,-283.96"/>
</g>
<!-- person&#45;&gt;person#wearing#clothes -->
<g id="edge7" class="edge">
<title>person&#45;&gt;person#wearing#clothes</title>
<path fill="none" stroke="#7f7f7f" d="M355.02,-283.76C352.88,-329.55 347.27,-449.6 344.89,-500.59"/>
<polygon fill="#7f7f7f" stroke="#7f7f7f" points="344.64,-505.88 342.6286,-500.7793 344.7581,-503.3828 344.8761,-500.8856 344.8761,-500.8856 344.8761,-500.8856 344.7581,-503.3828 347.1236,-500.9918 344.64,-505.88 344.64,-505.88"/>
</g>
<!-- person#touching#laptop -->
<g id="node7" class="node">
<title>person#touching#laptop</title>
<path fill="#c3e2b3" stroke="#000000" d="M161.13,-262.94C161.13,-262.94 120.13,-262.94 120.13,-262.94 114.13,-262.94 108.13,-256.94 108.13,-250.94 108.13,-250.94 108.13,-238.94 108.13,-238.94 108.13,-232.94 114.13,-226.94 120.13,-226.94 120.13,-226.94 161.13,-226.94 161.13,-226.94 167.13,-226.94 173.13,-232.94 173.13,-238.94 173.13,-238.94 173.13,-250.94 173.13,-250.94 173.13,-256.94 167.13,-262.94 161.13,-262.94"/>
<text text-anchor="middle" x="140.63" y="-241.24" font-family="Times,serif" font-size="14.00" fill="#000000">touching</text>
</g>
<!-- person&#45;&gt;person#touching#laptop -->
<g id="edge8" class="edge">
<title>person&#45;&gt;person#touching#laptop</title>
<path fill="none" stroke="#7f7f7f" d="M320.81,-262.23C281.71,-258.47 218.68,-252.43 178.48,-248.57"/>
<polygon fill="#7f7f7f" stroke="#7f7f7f" points="173.21,-248.06 178.4035,-246.3022 175.6984,-248.3009 178.1868,-248.5417 178.1868,-248.5417 178.1868,-248.5417 175.6984,-248.3009 177.97,-250.7812 173.21,-248.06 173.21,-248.06"/>
</g>
<!-- person#not contacting#laptop -->
<g id="node8" class="node">
<title>person#not contacting#laptop</title>
<path fill="#c3e2b3" stroke="#000000" d="M299.07,-232.19C299.07,-232.19 227.07,-232.19 227.07,-232.19 221.07,-232.19 215.07,-226.19 215.07,-220.19 215.07,-220.19 215.07,-208.19 215.07,-208.19 215.07,-202.19 221.07,-196.19 227.07,-196.19 227.07,-196.19 299.07,-196.19 299.07,-196.19 305.07,-196.19 311.07,-202.19 311.07,-208.19 311.07,-208.19 311.07,-220.19 311.07,-220.19 311.07,-226.19 305.07,-232.19 299.07,-232.19"/>
<text text-anchor="middle" x="263.07" y="-210.49" font-family="Times,serif" font-size="14.00" fill="#000000">not contacting</text>
</g>
<!-- person&#45;&gt;person#not contacting#laptop -->
<g id="edge9" class="edge">
<title>person&#45;&gt;person#not contacting#laptop</title>
<path fill="none" stroke="#7f7f7f" d="M323.15,-247.47C315.81,-243.4 307.96,-239.05 300.44,-234.89"/>
<polygon fill="#7f7f7f" stroke="#7f7f7f" points="295.81,-232.32 301.2737,-232.7794 297.9958,-233.5333 300.1817,-234.7467 300.1817,-234.7467 300.1817,-234.7467 297.9958,-233.5333 299.0897,-236.7139 295.81,-232.32 295.81,-232.32"/>
</g>
<!-- person#lying on#clothes -->
<g id="node9" class="node">
<title>person#lying on#clothes</title>
<path fill="#c3e2b3" stroke="#000000" d="M308.95,-341.32C308.95,-341.32 269.95,-341.32 269.95,-341.32 263.95,-341.32 257.95,-335.32 257.95,-329.32 257.95,-329.32 257.95,-317.32 257.95,-317.32 257.95,-311.32 263.95,-305.32 269.95,-305.32 269.95,-305.32 308.95,-305.32 308.95,-305.32 314.95,-305.32 320.95,-311.32 320.95,-317.32 320.95,-317.32 320.95,-329.32 320.95,-329.32 320.95,-335.32 314.95,-341.32 308.95,-341.32"/>
<text text-anchor="middle" x="289.45" y="-319.62" font-family="Times,serif" font-size="14.00" fill="#000000">lying on</text>
</g>
<!-- person&#45;&gt;person#lying on#clothes -->
<g id="edge10" class="edge">
<title>person&#45;&gt;person#lying on#clothes</title>
<path fill="none" stroke="#7f7f7f" d="M334.86,-283.86C328.44,-289.44 321.31,-295.63 314.64,-301.43"/>
<polygon fill="#7f7f7f" stroke="#7f7f7f" points="310.56,-304.97 312.8621,-299.9937 312.4483,-303.3316 314.3366,-301.6932 314.3366,-301.6932 314.3366,-301.6932 312.4483,-303.3316 315.8112,-303.3927 310.56,-304.97 310.56,-304.97"/>
</g>
<!-- person#looking at#food -->
<g id="node10" class="node">
<title>person#looking at#food</title>
<path fill="#c3e2b3" stroke="#000000" d="M61,-199.62C61,-199.62 12,-199.62 12,-199.62 6,-199.62 0,-193.62 0,-187.62 0,-187.62 0,-175.62 0,-175.62 0,-169.62 6,-163.62 12,-163.62 12,-163.62 61,-163.62 61,-163.62 67,-163.62 73,-169.62 73,-175.62 73,-175.62 73,-187.62 73,-187.62 73,-193.62 67,-199.62 61,-199.62"/>
<text text-anchor="middle" x="36.5" y="-177.92" font-family="Times,serif" font-size="14.00" fill="#000000">looking at</text>
</g>
<!-- person&#45;&gt;person#looking at#food -->
<g id="edge11" class="edge">
<title>person&#45;&gt;person#looking at#food</title>
<path fill="none" stroke="#7f7f7f" d="M320.78,-256.37C261.4,-240.75 141.39,-209.2 77.962,-192.52"/>
<polygon fill="#7f7f7f" stroke="#7f7f7f" points="73.121,-191.25 78.5283,-190.3425 75.5392,-191.8844 77.9573,-192.5189 77.9573,-192.5189 77.9573,-192.5189 75.5392,-191.8844 77.3864,-194.6952 73.121,-191.25 73.121,-191.25"/>
</g>
<!-- person#touching#shoe -->
<g id="node11" class="node">
<title>person#touching#shoe</title>
<path fill="#c3e2b3" stroke="#000000" d="M665.84,-215.21C665.84,-215.21 624.84,-215.21 624.84,-215.21 618.84,-215.21 612.84,-209.21 612.84,-203.21 612.84,-203.21 612.84,-191.21 612.84,-191.21 612.84,-185.21 618.84,-179.21 624.84,-179.21 624.84,-179.21 665.84,-179.21 665.84,-179.21 671.84,-179.21 677.84,-185.21 677.84,-191.21 677.84,-191.21 677.84,-203.21 677.84,-203.21 677.84,-209.21 671.84,-215.21 665.84,-215.21"/>
<text text-anchor="middle" x="645.34" y="-193.51" font-family="Times,serif" font-size="14.00" fill="#000000">touching</text>
</g>
<!-- person&#45;&gt;person#touching#shoe -->
<g id="edge12" class="edge">
<title>person&#45;&gt;person#touching#shoe</title>
<path fill="none" stroke="#7f7f7f" d="M391.08,-257.27C445.92,-244.32 551.31,-219.42 607.64,-206.12"/>
<polygon fill="#7f7f7f" stroke="#7f7f7f" points="612.61,-204.94 608.265,-208.2842 610.1776,-205.5175 607.7452,-206.0951 607.7452,-206.0951 607.7452,-206.0951 610.1776,-205.5175 607.2254,-203.9059 612.61,-204.94 612.61,-204.94"/>
</g>
<!-- person#lying on#shoe -->
<g id="node12" class="node">
<title>person#lying on#shoe</title>
<path fill="#c3e2b3" stroke="#000000" d="M550.23,-164.21C550.23,-164.21 511.23,-164.21 511.23,-164.21 505.23,-164.21 499.23,-158.21 499.23,-152.21 499.23,-152.21 499.23,-140.21 499.23,-140.21 499.23,-134.21 505.23,-128.21 511.23,-128.21 511.23,-128.21 550.23,-128.21 550.23,-128.21 556.23,-128.21 562.23,-134.21 562.23,-140.21 562.23,-140.21 562.23,-152.21 562.23,-152.21 562.23,-158.21 556.23,-164.21 550.23,-164.21"/>
<text text-anchor="middle" x="530.73" y="-142.51" font-family="Times,serif" font-size="14.00" fill="#000000">lying on</text>
</g>
<!-- person&#45;&gt;person#lying on#shoe -->
<g id="edge13" class="edge">
<title>person&#45;&gt;person#lying on#shoe</title>
<path fill="none" stroke="#7f7f7f" d="M382.43,-247.46C413.97,-225.92 466.51,-190.06 499.84,-167.3"/>
<polygon fill="#7f7f7f" stroke="#7f7f7f" points="504.21,-164.32 501.3467,-168.9959 502.1445,-165.7285 500.079,-167.137 500.079,-167.137 500.079,-167.137 502.1445,-165.7285 498.8114,-165.2781 504.21,-164.32 504.21,-164.32"/>
</g>
<!-- person#not looking at#shoe -->
<g id="node13" class="node">
<title>person#not looking at#shoe</title>
<path fill="#c3e2b3" stroke="#000000" d="M576.93,-292.49C576.93,-292.49 506.93,-292.49 506.93,-292.49 500.93,-292.49 494.93,-286.49 494.93,-280.49 494.93,-280.49 494.93,-268.49 494.93,-268.49 494.93,-262.49 500.93,-256.49 506.93,-256.49 506.93,-256.49 576.93,-256.49 576.93,-256.49 582.93,-256.49 588.93,-262.49 588.93,-268.49 588.93,-268.49 588.93,-280.49 588.93,-280.49 588.93,-286.49 582.93,-292.49 576.93,-292.49"/>
<text text-anchor="middle" x="541.93" y="-270.79" font-family="Times,serif" font-size="14.00" fill="#000000">not looking at</text>
</g>
<!-- person&#45;&gt;person#not looking at#shoe -->
<g id="edge14" class="edge">
<title>person&#45;&gt;person#not looking at#shoe</title>
<path fill="none" stroke="#7f7f7f" d="M391.3,-267.29C419.01,-268.61 457.96,-270.47 489.3,-271.97"/>
<polygon fill="#7f7f7f" stroke="#7f7f7f" points="494.67,-272.23 489.567,-274.2355 492.1729,-272.1091 489.6759,-271.9881 489.6759,-271.9881 489.6759,-271.9881 492.1729,-272.1091 489.7847,-269.7407 494.67,-272.23 494.67,-272.23"/>
</g>
<!-- person#looking at#shoe -->
<g id="node14" class="node">
<title>person#looking at#shoe</title>
<path fill="#c3e2b3" stroke="#000000" d="M472.52,-241.51C472.52,-241.51 423.52,-241.51 423.52,-241.51 417.52,-241.51 411.52,-235.51 411.52,-229.51 411.52,-229.51 411.52,-217.51 411.52,-217.51 411.52,-211.51 417.52,-205.51 423.52,-205.51 423.52,-205.51 472.52,-205.51 472.52,-205.51 478.52,-205.51 484.52,-211.51 484.52,-217.51 484.52,-217.51 484.52,-229.51 484.52,-229.51 484.52,-235.51 478.52,-241.51 472.52,-241.51"/>
<text text-anchor="middle" x="448.02" y="-219.81" font-family="Times,serif" font-size="14.00" fill="#000000">looking at</text>
</g>
<!-- person&#45;&gt;person#looking at#shoe -->
<g id="edge15" class="edge">
<title>person&#45;&gt;person#looking at#shoe</title>
<path fill="none" stroke="#7f7f7f" d="M390.97,-249.56C396.11,-247.21 401.44,-244.78 406.69,-242.38"/>
<polygon fill="#7f7f7f" stroke="#7f7f7f" points="411.48,-240.19 407.8683,-244.3154 409.2064,-241.2295 406.9327,-242.2691 406.9327,-242.2691 406.9327,-242.2691 409.2064,-241.2295 405.9971,-240.2228 411.48,-240.19 411.48,-240.19"/>
</g>
<!-- person#wearing#shoe -->
<g id="node15" class="node">
<title>person#wearing#shoe</title>
<path fill="#c3e2b3" stroke="#000000" d="M432.79,-445.7C432.79,-445.7 394.79,-445.7 394.79,-445.7 388.79,-445.7 382.79,-439.7 382.79,-433.7 382.79,-433.7 382.79,-421.7 382.79,-421.7 382.79,-415.7 388.79,-409.7 394.79,-409.7 394.79,-409.7 432.79,-409.7 432.79,-409.7 438.79,-409.7 444.79,-415.7 444.79,-421.7 444.79,-421.7 444.79,-433.7 444.79,-433.7 444.79,-439.7 438.79,-445.7 432.79,-445.7"/>
<text text-anchor="middle" x="413.79" y="-424" font-family="Times,serif" font-size="14.00" fill="#000000">wearing</text>
</g>
<!-- person&#45;&gt;person#wearing#shoe -->
<g id="edge16" class="edge">
<title>person&#45;&gt;person#wearing#shoe</title>
<path fill="none" stroke="#7f7f7f" d="M362.4,-283.87C372.96,-313.43 393.77,-371.67 405.4,-404.24"/>
<polygon fill="#7f7f7f" stroke="#7f7f7f" points="407.19,-409.24 403.3863,-405.291 406.3473,-406.8863 405.5047,-404.5326 405.5047,-404.5326 405.5047,-404.5326 406.3473,-406.8863 407.623,-403.7742 407.19,-409.24 407.19,-409.24"/>
</g>
<!-- person#looking at#clothes -->
<g id="node16" class="node">
<title>person#looking at#clothes</title>
<path fill="#c3e2b3" stroke="#000000" d="M387.34,-369.44C387.34,-369.44 338.34,-369.44 338.34,-369.44 332.34,-369.44 326.34,-363.44 326.34,-357.44 326.34,-357.44 326.34,-345.44 326.34,-345.44 326.34,-339.44 332.34,-333.44 338.34,-333.44 338.34,-333.44 387.34,-333.44 387.34,-333.44 393.34,-333.44 399.34,-339.44 399.34,-345.44 399.34,-345.44 399.34,-357.44 399.34,-357.44 399.34,-363.44 393.34,-369.44 387.34,-369.44"/>
<text text-anchor="middle" x="362.84" y="-347.74" font-family="Times,serif" font-size="14.00" fill="#000000">looking at</text>
</g>
<!-- person&#45;&gt;person#looking at#clothes -->
<g id="edge17" class="edge">
<title>person&#45;&gt;person#looking at#clothes</title>
<path fill="none" stroke="#7f7f7f" d="M357.35,-283.8C358.39,-296.66 359.8,-314.01 360.93,-327.92"/>
<polygon fill="#7f7f7f" stroke="#7f7f7f" points="361.37,-333.26 358.7169,-328.4617 361.1647,-330.7684 360.9593,-328.2769 360.9593,-328.2769 360.9593,-328.2769 361.1647,-330.7684 363.2017,-328.0921 361.37,-333.26 361.37,-333.26"/>
</g>
<!-- person#not looking at#clothes -->
<g id="node17" class="node">
<title>person#not looking at#clothes</title>
<path fill="#c3e2b3" stroke="#000000" d="M520.83,-536.79C520.83,-536.79 450.83,-536.79 450.83,-536.79 444.83,-536.79 438.83,-530.79 438.83,-524.79 438.83,-524.79 438.83,-512.79 438.83,-512.79 438.83,-506.79 444.83,-500.79 450.83,-500.79 450.83,-500.79 520.83,-500.79 520.83,-500.79 526.83,-500.79 532.83,-506.79 532.83,-512.79 532.83,-512.79 532.83,-524.79 532.83,-524.79 532.83,-530.79 526.83,-536.79 520.83,-536.79"/>
<text text-anchor="middle" x="485.83" y="-515.09" font-family="Times,serif" font-size="14.00" fill="#000000">not looking at</text>
</g>
<!-- person&#45;&gt;person#not looking at#clothes -->
<g id="edge18" class="edge">
<title>person&#45;&gt;person#not looking at#clothes</title>
<path fill="none" stroke="#7f7f7f" d="M365.22,-283.8C388.45,-329.06 448.76,-446.56 474.22,-496.17"/>
<polygon fill="#7f7f7f" stroke="#7f7f7f" points="476.57,-500.75 472.2855,-497.3286 475.4287,-498.5257 474.2874,-496.3014 474.2874,-496.3014 474.2874,-496.3014 475.4287,-498.5257 476.2892,-495.2742 476.57,-500.75 476.57,-500.75"/>
</g>
<!-- person#holding#clothes -->
<g id="node18" class="node">
<title>person#holding#clothes</title>
<path fill="#c3e2b3" stroke="#000000" d="M319.86,-446.73C319.86,-446.73 284.86,-446.73 284.86,-446.73 278.86,-446.73 272.86,-440.73 272.86,-434.73 272.86,-434.73 272.86,-422.73 272.86,-422.73 272.86,-416.73 278.86,-410.73 284.86,-410.73 284.86,-410.73 319.86,-410.73 319.86,-410.73 325.86,-410.73 331.86,-416.73 331.86,-422.73 331.86,-422.73 331.86,-434.73 331.86,-434.73 331.86,-440.73 325.86,-446.73 319.86,-446.73"/>
<text text-anchor="middle" x="302.36" y="-425.03" font-family="Times,serif" font-size="14.00" fill="#000000">holding</text>
</g>
<!-- person&#45;&gt;person#holding#clothes -->
<g id="edge19" class="edge">
<title>person&#45;&gt;person#holding#clothes</title>
<path fill="none" stroke="#7f7f7f" d="M349.94,-283.67C340.18,-313.44 320.73,-372.73 309.97,-405.54"/>
<polygon fill="#7f7f7f" stroke="#7f7f7f" points="308.32,-410.57 307.7406,-405.1177 309.0993,-408.1945 309.8785,-405.8191 309.8785,-405.8191 309.8785,-405.8191 309.0993,-408.1945 312.0164,-406.5204 308.32,-410.57 308.32,-410.57"/>
</g>
<!-- person#not looking at#bed -->
<g id="node19" class="node">
<title>person#not looking at#bed</title>
<path fill="#c3e2b3" stroke="#000000" d="M452.41,-132.03C452.41,-132.03 382.41,-132.03 382.41,-132.03 376.41,-132.03 370.41,-126.03 370.41,-120.03 370.41,-120.03 370.41,-108.03 370.41,-108.03 370.41,-102.03 376.41,-96.03 382.41,-96.03 382.41,-96.03 452.41,-96.03 452.41,-96.03 458.41,-96.03 464.41,-102.03 464.41,-108.03 464.41,-108.03 464.41,-120.03 464.41,-120.03 464.41,-126.03 458.41,-132.03 452.41,-132.03"/>
<text text-anchor="middle" x="417.41" y="-110.33" font-family="Times,serif" font-size="14.00" fill="#000000">not looking at</text>
</g>
<!-- person&#45;&gt;person#not looking at#bed -->
<g id="edge20" class="edge">
<title>person&#45;&gt;person#not looking at#bed</title>
<path fill="none" stroke="#7f7f7f" d="M363.29,-247.31C374.52,-219.66 395.81,-167.23 408.07,-137.03"/>
<polygon fill="#7f7f7f" stroke="#7f7f7f" points="409.96,-132.38 410.1617,-137.8593 409.0186,-134.696 408.0773,-137.012 408.0773,-137.012 408.0773,-137.012 409.0186,-134.696 405.9928,-136.1648 409.96,-132.38 409.96,-132.38"/>
</g>
<!-- person#lying on#bed -->
<g id="node20" class="node">
<title>person#lying on#bed</title>
<path fill="#c3e2b3" stroke="#000000" d="M652.56,-60.056C652.56,-60.056 613.56,-60.056 613.56,-60.056 607.56,-60.056 601.56,-54.056 601.56,-48.056 601.56,-48.056 601.56,-36.056 601.56,-36.056 601.56,-30.056 607.56,-24.056 613.56,-24.056 613.56,-24.056 652.56,-24.056 652.56,-24.056 658.56,-24.056 664.56,-30.056 664.56,-36.056 664.56,-36.056 664.56,-48.056 664.56,-48.056 664.56,-54.056 658.56,-60.056 652.56,-60.056"/>
<text text-anchor="middle" x="633.06" y="-38.356" font-family="Times,serif" font-size="14.00" fill="#000000">lying on</text>
</g>
<!-- person&#45;&gt;person#lying on#bed -->
<g id="edge21" class="edge">
<title>person&#45;&gt;person#lying on#bed</title>
<path fill="none" stroke="#7f7f7f" d="M378.55,-247.3C429.34,-206.34 551.98,-107.44 606.34,-63.6"/>
<polygon fill="#7f7f7f" stroke="#7f7f7f" points="610.45,-60.288 607.9686,-65.1773 608.5034,-61.8567 606.5567,-63.4254 606.5567,-63.4254 606.5567,-63.4254 608.5034,-61.8567 605.1449,-61.6734 610.45,-60.288 610.45,-60.288"/>
</g>
<!-- person#not contacting#shoe -->
<g id="node21" class="node">
<title>person#not contacting#shoe</title>
<path fill="#c3e2b3" stroke="#000000" d="M667.21,-518.14C667.21,-518.14 595.21,-518.14 595.21,-518.14 589.21,-518.14 583.21,-512.14 583.21,-506.14 583.21,-506.14 583.21,-494.14 583.21,-494.14 583.21,-488.14 589.21,-482.14 595.21,-482.14 595.21,-482.14 667.21,-482.14 667.21,-482.14 673.21,-482.14 679.21,-488.14 679.21,-494.14 679.21,-494.14 679.21,-506.14 679.21,-506.14 679.21,-512.14 673.21,-518.14 667.21,-518.14"/>
<text text-anchor="middle" x="631.21" y="-496.44" font-family="Times,serif" font-size="14.00" fill="#000000">not contacting</text>
</g>
<!-- person&#45;&gt;person#not contacting#shoe -->
<g id="edge22" class="edge">
<title>person&#45;&gt;person#not contacting#shoe</title>
<path fill="none" stroke="#7f7f7f" d="M377.02,-283.61C426.97,-326.16 552.09,-432.74 605.93,-478.6"/>
<polygon fill="#7f7f7f" stroke="#7f7f7f" points="609.99,-482.06 604.725,-480.5293 608.0872,-480.4384 606.1844,-478.8168 606.1844,-478.8168 606.1844,-478.8168 608.0872,-480.4384 607.6439,-477.1043 609.99,-482.06 609.99,-482.06"/>
</g>
<!-- person#holding#food -->
<g id="node22" class="node">
<title>person#holding#food</title>
<path fill="#c3e2b3" stroke="#000000" d="M146.65,-391.7C146.65,-391.7 111.65,-391.7 111.65,-391.7 105.65,-391.7 99.65,-385.7 99.65,-379.7 99.65,-379.7 99.65,-367.7 99.65,-367.7 99.65,-361.7 105.65,-355.7 111.65,-355.7 111.65,-355.7 146.65,-355.7 146.65,-355.7 152.65,-355.7 158.65,-361.7 158.65,-367.7 158.65,-367.7 158.65,-379.7 158.65,-379.7 158.65,-385.7 152.65,-391.7 146.65,-391.7"/>
<text text-anchor="middle" x="129.15" y="-370" font-family="Times,serif" font-size="14.00" fill="#000000">holding</text>
</g>
<!-- person&#45;&gt;person#holding#food -->
<g id="edge23" class="edge">
<title>person&#45;&gt;person#holding#food</title>
<path fill="none" stroke="#7f7f7f" d="M320.45,-282.48C277.63,-302.9 206.08,-337.02 163.68,-357.24"/>
<polygon fill="#7f7f7f" stroke="#7f7f7f" points="158.91,-359.51 162.458,-355.3297 161.1674,-358.4357 163.4248,-357.3614 163.4248,-357.3614 163.4248,-357.3614 161.1674,-358.4357 164.3917,-359.3931 158.91,-359.51 158.91,-359.51"/>
</g>
<!-- person#looking at#laptop -->
<g id="node23" class="node">
<title>person#looking at#laptop</title>
<path fill="#c3e2b3" stroke="#000000" d="M233.08,-38.977C233.08,-38.977 184.08,-38.977 184.08,-38.977 178.08,-38.977 172.08,-32.977 172.08,-26.977 172.08,-26.977 172.08,-14.977 172.08,-14.977 172.08,-8.977 178.08,-2.977 184.08,-2.977 184.08,-2.977 233.08,-2.977 233.08,-2.977 239.08,-2.977 245.08,-8.977 245.08,-14.977 245.08,-14.977 245.08,-26.977 245.08,-26.977 245.08,-32.977 239.08,-38.977 233.08,-38.977"/>
<text text-anchor="middle" x="208.58" y="-17.277" font-family="Times,serif" font-size="14.00" fill="#000000">looking at</text>
</g>
<!-- person&#45;&gt;person#looking at#laptop -->
<g id="edge24" class="edge">
<title>person&#45;&gt;person#looking at#laptop</title>
<path fill="none" stroke="#7f7f7f" d="M344.8,-247.21C318.29,-203.18 251.23,-91.815 222.26,-43.697"/>
<polygon fill="#7f7f7f" stroke="#7f7f7f" points="219.58,-39.243 224.0858,-42.3672 220.8689,-41.3851 222.1579,-43.5272 222.1579,-43.5272 222.1579,-43.5272 220.8689,-41.3851 220.23,-44.6873 219.58,-39.243 219.58,-39.243"/>
</g>
<!-- person#sitting on#bed -->
<g id="node24" class="node">
<title>person#sitting on#bed</title>
<path fill="#c3e2b3" stroke="#000000" d="M315.12,-133.9C315.12,-133.9 270.12,-133.9 270.12,-133.9 264.12,-133.9 258.12,-127.9 258.12,-121.9 258.12,-121.9 258.12,-109.9 258.12,-109.9 258.12,-103.9 264.12,-97.9 270.12,-97.9 270.12,-97.9 315.12,-97.9 315.12,-97.9 321.12,-97.9 327.12,-103.9 327.12,-109.9 327.12,-109.9 327.12,-121.9 327.12,-121.9 327.12,-127.9 321.12,-133.9 315.12,-133.9"/>
<text text-anchor="middle" x="292.62" y="-112.2" font-family="Times,serif" font-size="14.00" fill="#000000">sitting on</text>
</g>
<!-- person&#45;&gt;person#sitting on#bed -->
<g id="edge25" class="edge">
<title>person&#45;&gt;person#sitting on#bed</title>
<path fill="none" stroke="#7f7f7f" d="M348.24,-247.54C336.75,-220.34 315,-168.87 302.37,-138.98"/>
<polygon fill="#7f7f7f" stroke="#7f7f7f" points="300.28,-134.02 304.295,-137.7539 301.2508,-136.3238 302.2216,-138.6277 302.2216,-138.6277 302.2216,-138.6277 301.2508,-136.3238 300.1481,-139.5014 300.28,-134.02 300.28,-134.02"/>
</g>
<!-- laptop#in front of#person -->
<g id="node6" class="node">
<title>laptop#in front of#person</title>
<path fill="#c3e2b3" stroke="#000000" d="M193.77,-151.77C193.77,-151.77 144.77,-151.77 144.77,-151.77 138.77,-151.77 132.77,-145.77 132.77,-139.77 132.77,-139.77 132.77,-127.77 132.77,-127.77 132.77,-121.77 138.77,-115.77 144.77,-115.77 144.77,-115.77 193.77,-115.77 193.77,-115.77 199.77,-115.77 205.77,-121.77 205.77,-127.77 205.77,-127.77 205.77,-139.77 205.77,-139.77 205.77,-145.77 199.77,-151.77 193.77,-151.77"/>
<text text-anchor="middle" x="169.27" y="-130.07" font-family="Times,serif" font-size="14.00" fill="#000000">in front of</text>
</g>
<!-- laptop#in front of#person&#45;&gt;person -->
<g id="edge6" class="edge">
<title>laptop#in front of#person&#45;&gt;person</title>
<path fill="none" stroke="#7f7f7f" d="M194.82,-151.83C229.06,-176.02 289.72,-218.86 326.02,-244.51"/>
<polygon fill="#7f7f7f" stroke="#7f7f7f" points="330.33,-247.55 324.9472,-246.5067 328.287,-246.109 326.2441,-244.668 326.2441,-244.668 326.2441,-244.668 328.287,-246.109 327.541,-242.8294 330.33,-247.55 330.33,-247.55"/>
</g>
<!-- laptop -->
<g id="node25" class="node">
<title>laptop</title>
<path fill="#ffb0b9" stroke="#000000" d="M74.616,-54.611C74.616,-54.611 32.616,-54.611 32.616,-54.611 26.616,-54.611 20.616,-48.611 20.616,-42.611 20.616,-42.611 20.616,-30.611 20.616,-30.611 20.616,-24.611 26.616,-18.611 32.616,-18.611 32.616,-18.611 74.616,-18.611 74.616,-18.611 80.616,-18.611 86.616,-24.611 86.616,-30.611 86.616,-30.611 86.616,-42.611 86.616,-42.611 86.616,-48.611 80.616,-54.611 74.616,-54.611"/>
<text text-anchor="middle" x="53.616" y="-31.611" font-family="Times,serif" font-size="20.00" fill="#000000">laptop</text>
</g>
<!-- person#touching#laptop&#45;&gt;laptop -->
<g id="edge26" class="edge">
<title>person#touching#laptop&#45;&gt;laptop</title>
<path fill="none" stroke="#7f7f7f" d="M133.06,-226.81C117.25,-188.95 80.73,-101.53 63.263,-59.708"/>
<polygon fill="#7f7f7f" stroke="#7f7f7f" points="61.23,-54.84 65.2331,-58.5867 62.1935,-57.1469 63.1569,-59.4538 63.1569,-59.4538 63.1569,-59.4538 62.1935,-57.1469 61.0807,-60.3209 61.23,-54.84 61.23,-54.84"/>
</g>
<!-- person#not contacting#laptop&#45;&gt;laptop -->
<g id="edge27" class="edge">
<title>person#not contacting#laptop&#45;&gt;laptop</title>
<path fill="none" stroke="#7f7f7f" d="M241.84,-196.19C202.94,-163.22 120.46,-93.287 78.809,-57.971"/>
<polygon fill="#7f7f7f" stroke="#7f7f7f" points="74.908,-54.663 80.1767,-56.1807 76.8148,-56.2799 78.7215,-57.8968 78.7215,-57.8968 78.7215,-57.8968 76.8148,-56.2799 77.2663,-59.6129 74.908,-54.663 74.908,-54.663"/>
</g>
<!-- person#lying on#clothes&#45;&gt;clothes -->
<g id="edge28" class="edge">
<title>person#lying on#clothes&#45;&gt;clothes</title>
<path fill="none" stroke="#7f7f7f" d="M280.86,-341.63C264.08,-377.37 227.02,-456.31 208.73,-495.28"/>
<polygon fill="#7f7f7f" stroke="#7f7f7f" points="206.59,-499.83 206.682,-494.3478 207.654,-497.5677 208.7181,-495.3054 208.7181,-495.3054 208.7181,-495.3054 207.654,-497.5677 210.7541,-496.2631 206.59,-499.83 206.59,-499.83"/>
</g>
<!-- food -->
<g id="node26" class="node">
<title>food</title>
<path fill="#ffb0b9" stroke="#000000" d="M44.138,-351.99C44.138,-351.99 14.138,-351.99 14.138,-351.99 8.138,-351.99 2.138,-345.99 2.138,-339.99 2.138,-339.99 2.138,-327.99 2.138,-327.99 2.138,-321.99 8.138,-315.99 14.138,-315.99 14.138,-315.99 44.138,-315.99 44.138,-315.99 50.138,-315.99 56.138,-321.99 56.138,-327.99 56.138,-327.99 56.138,-339.99 56.138,-339.99 56.138,-345.99 50.138,-351.99 44.138,-351.99"/>
<text text-anchor="middle" x="29.138" y="-328.99" font-family="Times,serif" font-size="20.00" fill="#000000">food</text>
</g>
<!-- person#looking at#food&#45;&gt;food -->
<g id="edge29" class="edge">
<title>person#looking at#food&#45;&gt;food</title>
<path fill="none" stroke="#7f7f7f" d="M35.627,-199.7C34.287,-227.42 31.727,-280.41 30.255,-310.88"/>
<polygon fill="#7f7f7f" stroke="#7f7f7f" points="30.01,-315.93 28.005,-310.8268 30.1312,-313.4329 30.2524,-310.9359 30.2524,-310.9359 30.2524,-310.9359 30.1312,-313.4329 32.4997,-311.0449 30.01,-315.93 30.01,-315.93"/>
</g>
<!-- shoe -->
<g id="node27" class="node">
<title>shoe</title>
<path fill="#ffb0b9" stroke="#000000" d="M660.16,-366.87C660.16,-366.87 630.16,-366.87 630.16,-366.87 624.16,-366.87 618.16,-360.87 618.16,-354.87 618.16,-354.87 618.16,-342.87 618.16,-342.87 618.16,-336.87 624.16,-330.87 630.16,-330.87 630.16,-330.87 660.16,-330.87 660.16,-330.87 666.16,-330.87 672.16,-336.87 672.16,-342.87 672.16,-342.87 672.16,-354.87 672.16,-354.87 672.16,-360.87 666.16,-366.87 660.16,-366.87"/>
<text text-anchor="middle" x="645.16" y="-343.87" font-family="Times,serif" font-size="20.00" fill="#000000">shoe</text>
</g>
<!-- person#touching#shoe&#45;&gt;shoe -->
<g id="edge30" class="edge">
<title>person#touching#shoe&#45;&gt;shoe</title>
<path fill="none" stroke="#7f7f7f" d="M645.32,-215.5C645.29,-243.06 645.22,-295.2 645.19,-325.48"/>
<polygon fill="#7f7f7f" stroke="#7f7f7f" points="645.18,-330.51 642.94,-325.5055 645.185,-328.01 645.19,-325.51 645.19,-325.51 645.19,-325.51 645.185,-328.01 647.44,-325.5145 645.18,-330.51 645.18,-330.51"/>
</g>
<!-- person#lying on#shoe&#45;&gt;shoe -->
<g id="edge31" class="edge">
<title>person#lying on#shoe&#45;&gt;shoe</title>
<path fill="none" stroke="#7f7f7f" d="M541.09,-164.55C562.02,-201.63 609.32,-285.41 632.24,-325.98"/>
<polygon fill="#7f7f7f" stroke="#7f7f7f" points="634.91,-330.71 630.4927,-327.4619 633.681,-328.5329 632.4521,-326.3558 632.4521,-326.3558 632.4521,-326.3558 633.681,-328.5329 634.4115,-325.2497 634.91,-330.71 634.91,-330.71"/>
</g>
<!-- person#not looking at#shoe&#45;&gt;shoe -->
<g id="edge32" class="edge">
<title>person#not looking at#shoe&#45;&gt;shoe</title>
<path fill="none" stroke="#7f7f7f" d="M566.91,-292.5C581.64,-303.11 600.35,-316.59 615.78,-327.7"/>
<polygon fill="#7f7f7f" stroke="#7f7f7f" points="620.04,-330.77 614.6681,-329.6721 618.0118,-329.3083 615.9836,-327.8467 615.9836,-327.8467 615.9836,-327.8467 618.0118,-329.3083 617.2991,-326.0213 620.04,-330.77 620.04,-330.77"/>
</g>
<!-- person#looking at#shoe&#45;&gt;shoe -->
<g id="edge33" class="edge">
<title>person#looking at#shoe&#45;&gt;shoe</title>
<path fill="none" stroke="#7f7f7f" d="M476.68,-241.74C513.11,-264.9 575.79,-304.76 613.56,-328.78"/>
<polygon fill="#7f7f7f" stroke="#7f7f7f" points="618.04,-331.63 612.6136,-330.8446 615.9306,-330.2881 613.8213,-328.9462 613.8213,-328.9462 613.8213,-328.9462 615.9306,-330.2881 615.029,-327.0478 618.04,-331.63 618.04,-331.63"/>
</g>
<!-- person#wearing#shoe&#45;&gt;shoe -->
<g id="edge34" class="edge">
<title>person#wearing#shoe&#45;&gt;shoe</title>
<path fill="none" stroke="#7f7f7f" d="M444.99,-417.07C488.93,-402.1 568.64,-374.94 613.06,-359.8"/>
<polygon fill="#7f7f7f" stroke="#7f7f7f" points="618.04,-358.11 614.0283,-361.8475 615.6726,-358.9134 613.3052,-359.7169 613.3052,-359.7169 613.3052,-359.7169 615.6726,-358.9134 612.5821,-357.5862 618.04,-358.11 618.04,-358.11"/>
</g>
<!-- person#looking at#clothes&#45;&gt;clothes -->
<g id="edge35" class="edge">
<title>person#looking at#clothes&#45;&gt;clothes</title>
<path fill="none" stroke="#7f7f7f" d="M344.9,-369.57C314.44,-400.35 252.76,-462.7 219.87,-495.93"/>
<polygon fill="#7f7f7f" stroke="#7f7f7f" points="216.01,-499.83 217.9281,-494.6935 217.7686,-498.0531 219.5273,-496.2763 219.5273,-496.2763 219.5273,-496.2763 217.7686,-498.0531 221.1265,-497.859 216.01,-499.83 216.01,-499.83"/>
</g>
<!-- person#not looking at#clothes&#45;&gt;clothes -->
<g id="edge36" class="edge">
<title>person#not looking at#clothes&#45;&gt;clothes</title>
<path fill="none" stroke="#7f7f7f" d="M438.64,-518.66C383.46,-518.49 292.95,-518.23 240.1,-518.07"/>
<polygon fill="#7f7f7f" stroke="#7f7f7f" points="234.79,-518.06 239.7943,-515.8195 237.29,-518.0648 239.79,-518.0695 239.79,-518.0695 239.79,-518.0695 237.29,-518.0648 239.7857,-520.3195 234.79,-518.06 234.79,-518.06"/>
</g>
<!-- person#holding#clothes&#45;&gt;clothes -->
<g id="edge37" class="edge">
<title>person#holding#clothes&#45;&gt;clothes</title>
<path fill="none" stroke="#7f7f7f" d="M281.26,-446.79C264.44,-461.18 240.85,-481.36 223.08,-496.56"/>
<polygon fill="#7f7f7f" stroke="#7f7f7f" points="219.16,-499.92 221.492,-494.9577 221.0582,-498.293 222.9563,-496.666 222.9563,-496.666 222.9563,-496.666 221.0582,-498.293 224.4206,-498.3743 219.16,-499.92 219.16,-499.92"/>
</g>
<!-- bed -->
<g id="node28" class="node">
<title>bed</title>
<path fill="#ffb0b9" stroke="#000000" d="M505.95,-39.893C505.95,-39.893 475.95,-39.893 475.95,-39.893 469.95,-39.893 463.95,-33.893 463.95,-27.893 463.95,-27.893 463.95,-15.893 463.95,-15.893 463.95,-9.893 469.95,-3.893 475.95,-3.893 475.95,-3.893 505.95,-3.893 505.95,-3.893 511.95,-3.893 517.95,-9.893 517.95,-15.893 517.95,-15.893 517.95,-27.893 517.95,-27.893 517.95,-33.893 511.95,-39.893 505.95,-39.893"/>
<text text-anchor="middle" x="490.95" y="-16.893" font-family="Times,serif" font-size="20.00" fill="#000000">bed</text>
</g>
<!-- person#not looking at#bed&#45;&gt;bed -->
<g id="edge38" class="edge">
<title>person#not looking at#bed&#45;&gt;bed</title>
<path fill="none" stroke="#7f7f7f" d="M431.94,-95.829C443.82,-80.937 460.67,-59.824 473.33,-43.97"/>
<polygon fill="#7f7f7f" stroke="#7f7f7f" points="476.45,-40.059 475.0907,-45.3708 474.8909,-42.0133 473.3319,-43.9677 473.3319,-43.9677 473.3319,-43.9677 474.8909,-42.0133 471.573,-42.5645 476.45,-40.059 476.45,-40.059"/>
</g>
<!-- person#lying on#bed&#45;&gt;bed -->
<g id="edge39" class="edge">
<title>person#lying on#bed&#45;&gt;bed</title>
<path fill="none" stroke="#7f7f7f" d="M601.52,-37.581C578.26,-34.28 546.71,-29.804 523.26,-26.478"/>
<polygon fill="#7f7f7f" stroke="#7f7f7f" points="518.09,-25.744 523.3567,-24.2192 520.5652,-26.0954 523.0404,-26.4469 523.0404,-26.4469 523.0404,-26.4469 520.5652,-26.0954 522.7241,-28.6746 518.09,-25.744 518.09,-25.744"/>
</g>
<!-- person#not contacting#shoe&#45;&gt;shoe -->
<g id="edge40" class="edge">
<title>person#not contacting#shoe&#45;&gt;shoe</title>
<path fill="none" stroke="#7f7f7f" d="M632.89,-481.89C635.43,-454.41 640.22,-402.39 643.01,-372.19"/>
<polygon fill="#7f7f7f" stroke="#7f7f7f" points="643.47,-367.18 645.2533,-372.3648 643.2414,-369.6695 643.0128,-372.1591 643.0128,-372.1591 643.0128,-372.1591 643.2414,-369.6695 640.7722,-371.9533 643.47,-367.18 643.47,-367.18"/>
</g>
<!-- person#holding#food&#45;&gt;food -->
<g id="edge41" class="edge">
<title>person#holding#food&#45;&gt;food</title>
<path fill="none" stroke="#7f7f7f" d="M99.416,-361.89C87.317,-357.09 73.314,-351.53 61.006,-346.64"/>
<polygon fill="#7f7f7f" stroke="#7f7f7f" points="56.202,-344.73 61.6796,-344.4865 58.5251,-345.6537 60.8482,-346.5773 60.8482,-346.5773 60.8482,-346.5773 58.5251,-345.6537 60.0169,-348.6682 56.202,-344.73 56.202,-344.73"/>
</g>
<!-- person#looking at#laptop&#45;&gt;laptop -->
<g id="edge42" class="edge">
<title>person#looking at#laptop&#45;&gt;laptop</title>
<path fill="none" stroke="#7f7f7f" d="M171.85,-24.682C147.71,-27.118 116.17,-30.3 91.746,-32.764"/>
<polygon fill="#7f7f7f" stroke="#7f7f7f" points="86.647,-33.278 91.3961,-30.5378 89.1344,-33.0272 91.6218,-32.7764 91.6218,-32.7764 91.6218,-32.7764 89.1344,-33.0272 91.8475,-35.0151 86.647,-33.278 86.647,-33.278"/>
</g>
<!-- person#sitting on#bed&#45;&gt;bed -->
<g id="edge43" class="edge">
<title>person#sitting on#bed&#45;&gt;bed</title>
<path fill="none" stroke="#7f7f7f" d="M327.17,-99.526C364.34,-81.905 422.97,-54.113 459.08,-37"/>
<polygon fill="#7f7f7f" stroke="#7f7f7f" points="463.8,-34.761 460.2468,-38.9369 461.5412,-35.8325 459.2825,-36.904 459.2825,-36.904 459.2825,-36.904 461.5412,-35.8325 458.3181,-34.8711 463.8,-34.761 463.8,-34.761"/>
</g>
<!-- laptop&#45;&gt;laptop#in front of#person -->
<g id="edge45" class="edge">
<title>laptop&#45;&gt;laptop#in front of#person</title>
<path fill="none" stroke="#7f7f7f" d="M75.098,-54.659C94.45,-70.917 122.93,-94.848 143.5,-112.13"/>
<polygon fill="#7f7f7f" stroke="#7f7f7f" points="147.51,-115.49 142.2324,-114.0033 145.5938,-113.8844 143.6775,-112.2787 143.6775,-112.2787 143.6775,-112.2787 145.5938,-113.8844 145.1226,-110.5541 147.51,-115.49 147.51,-115.49"/>
</g>
<!-- food#in front of#person -->
<g id="node29" class="node">
<title>food#in front of#person</title>
<path fill="#c3e2b3" stroke="#000000" d="M242.42,-316.19C242.42,-316.19 193.42,-316.19 193.42,-316.19 187.42,-316.19 181.42,-310.19 181.42,-304.19 181.42,-304.19 181.42,-292.19 181.42,-292.19 181.42,-286.19 187.42,-280.19 193.42,-280.19 193.42,-280.19 242.42,-280.19 242.42,-280.19 248.42,-280.19 254.42,-286.19 254.42,-292.19 254.42,-292.19 254.42,-304.19 254.42,-304.19 254.42,-310.19 248.42,-316.19 242.42,-316.19"/>
<text text-anchor="middle" x="217.92" y="-294.49" font-family="Times,serif" font-size="14.00" fill="#000000">in front of</text>
</g>
<!-- food&#45;&gt;food#in front of#person -->
<g id="edge46" class="edge">
<title>food&#45;&gt;food#in front of#person</title>
<path fill="none" stroke="#7f7f7f" d="M56.186,-328.86C87.476,-322.93 139.37,-313.09 175.92,-306.16"/>
<polygon fill="#7f7f7f" stroke="#7f7f7f" points="181.2,-305.16 176.7061,-308.3012 178.7437,-305.6253 176.2873,-306.0905 176.2873,-306.0905 176.2873,-306.0905 178.7437,-305.6253 175.8686,-303.8798 181.2,-305.16 181.2,-305.16"/>
</g>
<!-- shoe#in front of#person -->
<g id="node30" class="node">
<title>shoe#in front of#person</title>
<path fill="#c3e2b3" stroke="#000000" d="M552.12,-416.97C552.12,-416.97 503.12,-416.97 503.12,-416.97 497.12,-416.97 491.12,-410.97 491.12,-404.97 491.12,-404.97 491.12,-392.97 491.12,-392.97 491.12,-386.97 497.12,-380.97 503.12,-380.97 503.12,-380.97 552.12,-380.97 552.12,-380.97 558.12,-380.97 564.12,-386.97 564.12,-392.97 564.12,-392.97 564.12,-404.97 564.12,-404.97 564.12,-410.97 558.12,-416.97 552.12,-416.97"/>
<text text-anchor="middle" x="527.62" y="-395.27" font-family="Times,serif" font-size="14.00" fill="#000000">in front of</text>
</g>
<!-- shoe&#45;&gt;shoe#in front of#person -->
<g id="edge47" class="edge">
<title>shoe&#45;&gt;shoe#in front of#person</title>
<path fill="none" stroke="#7f7f7f" d="M617.9,-360.49C603.52,-366.62 585.56,-374.27 569.46,-381.13"/>
<polygon fill="#7f7f7f" stroke="#7f7f7f" points="564.53,-383.24 568.2414,-379.2041 566.8283,-382.2563 569.1267,-381.2726 569.1267,-381.2726 569.1267,-381.2726 566.8283,-382.2563 570.012,-383.3411 564.53,-383.24 564.53,-383.24"/>
</g>
<!-- shoe#beneath#person -->
<g id="node31" class="node">
<title>shoe#beneath#person</title>
<path fill="#c3e2b3" stroke="#000000" d="M462.5,-339.03C462.5,-339.03 426.5,-339.03 426.5,-339.03 420.5,-339.03 414.5,-333.03 414.5,-327.03 414.5,-327.03 414.5,-315.03 414.5,-315.03 414.5,-309.03 420.5,-303.03 426.5,-303.03 426.5,-303.03 462.5,-303.03 462.5,-303.03 468.5,-303.03 474.5,-309.03 474.5,-315.03 474.5,-315.03 474.5,-327.03 474.5,-327.03 474.5,-333.03 468.5,-339.03 462.5,-339.03"/>
<text text-anchor="middle" x="444.5" y="-317.33" font-family="Times,serif" font-size="14.00" fill="#000000">beneath</text>
</g>
<!-- shoe&#45;&gt;shoe#beneath#person -->
<g id="edge48" class="edge">
<title>shoe&#45;&gt;shoe#beneath#person</title>
<path fill="none" stroke="#7f7f7f" d="M618.1,-345.11C582.37,-340.16 519.38,-331.42 479.9,-325.94"/>
<polygon fill="#7f7f7f" stroke="#7f7f7f" points="474.73,-325.23 479.9897,-323.6813 477.2068,-325.5702 479.6835,-325.9104 479.6835,-325.9104 479.6835,-325.9104 477.2068,-325.5702 479.3773,-328.1394 474.73,-325.23 474.73,-325.23"/>
</g>
<!-- bed#beneath#person -->
<g id="node32" class="node">
<title>bed#beneath#person</title>
<path fill="#c3e2b3" stroke="#000000" d="M378.69,-204.67C378.69,-204.67 342.69,-204.67 342.69,-204.67 336.69,-204.67 330.69,-198.67 330.69,-192.67 330.69,-192.67 330.69,-180.67 330.69,-180.67 330.69,-174.67 336.69,-168.67 342.69,-168.67 342.69,-168.67 378.69,-168.67 378.69,-168.67 384.69,-168.67 390.69,-174.67 390.69,-180.67 390.69,-180.67 390.69,-192.67 390.69,-192.67 390.69,-198.67 384.69,-204.67 378.69,-204.67"/>
<text text-anchor="middle" x="360.69" y="-182.97" font-family="Times,serif" font-size="14.00" fill="#000000">beneath</text>
</g>
<!-- bed&#45;&gt;bed#beneath#person -->
<g id="edge49" class="edge">
<title>bed&#45;&gt;bed#beneath#person</title>
<path fill="none" stroke="#7f7f7f" d="M476.51,-40.157C452.49,-70.55 404.38,-131.41 378.36,-164.32"/>
<polygon fill="#7f7f7f" stroke="#7f7f7f" points="375,-168.58 376.3298,-163.2607 376.5482,-166.6171 378.0965,-164.6542 378.0965,-164.6542 378.0965,-164.6542 376.5482,-166.6171 379.8631,-166.0476 375,-168.58 375,-168.58"/>
</g>
<!-- bed#on the side of#person -->
<g id="node33" class="node">
<title>bed#on the side of#person</title>
<path fill="#c3e2b3" stroke="#000000" d="M384.22,-36C384.22,-36 316.22,-36 316.22,-36 310.22,-36 304.22,-30 304.22,-24 304.22,-24 304.22,-12 304.22,-12 304.22,-6 310.22,0 316.22,0 316.22,0 384.22,0 384.22,0 390.22,0 396.22,-6 396.22,-12 396.22,-12 396.22,-24 396.22,-24 396.22,-30 390.22,-36 384.22,-36"/>
<text text-anchor="middle" x="350.22" y="-14.3" font-family="Times,serif" font-size="14.00" fill="#000000">on the side of</text>
</g>
<!-- bed&#45;&gt;bed#on the side of#person -->
<g id="edge50" class="edge">
<title>bed&#45;&gt;bed#on the side of#person</title>
<path fill="none" stroke="#7f7f7f" d="M463.81,-21.143C446.14,-20.654 422.53,-20 401.41,-19.416"/>
<polygon fill="#7f7f7f" stroke="#7f7f7f" points="396.39,-19.277 401.4504,-17.1664 398.889,-19.3462 401.3881,-19.4155 401.3881,-19.4155 401.3881,-19.4155 398.889,-19.3462 401.3258,-21.6646 396.39,-19.277 396.39,-19.277"/>
</g>
<!-- food#in front of#person&#45;&gt;person -->
<g id="edge44" class="edge">
<title>food#in front of#person&#45;&gt;person</title>
<path fill="none" stroke="#7f7f7f" d="M254.53,-289.54C273.2,-285.13 295.98,-279.75 315.2,-275.2"/>
<polygon fill="#7f7f7f" stroke="#7f7f7f" points="320.52,-273.94 316.1732,-277.2818 318.0873,-274.5162 315.6546,-275.0924 315.6546,-275.0924 315.6546,-275.0924 318.0873,-274.5162 315.136,-272.903 320.52,-273.94 320.52,-273.94"/>
</g>
<!-- shoe#in front of#person&#45;&gt;person -->
<g id="edge51" class="edge">
<title>shoe#in front of#person&#45;&gt;person</title>
<path fill="none" stroke="#7f7f7f" d="M504.1,-380.7C472.49,-356.16 416.44,-312.63 383.06,-286.71"/>
<polygon fill="#7f7f7f" stroke="#7f7f7f" points="379.11,-283.64 384.4386,-284.9318 381.0839,-285.1742 383.0579,-286.7084 383.0579,-286.7084 383.0579,-286.7084 381.0839,-285.1742 381.6771,-288.4849 379.11,-283.64 379.11,-283.64"/>
</g>
<!-- shoe#beneath#person&#45;&gt;person -->
<g id="edge52" class="edge">
<title>shoe#beneath#person&#45;&gt;person</title>
<path fill="none" stroke="#7f7f7f" d="M415.48,-302.88C407.13,-297.66 397.96,-291.92 389.36,-286.54"/>
<polygon fill="#7f7f7f" stroke="#7f7f7f" points="384.65,-283.6 390.0829,-284.3389 386.7708,-284.9238 388.8915,-286.2476 388.8915,-286.2476 388.8915,-286.2476 386.7708,-284.9238 387.7001,-288.1563 384.65,-283.6 384.65,-283.6"/>
</g>
<!-- bed#beneath#person&#45;&gt;person -->
<g id="edge53" class="edge">
<title>bed#beneath#person&#45;&gt;person</title>
<path fill="none" stroke="#7f7f7f" d="M359.58,-204.98C358.9,-216.03 358.03,-230.24 357.31,-242.11"/>
<polygon fill="#7f7f7f" stroke="#7f7f7f" points="356.98,-247.39 355.0464,-242.2593 357.136,-244.8949 357.292,-242.3997 357.292,-242.3997 357.292,-242.3997 357.136,-244.8949 359.5376,-242.5401 356.98,-247.39 356.98,-247.39"/>
</g>
<!-- bed#on the side of#person&#45;&gt;person -->
<g id="edge54" class="edge">
<title>bed#on the side of#person&#45;&gt;person</title>
<path fill="none" stroke="#7f7f7f" d="M350.64,-36.206C351.65,-80.383 354.22,-193.23 355.34,-242.26"/>
<polygon fill="#7f7f7f" stroke="#7f7f7f" points="355.45,-247.36 353.0926,-242.4097 355.396,-244.8606 355.3421,-242.3612 355.3421,-242.3612 355.3421,-242.3612 355.396,-244.8606 357.5916,-242.3126 355.45,-247.36 355.45,-247.36"/>
</g>
</g>
</svg>
