<?xml version="1.0" encoding="UTF-8" standalone="no"?>
<!DOCTYPE svg PUBLIC "-//W3C//DTD SVG 1.1//EN"
 "http://www.w3.org/Graphics/SVG/1.1/DTD/svg11.dtd">
<!-- Generated by graphviz version 2.40.1 (20161225.0304)
 -->
<!-- Pages: 1 -->
<svg width="660pt" height="562pt"
 viewBox="0.00 0.00 659.54 562.44" xmlns="http://www.w3.org/2000/svg" xmlns:xlink="http://www.w3.org/1999/xlink">
<g id="graph0" class="graph" transform="scale(1 1) rotate(0) translate(4 558.44)">
<polygon fill="#ffffff" stroke="transparent" points="-4,4 -4,-558.44 655.54,-558.44 655.54,4 -4,4"/>
<!-- person#sitting on#bed -->
<g id="node1" class="node">
<title>person#sitting on#bed</title>
<path fill="#c3e2b3" stroke="#000000" d="M490.1,-187.97C490.1,-187.97 445.1,-187.97 445.1,-187.97 439.1,-187.97 433.1,-181.97 433.1,-175.97 433.1,-175.97 433.1,-163.97 433.1,-163.97 433.1,-157.97 439.1,-151.97 445.1,-151.97 445.1,-151.97 490.1,-151.97 490.1,-151.97 496.1,-151.97 502.1,-157.97 502.1,-163.97 502.1,-163.97 502.1,-175.97 502.1,-175.97 502.1,-181.97 496.1,-187.97 490.1,-187.97"/>
<text text-anchor="middle" x="467.6" y="-166.27" font-family="Times,serif" font-size="14.00" fill="#000000">sitting on</text>
</g>
<!-- bed -->
<g id="node2" class="node">
<title>bed</title>
<path fill="#ffb0b9" stroke="#000000" d="M630.71,-201.76C630.71,-201.76 600.71,-201.76 600.71,-201.76 594.71,-201.76 588.71,-195.76 588.71,-189.76 588.71,-189.76 588.71,-177.76 588.71,-177.76 588.71,-171.76 594.71,-165.76 600.71,-165.76 600.71,-165.76 630.71,-165.76 630.71,-165.76 636.71,-165.76 642.71,-171.76 642.71,-177.76 642.71,-177.76 642.71,-189.76 642.71,-189.76 642.71,-195.76 636.71,-201.76 630.71,-201.76"/>
<text text-anchor="middle" x="615.71" y="-178.76" font-family="Times,serif" font-size="20.00" fill="#000000">bed</text>
</g>
<!-- person#sitting on#bed&#45;&gt;bed -->
<g id="edge1" class="edge">
<title>person#sitting on#bed&#45;&gt;bed</title>
<path fill="none" stroke="#7f7f7f" d="M502.33,-173.21C526.81,-175.49 559.37,-178.52 583.32,-180.75"/>
<polygon fill="#7f7f7f" stroke="#7f7f7f" points="588.59,-181.24 583.4031,-183.0174 586.1007,-181.0085 583.6115,-180.777 583.6115,-180.777 583.6115,-180.777 586.1007,-181.0085 583.8198,-178.5367 588.59,-181.24 588.59,-181.24"/>
</g>
<!-- bed#beneath#person -->
<g id="node3" class="node">
<title>bed#beneath#person</title>
<path fill="#c3e2b3" stroke="#000000" d="M443.35,-292.81C443.35,-292.81 407.35,-292.81 407.35,-292.81 401.35,-292.81 395.35,-286.81 395.35,-280.81 395.35,-280.81 395.35,-268.81 395.35,-268.81 395.35,-262.81 401.35,-256.81 407.35,-256.81 407.35,-256.81 443.35,-256.81 443.35,-256.81 449.35,-256.81 455.35,-262.81 455.35,-268.81 455.35,-268.81 455.35,-280.81 455.35,-280.81 455.35,-286.81 449.35,-292.81 443.35,-292.81"/>
<text text-anchor="middle" x="425.35" y="-271.11" font-family="Times,serif" font-size="14.00" fill="#000000">beneath</text>
</g>
<!-- bed&#45;&gt;bed#beneath#person -->
<g id="edge2" class="edge">
<title>bed&#45;&gt;bed#beneath#person</title>
<path fill="none" stroke="#7f7f7f" d="M588.43,-196.81C554.69,-212.95 497.18,-240.45 460.24,-258.12"/>
<polygon fill="#7f7f7f" stroke="#7f7f7f" points="455.4,-260.44 458.9362,-256.2498 457.6544,-259.3594 459.9088,-258.2787 459.9088,-258.2787 459.9088,-258.2787 457.6544,-259.3594 460.8814,-260.3077 455.4,-260.44 455.4,-260.44"/>
</g>
<!-- person -->
<g id="node4" class="node">
<title>person</title>
<path fill="#ffb0b9" stroke="#000000" d="M333.93,-281.92C333.93,-281.92 287.93,-281.92 287.93,-281.92 281.93,-281.92 275.93,-275.92 275.93,-269.92 275.93,-269.92 275.93,-257.92 275.93,-257.92 275.93,-251.92 281.93,-245.92 287.93,-245.92 287.93,-245.92 333.93,-245.92 333.93,-245.92 339.93,-245.92 345.93,-251.92 345.93,-257.92 345.93,-257.92 345.93,-269.92 345.93,-269.92 345.93,-275.92 339.93,-281.92 333.93,-281.92"/>
<text text-anchor="middle" x="310.93" y="-258.92" font-family="Times,serif" font-size="20.00" fill="#000000">person</text>
</g>
<!-- bed#beneath#person&#45;&gt;person -->
<g id="edge3" class="edge">
<title>bed#beneath#person&#45;&gt;person</title>
<path fill="none" stroke="#7f7f7f" d="M395.29,-271.95C381.84,-270.67 365.79,-269.14 351.32,-267.76"/>
<polygon fill="#7f7f7f" stroke="#7f7f7f" points="346.07,-267.26 351.2608,-265.4943 348.5587,-267.4971 351.0475,-267.7341 351.0475,-267.7341 351.0475,-267.7341 348.5587,-267.4971 350.8341,-269.974 346.07,-267.26 346.07,-267.26"/>
</g>
<!-- person&#45;&gt;person#sitting on#bed -->
<g id="edge8" class="edge">
<title>person&#45;&gt;person#sitting on#bed</title>
<path fill="none" stroke="#7f7f7f" d="M341.14,-245.8C367.47,-230.01 405.66,-207.12 433.17,-190.62"/>
<polygon fill="#7f7f7f" stroke="#7f7f7f" points="437.49,-188.03 434.3586,-192.5308 435.3458,-189.3155 433.2016,-190.6011 433.2016,-190.6011 433.2016,-190.6011 435.3458,-189.3155 432.0447,-188.6713 437.49,-188.03 437.49,-188.03"/>
</g>
<!-- person#looking at#book -->
<g id="node8" class="node">
<title>person#looking at#book</title>
<path fill="#c3e2b3" stroke="#000000" d="M61,-351.13C61,-351.13 12,-351.13 12,-351.13 6,-351.13 0,-345.13 0,-339.13 0,-339.13 0,-327.13 0,-327.13 0,-321.13 6,-315.13 12,-315.13 12,-315.13 61,-315.13 61,-315.13 67,-315.13 73,-321.13 73,-327.13 73,-327.13 73,-339.13 73,-339.13 73,-345.13 67,-351.13 61,-351.13"/>
<text text-anchor="middle" x="36.5" y="-329.43" font-family="Times,serif" font-size="14.00" fill="#000000">looking at</text>
</g>
<!-- person&#45;&gt;person#looking at#book -->
<g id="edge9" class="edge">
<title>person&#45;&gt;person#looking at#book</title>
<path fill="none" stroke="#7f7f7f" d="M275.9,-272.75C225.36,-285.5 132.17,-309 78.175,-322.62"/>
<polygon fill="#7f7f7f" stroke="#7f7f7f" points="73.074,-323.91 77.3697,-320.5027 75.4977,-323.297 77.9214,-322.6841 77.9214,-322.6841 77.9214,-322.6841 75.4977,-323.297 78.4731,-324.8654 73.074,-323.91 73.074,-323.91"/>
</g>
<!-- person#not looking at#bed -->
<g id="node9" class="node">
<title>person#not looking at#bed</title>
<path fill="#c3e2b3" stroke="#000000" d="M639.54,-341.61C639.54,-341.61 569.54,-341.61 569.54,-341.61 563.54,-341.61 557.54,-335.61 557.54,-329.61 557.54,-329.61 557.54,-317.61 557.54,-317.61 557.54,-311.61 563.54,-305.61 569.54,-305.61 569.54,-305.61 639.54,-305.61 639.54,-305.61 645.54,-305.61 651.54,-311.61 651.54,-317.61 651.54,-317.61 651.54,-329.61 651.54,-329.61 651.54,-335.61 645.54,-341.61 639.54,-341.61"/>
<text text-anchor="middle" x="604.54" y="-319.91" font-family="Times,serif" font-size="14.00" fill="#000000">not looking at</text>
</g>
<!-- person&#45;&gt;person#not looking at#bed -->
<g id="edge10" class="edge">
<title>person&#45;&gt;person#not looking at#bed</title>
<path fill="none" stroke="#7f7f7f" d="M346.06,-271.06C397.36,-281.49 493.12,-300.96 552.58,-313.04"/>
<polygon fill="#7f7f7f" stroke="#7f7f7f" points="557.51,-314.05 552.1601,-315.2506 555.0609,-313.5482 552.6117,-313.0464 552.6117,-313.0464 552.6117,-313.0464 555.0609,-313.5482 553.0633,-310.8422 557.51,-314.05 557.51,-314.05"/>
</g>
<!-- person#not contacting#box -->
<g id="node10" class="node">
<title>person#not contacting#box</title>
<path fill="#c3e2b3" stroke="#000000" d="M340.68,-378.86C340.68,-378.86 268.68,-378.86 268.68,-378.86 262.68,-378.86 256.68,-372.86 256.68,-366.86 256.68,-366.86 256.68,-354.86 256.68,-354.86 256.68,-348.86 262.68,-342.86 268.68,-342.86 268.68,-342.86 340.68,-342.86 340.68,-342.86 346.68,-342.86 352.68,-348.86 352.68,-354.86 352.68,-354.86 352.68,-366.86 352.68,-366.86 352.68,-372.86 346.68,-378.86 340.68,-378.86"/>
<text text-anchor="middle" x="304.68" y="-357.16" font-family="Times,serif" font-size="14.00" fill="#000000">not contacting</text>
</g>
<!-- person&#45;&gt;person#not contacting#box -->
<g id="edge11" class="edge">
<title>person&#45;&gt;person#not contacting#box</title>
<path fill="none" stroke="#7f7f7f" d="M309.76,-282.15C308.75,-297.86 307.28,-320.61 306.18,-337.62"/>
<polygon fill="#7f7f7f" stroke="#7f7f7f" points="305.85,-342.7 303.9289,-337.5646 306.0121,-340.2053 306.1742,-337.7105 306.1742,-337.7105 306.1742,-337.7105 306.0121,-340.2053 308.4195,-337.8564 305.85,-342.7 305.85,-342.7"/>
</g>
<!-- person#not looking at#box -->
<g id="node11" class="node">
<title>person#not looking at#box</title>
<path fill="#c3e2b3" stroke="#000000" d="M406.73,-441.52C406.73,-441.52 336.73,-441.52 336.73,-441.52 330.73,-441.52 324.73,-435.52 324.73,-429.52 324.73,-429.52 324.73,-417.52 324.73,-417.52 324.73,-411.52 330.73,-405.52 336.73,-405.52 336.73,-405.52 406.73,-405.52 406.73,-405.52 412.73,-405.52 418.73,-411.52 418.73,-417.52 418.73,-417.52 418.73,-429.52 418.73,-429.52 418.73,-435.52 412.73,-441.52 406.73,-441.52"/>
<text text-anchor="middle" x="371.73" y="-419.82" font-family="Times,serif" font-size="14.00" fill="#000000">not looking at</text>
</g>
<!-- person&#45;&gt;person#not looking at#box -->
<g id="edge12" class="edge">
<title>person&#45;&gt;person#not looking at#box</title>
<path fill="none" stroke="#7f7f7f" d="M317.91,-282.22C329.04,-311.45 350.81,-368.59 362.97,-400.53"/>
<polygon fill="#7f7f7f" stroke="#7f7f7f" points="364.84,-405.43 360.9551,-401.5609 363.9486,-403.0943 363.0572,-400.7586 363.0572,-400.7586 363.0572,-400.7586 363.9486,-403.0943 365.1593,-399.9563 364.84,-405.43 364.84,-405.43"/>
</g>
<!-- person#holding#cup/glass/bottle -->
<g id="node12" class="node">
<title>person#holding#cup/glass/bottle</title>
<path fill="#c3e2b3" stroke="#000000" d="M613.58,-38.993C613.58,-38.993 578.58,-38.993 578.58,-38.993 572.58,-38.993 566.58,-32.993 566.58,-26.993 566.58,-26.993 566.58,-14.993 566.58,-14.993 566.58,-8.993 572.58,-2.993 578.58,-2.993 578.58,-2.993 613.58,-2.993 613.58,-2.993 619.58,-2.993 625.58,-8.993 625.58,-14.993 625.58,-14.993 625.58,-26.993 625.58,-26.993 625.58,-32.993 619.58,-38.993 613.58,-38.993"/>
<text text-anchor="middle" x="596.08" y="-17.293" font-family="Times,serif" font-size="14.00" fill="#000000">holding</text>
</g>
<!-- person&#45;&gt;person#holding#cup/glass/bottle -->
<g id="edge13" class="edge">
<title>person&#45;&gt;person#holding#cup/glass/bottle</title>
<path fill="none" stroke="#7f7f7f" d="M332.37,-245.66C384.1,-201.59 515.61,-89.552 570.94,-42.412"/>
<polygon fill="#7f7f7f" stroke="#7f7f7f" points="574.79,-39.132 572.4431,-44.0873 572.887,-40.7533 570.9839,-42.3746 570.9839,-42.3746 570.9839,-42.3746 572.887,-40.7533 569.5248,-40.6619 574.79,-39.132 574.79,-39.132"/>
</g>
<!-- person#holding#book -->
<g id="node13" class="node">
<title>person#holding#book</title>
<path fill="#c3e2b3" stroke="#000000" d="M208.54,-406.88C208.54,-406.88 173.54,-406.88 173.54,-406.88 167.54,-406.88 161.54,-400.88 161.54,-394.88 161.54,-394.88 161.54,-382.88 161.54,-382.88 161.54,-376.88 167.54,-370.88 173.54,-370.88 173.54,-370.88 208.54,-370.88 208.54,-370.88 214.54,-370.88 220.54,-376.88 220.54,-382.88 220.54,-382.88 220.54,-394.88 220.54,-394.88 220.54,-400.88 214.54,-406.88 208.54,-406.88"/>
<text text-anchor="middle" x="191.04" y="-385.18" font-family="Times,serif" font-size="14.00" fill="#000000">holding</text>
</g>
<!-- person&#45;&gt;person#holding#book -->
<g id="edge14" class="edge">
<title>person&#45;&gt;person#holding#book</title>
<path fill="none" stroke="#7f7f7f" d="M293.5,-282.09C271.92,-304.58 235.21,-342.85 212.08,-366.95"/>
<polygon fill="#7f7f7f" stroke="#7f7f7f" points="208.49,-370.69 210.3293,-365.5247 210.2212,-368.8864 211.9525,-367.0828 211.9525,-367.0828 211.9525,-367.0828 210.2212,-368.8864 213.5757,-368.641 208.49,-370.69 208.49,-370.69"/>
</g>
<!-- person#touching#box -->
<g id="node14" class="node">
<title>person#touching#box</title>
<path fill="#c3e2b3" stroke="#000000" d="M331.2,-550.05C331.2,-550.05 290.2,-550.05 290.2,-550.05 284.2,-550.05 278.2,-544.05 278.2,-538.05 278.2,-538.05 278.2,-526.05 278.2,-526.05 278.2,-520.05 284.2,-514.05 290.2,-514.05 290.2,-514.05 331.2,-514.05 331.2,-514.05 337.2,-514.05 343.2,-520.05 343.2,-526.05 343.2,-526.05 343.2,-538.05 343.2,-538.05 343.2,-544.05 337.2,-550.05 331.2,-550.05"/>
<text text-anchor="middle" x="310.7" y="-528.35" font-family="Times,serif" font-size="14.00" fill="#000000">touching</text>
</g>
<!-- person&#45;&gt;person#touching#box -->
<g id="edge15" class="edge">
<title>person&#45;&gt;person#touching#box</title>
<path fill="none" stroke="#7f7f7f" d="M310.92,-281.93C310.88,-329.04 310.77,-455.91 310.72,-508.61"/>
<polygon fill="#7f7f7f" stroke="#7f7f7f" points="310.72,-513.77 308.4701,-508.77 310.72,-511.27 310.7201,-508.77 310.7201,-508.77 310.7201,-508.77 310.72,-511.27 312.9701,-508.77 310.72,-513.77 310.72,-513.77"/>
</g>
<!-- person#touching#pillow -->
<g id="node15" class="node">
<title>person#touching#pillow</title>
<path fill="#c3e2b3" stroke="#000000" d="M207.16,-42.1C207.16,-42.1 166.16,-42.1 166.16,-42.1 160.16,-42.1 154.16,-36.1 154.16,-30.1 154.16,-30.1 154.16,-18.1 154.16,-18.1 154.16,-12.1 160.16,-6.1 166.16,-6.1 166.16,-6.1 207.16,-6.1 207.16,-6.1 213.16,-6.1 219.16,-12.1 219.16,-18.1 219.16,-18.1 219.16,-30.1 219.16,-30.1 219.16,-36.1 213.16,-42.1 207.16,-42.1"/>
<text text-anchor="middle" x="186.66" y="-20.4" font-family="Times,serif" font-size="14.00" fill="#000000">touching</text>
</g>
<!-- person&#45;&gt;person#touching#pillow -->
<g id="edge16" class="edge">
<title>person&#45;&gt;person#touching#pillow</title>
<path fill="none" stroke="#7f7f7f" d="M301.59,-245.89C279.33,-202.92 223.15,-94.519 198.53,-47.008"/>
<polygon fill="#7f7f7f" stroke="#7f7f7f" points="196.11,-42.334 200.407,-45.7396 197.2595,-44.5541 198.409,-46.7742 198.409,-46.7742 198.409,-46.7742 197.2595,-44.5541 196.4109,-47.8087 196.11,-42.334 196.11,-42.334"/>
</g>
<!-- person#not looking at#pillow -->
<g id="node16" class="node">
<title>person#not looking at#pillow</title>
<path fill="#c3e2b3" stroke="#000000" d="M256.35,-185.57C256.35,-185.57 186.35,-185.57 186.35,-185.57 180.35,-185.57 174.35,-179.57 174.35,-173.57 174.35,-173.57 174.35,-161.57 174.35,-161.57 174.35,-155.57 180.35,-149.57 186.35,-149.57 186.35,-149.57 256.35,-149.57 256.35,-149.57 262.35,-149.57 268.35,-155.57 268.35,-161.57 268.35,-161.57 268.35,-173.57 268.35,-173.57 268.35,-179.57 262.35,-185.57 256.35,-185.57"/>
<text text-anchor="middle" x="221.35" y="-163.87" font-family="Times,serif" font-size="14.00" fill="#000000">not looking at</text>
</g>
<!-- person&#45;&gt;person#not looking at#pillow -->
<g id="edge17" class="edge">
<title>person&#45;&gt;person#not looking at#pillow</title>
<path fill="none" stroke="#7f7f7f" d="M294.08,-245.79C279.19,-229.78 257.44,-206.39 241.61,-189.36"/>
<polygon fill="#7f7f7f" stroke="#7f7f7f" points="238.12,-185.61 243.1735,-187.7373 239.8232,-187.4401 241.5264,-189.2702 241.5264,-189.2702 241.5264,-189.2702 239.8232,-187.4401 239.8793,-190.803 238.12,-185.61 238.12,-185.61"/>
</g>
<!-- person#not looking at#cup/glass/bottle -->
<g id="node17" class="node">
<title>person#not looking at#cup/glass/bottle</title>
<path fill="#c3e2b3" stroke="#000000" d="M338.75,-36C338.75,-36 268.75,-36 268.75,-36 262.75,-36 256.75,-30 256.75,-24 256.75,-24 256.75,-12 256.75,-12 256.75,-6 262.75,0 268.75,0 268.75,0 338.75,0 338.75,0 344.75,0 350.75,-6 350.75,-12 350.75,-12 350.75,-24 350.75,-24 350.75,-30 344.75,-36 338.75,-36"/>
<text text-anchor="middle" x="303.75" y="-14.3" font-family="Times,serif" font-size="14.00" fill="#000000">not looking at</text>
</g>
<!-- person&#45;&gt;person#not looking at#cup/glass/bottle -->
<g id="edge18" class="edge">
<title>person&#45;&gt;person#not looking at#cup/glass/bottle</title>
<path fill="none" stroke="#7f7f7f" d="M310.41,-245.83C309.13,-201.95 305.85,-89.873 304.43,-41.174"/>
<polygon fill="#7f7f7f" stroke="#7f7f7f" points="304.28,-36.109 306.6771,-41.0402 304.3541,-38.6079 304.4281,-41.1068 304.4281,-41.1068 304.4281,-41.1068 304.3541,-38.6079 302.1791,-41.1735 304.28,-36.109 304.28,-36.109"/>
</g>
<!-- person#touching#book -->
<g id="node18" class="node">
<title>person#touching#book</title>
<path fill="#c3e2b3" stroke="#000000" d="M212.5,-293.38C212.5,-293.38 171.5,-293.38 171.5,-293.38 165.5,-293.38 159.5,-287.38 159.5,-281.38 159.5,-281.38 159.5,-269.38 159.5,-269.38 159.5,-263.38 165.5,-257.38 171.5,-257.38 171.5,-257.38 212.5,-257.38 212.5,-257.38 218.5,-257.38 224.5,-263.38 224.5,-269.38 224.5,-269.38 224.5,-281.38 224.5,-281.38 224.5,-287.38 218.5,-293.38 212.5,-293.38"/>
<text text-anchor="middle" x="192" y="-271.68" font-family="Times,serif" font-size="14.00" fill="#000000">touching</text>
</g>
<!-- person&#45;&gt;person#touching#book -->
<g id="edge19" class="edge">
<title>person&#45;&gt;person#touching#book</title>
<path fill="none" stroke="#7f7f7f" d="M275.89,-267.29C261.49,-268.68 244.78,-270.29 230.07,-271.71"/>
<polygon fill="#7f7f7f" stroke="#7f7f7f" points="224.76,-272.22 229.5219,-269.5022 227.2485,-271.9809 229.7371,-271.7419 229.7371,-271.7419 229.7371,-271.7419 227.2485,-271.9809 229.9522,-273.9816 224.76,-272.22 224.76,-272.22"/>
</g>
<!-- box -->
<g id="node5" class="node">
<title>box</title>
<path fill="#ffb0b9" stroke="#000000" d="M468.98,-554.44C468.98,-554.44 438.98,-554.44 438.98,-554.44 432.98,-554.44 426.98,-548.44 426.98,-542.44 426.98,-542.44 426.98,-530.44 426.98,-530.44 426.98,-524.44 432.98,-518.44 438.98,-518.44 438.98,-518.44 468.98,-518.44 468.98,-518.44 474.98,-518.44 480.98,-524.44 480.98,-530.44 480.98,-530.44 480.98,-542.44 480.98,-542.44 480.98,-548.44 474.98,-554.44 468.98,-554.44"/>
<text text-anchor="middle" x="453.98" y="-531.44" font-family="Times,serif" font-size="20.00" fill="#000000">box</text>
</g>
<!-- box#on the side of#person -->
<g id="node6" class="node">
<title>box#on the side of#person</title>
<path fill="#c3e2b3" stroke="#000000" d="M501.83,-392.67C501.83,-392.67 433.83,-392.67 433.83,-392.67 427.83,-392.67 421.83,-386.67 421.83,-380.67 421.83,-380.67 421.83,-368.67 421.83,-368.67 421.83,-362.67 427.83,-356.67 433.83,-356.67 433.83,-356.67 501.83,-356.67 501.83,-356.67 507.83,-356.67 513.83,-362.67 513.83,-368.67 513.83,-368.67 513.83,-380.67 513.83,-380.67 513.83,-386.67 507.83,-392.67 501.83,-392.67"/>
<text text-anchor="middle" x="467.83" y="-370.97" font-family="Times,serif" font-size="14.00" fill="#000000">on the side of</text>
</g>
<!-- box&#45;&gt;box#on the side of#person -->
<g id="edge4" class="edge">
<title>box&#45;&gt;box#on the side of#person</title>
<path fill="none" stroke="#7f7f7f" d="M455.54,-518.2C458.07,-488.71 463.04,-430.59 465.83,-398.09"/>
<polygon fill="#7f7f7f" stroke="#7f7f7f" points="466.25,-393.1 468.0726,-398.2711 466.0403,-395.5912 465.8305,-398.0824 465.8305,-398.0824 465.8305,-398.0824 466.0403,-395.5912 463.5885,-397.8936 466.25,-393.1 466.25,-393.1"/>
</g>
<!-- box#in front of#person -->
<g id="node7" class="node">
<title>box#in front of#person</title>
<path fill="#c3e2b3" stroke="#000000" d="M636.4,-520.71C636.4,-520.71 587.4,-520.71 587.4,-520.71 581.4,-520.71 575.4,-514.71 575.4,-508.71 575.4,-508.71 575.4,-496.71 575.4,-496.71 575.4,-490.71 581.4,-484.71 587.4,-484.71 587.4,-484.71 636.4,-484.71 636.4,-484.71 642.4,-484.71 648.4,-490.71 648.4,-496.71 648.4,-496.71 648.4,-508.71 648.4,-508.71 648.4,-514.71 642.4,-520.71 636.4,-520.71"/>
<text text-anchor="middle" x="611.9" y="-499.01" font-family="Times,serif" font-size="14.00" fill="#000000">in front of</text>
</g>
<!-- box&#45;&gt;box#in front of#person -->
<g id="edge5" class="edge">
<title>box&#45;&gt;box#in front of#person</title>
<path fill="none" stroke="#7f7f7f" d="M481.13,-530.64C505.62,-525.41 542.02,-517.64 570.2,-511.62"/>
<polygon fill="#7f7f7f" stroke="#7f7f7f" points="575.36,-510.52 570.939,-513.7631 572.9149,-511.0413 570.4699,-511.5625 570.4699,-511.5625 570.4699,-511.5625 572.9149,-511.0413 570.0007,-509.362 575.36,-510.52 575.36,-510.52"/>
</g>
<!-- box#on the side of#person&#45;&gt;person -->
<g id="edge6" class="edge">
<title>box#on the side of#person&#45;&gt;person</title>
<path fill="none" stroke="#7f7f7f" d="M442.27,-356.63C414.46,-337 370.06,-305.65 340.7,-284.93"/>
<polygon fill="#7f7f7f" stroke="#7f7f7f" points="336.48,-281.95 341.8622,-282.9963 338.5222,-283.3921 340.5643,-284.8342 340.5643,-284.8342 340.5643,-284.8342 338.5222,-283.3921 339.2664,-286.6722 336.48,-281.95 336.48,-281.95"/>
</g>
<!-- box#in front of#person&#45;&gt;person -->
<g id="edge7" class="edge">
<title>box#in front of#person&#45;&gt;person</title>
<path fill="none" stroke="#7f7f7f" d="M588.78,-484.37C533.94,-440.86 396.19,-331.56 337.78,-285.22"/>
<polygon fill="#7f7f7f" stroke="#7f7f7f" points="333.72,-281.99 339.0336,-283.3422 335.6764,-283.5465 337.6328,-285.1029 337.6328,-285.1029 337.6328,-285.1029 335.6764,-283.5465 336.232,-286.8637 333.72,-281.99 333.72,-281.99"/>
</g>
<!-- book -->
<g id="node19" class="node">
<title>book</title>
<path fill="#ffb0b9" stroke="#000000" d="M52.485,-526.23C52.485,-526.23 19.485,-526.23 19.485,-526.23 13.485,-526.23 7.485,-520.23 7.485,-514.23 7.485,-514.23 7.485,-502.23 7.485,-502.23 7.485,-496.23 13.485,-490.23 19.485,-490.23 19.485,-490.23 52.485,-490.23 52.485,-490.23 58.485,-490.23 64.485,-496.23 64.485,-502.23 64.485,-502.23 64.485,-514.23 64.485,-514.23 64.485,-520.23 58.485,-526.23 52.485,-526.23"/>
<text text-anchor="middle" x="35.985" y="-503.23" font-family="Times,serif" font-size="20.00" fill="#000000">book</text>
</g>
<!-- person#looking at#book&#45;&gt;book -->
<g id="edge20" class="edge">
<title>person#looking at#book&#45;&gt;book</title>
<path fill="none" stroke="#7f7f7f" d="M36.447,-351.21C36.353,-383.06 36.159,-449.14 36.054,-484.58"/>
<polygon fill="#7f7f7f" stroke="#7f7f7f" points="36.038,-489.99 33.8029,-484.9833 36.0454,-487.49 36.0529,-484.99 36.0529,-484.99 36.0529,-484.99 36.0454,-487.49 38.3029,-484.9967 36.038,-489.99 36.038,-489.99"/>
</g>
<!-- person#not looking at#bed&#45;&gt;bed -->
<g id="edge24" class="edge">
<title>person#not looking at#bed&#45;&gt;bed</title>
<path fill="none" stroke="#7f7f7f" d="M606,-305.33C608,-280.2 611.62,-234.97 613.83,-207.33"/>
<polygon fill="#7f7f7f" stroke="#7f7f7f" points="614.25,-202.05 616.0964,-207.2127 614.0517,-204.5421 613.8534,-207.0343 613.8534,-207.0343 613.8534,-207.0343 614.0517,-204.5421 611.6105,-206.8558 614.25,-202.05 614.25,-202.05"/>
</g>
<!-- person#not contacting#box&#45;&gt;box -->
<g id="edge25" class="edge">
<title>person#not contacting#box&#45;&gt;box</title>
<path fill="none" stroke="#7f7f7f" d="M320.1,-378.98C347.66,-411.4 405.29,-479.18 435.15,-514.3"/>
<polygon fill="#7f7f7f" stroke="#7f7f7f" points="438.65,-518.41 433.6952,-516.062 437.0291,-516.5066 435.4082,-514.6033 435.4082,-514.6033 435.4082,-514.6033 437.0291,-516.5066 437.1213,-513.1445 438.65,-518.41 438.65,-518.41"/>
</g>
<!-- person#not looking at#box&#45;&gt;box -->
<g id="edge26" class="edge">
<title>person#not looking at#box&#45;&gt;box</title>
<path fill="none" stroke="#7f7f7f" d="M384.95,-441.66C399.34,-461.42 422.36,-493.02 437.81,-514.25"/>
<polygon fill="#7f7f7f" stroke="#7f7f7f" points="440.8,-518.34 436.0327,-515.6315 439.3246,-516.3218 437.8491,-514.3036 437.8491,-514.3036 437.8491,-514.3036 439.3246,-516.3218 439.6655,-512.9757 440.8,-518.34 440.8,-518.34"/>
</g>
<!-- cup/glass/bottle -->
<g id="node22" class="node">
<title>cup/glass/bottle</title>
<path fill="#ffb0b9" stroke="#000000" d="M486,-36.552C486,-36.552 368,-36.552 368,-36.552 362,-36.552 356,-30.552 356,-24.552 356,-24.552 356,-12.552 356,-12.552 356,-6.552 362,-.552 368,-.552 368,-.552 486,-.552 486,-.552 492,-.552 498,-6.552 498,-12.552 498,-12.552 498,-24.552 498,-24.552 498,-30.552 492,-36.552 486,-36.552"/>
<text text-anchor="middle" x="427" y="-13.552" font-family="Times,serif" font-size="20.00" fill="#000000">cup/glass/bottle</text>
</g>
<!-- person#holding#cup/glass/bottle&#45;&gt;cup/glass/bottle -->
<g id="edge27" class="edge">
<title>person#holding#cup/glass/bottle&#45;&gt;cup/glass/bottle</title>
<path fill="none" stroke="#7f7f7f" d="M566.24,-20.562C548.7,-20.309 525.66,-19.976 503.38,-19.654"/>
<polygon fill="#7f7f7f" stroke="#7f7f7f" points="498.34,-19.581 503.3721,-17.4037 500.8397,-19.6173 503.3395,-19.6535 503.3395,-19.6535 503.3395,-19.6535 500.8397,-19.6173 503.3068,-21.9033 498.34,-19.581 498.34,-19.581"/>
</g>
<!-- person#holding#book&#45;&gt;book -->
<g id="edge28" class="edge">
<title>person#holding#book&#45;&gt;book</title>
<path fill="none" stroke="#7f7f7f" d="M167.49,-407.01C139.63,-428.45 93.313,-464.1 63.738,-486.87"/>
<polygon fill="#7f7f7f" stroke="#7f7f7f" points="59.501,-490.13 62.0917,-485.2977 61.4824,-488.6055 63.4638,-487.081 63.4638,-487.081 63.4638,-487.081 61.4824,-488.6055 64.8359,-488.8642 59.501,-490.13 59.501,-490.13"/>
</g>
<!-- person#touching#box&#45;&gt;box -->
<g id="edge29" class="edge">
<title>person#touching#box&#45;&gt;box</title>
<path fill="none" stroke="#7f7f7f" d="M343.22,-533.05C366.7,-533.77 398.29,-534.74 421.72,-535.45"/>
<polygon fill="#7f7f7f" stroke="#7f7f7f" points="426.89,-535.61 421.8228,-537.7042 424.3912,-535.5326 421.8924,-535.4552 421.8924,-535.4552 421.8924,-535.4552 424.3912,-535.5326 421.962,-533.2063 426.89,-535.61 426.89,-535.61"/>
</g>
<!-- pillow -->
<g id="node23" class="node">
<title>pillow</title>
<path fill="#ffb0b9" stroke="#000000" d="M59.017,-48.362C59.017,-48.362 15.017,-48.362 15.017,-48.362 9.017,-48.362 3.017,-42.362 3.017,-36.362 3.017,-36.362 3.017,-24.362 3.017,-24.362 3.017,-18.362 9.017,-12.362 15.017,-12.362 15.017,-12.362 59.017,-12.362 59.017,-12.362 65.017,-12.362 71.017,-18.362 71.017,-24.362 71.017,-24.362 71.017,-36.362 71.017,-36.362 71.017,-42.362 65.017,-48.362 59.017,-48.362"/>
<text text-anchor="middle" x="37.017" y="-25.362" font-family="Times,serif" font-size="20.00" fill="#000000">pillow</text>
</g>
<!-- person#touching#pillow&#45;&gt;pillow -->
<g id="edge30" class="edge">
<title>person#touching#pillow&#45;&gt;pillow</title>
<path fill="none" stroke="#7f7f7f" d="M153.82,-25.474C130.93,-26.432 100.29,-27.714 76.129,-28.725"/>
<polygon fill="#7f7f7f" stroke="#7f7f7f" points="71.078,-28.936 75.9797,-26.4792 73.5758,-28.8316 76.0736,-28.7272 76.0736,-28.7272 76.0736,-28.7272 73.5758,-28.8316 76.1676,-30.9753 71.078,-28.936 71.078,-28.936"/>
</g>
<!-- person#not looking at#pillow&#45;&gt;pillow -->
<g id="edge31" class="edge">
<title>person#not looking at#pillow&#45;&gt;pillow</title>
<path fill="none" stroke="#7f7f7f" d="M196.87,-149.35C162.9,-124.06 101.58,-78.419 65.565,-51.612"/>
<polygon fill="#7f7f7f" stroke="#7f7f7f" points="61.302,-48.439 66.6564,-49.6195 63.3075,-49.9317 65.3129,-51.4244 65.3129,-51.4244 65.3129,-51.4244 63.3075,-49.9317 63.9695,-53.2293 61.302,-48.439 61.302,-48.439"/>
</g>
<!-- person#not looking at#cup/glass/bottle&#45;&gt;cup/glass/bottle -->
<g id="edge32" class="edge">
<title>person#not looking at#cup/glass/bottle&#45;&gt;cup/glass/bottle</title>
<path fill="none" stroke="#7f7f7f" d="M351.05,-18.212C351.15,-18.212 351.25,-18.213 351.36,-18.213"/>
<polygon fill="#7f7f7f" stroke="#7f7f7f" points="355.97,-18.234 350.9598,-20.4611 353.47,-18.2226 350.9701,-18.2111 350.9701,-18.2111 350.9701,-18.2111 353.47,-18.2226 350.9803,-15.9611 355.97,-18.234 355.97,-18.234"/>
</g>
<!-- person#touching#book&#45;&gt;book -->
<g id="edge33" class="edge">
<title>person#touching#book&#45;&gt;book</title>
<path fill="none" stroke="#7f7f7f" d="M179.76,-293.65C151.51,-335.82 81.817,-439.83 51.026,-485.78"/>
<polygon fill="#7f7f7f" stroke="#7f7f7f" points="48.17,-490.05 49.0796,-484.643 49.5599,-487.972 50.9498,-485.8939 50.9498,-485.8939 50.9498,-485.8939 49.5599,-487.972 52.8201,-487.1449 48.17,-490.05 48.17,-490.05"/>
</g>
<!-- book#in front of#person -->
<g id="node20" class="node">
<title>book#in front of#person</title>
<path fill="#c3e2b3" stroke="#000000" d="M211.74,-549.56C211.74,-549.56 162.74,-549.56 162.74,-549.56 156.74,-549.56 150.74,-543.56 150.74,-537.56 150.74,-537.56 150.74,-525.56 150.74,-525.56 150.74,-519.56 156.74,-513.56 162.74,-513.56 162.74,-513.56 211.74,-513.56 211.74,-513.56 217.74,-513.56 223.74,-519.56 223.74,-525.56 223.74,-525.56 223.74,-537.56 223.74,-537.56 223.74,-543.56 217.74,-549.56 211.74,-549.56"/>
<text text-anchor="middle" x="187.24" y="-527.86" font-family="Times,serif" font-size="14.00" fill="#000000">in front of</text>
</g>
<!-- book&#45;&gt;book#in front of#person -->
<g id="edge21" class="edge">
<title>book&#45;&gt;book#in front of#person</title>
<path fill="none" stroke="#7f7f7f" d="M64.792,-512.67C87.613,-516.19 119.81,-521.16 145.47,-525.12"/>
<polygon fill="#7f7f7f" stroke="#7f7f7f" points="150.5,-525.89 145.2171,-527.3574 148.0288,-525.5117 145.5576,-525.1333 145.5576,-525.1333 145.5576,-525.1333 148.0288,-525.5117 145.8981,-522.9092 150.5,-525.89 150.5,-525.89"/>
</g>
<!-- book#in front of#person&#45;&gt;person -->
<g id="edge22" class="edge">
<title>book#in front of#person&#45;&gt;person</title>
<path fill="none" stroke="#7f7f7f" d="M195.75,-513.16C217.69,-465.68 276.19,-339.09 300.31,-286.9"/>
<polygon fill="#7f7f7f" stroke="#7f7f7f" points="302.54,-282.09 302.4782,-287.5726 301.4884,-284.3581 300.4369,-286.6262 300.4369,-286.6262 300.4369,-286.6262 301.4884,-284.3581 298.3956,-285.6798 302.54,-282.09 302.54,-282.09"/>
</g>
<!-- cup/glass/bottle#in front of#person -->
<g id="node21" class="node">
<title>cup/glass/bottle#in front of#person</title>
<path fill="#c3e2b3" stroke="#000000" d="M370.73,-179.84C370.73,-179.84 321.73,-179.84 321.73,-179.84 315.73,-179.84 309.73,-173.84 309.73,-167.84 309.73,-167.84 309.73,-155.84 309.73,-155.84 309.73,-149.84 315.73,-143.84 321.73,-143.84 321.73,-143.84 370.73,-143.84 370.73,-143.84 376.73,-143.84 382.73,-149.84 382.73,-155.84 382.73,-155.84 382.73,-167.84 382.73,-167.84 382.73,-173.84 376.73,-179.84 370.73,-179.84"/>
<text text-anchor="middle" x="346.23" y="-158.14" font-family="Times,serif" font-size="14.00" fill="#000000">in front of</text>
</g>
<!-- cup/glass/bottle#in front of#person&#45;&gt;person -->
<g id="edge23" class="edge">
<title>cup/glass/bottle#in front of#person&#45;&gt;person</title>
<path fill="none" stroke="#7f7f7f" d="M339.92,-180.09C334.05,-197.07 325.27,-222.45 318.92,-240.84"/>
<polygon fill="#7f7f7f" stroke="#7f7f7f" points="317.19,-245.82 316.7054,-240.3585 318.0104,-243.4584 318.8308,-241.0969 318.8308,-241.0969 318.8308,-241.0969 318.0104,-243.4584 320.9562,-241.8352 317.19,-245.82 317.19,-245.82"/>
</g>
<!-- cup/glass/bottle&#45;&gt;cup/glass/bottle#in front of#person -->
<g id="edge34" class="edge">
<title>cup/glass/bottle&#45;&gt;cup/glass/bottle#in front of#person</title>
<path fill="none" stroke="#7f7f7f" d="M416.77,-36.699C402.1,-62.717 375.11,-110.61 359.1,-139"/>
<polygon fill="#7f7f7f" stroke="#7f7f7f" points="356.63,-143.38 357.1262,-137.9195 357.858,-141.2024 359.0861,-139.0248 359.0861,-139.0248 359.0861,-139.0248 357.858,-141.2024 361.0459,-140.13 356.63,-143.38 356.63,-143.38"/>
</g>
<!-- pillow#in front of#person -->
<g id="node24" class="node">
<title>pillow#in front of#person</title>
<path fill="#c3e2b3" stroke="#000000" d="M75.081,-211.51C75.081,-211.51 26.081,-211.51 26.081,-211.51 20.081,-211.51 14.081,-205.51 14.081,-199.51 14.081,-199.51 14.081,-187.51 14.081,-187.51 14.081,-181.51 20.081,-175.51 26.081,-175.51 26.081,-175.51 75.081,-175.51 75.081,-175.51 81.081,-175.51 87.081,-181.51 87.081,-187.51 87.081,-187.51 87.081,-199.51 87.081,-199.51 87.081,-205.51 81.081,-211.51 75.081,-211.51"/>
<text text-anchor="middle" x="50.581" y="-189.81" font-family="Times,serif" font-size="14.00" fill="#000000">in front of</text>
</g>
<!-- pillow&#45;&gt;pillow#in front of#person -->
<g id="edge36" class="edge">
<title>pillow&#45;&gt;pillow#in front of#person</title>
<path fill="none" stroke="#7f7f7f" d="M38.52,-48.444C40.995,-78.212 45.924,-137.5 48.652,-170.31"/>
<polygon fill="#7f7f7f" stroke="#7f7f7f" points="49.071,-175.34 46.4136,-170.5441 48.8634,-172.8486 48.6558,-170.3573 48.6558,-170.3573 48.6558,-170.3573 48.8634,-172.8486 50.8981,-170.1704 49.071,-175.34 49.071,-175.34"/>
</g>
<!-- pillow#in front of#person&#45;&gt;person -->
<g id="edge35" class="edge">
<title>pillow#in front of#person&#45;&gt;person</title>
<path fill="none" stroke="#7f7f7f" d="M87.331,-203.44C135.71,-216.53 220.48,-239.45 270.58,-253"/>
<polygon fill="#7f7f7f" stroke="#7f7f7f" points="275.62,-254.37 270.2049,-255.2296 273.2075,-253.7142 270.7951,-253.0584 270.7951,-253.0584 270.7951,-253.0584 273.2075,-253.7142 271.3853,-250.8872 275.62,-254.37 275.62,-254.37"/>
</g>
</g>
</svg>
