<?xml version="1.0" encoding="UTF-8" standalone="no"?>
<!DOCTYPE svg PUBLIC "-//W3C//DTD SVG 1.1//EN"
 "http://www.w3.org/Graphics/SVG/1.1/DTD/svg11.dtd">
<!-- Generated by graphviz version 2.40.1 (20161225.0304)
 -->
<!-- Pages: 1 -->
<svg width="661pt" height="447pt"
 viewBox="0.00 0.00 660.75 446.50" xmlns="http://www.w3.org/2000/svg" xmlns:xlink="http://www.w3.org/1999/xlink">
<g id="graph0" class="graph" transform="scale(1 1) rotate(0) translate(4 442.5)">
<polygon fill="#ffffff" stroke="transparent" points="-4,4 -4,-442.5 656.75,-442.5 656.75,4 -4,4"/>
<!-- pillow#in front of#person -->
<g id="node1" class="node">
<title>pillow#in front of#person</title>
<path fill="#c3e2b3" stroke="#000000" d="M244.96,-46.297C244.96,-46.297 195.96,-46.297 195.96,-46.297 189.96,-46.297 183.96,-40.297 183.96,-34.297 183.96,-34.297 183.96,-22.297 183.96,-22.297 183.96,-16.297 189.96,-10.297 195.96,-10.297 195.96,-10.297 244.96,-10.297 244.96,-10.297 250.96,-10.297 256.96,-16.297 256.96,-22.297 256.96,-22.297 256.96,-34.297 256.96,-34.297 256.96,-40.297 250.96,-46.297 244.96,-46.297"/>
<text text-anchor="middle" x="220.46" y="-24.597" font-family="Times,serif" font-size="14.00" fill="#000000">in front of</text>
</g>
<!-- person -->
<g id="node2" class="node">
<title>person</title>
<path fill="#ffb0b9" stroke="#000000" d="M389.49,-242.97C389.49,-242.97 343.49,-242.97 343.49,-242.97 337.49,-242.97 331.49,-236.97 331.49,-230.97 331.49,-230.97 331.49,-218.97 331.49,-218.97 331.49,-212.97 337.49,-206.97 343.49,-206.97 343.49,-206.97 389.49,-206.97 389.49,-206.97 395.49,-206.97 401.49,-212.97 401.49,-218.97 401.49,-218.97 401.49,-230.97 401.49,-230.97 401.49,-236.97 395.49,-242.97 389.49,-242.97"/>
<text text-anchor="middle" x="366.49" y="-219.97" font-family="Times,serif" font-size="20.00" fill="#000000">person</text>
</g>
<!-- pillow#in front of#person&#45;&gt;person -->
<g id="edge1" class="edge">
<title>pillow#in front of#person&#45;&gt;person</title>
<path fill="none" stroke="#7f7f7f" d="M233.94,-46.447C260.78,-82.596 320.83,-163.48 349.98,-202.74"/>
<polygon fill="#7f7f7f" stroke="#7f7f7f" points="353.04,-206.86 348.2524,-204.1876 351.5493,-204.853 350.0587,-202.846 350.0587,-202.846 350.0587,-202.846 351.5493,-204.853 351.865,-201.5044 353.04,-206.86 353.04,-206.86"/>
</g>
<!-- person#holding#book -->
<g id="node3" class="node">
<title>person#holding#book</title>
<path fill="#c3e2b3" stroke="#000000" d="M359.7,-36C359.7,-36 324.7,-36 324.7,-36 318.7,-36 312.7,-30 312.7,-24 312.7,-24 312.7,-12 312.7,-12 312.7,-6 318.7,0 324.7,0 324.7,0 359.7,0 359.7,0 365.7,0 371.7,-6 371.7,-12 371.7,-12 371.7,-24 371.7,-24 371.7,-30 365.7,-36 359.7,-36"/>
<text text-anchor="middle" x="342.2" y="-14.3" font-family="Times,serif" font-size="14.00" fill="#000000">holding</text>
</g>
<!-- person&#45;&gt;person#holding#book -->
<g id="edge2" class="edge">
<title>person&#45;&gt;person#holding#book</title>
<path fill="none" stroke="#7f7f7f" d="M364.37,-206.96C359.97,-169.43 349.81,-82.845 344.92,-41.2"/>
<polygon fill="#7f7f7f" stroke="#7f7f7f" points="344.32,-36.111 347.1401,-40.8131 344.6128,-38.5938 344.9055,-41.0766 344.9055,-41.0766 344.9055,-41.0766 344.6128,-38.5938 342.671,-41.3401 344.32,-36.111 344.32,-36.111"/>
</g>
<!-- person#not contacting#box -->
<g id="node4" class="node">
<title>person#not contacting#box</title>
<path fill="#c3e2b3" stroke="#000000" d="M411.94,-349.58C411.94,-349.58 339.94,-349.58 339.94,-349.58 333.94,-349.58 327.94,-343.58 327.94,-337.58 327.94,-337.58 327.94,-325.58 327.94,-325.58 327.94,-319.58 333.94,-313.58 339.94,-313.58 339.94,-313.58 411.94,-313.58 411.94,-313.58 417.94,-313.58 423.94,-319.58 423.94,-325.58 423.94,-325.58 423.94,-337.58 423.94,-337.58 423.94,-343.58 417.94,-349.58 411.94,-349.58"/>
<text text-anchor="middle" x="375.94" y="-327.88" font-family="Times,serif" font-size="14.00" fill="#000000">not contacting</text>
</g>
<!-- person&#45;&gt;person#not contacting#box -->
<g id="edge3" class="edge">
<title>person&#45;&gt;person#not contacting#box</title>
<path fill="none" stroke="#7f7f7f" d="M368.09,-243.05C369.69,-261.05 372.14,-288.74 373.88,-308.35"/>
<polygon fill="#7f7f7f" stroke="#7f7f7f" points="374.33,-313.4 371.645,-308.6195 374.1081,-310.9099 373.8861,-308.4197 373.8861,-308.4197 373.8861,-308.4197 374.1081,-310.9099 376.1272,-308.22 374.33,-313.4 374.33,-313.4"/>
</g>
<!-- person#touching#box -->
<g id="node5" class="node">
<title>person#touching#box</title>
<path fill="#c3e2b3" stroke="#000000" d="M309.89,-310.74C309.89,-310.74 268.89,-310.74 268.89,-310.74 262.89,-310.74 256.89,-304.74 256.89,-298.74 256.89,-298.74 256.89,-286.74 256.89,-286.74 256.89,-280.74 262.89,-274.74 268.89,-274.74 268.89,-274.74 309.89,-274.74 309.89,-274.74 315.89,-274.74 321.89,-280.74 321.89,-286.74 321.89,-286.74 321.89,-298.74 321.89,-298.74 321.89,-304.74 315.89,-310.74 309.89,-310.74"/>
<text text-anchor="middle" x="289.39" y="-289.04" font-family="Times,serif" font-size="14.00" fill="#000000">touching</text>
</g>
<!-- person&#45;&gt;person#touching#box -->
<g id="edge4" class="edge">
<title>person&#45;&gt;person#touching#box</title>
<path fill="none" stroke="#7f7f7f" d="M345.83,-243.13C336.06,-251.72 324.33,-262.03 314.1,-271.03"/>
<polygon fill="#7f7f7f" stroke="#7f7f7f" points="310.11,-274.53 312.3851,-269.5413 311.9894,-272.8814 313.8688,-271.2328 313.8688,-271.2328 313.8688,-271.2328 311.9894,-272.8814 315.3526,-272.9242 310.11,-274.53 310.11,-274.53"/>
</g>
<!-- person#touching#pillow -->
<g id="node6" class="node">
<title>person#touching#pillow</title>
<path fill="#c3e2b3" stroke="#000000" d="M190.01,-168.15C190.01,-168.15 149.01,-168.15 149.01,-168.15 143.01,-168.15 137.01,-162.15 137.01,-156.15 137.01,-156.15 137.01,-144.15 137.01,-144.15 137.01,-138.15 143.01,-132.15 149.01,-132.15 149.01,-132.15 190.01,-132.15 190.01,-132.15 196.01,-132.15 202.01,-138.15 202.01,-144.15 202.01,-144.15 202.01,-156.15 202.01,-156.15 202.01,-162.15 196.01,-168.15 190.01,-168.15"/>
<text text-anchor="middle" x="169.51" y="-146.45" font-family="Times,serif" font-size="14.00" fill="#000000">touching</text>
</g>
<!-- person&#45;&gt;person#touching#pillow -->
<g id="edge5" class="edge">
<title>person&#45;&gt;person#touching#pillow</title>
<path fill="none" stroke="#7f7f7f" d="M331.27,-211.59C296.22,-198.28 242.62,-177.92 206.84,-164.33"/>
<polygon fill="#7f7f7f" stroke="#7f7f7f" points="202.14,-162.54 207.6134,-162.217 204.4763,-163.4298 206.8126,-164.3196 206.8126,-164.3196 206.8126,-164.3196 204.4763,-163.4298 206.0118,-166.4223 202.14,-162.54 202.14,-162.54"/>
</g>
<!-- person#not looking at#pillow -->
<g id="node7" class="node">
<title>person#not looking at#pillow</title>
<path fill="#c3e2b3" stroke="#000000" d="M299.85,-195.39C299.85,-195.39 229.85,-195.39 229.85,-195.39 223.85,-195.39 217.85,-189.39 217.85,-183.39 217.85,-183.39 217.85,-171.39 217.85,-171.39 217.85,-165.39 223.85,-159.39 229.85,-159.39 229.85,-159.39 299.85,-159.39 299.85,-159.39 305.85,-159.39 311.85,-165.39 311.85,-171.39 311.85,-171.39 311.85,-183.39 311.85,-183.39 311.85,-189.39 305.85,-195.39 299.85,-195.39"/>
<text text-anchor="middle" x="264.85" y="-173.69" font-family="Times,serif" font-size="14.00" fill="#000000">not looking at</text>
</g>
<!-- person&#45;&gt;person#not looking at#pillow -->
<g id="edge6" class="edge">
<title>person&#45;&gt;person#not looking at#pillow</title>
<path fill="none" stroke="#7f7f7f" d="M331.22,-208.46C323.82,-204.99 315.92,-201.3 308.26,-197.71"/>
<polygon fill="#7f7f7f" stroke="#7f7f7f" points="303.52,-195.49 309.0023,-195.5732 305.784,-196.5504 308.048,-197.6108 308.048,-197.6108 308.048,-197.6108 305.784,-196.5504 307.0937,-199.6484 303.52,-195.49 303.52,-195.49"/>
</g>
<!-- person#not looking at#box -->
<g id="node8" class="node">
<title>person#not looking at#box</title>
<path fill="#c3e2b3" stroke="#000000" d="M640.75,-425.91C640.75,-425.91 570.75,-425.91 570.75,-425.91 564.75,-425.91 558.75,-419.91 558.75,-413.91 558.75,-413.91 558.75,-401.91 558.75,-401.91 558.75,-395.91 564.75,-389.91 570.75,-389.91 570.75,-389.91 640.75,-389.91 640.75,-389.91 646.75,-389.91 652.75,-395.91 652.75,-401.91 652.75,-401.91 652.75,-413.91 652.75,-413.91 652.75,-419.91 646.75,-425.91 640.75,-425.91"/>
<text text-anchor="middle" x="605.75" y="-404.21" font-family="Times,serif" font-size="14.00" fill="#000000">not looking at</text>
</g>
<!-- person&#45;&gt;person#not looking at#box -->
<g id="edge7" class="edge">
<title>person&#45;&gt;person#not looking at#box</title>
<path fill="none" stroke="#7f7f7f" d="M390.3,-243.18C434.82,-277.22 530.42,-350.32 577.87,-386.59"/>
<polygon fill="#7f7f7f" stroke="#7f7f7f" points="582.03,-389.77 576.6912,-388.521 580.0438,-388.2517 578.0576,-386.7334 578.0576,-386.7334 578.0576,-386.7334 580.0438,-388.2517 579.4241,-384.9459 582.03,-389.77 582.03,-389.77"/>
</g>
<!-- person#not looking at#bed -->
<g id="node9" class="node">
<title>person#not looking at#bed</title>
<path fill="#c3e2b3" stroke="#000000" d="M553.95,-147.88C553.95,-147.88 483.95,-147.88 483.95,-147.88 477.95,-147.88 471.95,-141.88 471.95,-135.88 471.95,-135.88 471.95,-123.88 471.95,-123.88 471.95,-117.88 477.95,-111.88 483.95,-111.88 483.95,-111.88 553.95,-111.88 553.95,-111.88 559.95,-111.88 565.95,-117.88 565.95,-123.88 565.95,-123.88 565.95,-135.88 565.95,-135.88 565.95,-141.88 559.95,-147.88 553.95,-147.88"/>
<text text-anchor="middle" x="518.95" y="-126.18" font-family="Times,serif" font-size="14.00" fill="#000000">not looking at</text>
</g>
<!-- person&#45;&gt;person#not looking at#bed -->
<g id="edge8" class="edge">
<title>person&#45;&gt;person#not looking at#bed</title>
<path fill="none" stroke="#7f7f7f" d="M395.52,-206.86C421.17,-190.87 458.56,-167.54 485.46,-150.77"/>
<polygon fill="#7f7f7f" stroke="#7f7f7f" points="490.02,-147.92 486.9725,-152.478 487.9,-149.245 485.78,-150.57 485.78,-150.57 485.78,-150.57 487.9,-149.245 484.5875,-148.662 490.02,-147.92 490.02,-147.92"/>
</g>
<!-- person#not looking at#cup/glass/bottle -->
<g id="node10" class="node">
<title>person#not looking at#cup/glass/bottle</title>
<path fill="#c3e2b3" stroke="#000000" d="M240.77,-423.02C240.77,-423.02 170.77,-423.02 170.77,-423.02 164.77,-423.02 158.77,-417.02 158.77,-411.02 158.77,-411.02 158.77,-399.02 158.77,-399.02 158.77,-393.02 164.77,-387.02 170.77,-387.02 170.77,-387.02 240.77,-387.02 240.77,-387.02 246.77,-387.02 252.77,-393.02 252.77,-399.02 252.77,-399.02 252.77,-411.02 252.77,-411.02 252.77,-417.02 246.77,-423.02 240.77,-423.02"/>
<text text-anchor="middle" x="205.77" y="-401.32" font-family="Times,serif" font-size="14.00" fill="#000000">not looking at</text>
</g>
<!-- person&#45;&gt;person#not looking at#cup/glass/bottle -->
<g id="edge9" class="edge">
<title>person&#45;&gt;person#not looking at#cup/glass/bottle</title>
<path fill="none" stroke="#7f7f7f" d="M350.19,-243.22C320.39,-276.61 257.25,-347.35 225.24,-383.21"/>
<polygon fill="#7f7f7f" stroke="#7f7f7f" points="221.87,-386.99 223.5179,-381.7605 223.5337,-385.1239 225.1974,-383.2578 225.1974,-383.2578 225.1974,-383.2578 223.5337,-385.1239 226.8768,-384.7551 221.87,-386.99 221.87,-386.99"/>
</g>
<!-- person#looking at#book -->
<g id="node11" class="node">
<title>person#looking at#book</title>
<path fill="#c3e2b3" stroke="#000000" d="M443.29,-146.85C443.29,-146.85 394.29,-146.85 394.29,-146.85 388.29,-146.85 382.29,-140.85 382.29,-134.85 382.29,-134.85 382.29,-122.85 382.29,-122.85 382.29,-116.85 388.29,-110.85 394.29,-110.85 394.29,-110.85 443.29,-110.85 443.29,-110.85 449.29,-110.85 455.29,-116.85 455.29,-122.85 455.29,-122.85 455.29,-134.85 455.29,-134.85 455.29,-140.85 449.29,-146.85 443.29,-146.85"/>
<text text-anchor="middle" x="418.79" y="-125.15" font-family="Times,serif" font-size="14.00" fill="#000000">looking at</text>
</g>
<!-- person&#45;&gt;person#looking at#book -->
<g id="edge10" class="edge">
<title>person&#45;&gt;person#looking at#book</title>
<path fill="none" stroke="#7f7f7f" d="M376.32,-206.89C384.82,-191.28 397.13,-168.65 406.31,-151.77"/>
<polygon fill="#7f7f7f" stroke="#7f7f7f" points="408.81,-147.17 408.3993,-152.6376 407.6162,-149.3666 406.4224,-151.5631 406.4224,-151.5631 406.4224,-151.5631 407.6162,-149.3666 404.4455,-150.4887 408.81,-147.17 408.81,-147.17"/>
</g>
<!-- person#touching#book -->
<g id="node12" class="node">
<title>person#touching#book</title>
<path fill="#c3e2b3" stroke="#000000" d="M631.97,-53.109C631.97,-53.109 590.97,-53.109 590.97,-53.109 584.97,-53.109 578.97,-47.109 578.97,-41.109 578.97,-41.109 578.97,-29.109 578.97,-29.109 578.97,-23.109 584.97,-17.109 590.97,-17.109 590.97,-17.109 631.97,-17.109 631.97,-17.109 637.97,-17.109 643.97,-23.109 643.97,-29.109 643.97,-29.109 643.97,-41.109 643.97,-41.109 643.97,-47.109 637.97,-53.109 631.97,-53.109"/>
<text text-anchor="middle" x="611.47" y="-31.409" font-family="Times,serif" font-size="14.00" fill="#000000">touching</text>
</g>
<!-- person&#45;&gt;person#touching#book -->
<g id="edge11" class="edge">
<title>person&#45;&gt;person#touching#book</title>
<path fill="none" stroke="#7f7f7f" d="M389.98,-206.76C435.52,-171.47 535.61,-93.898 584.09,-56.33"/>
<polygon fill="#7f7f7f" stroke="#7f7f7f" points="588.05,-53.259 585.4777,-58.1012 586.0744,-54.7911 584.0989,-56.3231 584.0989,-56.3231 584.0989,-56.3231 586.0744,-54.7911 582.72,-54.5451 588.05,-53.259 588.05,-53.259"/>
</g>
<!-- person#sitting on#bed -->
<g id="node13" class="node">
<title>person#sitting on#bed</title>
<path fill="#c3e2b3" stroke="#000000" d="M498.77,-233.77C498.77,-233.77 453.77,-233.77 453.77,-233.77 447.77,-233.77 441.77,-227.77 441.77,-221.77 441.77,-221.77 441.77,-209.77 441.77,-209.77 441.77,-203.77 447.77,-197.77 453.77,-197.77 453.77,-197.77 498.77,-197.77 498.77,-197.77 504.77,-197.77 510.77,-203.77 510.77,-209.77 510.77,-209.77 510.77,-221.77 510.77,-221.77 510.77,-227.77 504.77,-233.77 498.77,-233.77"/>
<text text-anchor="middle" x="476.27" y="-212.07" font-family="Times,serif" font-size="14.00" fill="#000000">sitting on</text>
</g>
<!-- person&#45;&gt;person#sitting on#bed -->
<g id="edge12" class="edge">
<title>person&#45;&gt;person#sitting on#bed</title>
<path fill="none" stroke="#7f7f7f" d="M401.53,-222.03C412.63,-221.1 424.98,-220.07 436.4,-219.11"/>
<polygon fill="#7f7f7f" stroke="#7f7f7f" points="441.57,-218.68 436.7737,-221.3368 439.0786,-218.8873 436.5872,-219.0945 436.5872,-219.0945 436.5872,-219.0945 439.0786,-218.8873 436.4007,-216.8523 441.57,-218.68 441.57,-218.68"/>
</g>
<!-- person#holding#cup/glass/bottle -->
<g id="node14" class="node">
<title>person#holding#cup/glass/bottle</title>
<path fill="#c3e2b3" stroke="#000000" d="M209.08,-289.6C209.08,-289.6 174.08,-289.6 174.08,-289.6 168.08,-289.6 162.08,-283.6 162.08,-277.6 162.08,-277.6 162.08,-265.6 162.08,-265.6 162.08,-259.6 168.08,-253.6 174.08,-253.6 174.08,-253.6 209.08,-253.6 209.08,-253.6 215.08,-253.6 221.08,-259.6 221.08,-265.6 221.08,-265.6 221.08,-277.6 221.08,-277.6 221.08,-283.6 215.08,-289.6 209.08,-289.6"/>
<text text-anchor="middle" x="191.58" y="-267.9" font-family="Times,serif" font-size="14.00" fill="#000000">holding</text>
</g>
<!-- person&#45;&gt;person#holding#cup/glass/bottle -->
<g id="edge13" class="edge">
<title>person&#45;&gt;person#holding#cup/glass/bottle</title>
<path fill="none" stroke="#7f7f7f" d="M331.09,-234.41C300.52,-242.56 256.6,-254.26 226.25,-262.36"/>
<polygon fill="#7f7f7f" stroke="#7f7f7f" points="221.12,-263.72 225.3764,-260.2638 223.5365,-263.0793 225.953,-262.4387 225.953,-262.4387 225.953,-262.4387 223.5365,-263.0793 226.5297,-264.6135 221.12,-263.72 221.12,-263.72"/>
</g>
<!-- book -->
<g id="node15" class="node">
<title>book</title>
<path fill="#ffb0b9" stroke="#000000" d="M481.93,-36.185C481.93,-36.185 448.93,-36.185 448.93,-36.185 442.93,-36.185 436.93,-30.185 436.93,-24.185 436.93,-24.185 436.93,-12.185 436.93,-12.185 436.93,-6.185 442.93,-.185 448.93,-.185 448.93,-.185 481.93,-.185 481.93,-.185 487.93,-.185 493.93,-6.185 493.93,-12.185 493.93,-12.185 493.93,-24.185 493.93,-24.185 493.93,-30.185 487.93,-36.185 481.93,-36.185"/>
<text text-anchor="middle" x="465.43" y="-13.185" font-family="Times,serif" font-size="20.00" fill="#000000">book</text>
</g>
<!-- person#holding#book&#45;&gt;book -->
<g id="edge14" class="edge">
<title>person#holding#book&#45;&gt;book</title>
<path fill="none" stroke="#7f7f7f" d="M371.71,-18.044C389.68,-18.071 412.69,-18.106 431.42,-18.134"/>
<polygon fill="#7f7f7f" stroke="#7f7f7f" points="436.58,-18.142 431.5765,-20.3841 434.08,-18.1381 431.58,-18.1342 431.58,-18.1342 431.58,-18.1342 434.08,-18.1381 431.5835,-15.8842 436.58,-18.142 436.58,-18.142"/>
</g>
<!-- box -->
<g id="node16" class="node">
<title>box</title>
<path fill="#ffb0b9" stroke="#000000" d="M471.93,-434.73C471.93,-434.73 441.93,-434.73 441.93,-434.73 435.93,-434.73 429.93,-428.73 429.93,-422.73 429.93,-422.73 429.93,-410.73 429.93,-410.73 429.93,-404.73 435.93,-398.73 441.93,-398.73 441.93,-398.73 471.93,-398.73 471.93,-398.73 477.93,-398.73 483.93,-404.73 483.93,-410.73 483.93,-410.73 483.93,-422.73 483.93,-422.73 483.93,-428.73 477.93,-434.73 471.93,-434.73"/>
<text text-anchor="middle" x="456.93" y="-411.73" font-family="Times,serif" font-size="20.00" fill="#000000">box</text>
</g>
<!-- person#not contacting#box&#45;&gt;box -->
<g id="edge15" class="edge">
<title>person#not contacting#box&#45;&gt;box</title>
<path fill="none" stroke="#7f7f7f" d="M393.11,-349.64C405.68,-362.84 422.78,-380.83 436.12,-394.85"/>
<polygon fill="#7f7f7f" stroke="#7f7f7f" points="439.78,-398.7 434.7043,-396.6264 438.0575,-396.8881 436.335,-395.0762 436.335,-395.0762 436.335,-395.0762 438.0575,-396.8881 437.9657,-393.5259 439.78,-398.7 439.78,-398.7"/>
</g>
<!-- person#touching#box&#45;&gt;box -->
<g id="edge16" class="edge">
<title>person#touching#box&#45;&gt;box</title>
<path fill="none" stroke="#7f7f7f" d="M313.75,-310.77C344.15,-333.27 396.06,-371.68 428.32,-395.55"/>
<polygon fill="#7f7f7f" stroke="#7f7f7f" points="432.54,-398.68 427.1836,-397.5085 430.532,-397.1907 428.5241,-395.7013 428.5241,-395.7013 428.5241,-395.7013 430.532,-397.1907 429.8645,-393.8941 432.54,-398.68 432.54,-398.68"/>
</g>
<!-- pillow -->
<g id="node17" class="node">
<title>pillow</title>
<path fill="#ffb0b9" stroke="#000000" d="M93.091,-63.714C93.091,-63.714 49.091,-63.714 49.091,-63.714 43.091,-63.714 37.091,-57.714 37.091,-51.714 37.091,-51.714 37.091,-39.714 37.091,-39.714 37.091,-33.714 43.091,-27.714 49.091,-27.714 49.091,-27.714 93.091,-27.714 93.091,-27.714 99.091,-27.714 105.091,-33.714 105.091,-39.714 105.091,-39.714 105.091,-51.714 105.091,-51.714 105.091,-57.714 99.091,-63.714 93.091,-63.714"/>
<text text-anchor="middle" x="71.091" y="-40.714" font-family="Times,serif" font-size="20.00" fill="#000000">pillow</text>
</g>
<!-- person#touching#pillow&#45;&gt;pillow -->
<g id="edge17" class="edge">
<title>person#touching#pillow&#45;&gt;pillow</title>
<path fill="none" stroke="#7f7f7f" d="M152.37,-131.96C135.54,-114.1 109.84,-86.829 91.857,-67.748"/>
<polygon fill="#7f7f7f" stroke="#7f7f7f" points="88.369,-64.047 93.4357,-66.1425 90.0837,-65.8664 91.7983,-67.6857 91.7983,-67.6857 91.7983,-67.6857 90.0837,-65.8664 90.1609,-69.2289 88.369,-64.047 88.369,-64.047"/>
</g>
<!-- person#not looking at#pillow&#45;&gt;pillow -->
<g id="edge18" class="edge">
<title>person#not looking at#pillow&#45;&gt;pillow</title>
<path fill="none" stroke="#7f7f7f" d="M238.31,-159.36C202.76,-135.19 139.78,-92.392 102.08,-66.776"/>
<polygon fill="#7f7f7f" stroke="#7f7f7f" points="97.615,-63.74 103.0149,-64.6908 99.6824,-65.1457 101.7497,-66.5515 101.7497,-66.5515 101.7497,-66.5515 99.6824,-65.1457 100.4846,-68.4121 97.615,-63.74 97.615,-63.74"/>
</g>
<!-- person#not looking at#box&#45;&gt;box -->
<g id="edge19" class="edge">
<title>person#not looking at#box&#45;&gt;box</title>
<path fill="none" stroke="#7f7f7f" d="M558.66,-410.7C536.05,-412.04 509.53,-413.61 489.24,-414.81"/>
<polygon fill="#7f7f7f" stroke="#7f7f7f" points="484.22,-415.11 489.0768,-412.5656 486.7155,-414.9608 489.2111,-414.8116 489.2111,-414.8116 489.2111,-414.8116 486.7155,-414.9608 489.3454,-417.0576 484.22,-415.11 484.22,-415.11"/>
</g>
<!-- bed -->
<g id="node18" class="node">
<title>bed</title>
<path fill="#ffb0b9" stroke="#000000" d="M638.75,-205.64C638.75,-205.64 608.75,-205.64 608.75,-205.64 602.75,-205.64 596.75,-199.64 596.75,-193.64 596.75,-193.64 596.75,-181.64 596.75,-181.64 596.75,-175.64 602.75,-169.64 608.75,-169.64 608.75,-169.64 638.75,-169.64 638.75,-169.64 644.75,-169.64 650.75,-175.64 650.75,-181.64 650.75,-181.64 650.75,-193.64 650.75,-193.64 650.75,-199.64 644.75,-205.64 638.75,-205.64"/>
<text text-anchor="middle" x="623.75" y="-182.64" font-family="Times,serif" font-size="20.00" fill="#000000">bed</text>
</g>
<!-- person#not looking at#bed&#45;&gt;bed -->
<g id="edge20" class="edge">
<title>person#not looking at#bed&#45;&gt;bed</title>
<path fill="none" stroke="#7f7f7f" d="M551.82,-148C564.66,-155.07 579.31,-163.14 592.03,-170.15"/>
<polygon fill="#7f7f7f" stroke="#7f7f7f" points="596.62,-172.68 591.155,-172.2368 594.4306,-171.4732 592.2411,-170.2663 592.2411,-170.2663 592.2411,-170.2663 594.4306,-171.4732 593.3273,-168.2958 596.62,-172.68 596.62,-172.68"/>
</g>
<!-- cup/glass/bottle -->
<g id="node19" class="node">
<title>cup/glass/bottle</title>
<path fill="#ffb0b9" stroke="#000000" d="M130,-406.91C130,-406.91 12,-406.91 12,-406.91 6,-406.91 0,-400.91 0,-394.91 0,-394.91 0,-382.91 0,-382.91 0,-376.91 6,-370.91 12,-370.91 12,-370.91 130,-370.91 130,-370.91 136,-370.91 142,-376.91 142,-382.91 142,-382.91 142,-394.91 142,-394.91 142,-400.91 136,-406.91 130,-406.91"/>
<text text-anchor="middle" x="71" y="-383.91" font-family="Times,serif" font-size="20.00" fill="#000000">cup/glass/bottle</text>
</g>
<!-- person#not looking at#cup/glass/bottle&#45;&gt;cup/glass/bottle -->
<g id="edge21" class="edge">
<title>person#not looking at#cup/glass/bottle&#45;&gt;cup/glass/bottle</title>
<path fill="none" stroke="#7f7f7f" d="M158.63,-399.39C154.98,-398.95 151.24,-398.5 147.46,-398.05"/>
<polygon fill="#7f7f7f" stroke="#7f7f7f" points="142.29,-397.43 147.5224,-395.7914 144.7722,-397.7277 147.2544,-398.0254 147.2544,-398.0254 147.2544,-398.0254 144.7722,-397.7277 146.9865,-400.2594 142.29,-397.43 142.29,-397.43"/>
</g>
<!-- person#looking at#book&#45;&gt;book -->
<g id="edge22" class="edge">
<title>person#looking at#book&#45;&gt;book</title>
<path fill="none" stroke="#7f7f7f" d="M426.49,-110.57C434.49,-91.591 447.03,-61.84 455.71,-41.251"/>
<polygon fill="#7f7f7f" stroke="#7f7f7f" points="457.71,-36.486 457.8495,-41.9672 456.7424,-38.7912 455.7748,-41.0964 455.7748,-41.0964 455.7748,-41.0964 456.7424,-38.7912 453.7002,-40.2255 457.71,-36.486 457.71,-36.486"/>
</g>
<!-- person#touching#book&#45;&gt;book -->
<g id="edge23" class="edge">
<title>person#touching#book&#45;&gt;book</title>
<path fill="none" stroke="#7f7f7f" d="M578.69,-31.311C554.98,-28.563 523.04,-24.862 499.12,-22.09"/>
<polygon fill="#7f7f7f" stroke="#7f7f7f" points="494.14,-21.513 499.3658,-19.8535 496.6234,-21.8008 499.1068,-22.0886 499.1068,-22.0886 499.1068,-22.0886 496.6234,-21.8008 498.8478,-24.3236 494.14,-21.513 494.14,-21.513"/>
</g>
<!-- person#sitting on#bed&#45;&gt;bed -->
<g id="edge24" class="edge">
<title>person#sitting on#bed&#45;&gt;bed</title>
<path fill="none" stroke="#7f7f7f" d="M510.85,-209.18C535.17,-204.54 567.5,-198.37 591.33,-193.82"/>
<polygon fill="#7f7f7f" stroke="#7f7f7f" points="596.28,-192.88 591.7876,-196.0234 593.8239,-193.3465 591.3678,-193.8129 591.3678,-193.8129 591.3678,-193.8129 593.8239,-193.3465 590.948,-191.6024 596.28,-192.88 596.28,-192.88"/>
</g>
<!-- person#holding#cup/glass/bottle&#45;&gt;cup/glass/bottle -->
<g id="edge25" class="edge">
<title>person#holding#cup/glass/bottle&#45;&gt;cup/glass/bottle</title>
<path fill="none" stroke="#7f7f7f" d="M173.01,-289.67C151.65,-310.45 116.59,-344.56 93.652,-366.87"/>
<polygon fill="#7f7f7f" stroke="#7f7f7f" points="89.797,-370.62 91.8121,-365.5208 91.589,-368.8768 93.381,-367.1336 93.381,-367.1336 93.381,-367.1336 91.589,-368.8768 94.9499,-368.7464 89.797,-370.62 89.797,-370.62"/>
</g>
<!-- book#in front of#person -->
<g id="node21" class="node">
<title>book#in front of#person</title>
<path fill="#c3e2b3" stroke="#000000" d="M353.5,-142.62C353.5,-142.62 304.5,-142.62 304.5,-142.62 298.5,-142.62 292.5,-136.62 292.5,-130.62 292.5,-130.62 292.5,-118.62 292.5,-118.62 292.5,-112.62 298.5,-106.62 304.5,-106.62 304.5,-106.62 353.5,-106.62 353.5,-106.62 359.5,-106.62 365.5,-112.62 365.5,-118.62 365.5,-118.62 365.5,-130.62 365.5,-130.62 365.5,-136.62 359.5,-142.62 353.5,-142.62"/>
<text text-anchor="middle" x="329" y="-120.92" font-family="Times,serif" font-size="14.00" fill="#000000">in front of</text>
</g>
<!-- book&#45;&gt;book#in front of#person -->
<g id="edge28" class="edge">
<title>book&#45;&gt;book#in front of#person</title>
<path fill="none" stroke="#7f7f7f" d="M442.28,-36.24C418.57,-54.741 381.7,-83.505 356.5,-103.16"/>
<polygon fill="#7f7f7f" stroke="#7f7f7f" points="352.25,-106.47 354.8122,-101.6225 354.2224,-104.9338 356.1948,-103.3977 356.1948,-103.3977 356.1948,-103.3977 354.2224,-104.9338 357.5773,-105.1728 352.25,-106.47 352.25,-106.47"/>
</g>
<!-- box#in front of#person -->
<g id="node22" class="node">
<title>box#in front of#person</title>
<path fill="#c3e2b3" stroke="#000000" d="M486.66,-318.39C486.66,-318.39 437.66,-318.39 437.66,-318.39 431.66,-318.39 425.66,-312.39 425.66,-306.39 425.66,-306.39 425.66,-294.39 425.66,-294.39 425.66,-288.39 431.66,-282.39 437.66,-282.39 437.66,-282.39 486.66,-282.39 486.66,-282.39 492.66,-282.39 498.66,-288.39 498.66,-294.39 498.66,-294.39 498.66,-306.39 498.66,-306.39 498.66,-312.39 492.66,-318.39 486.66,-318.39"/>
<text text-anchor="middle" x="462.16" y="-296.69" font-family="Times,serif" font-size="14.00" fill="#000000">in front of</text>
</g>
<!-- box&#45;&gt;box#in front of#person -->
<g id="edge31" class="edge">
<title>box&#45;&gt;box#in front of#person</title>
<path fill="none" stroke="#7f7f7f" d="M457.75,-398.55C458.66,-378.32 460.13,-345.57 461.12,-323.52"/>
<polygon fill="#7f7f7f" stroke="#7f7f7f" points="461.35,-318.44 463.3715,-323.5367 461.2369,-320.9374 461.1238,-323.4349 461.1238,-323.4349 461.1238,-323.4349 461.2369,-320.9374 458.8761,-323.3331 461.35,-318.44 461.35,-318.44"/>
</g>
<!-- box#on the side of#person -->
<g id="node23" class="node">
<title>box#on the side of#person</title>
<path fill="#c3e2b3" stroke="#000000" d="M355.47,-438.5C355.47,-438.5 287.47,-438.5 287.47,-438.5 281.47,-438.5 275.47,-432.5 275.47,-426.5 275.47,-426.5 275.47,-414.5 275.47,-414.5 275.47,-408.5 281.47,-402.5 287.47,-402.5 287.47,-402.5 355.47,-402.5 355.47,-402.5 361.47,-402.5 367.47,-408.5 367.47,-414.5 367.47,-414.5 367.47,-426.5 367.47,-426.5 367.47,-432.5 361.47,-438.5 355.47,-438.5"/>
<text text-anchor="middle" x="321.47" y="-416.8" font-family="Times,serif" font-size="14.00" fill="#000000">on the side of</text>
</g>
<!-- box&#45;&gt;box#on the side of#person -->
<g id="edge32" class="edge">
<title>box&#45;&gt;box#on the side of#person</title>
<path fill="none" stroke="#7f7f7f" d="M429.84,-417.48C413.61,-417.94 392.44,-418.53 373.12,-419.06"/>
<polygon fill="#7f7f7f" stroke="#7f7f7f" points="367.72,-419.22 372.6511,-416.8228 370.2189,-419.1459 372.7178,-419.0718 372.7178,-419.0718 372.7178,-419.0718 370.2189,-419.1459 372.7845,-421.3208 367.72,-419.22 367.72,-419.22"/>
</g>
<!-- pillow&#45;&gt;pillow#in front of#person -->
<g id="edge30" class="edge">
<title>pillow&#45;&gt;pillow#in front of#person</title>
<path fill="none" stroke="#7f7f7f" d="M105.36,-41.718C127.14,-39.178 155.49,-35.873 178.6,-33.179"/>
<polygon fill="#7f7f7f" stroke="#7f7f7f" points="183.74,-32.578 179.0352,-35.3935 181.2569,-32.8684 178.7738,-33.1588 178.7738,-33.1588 178.7738,-33.1588 181.2569,-32.8684 178.5125,-30.924 183.74,-32.578 183.74,-32.578"/>
</g>
<!-- bed#beneath#person -->
<g id="node24" class="node">
<title>bed#beneath#person</title>
<path fill="#c3e2b3" stroke="#000000" d="M611.61,-310.98C611.61,-310.98 575.61,-310.98 575.61,-310.98 569.61,-310.98 563.61,-304.98 563.61,-298.98 563.61,-298.98 563.61,-286.98 563.61,-286.98 563.61,-280.98 569.61,-274.98 575.61,-274.98 575.61,-274.98 611.61,-274.98 611.61,-274.98 617.61,-274.98 623.61,-280.98 623.61,-286.98 623.61,-286.98 623.61,-298.98 623.61,-298.98 623.61,-304.98 617.61,-310.98 611.61,-310.98"/>
<text text-anchor="middle" x="593.61" y="-289.28" font-family="Times,serif" font-size="14.00" fill="#000000">beneath</text>
</g>
<!-- bed&#45;&gt;bed#beneath#person -->
<g id="edge33" class="edge">
<title>bed&#45;&gt;bed#beneath#person</title>
<path fill="none" stroke="#7f7f7f" d="M618.5,-205.99C613.44,-223.66 605.77,-250.46 600.28,-269.65"/>
<polygon fill="#7f7f7f" stroke="#7f7f7f" points="598.8,-274.84 598.0075,-269.4146 599.4856,-272.4358 600.1712,-270.0317 600.1712,-270.0317 600.1712,-270.0317 599.4856,-272.4358 602.335,-270.6487 598.8,-274.84 598.8,-274.84"/>
</g>
<!-- cup/glass/bottle#in front of#person -->
<g id="node20" class="node">
<title>cup/glass/bottle#in front of#person</title>
<path fill="#c3e2b3" stroke="#000000" d="M86.564,-241.74C86.564,-241.74 37.564,-241.74 37.564,-241.74 31.564,-241.74 25.564,-235.74 25.564,-229.74 25.564,-229.74 25.564,-217.74 25.564,-217.74 25.564,-211.74 31.564,-205.74 37.564,-205.74 37.564,-205.74 86.564,-205.74 86.564,-205.74 92.564,-205.74 98.564,-211.74 98.564,-217.74 98.564,-217.74 98.564,-229.74 98.564,-229.74 98.564,-235.74 92.564,-241.74 86.564,-241.74"/>
<text text-anchor="middle" x="62.064" y="-220.04" font-family="Times,serif" font-size="14.00" fill="#000000">in front of</text>
</g>
<!-- cup/glass/bottle&#45;&gt;cup/glass/bottle#in front of#person -->
<g id="edge26" class="edge">
<title>cup/glass/bottle&#45;&gt;cup/glass/bottle#in front of#person</title>
<path fill="none" stroke="#7f7f7f" d="M70.01,-370.6C68.375,-340.39 65.115,-280.12 63.32,-246.96"/>
<polygon fill="#7f7f7f" stroke="#7f7f7f" points="63.045,-241.88 65.5621,-246.751 63.1802,-244.3763 63.3154,-246.8727 63.3154,-246.8727 63.3154,-246.8727 63.1802,-244.3763 61.0687,-246.9944 63.045,-241.88 63.045,-241.88"/>
</g>
<!-- cup/glass/bottle#in front of#person&#45;&gt;person -->
<g id="edge27" class="edge">
<title>cup/glass/bottle#in front of#person&#45;&gt;person</title>
<path fill="none" stroke="#7f7f7f" d="M98.785,-223.89C156.04,-224.12 266.19,-224.56 325.79,-224.8"/>
<polygon fill="#7f7f7f" stroke="#7f7f7f" points="331.05,-224.83 326.0372,-227.0514 328.55,-224.8157 326.0501,-224.8014 326.0501,-224.8014 326.0501,-224.8014 328.55,-224.8157 326.063,-222.5514 331.05,-224.83 331.05,-224.83"/>
</g>
<!-- book#in front of#person&#45;&gt;person -->
<g id="edge29" class="edge">
<title>book#in front of#person&#45;&gt;person</title>
<path fill="none" stroke="#7f7f7f" d="M335.87,-143.02C342.06,-159.57 351.17,-183.96 357.84,-201.83"/>
<polygon fill="#7f7f7f" stroke="#7f7f7f" points="359.65,-206.68 355.7937,-202.7823 358.7759,-204.3378 357.9017,-201.9956 357.9017,-201.9956 357.9017,-201.9956 358.7759,-204.3378 360.0097,-201.2089 359.65,-206.68 359.65,-206.68"/>
</g>
<!-- box#in front of#person&#45;&gt;person -->
<g id="edge34" class="edge">
<title>box#in front of#person&#45;&gt;person</title>
<path fill="none" stroke="#7f7f7f" d="M439,-282.13C425.25,-271.29 407.76,-257.5 393.4,-246.18"/>
<polygon fill="#7f7f7f" stroke="#7f7f7f" points="389.43,-243.06 394.7516,-244.3805 391.3956,-244.6048 393.3613,-246.1496 393.3613,-246.1496 393.3613,-246.1496 391.3956,-244.6048 391.971,-247.9187 389.43,-243.06 389.43,-243.06"/>
</g>
<!-- box#on the side of#person&#45;&gt;person -->
<g id="edge35" class="edge">
<title>box#on the side of#person&#45;&gt;person</title>
<path fill="none" stroke="#7f7f7f" d="M325.63,-402.46C333.83,-366.81 352.11,-287.4 361.18,-248.02"/>
<polygon fill="#7f7f7f" stroke="#7f7f7f" points="362.34,-242.97 363.4135,-248.3468 361.7803,-245.4065 361.2206,-247.8431 361.2206,-247.8431 361.2206,-247.8431 361.7803,-245.4065 359.0277,-247.3393 362.34,-242.97 362.34,-242.97"/>
</g>
<!-- bed#beneath#person&#45;&gt;person -->
<g id="edge36" class="edge">
<title>bed#beneath#person&#45;&gt;person</title>
<path fill="none" stroke="#7f7f7f" d="M563.45,-283.95C523.05,-271.85 451.26,-250.36 406.42,-236.93"/>
<polygon fill="#7f7f7f" stroke="#7f7f7f" points="401.62,-235.49 407.0557,-234.7717 404.0146,-236.2084 406.4091,-236.9268 406.4091,-236.9268 406.4091,-236.9268 404.0146,-236.2084 405.7626,-239.0819 401.62,-235.49 401.62,-235.49"/>
</g>
</g>
</svg>
