<?xml version="1.0" encoding="UTF-8" standalone="no"?>
<!DOCTYPE svg PUBLIC "-//W3C//DTD SVG 1.1//EN"
 "http://www.w3.org/Graphics/SVG/1.1/DTD/svg11.dtd">
<!-- Generated by graphviz version 2.40.1 (20161225.0304)
 -->
<!-- Pages: 1 -->
<svg width="460pt" height="355pt"
 viewBox="0.00 0.00 460.39 354.91" xmlns="http://www.w3.org/2000/svg" xmlns:xlink="http://www.w3.org/1999/xlink">
<g id="graph0" class="graph" transform="scale(1 1) rotate(0) translate(4 350.91)">
<polygon fill="#ffffff" stroke="transparent" points="-4,4 -4,-350.91 456.39,-350.91 456.39,4 -4,4"/>
<!-- person#touching#table -->
<g id="node1" class="node">
<title>person#touching#table</title>
<path fill="#c3e2b3" stroke="#000000" d="M211.29,-110.51C211.29,-110.51 170.29,-110.51 170.29,-110.51 164.29,-110.51 158.29,-104.51 158.29,-98.51 158.29,-98.51 158.29,-86.51 158.29,-86.51 158.29,-80.51 164.29,-74.51 170.29,-74.51 170.29,-74.51 211.29,-74.51 211.29,-74.51 217.29,-74.51 223.29,-80.51 223.29,-86.51 223.29,-86.51 223.29,-98.51 223.29,-98.51 223.29,-104.51 217.29,-110.51 211.29,-110.51"/>
<text text-anchor="middle" x="190.79" y="-88.81" font-family="Times,serif" font-size="14.00" fill="#000000">touching</text>
</g>
<!-- table -->
<g id="node2" class="node">
<title>table</title>
<path fill="#ffb0b9" stroke="#000000" d="M260.47,-38.11C260.47,-38.11 229.47,-38.11 229.47,-38.11 223.47,-38.11 217.47,-32.11 217.47,-26.11 217.47,-26.11 217.47,-14.11 217.47,-14.11 217.47,-8.11 223.47,-2.11 229.47,-2.11 229.47,-2.11 260.47,-2.11 260.47,-2.11 266.47,-2.11 272.47,-8.11 272.47,-14.11 272.47,-14.11 272.47,-26.11 272.47,-26.11 272.47,-32.11 266.47,-38.11 260.47,-38.11"/>
<text text-anchor="middle" x="244.97" y="-15.11" font-family="Times,serif" font-size="20.00" fill="#000000">table</text>
</g>
<!-- person#touching#table&#45;&gt;table -->
<g id="edge1" class="edge">
<title>person#touching#table&#45;&gt;table</title>
<path fill="none" stroke="#7f7f7f" d="M204.46,-74.24C211.7,-64.564 220.66,-52.6 228.3,-42.383"/>
<polygon fill="#7f7f7f" stroke="#7f7f7f" points="231.49,-38.123 230.294,-43.4739 229.9915,-40.1241 228.493,-42.1253 228.493,-42.1253 228.493,-42.1253 229.9915,-40.1241 226.6919,-40.7766 231.49,-38.123 231.49,-38.123"/>
</g>
<!-- table#in front of#person -->
<g id="node3" class="node">
<title>table#in front of#person</title>
<path fill="#c3e2b3" stroke="#000000" d="M169.12,-36C169.12,-36 120.12,-36 120.12,-36 114.12,-36 108.12,-30 108.12,-24 108.12,-24 108.12,-12 108.12,-12 108.12,-6 114.12,0 120.12,0 120.12,0 169.12,0 169.12,0 175.12,0 181.12,-6 181.12,-12 181.12,-12 181.12,-24 181.12,-24 181.12,-30 175.12,-36 169.12,-36"/>
<text text-anchor="middle" x="144.62" y="-14.3" font-family="Times,serif" font-size="14.00" fill="#000000">in front of</text>
</g>
<!-- table&#45;&gt;table#in front of#person -->
<g id="edge2" class="edge">
<title>table&#45;&gt;table#in front of#person</title>
<path fill="none" stroke="#7f7f7f" d="M217.28,-19.528C207.71,-19.326 196.76,-19.096 186.31,-18.877"/>
<polygon fill="#7f7f7f" stroke="#7f7f7f" points="181.24,-18.77 186.2864,-16.6261 183.7394,-18.8228 186.2389,-18.8756 186.2389,-18.8756 186.2389,-18.8756 183.7394,-18.8228 186.1914,-21.1251 181.24,-18.77 181.24,-18.77"/>
</g>
<!-- person -->
<g id="node4" class="node">
<title>person</title>
<path fill="#ffb0b9" stroke="#000000" d="M249.54,-186.71C249.54,-186.71 203.54,-186.71 203.54,-186.71 197.54,-186.71 191.54,-180.71 191.54,-174.71 191.54,-174.71 191.54,-162.71 191.54,-162.71 191.54,-156.71 197.54,-150.71 203.54,-150.71 203.54,-150.71 249.54,-150.71 249.54,-150.71 255.54,-150.71 261.54,-156.71 261.54,-162.71 261.54,-162.71 261.54,-174.71 261.54,-174.71 261.54,-180.71 255.54,-186.71 249.54,-186.71"/>
<text text-anchor="middle" x="226.54" y="-163.71" font-family="Times,serif" font-size="20.00" fill="#000000">person</text>
</g>
<!-- table#in front of#person&#45;&gt;person -->
<g id="edge3" class="edge">
<title>table#in front of#person&#45;&gt;person</title>
<path fill="none" stroke="#7f7f7f" d="M154.5,-36.18C169.45,-63.677 197.79,-115.81 214.11,-145.85"/>
<polygon fill="#7f7f7f" stroke="#7f7f7f" points="216.63,-150.47 212.2604,-147.158 215.4328,-148.2753 214.2357,-146.0805 214.2357,-146.0805 214.2357,-146.0805 215.4328,-148.2753 216.211,-145.0031 216.63,-150.47 216.63,-150.47"/>
</g>
<!-- person&#45;&gt;person#touching#table -->
<g id="edge5" class="edge">
<title>person&#45;&gt;person#touching#table</title>
<path fill="none" stroke="#7f7f7f" d="M218.07,-150.65C213.12,-140.1 206.82,-126.68 201.53,-115.4"/>
<polygon fill="#7f7f7f" stroke="#7f7f7f" points="199.33,-110.7 203.4876,-114.2746 200.3899,-112.9642 201.4498,-115.2285 201.4498,-115.2285 201.4498,-115.2285 200.3899,-112.9642 199.4119,-116.1824 199.33,-110.7 199.33,-110.7"/>
</g>
<!-- person#touching#laptop -->
<g id="node6" class="node">
<title>person#touching#laptop</title>
<path fill="#c3e2b3" stroke="#000000" d="M364.26,-273.81C364.26,-273.81 323.26,-273.81 323.26,-273.81 317.26,-273.81 311.26,-267.81 311.26,-261.81 311.26,-261.81 311.26,-249.81 311.26,-249.81 311.26,-243.81 317.26,-237.81 323.26,-237.81 323.26,-237.81 364.26,-237.81 364.26,-237.81 370.26,-237.81 376.26,-243.81 376.26,-249.81 376.26,-249.81 376.26,-261.81 376.26,-261.81 376.26,-267.81 370.26,-273.81 364.26,-273.81"/>
<text text-anchor="middle" x="343.76" y="-252.11" font-family="Times,serif" font-size="14.00" fill="#000000">touching</text>
</g>
<!-- person&#45;&gt;person#touching#laptop -->
<g id="edge6" class="edge">
<title>person&#45;&gt;person#touching#laptop</title>
<path fill="none" stroke="#7f7f7f" d="M250.83,-186.76C269.53,-200.66 295.44,-219.9 315.15,-234.54"/>
<polygon fill="#7f7f7f" stroke="#7f7f7f" points="319.51,-237.78 314.1547,-236.6036 317.5034,-236.2888 315.4968,-234.7977 315.4968,-234.7977 315.4968,-234.7977 317.5034,-236.2888 316.8388,-232.9917 319.51,-237.78 319.51,-237.78"/>
</g>
<!-- person#not looking at#chair -->
<g id="node7" class="node">
<title>person#not looking at#chair</title>
<path fill="#c3e2b3" stroke="#000000" d="M133.892,-116.885C133.892,-116.885 63.892,-116.885 63.892,-116.885 57.892,-116.885 51.892,-110.885 51.892,-104.885 51.892,-104.885 51.892,-92.885 51.892,-92.885 51.892,-86.885 57.892,-80.885 63.892,-80.885 63.892,-80.885 133.892,-80.885 133.892,-80.885 139.892,-80.885 145.892,-86.885 145.892,-92.885 145.892,-92.885 145.892,-104.885 145.892,-104.885 145.892,-110.885 139.892,-116.885 133.892,-116.885"/>
<text text-anchor="middle" x="98.892" y="-95.185" font-family="Times,serif" font-size="14.00" fill="#000000">not looking at</text>
</g>
<!-- person&#45;&gt;person#not looking at#chair -->
<g id="edge7" class="edge">
<title>person&#45;&gt;person#not looking at#chair</title>
<path fill="none" stroke="#7f7f7f" d="M193.34,-150.55C175.9,-141.01 154.48,-129.29 136.44,-119.42"/>
<polygon fill="#7f7f7f" stroke="#7f7f7f" points="131.93,-116.96 137.3969,-117.379 134.1247,-118.1572 136.3195,-119.3543 136.3195,-119.3543 136.3195,-119.3543 134.1247,-118.1572 135.242,-121.3296 131.93,-116.96 131.93,-116.96"/>
</g>
<!-- person#not looking at#table -->
<g id="node8" class="node">
<title>person#not looking at#table</title>
<path fill="#c3e2b3" stroke="#000000" d="M374.44,-38.772C374.44,-38.772 304.44,-38.772 304.44,-38.772 298.44,-38.772 292.44,-32.772 292.44,-26.772 292.44,-26.772 292.44,-14.772 292.44,-14.772 292.44,-8.772 298.44,-2.772 304.44,-2.772 304.44,-2.772 374.44,-2.772 374.44,-2.772 380.44,-2.772 386.44,-8.772 386.44,-14.772 386.44,-14.772 386.44,-26.772 386.44,-26.772 386.44,-32.772 380.44,-38.772 374.44,-38.772"/>
<text text-anchor="middle" x="339.44" y="-17.072" font-family="Times,serif" font-size="14.00" fill="#000000">not looking at</text>
</g>
<!-- person&#45;&gt;person#not looking at#table -->
<g id="edge8" class="edge">
<title>person&#45;&gt;person#not looking at#table</title>
<path fill="none" stroke="#7f7f7f" d="M240.39,-150.57C261.04,-123.51 299.88,-72.61 322.3,-43.233"/>
<polygon fill="#7f7f7f" stroke="#7f7f7f" points="325.48,-39.061 324.2384,-44.4015 323.9645,-41.0493 322.4489,-43.0376 322.4489,-43.0376 322.4489,-43.0376 323.9645,-41.0493 320.6595,-41.6736 325.48,-39.061 325.48,-39.061"/>
</g>
<!-- person#looking at#shoe -->
<g id="node9" class="node">
<title>person#looking at#shoe</title>
<path fill="#c3e2b3" stroke="#000000" d="M440.39,-207.48C440.39,-207.48 391.39,-207.48 391.39,-207.48 385.39,-207.48 379.39,-201.48 379.39,-195.48 379.39,-195.48 379.39,-183.48 379.39,-183.48 379.39,-177.48 385.39,-171.48 391.39,-171.48 391.39,-171.48 440.39,-171.48 440.39,-171.48 446.39,-171.48 452.39,-177.48 452.39,-183.48 452.39,-183.48 452.39,-195.48 452.39,-195.48 452.39,-201.48 446.39,-207.48 440.39,-207.48"/>
<text text-anchor="middle" x="415.89" y="-185.78" font-family="Times,serif" font-size="14.00" fill="#000000">looking at</text>
</g>
<!-- person&#45;&gt;person#looking at#shoe -->
<g id="edge9" class="edge">
<title>person&#45;&gt;person#looking at#shoe</title>
<path fill="none" stroke="#7f7f7f" d="M261.71,-172.57C293.49,-176.06 340.3,-181.19 374,-184.89"/>
<polygon fill="#7f7f7f" stroke="#7f7f7f" points="379.3,-185.47 374.0849,-187.1626 376.8148,-185.198 374.3297,-184.926 374.3297,-184.926 374.3297,-184.926 376.8148,-185.198 374.5745,-182.6893 379.3,-185.47 379.3,-185.47"/>
</g>
<!-- person#not looking at#sofa/couch -->
<g id="node10" class="node">
<title>person#not looking at#sofa/couch</title>
<path fill="#c3e2b3" stroke="#000000" d="M204.18,-343.73C204.18,-343.73 134.18,-343.73 134.18,-343.73 128.18,-343.73 122.18,-337.73 122.18,-331.73 122.18,-331.73 122.18,-319.73 122.18,-319.73 122.18,-313.73 128.18,-307.73 134.18,-307.73 134.18,-307.73 204.18,-307.73 204.18,-307.73 210.18,-307.73 216.18,-313.73 216.18,-319.73 216.18,-319.73 216.18,-331.73 216.18,-331.73 216.18,-337.73 210.18,-343.73 204.18,-343.73"/>
<text text-anchor="middle" x="169.18" y="-322.03" font-family="Times,serif" font-size="14.00" fill="#000000">not looking at</text>
</g>
<!-- person&#45;&gt;person#not looking at#sofa/couch -->
<g id="edge10" class="edge">
<title>person&#45;&gt;person#not looking at#sofa/couch</title>
<path fill="none" stroke="#7f7f7f" d="M219.96,-186.73C209.51,-215.32 189.14,-271.09 177.63,-302.6"/>
<polygon fill="#7f7f7f" stroke="#7f7f7f" points="175.86,-307.44 175.4642,-301.9713 176.7187,-305.0921 177.5773,-302.7442 177.5773,-302.7442 177.5773,-302.7442 176.7187,-305.0921 179.6905,-303.517 175.86,-307.44 175.86,-307.44"/>
</g>
<!-- person#holding#shoe -->
<g id="node11" class="node">
<title>person#holding#shoe</title>
<path fill="#c3e2b3" stroke="#000000" d="M376.74,-130.64C376.74,-130.64 341.74,-130.64 341.74,-130.64 335.74,-130.64 329.74,-124.64 329.74,-118.64 329.74,-118.64 329.74,-106.64 329.74,-106.64 329.74,-100.64 335.74,-94.64 341.74,-94.64 341.74,-94.64 376.74,-94.64 376.74,-94.64 382.74,-94.64 388.74,-100.64 388.74,-106.64 388.74,-106.64 388.74,-118.64 388.74,-118.64 388.74,-124.64 382.74,-130.64 376.74,-130.64"/>
<text text-anchor="middle" x="359.24" y="-108.94" font-family="Times,serif" font-size="14.00" fill="#000000">holding</text>
</g>
<!-- person&#45;&gt;person#holding#shoe -->
<g id="edge11" class="edge">
<title>person&#45;&gt;person#holding#shoe</title>
<path fill="none" stroke="#7f7f7f" d="M261.75,-153.84C281.29,-145.58 305.48,-135.36 324.88,-127.16"/>
<polygon fill="#7f7f7f" stroke="#7f7f7f" points="329.7,-125.12 325.9724,-129.1409 327.3977,-126.0944 325.0954,-127.0689 325.0954,-127.0689 325.0954,-127.0689 327.3977,-126.0944 324.2184,-124.9968 329.7,-125.12 329.7,-125.12"/>
</g>
<!-- person#sitting on#chair -->
<g id="node12" class="node">
<title>person#sitting on#chair</title>
<path fill="#c3e2b3" stroke="#000000" d="M62.79,-195.46C62.79,-195.46 17.79,-195.46 17.79,-195.46 11.79,-195.46 5.79,-189.46 5.79,-183.46 5.79,-183.46 5.79,-171.46 5.79,-171.46 5.79,-165.46 11.79,-159.46 17.79,-159.46 17.79,-159.46 62.79,-159.46 62.79,-159.46 68.79,-159.46 74.79,-165.46 74.79,-171.46 74.79,-171.46 74.79,-183.46 74.79,-183.46 74.79,-189.46 68.79,-195.46 62.79,-195.46"/>
<text text-anchor="middle" x="40.29" y="-173.76" font-family="Times,serif" font-size="14.00" fill="#000000">sitting on</text>
</g>
<!-- person&#45;&gt;person#sitting on#chair -->
<g id="edge12" class="edge">
<title>person&#45;&gt;person#sitting on#chair</title>
<path fill="none" stroke="#7f7f7f" d="M191.51,-170.36C159.8,-171.85 113.13,-174.04 80.041,-175.6"/>
<polygon fill="#7f7f7f" stroke="#7f7f7f" points="74.85,-175.84 79.7407,-173.3614 77.3473,-175.7245 79.8447,-175.609 79.8447,-175.609 79.8447,-175.609 77.3473,-175.7245 79.9486,-177.8566 74.85,-175.84 74.85,-175.84"/>
</g>
<!-- person#looking at#laptop -->
<g id="node13" class="node">
<title>person#looking at#laptop</title>
<path fill="#c3e2b3" stroke="#000000" d="M281.83,-267.42C281.83,-267.42 232.83,-267.42 232.83,-267.42 226.83,-267.42 220.83,-261.42 220.83,-255.42 220.83,-255.42 220.83,-243.42 220.83,-243.42 220.83,-237.42 226.83,-231.42 232.83,-231.42 232.83,-231.42 281.83,-231.42 281.83,-231.42 287.83,-231.42 293.83,-237.42 293.83,-243.42 293.83,-243.42 293.83,-255.42 293.83,-255.42 293.83,-261.42 287.83,-267.42 281.83,-267.42"/>
<text text-anchor="middle" x="257.33" y="-245.72" font-family="Times,serif" font-size="14.00" fill="#000000">looking at</text>
</g>
<!-- person&#45;&gt;person#looking at#laptop -->
<g id="edge13" class="edge">
<title>person&#45;&gt;person#looking at#laptop</title>
<path fill="none" stroke="#7f7f7f" d="M233.53,-187.03C237.98,-198.69 243.77,-213.89 248.53,-226.37"/>
<polygon fill="#7f7f7f" stroke="#7f7f7f" points="250.37,-231.18 246.482,-227.3139 249.4768,-228.845 248.5835,-226.51 248.5835,-226.51 248.5835,-226.51 249.4768,-228.845 250.685,-225.7061 250.37,-231.18 250.37,-231.18"/>
</g>
<!-- person#sitting on#sofa/couch -->
<g id="node14" class="node">
<title>person#sitting on#sofa/couch</title>
<path fill="#c3e2b3" stroke="#000000" d="M127.07,-264.39C127.07,-264.39 82.07,-264.39 82.07,-264.39 76.07,-264.39 70.07,-258.39 70.07,-252.39 70.07,-252.39 70.07,-240.39 70.07,-240.39 70.07,-234.39 76.07,-228.39 82.07,-228.39 82.07,-228.39 127.07,-228.39 127.07,-228.39 133.07,-228.39 139.07,-234.39 139.07,-240.39 139.07,-240.39 139.07,-252.39 139.07,-252.39 139.07,-258.39 133.07,-264.39 127.07,-264.39"/>
<text text-anchor="middle" x="104.57" y="-242.69" font-family="Times,serif" font-size="14.00" fill="#000000">sitting on</text>
</g>
<!-- person&#45;&gt;person#sitting on#sofa/couch -->
<g id="edge14" class="edge">
<title>person&#45;&gt;person#sitting on#sofa/couch</title>
<path fill="none" stroke="#7f7f7f" d="M198.25,-186.73C180.06,-198.31 156.37,-213.41 137.36,-225.51"/>
<polygon fill="#7f7f7f" stroke="#7f7f7f" points="133.13,-228.21 136.134,-223.6232 135.2373,-226.8649 137.3446,-225.5198 137.3446,-225.5198 137.3446,-225.5198 135.2373,-226.8649 138.5552,-227.4164 133.13,-228.21 133.13,-228.21"/>
</g>
<!-- person#not contacting#table -->
<g id="node15" class="node">
<title>person#not contacting#table</title>
<path fill="#c3e2b3" stroke="#000000" d="M310.48,-117.54C310.48,-117.54 238.48,-117.54 238.48,-117.54 232.48,-117.54 226.48,-111.54 226.48,-105.54 226.48,-105.54 226.48,-93.54 226.48,-93.54 226.48,-87.54 232.48,-81.54 238.48,-81.54 238.48,-81.54 310.48,-81.54 310.48,-81.54 316.48,-81.54 322.48,-87.54 322.48,-93.54 322.48,-93.54 322.48,-105.54 322.48,-105.54 322.48,-111.54 316.48,-117.54 310.48,-117.54"/>
<text text-anchor="middle" x="274.48" y="-95.84" font-family="Times,serif" font-size="14.00" fill="#000000">not contacting</text>
</g>
<!-- person&#45;&gt;person#not contacting#table -->
<g id="edge15" class="edge">
<title>person&#45;&gt;person#not contacting#table</title>
<path fill="none" stroke="#7f7f7f" d="M239.14,-150.54C245.2,-141.79 252.53,-131.22 258.93,-121.98"/>
<polygon fill="#7f7f7f" stroke="#7f7f7f" points="261.81,-117.83 260.8078,-123.2206 260.3846,-119.8839 258.9593,-121.9378 258.9593,-121.9378 258.9593,-121.9378 260.3846,-119.8839 257.1108,-120.6549 261.81,-117.83 261.81,-117.83"/>
</g>
<!-- laptop#in front of#person -->
<g id="node5" class="node">
<title>laptop#in front of#person</title>
<path fill="#c3e2b3" stroke="#000000" d="M308.52,-346.91C308.52,-346.91 259.52,-346.91 259.52,-346.91 253.52,-346.91 247.52,-340.91 247.52,-334.91 247.52,-334.91 247.52,-322.91 247.52,-322.91 247.52,-316.91 253.52,-310.91 259.52,-310.91 259.52,-310.91 308.52,-310.91 308.52,-310.91 314.52,-310.91 320.52,-316.91 320.52,-322.91 320.52,-322.91 320.52,-334.91 320.52,-334.91 320.52,-340.91 314.52,-346.91 308.52,-346.91"/>
<text text-anchor="middle" x="284.02" y="-325.21" font-family="Times,serif" font-size="14.00" fill="#000000">in front of</text>
</g>
<!-- laptop#in front of#person&#45;&gt;person -->
<g id="edge4" class="edge">
<title>laptop#in front of#person&#45;&gt;person</title>
<path fill="none" stroke="#7f7f7f" d="M277.54,-310.84C267.06,-281.64 246.41,-224.09 234.86,-191.9"/>
<polygon fill="#7f7f7f" stroke="#7f7f7f" points="233.09,-186.96 236.8947,-190.908 233.9333,-189.3135 234.7766,-191.667 234.7766,-191.667 234.7766,-191.667 233.9333,-189.3135 232.6584,-192.4259 233.09,-186.96 233.09,-186.96"/>
</g>
<!-- laptop -->
<g id="node16" class="node">
<title>laptop</title>
<path fill="#ffb0b9" stroke="#000000" d="M426.32,-333.08C426.32,-333.08 384.32,-333.08 384.32,-333.08 378.32,-333.08 372.32,-327.08 372.32,-321.08 372.32,-321.08 372.32,-309.08 372.32,-309.08 372.32,-303.08 378.32,-297.08 384.32,-297.08 384.32,-297.08 426.32,-297.08 426.32,-297.08 432.32,-297.08 438.32,-303.08 438.32,-309.08 438.32,-309.08 438.32,-321.08 438.32,-321.08 438.32,-327.08 432.32,-333.08 426.32,-333.08"/>
<text text-anchor="middle" x="405.32" y="-310.08" font-family="Times,serif" font-size="20.00" fill="#000000">laptop</text>
</g>
<!-- person#touching#laptop&#45;&gt;laptop -->
<g id="edge16" class="edge">
<title>person#touching#laptop&#45;&gt;laptop</title>
<path fill="none" stroke="#7f7f7f" d="M362.57,-273.91C368.78,-279.89 375.75,-286.61 382.24,-292.86"/>
<polygon fill="#7f7f7f" stroke="#7f7f7f" points="386.21,-296.68 381.047,-294.8345 384.4085,-294.9466 382.607,-293.2132 382.607,-293.2132 382.607,-293.2132 384.4085,-294.9466 384.1671,-291.5918 386.21,-296.68 386.21,-296.68"/>
</g>
<!-- chair -->
<g id="node17" class="node">
<title>chair</title>
<path fill="#ffb0b9" stroke="#000000" d="M59.84,-55.397C59.84,-55.397 27.84,-55.397 27.84,-55.397 21.84,-55.397 15.84,-49.397 15.84,-43.397 15.84,-43.397 15.84,-31.397 15.84,-31.397 15.84,-25.397 21.84,-19.397 27.84,-19.397 27.84,-19.397 59.84,-19.397 59.84,-19.397 65.84,-19.397 71.84,-25.397 71.84,-31.397 71.84,-31.397 71.84,-43.397 71.84,-43.397 71.84,-49.397 65.84,-55.397 59.84,-55.397"/>
<text text-anchor="middle" x="43.84" y="-32.397" font-family="Times,serif" font-size="20.00" fill="#000000">chair</text>
</g>
<!-- person#not looking at#chair&#45;&gt;chair -->
<g id="edge17" class="edge">
<title>person#not looking at#chair&#45;&gt;chair</title>
<path fill="none" stroke="#7f7f7f" d="M82.672,-80.769C76.678,-74.074 69.817,-66.412 63.547,-59.408"/>
<polygon fill="#7f7f7f" stroke="#7f7f7f" points="60.134,-55.596 65.1455,-57.8203 61.8016,-57.4586 63.4692,-59.3211 63.4692,-59.3211 63.4692,-59.3211 61.8016,-57.4586 61.7929,-60.822 60.134,-55.596 60.134,-55.596"/>
</g>
<!-- person#not looking at#table&#45;&gt;table -->
<g id="edge18" class="edge">
<title>person#not looking at#table&#45;&gt;table</title>
<path fill="none" stroke="#7f7f7f" d="M292.2,-20.441C287.26,-20.406 282.31,-20.371 277.58,-20.338"/>
<polygon fill="#7f7f7f" stroke="#7f7f7f" points="272.55,-20.303 277.5656,-18.0879 275.0499,-20.3204 277.5499,-20.3379 277.5499,-20.3379 277.5499,-20.3379 275.0499,-20.3204 277.5342,-22.5878 272.55,-20.303 272.55,-20.303"/>
</g>
<!-- shoe -->
<g id="node18" class="node">
<title>shoe</title>
<path fill="#ffb0b9" stroke="#000000" d="M435.84,-66.81C435.84,-66.81 405.84,-66.81 405.84,-66.81 399.84,-66.81 393.84,-60.81 393.84,-54.81 393.84,-54.81 393.84,-42.81 393.84,-42.81 393.84,-36.81 399.84,-30.81 405.84,-30.81 405.84,-30.81 435.84,-30.81 435.84,-30.81 441.84,-30.81 447.84,-36.81 447.84,-42.81 447.84,-42.81 447.84,-54.81 447.84,-54.81 447.84,-60.81 441.84,-66.81 435.84,-66.81"/>
<text text-anchor="middle" x="420.84" y="-43.81" font-family="Times,serif" font-size="20.00" fill="#000000">shoe</text>
</g>
<!-- person#looking at#shoe&#45;&gt;shoe -->
<g id="edge19" class="edge">
<title>person#looking at#shoe&#45;&gt;shoe</title>
<path fill="none" stroke="#7f7f7f" d="M416.53,-171.38C417.42,-146.05 419.04,-100.04 420.02,-72.164"/>
<polygon fill="#7f7f7f" stroke="#7f7f7f" points="420.2,-66.842 422.2796,-71.9152 420.1154,-69.3406 420.0309,-71.8391 420.0309,-71.8391 420.0309,-71.8391 420.1154,-69.3406 417.7822,-71.763 420.2,-66.842 420.2,-66.842"/>
</g>
<!-- sofa/couch -->
<g id="node19" class="node">
<title>sofa/couch</title>
<path fill="#ffb0b9" stroke="#000000" d="M91,-331.07C91,-331.07 12,-331.07 12,-331.07 6,-331.07 0,-325.07 0,-319.07 0,-319.07 0,-307.07 0,-307.07 0,-301.07 6,-295.07 12,-295.07 12,-295.07 91,-295.07 91,-295.07 97,-295.07 103,-301.07 103,-307.07 103,-307.07 103,-319.07 103,-319.07 103,-325.07 97,-331.07 91,-331.07"/>
<text text-anchor="middle" x="51.5" y="-308.07" font-family="Times,serif" font-size="20.00" fill="#000000">sofa/couch</text>
</g>
<!-- person#not looking at#sofa/couch&#45;&gt;sofa/couch -->
<g id="edge20" class="edge">
<title>person#not looking at#sofa/couch&#45;&gt;sofa/couch</title>
<path fill="none" stroke="#7f7f7f" d="M121.99,-320.65C117.58,-320.18 113.08,-319.69 108.59,-319.21"/>
<polygon fill="#7f7f7f" stroke="#7f7f7f" points="103.33,-318.65 108.5401,-316.9421 105.816,-318.9147 108.3019,-319.1794 108.3019,-319.1794 108.3019,-319.1794 105.816,-318.9147 108.0637,-321.4168 103.33,-318.65 103.33,-318.65"/>
</g>
<!-- person#holding#shoe&#45;&gt;shoe -->
<g id="edge21" class="edge">
<title>person#holding#shoe&#45;&gt;shoe</title>
<path fill="none" stroke="#7f7f7f" d="M376.72,-94.521C383.82,-87.173 392.07,-78.616 399.51,-70.906"/>
<polygon fill="#7f7f7f" stroke="#7f7f7f" points="403.09,-67.198 401.2358,-72.3579 401.3535,-68.9966 399.6171,-70.7951 399.6171,-70.7951 399.6171,-70.7951 401.3535,-68.9966 397.9984,-69.2323 403.09,-67.198 403.09,-67.198"/>
</g>
<!-- person#sitting on#chair&#45;&gt;chair -->
<g id="edge22" class="edge">
<title>person#sitting on#chair&#45;&gt;chair</title>
<path fill="none" stroke="#7f7f7f" d="M40.747,-159.44C41.382,-134.36 42.534,-88.91 43.239,-61.111"/>
<polygon fill="#7f7f7f" stroke="#7f7f7f" points="43.373,-55.797 45.4962,-60.8522 43.3099,-58.2962 43.2469,-60.7954 43.2469,-60.7954 43.2469,-60.7954 43.3099,-58.2962 40.9976,-60.7387 43.373,-55.797 43.373,-55.797"/>
</g>
<!-- person#looking at#laptop&#45;&gt;laptop -->
<g id="edge23" class="edge">
<title>person#looking at#laptop&#45;&gt;laptop</title>
<path fill="none" stroke="#7f7f7f" d="M293.91,-265.65C316.29,-275.58 344.86,-288.25 367.46,-298.28"/>
<polygon fill="#7f7f7f" stroke="#7f7f7f" points="372.19,-300.38 366.7071,-300.4075 369.9051,-299.3655 367.6201,-298.351 367.6201,-298.351 367.6201,-298.351 369.9051,-299.3655 368.5332,-296.2946 372.19,-300.38 372.19,-300.38"/>
</g>
<!-- person#sitting on#sofa/couch&#45;&gt;sofa/couch -->
<g id="edge24" class="edge">
<title>person#sitting on#sofa/couch&#45;&gt;sofa/couch</title>
<path fill="none" stroke="#7f7f7f" d="M90.069,-264.61C83.633,-272.7 76,-282.29 69.23,-290.8"/>
<polygon fill="#7f7f7f" stroke="#7f7f7f" points="65.984,-294.87 67.3426,-289.558 67.5428,-292.9155 69.1017,-290.961 69.1017,-290.961 69.1017,-290.961 67.5428,-292.9155 70.8607,-292.3639 65.984,-294.87 65.984,-294.87"/>
</g>
<!-- person#not contacting#table&#45;&gt;table -->
<g id="edge25" class="edge">
<title>person#not contacting#table&#45;&gt;table</title>
<path fill="none" stroke="#7f7f7f" d="M267.79,-81.516C263.55,-70.121 258.04,-55.289 253.5,-43.057"/>
<polygon fill="#7f7f7f" stroke="#7f7f7f" points="251.74,-38.337 255.5952,-42.2358 252.6135,-40.6795 253.487,-43.0219 253.487,-43.0219 253.487,-43.0219 252.6135,-40.6795 251.3788,-43.808 251.74,-38.337 251.74,-38.337"/>
</g>
<!-- laptop&#45;&gt;laptop#in front of#person -->
<g id="edge26" class="edge">
<title>laptop&#45;&gt;laptop#in front of#person</title>
<path fill="none" stroke="#7f7f7f" d="M372.18,-318.86C357.81,-320.5 340.82,-322.43 325.62,-324.17"/>
<polygon fill="#7f7f7f" stroke="#7f7f7f" points="320.54,-324.75 325.2525,-321.9473 323.0239,-324.4664 325.5077,-324.1827 325.5077,-324.1827 325.5077,-324.1827 323.0239,-324.4664 325.763,-326.4182 320.54,-324.75 320.54,-324.75"/>
</g>
<!-- chair#beneath#person -->
<g id="node20" class="node">
<title>chair#beneath#person</title>
<path fill="#c3e2b3" stroke="#000000" d="M157.37,-184.32C157.37,-184.32 121.37,-184.32 121.37,-184.32 115.37,-184.32 109.37,-178.32 109.37,-172.32 109.37,-172.32 109.37,-160.32 109.37,-160.32 109.37,-154.32 115.37,-148.32 121.37,-148.32 121.37,-148.32 157.37,-148.32 157.37,-148.32 163.37,-148.32 169.37,-154.32 169.37,-160.32 169.37,-160.32 169.37,-172.32 169.37,-172.32 169.37,-178.32 163.37,-184.32 157.37,-184.32"/>
<text text-anchor="middle" x="139.37" y="-162.62" font-family="Times,serif" font-size="14.00" fill="#000000">beneath</text>
</g>
<!-- chair&#45;&gt;chair#beneath#person -->
<g id="edge27" class="edge">
<title>chair&#45;&gt;chair#beneath#person</title>
<path fill="none" stroke="#7f7f7f" d="M57.324,-55.595C74.535,-78.822 104.3,-118.99 122.85,-144.03"/>
<polygon fill="#7f7f7f" stroke="#7f7f7f" points="125.95,-148.21 121.1643,-145.5342 124.4608,-146.2019 122.9715,-144.1939 122.9715,-144.1939 122.9715,-144.1939 124.4608,-146.2019 124.7788,-142.8536 125.95,-148.21 125.95,-148.21"/>
</g>
<!-- shoe#in front of#person -->
<g id="node21" class="node">
<title>shoe#in front of#person</title>
<path fill="#c3e2b3" stroke="#000000" d="M337.73,-197.52C337.73,-197.52 288.73,-197.52 288.73,-197.52 282.73,-197.52 276.73,-191.52 276.73,-185.52 276.73,-185.52 276.73,-173.52 276.73,-173.52 276.73,-167.52 282.73,-161.52 288.73,-161.52 288.73,-161.52 337.73,-161.52 337.73,-161.52 343.73,-161.52 349.73,-167.52 349.73,-173.52 349.73,-173.52 349.73,-185.52 349.73,-185.52 349.73,-191.52 343.73,-197.52 337.73,-197.52"/>
<text text-anchor="middle" x="313.23" y="-175.82" font-family="Times,serif" font-size="14.00" fill="#000000">in front of</text>
</g>
<!-- shoe&#45;&gt;shoe#in front of#person -->
<g id="edge28" class="edge">
<title>shoe&#45;&gt;shoe#in front of#person</title>
<path fill="none" stroke="#7f7f7f" d="M405.87,-66.984C386.36,-90.688 352.25,-132.12 331.3,-157.56"/>
<polygon fill="#7f7f7f" stroke="#7f7f7f" points="328.06,-161.5 329.498,-156.2089 329.6479,-159.569 331.2358,-157.6381 331.2358,-157.6381 331.2358,-157.6381 329.6479,-159.569 332.9737,-159.0672 328.06,-161.5 328.06,-161.5"/>
</g>
<!-- sofa/couch#behind#person -->
<g id="node22" class="node">
<title>sofa/couch#behind#person</title>
<path fill="#c3e2b3" stroke="#000000" d="M200.88,-258.01C200.88,-258.01 169.88,-258.01 169.88,-258.01 163.88,-258.01 157.88,-252.01 157.88,-246.01 157.88,-246.01 157.88,-234.01 157.88,-234.01 157.88,-228.01 163.88,-222.01 169.88,-222.01 169.88,-222.01 200.88,-222.01 200.88,-222.01 206.88,-222.01 212.88,-228.01 212.88,-234.01 212.88,-234.01 212.88,-246.01 212.88,-246.01 212.88,-252.01 206.88,-258.01 200.88,-258.01"/>
<text text-anchor="middle" x="185.38" y="-236.31" font-family="Times,serif" font-size="14.00" fill="#000000">behind</text>
</g>
<!-- sofa/couch&#45;&gt;sofa/couch#behind#person -->
<g id="edge29" class="edge">
<title>sofa/couch&#45;&gt;sofa/couch#behind#person</title>
<path fill="none" stroke="#7f7f7f" d="M84.594,-295.01C105.47,-283.62 132.31,-268.97 153.04,-257.66"/>
<polygon fill="#7f7f7f" stroke="#7f7f7f" points="157.63,-255.15 154.3226,-259.5231 155.4365,-256.3495 153.2431,-257.549 153.2431,-257.549 153.2431,-257.549 155.4365,-256.3495 152.1635,-255.5749 157.63,-255.15 157.63,-255.15"/>
</g>
<!-- chair#beneath#person&#45;&gt;person -->
<g id="edge30" class="edge">
<title>chair#beneath#person&#45;&gt;person</title>
<path fill="none" stroke="#7f7f7f" d="M169.37,-167.14C174.8,-167.29 180.54,-167.45 186.21,-167.61"/>
<polygon fill="#7f7f7f" stroke="#7f7f7f" points="191.38,-167.75 186.3209,-169.8637 188.8809,-167.6823 186.3818,-167.6146 186.3818,-167.6146 186.3818,-167.6146 188.8809,-167.6823 186.4428,-165.3654 191.38,-167.75 191.38,-167.75"/>
</g>
<!-- shoe#in front of#person&#45;&gt;person -->
<g id="edge31" class="edge">
<title>shoe#in front of#person&#45;&gt;person</title>
<path fill="none" stroke="#7f7f7f" d="M276.72,-174.97C273.44,-174.56 270.1,-174.14 266.79,-173.73"/>
<polygon fill="#7f7f7f" stroke="#7f7f7f" points="261.63,-173.09 266.869,-171.4726 264.111,-173.3978 266.592,-173.7055 266.592,-173.7055 266.592,-173.7055 264.111,-173.3978 266.315,-175.9384 261.63,-173.09 261.63,-173.09"/>
</g>
<!-- sofa/couch#behind#person&#45;&gt;person -->
<g id="edge32" class="edge">
<title>sofa/couch#behind#person&#45;&gt;person</title>
<path fill="none" stroke="#7f7f7f" d="M195.98,-221.65C201.35,-212.34 207.92,-200.97 213.59,-191.15"/>
<polygon fill="#7f7f7f" stroke="#7f7f7f" points="216.12,-186.76 215.5728,-192.2156 214.8717,-188.926 213.6233,-191.0921 213.6233,-191.0921 213.6233,-191.0921 214.8717,-188.926 211.6739,-189.9686 216.12,-186.76 216.12,-186.76"/>
</g>
</g>
</svg>
