<?xml version="1.0" encoding="UTF-8" standalone="no"?>
<!DOCTYPE svg PUBLIC "-//W3C//DTD SVG 1.1//EN"
 "http://www.w3.org/Graphics/SVG/1.1/DTD/svg11.dtd">
<!-- Generated by graphviz version 2.40.1 (20161225.0304)
 -->
<!-- Pages: 1 -->
<svg width="622pt" height="451pt"
 viewBox="0.00 0.00 621.97 450.70" xmlns="http://www.w3.org/2000/svg" xmlns:xlink="http://www.w3.org/1999/xlink">
<g id="graph0" class="graph" transform="scale(1 1) rotate(0) translate(4 446.7)">
<polygon fill="#ffffff" stroke="transparent" points="-4,4 -4,-446.7 617.97,-446.7 617.97,4 -4,4"/>
<!-- shoe#in front of#person -->
<g id="node1" class="node">
<title>shoe#in front of#person</title>
<path fill="#c3e2b3" stroke="#000000" d="M400.98,-41.727C400.98,-41.727 351.98,-41.727 351.98,-41.727 345.98,-41.727 339.98,-35.727 339.98,-29.727 339.98,-29.727 339.98,-17.727 339.98,-17.727 339.98,-11.727 345.98,-5.727 351.98,-5.727 351.98,-5.727 400.98,-5.727 400.98,-5.727 406.98,-5.727 412.98,-11.727 412.98,-17.727 412.98,-17.727 412.98,-29.727 412.98,-29.727 412.98,-35.727 406.98,-41.727 400.98,-41.727"/>
<text text-anchor="middle" x="376.48" y="-20.027" font-family="Times,serif" font-size="14.00" fill="#000000">in front of</text>
</g>
<!-- person -->
<g id="node2" class="node">
<title>person</title>
<path fill="#ffb0b9" stroke="#000000" d="M326.44,-245.74C326.44,-245.74 280.44,-245.74 280.44,-245.74 274.44,-245.74 268.44,-239.74 268.44,-233.74 268.44,-233.74 268.44,-221.74 268.44,-221.74 268.44,-215.74 274.44,-209.74 280.44,-209.74 280.44,-209.74 326.44,-209.74 326.44,-209.74 332.44,-209.74 338.44,-215.74 338.44,-221.74 338.44,-221.74 338.44,-233.74 338.44,-233.74 338.44,-239.74 332.44,-245.74 326.44,-245.74"/>
<text text-anchor="middle" x="303.44" y="-222.74" font-family="Times,serif" font-size="20.00" fill="#000000">person</text>
</g>
<!-- shoe#in front of#person&#45;&gt;person -->
<g id="edge1" class="edge">
<title>shoe#in front of#person&#45;&gt;person</title>
<path fill="none" stroke="#7f7f7f" d="M370,-41.832C356.68,-79.035 326.26,-164.01 311.62,-204.91"/>
<polygon fill="#7f7f7f" stroke="#7f7f7f" points="309.91,-209.68 309.4794,-204.214 310.7537,-207.3266 311.5974,-204.9733 311.5974,-204.9733 311.5974,-204.9733 310.7537,-207.3266 313.7154,-205.7326 309.91,-209.68 309.91,-209.68"/>
</g>
<!-- person#sitting on#sofa/couch -->
<g id="node3" class="node">
<title>person#sitting on#sofa/couch</title>
<path fill="#c3e2b3" stroke="#000000" d="M463.15,-284.7C463.15,-284.7 418.15,-284.7 418.15,-284.7 412.15,-284.7 406.15,-278.7 406.15,-272.7 406.15,-272.7 406.15,-260.7 406.15,-260.7 406.15,-254.7 412.15,-248.7 418.15,-248.7 418.15,-248.7 463.15,-248.7 463.15,-248.7 469.15,-248.7 475.15,-254.7 475.15,-260.7 475.15,-260.7 475.15,-272.7 475.15,-272.7 475.15,-278.7 469.15,-284.7 463.15,-284.7"/>
<text text-anchor="middle" x="440.65" y="-263" font-family="Times,serif" font-size="14.00" fill="#000000">sitting on</text>
</g>
<!-- person&#45;&gt;person#sitting on#sofa/couch -->
<g id="edge2" class="edge">
<title>person&#45;&gt;person#sitting on#sofa/couch</title>
<path fill="none" stroke="#7f7f7f" d="M338.78,-237.77C357.81,-243.18 381.35,-249.86 401,-255.44"/>
<polygon fill="#7f7f7f" stroke="#7f7f7f" points="405.91,-256.83 400.4862,-257.6329 403.5045,-256.149 401.0991,-255.468 401.0991,-255.468 401.0991,-255.468 403.5045,-256.149 401.712,-253.3031 405.91,-256.83 405.91,-256.83"/>
</g>
<!-- person#not looking at#sofa/couch -->
<g id="node4" class="node">
<title>person#not looking at#sofa/couch</title>
<path fill="#c3e2b3" stroke="#000000" d="M488.71,-426.28C488.71,-426.28 418.71,-426.28 418.71,-426.28 412.71,-426.28 406.71,-420.28 406.71,-414.28 406.71,-414.28 406.71,-402.28 406.71,-402.28 406.71,-396.28 412.71,-390.28 418.71,-390.28 418.71,-390.28 488.71,-390.28 488.71,-390.28 494.71,-390.28 500.71,-396.28 500.71,-402.28 500.71,-402.28 500.71,-414.28 500.71,-414.28 500.71,-420.28 494.71,-426.28 488.71,-426.28"/>
<text text-anchor="middle" x="453.71" y="-404.58" font-family="Times,serif" font-size="14.00" fill="#000000">not looking at</text>
</g>
<!-- person&#45;&gt;person#not looking at#sofa/couch -->
<g id="edge3" class="edge">
<title>person&#45;&gt;person#not looking at#sofa/couch</title>
<path fill="none" stroke="#7f7f7f" d="M318.68,-246.05C346.43,-279.38 405.1,-349.88 435.14,-385.97"/>
<polygon fill="#7f7f7f" stroke="#7f7f7f" points="438.66,-390.2 433.7322,-387.7959 437.0609,-388.2783 435.4617,-386.3566 435.4617,-386.3566 435.4617,-386.3566 437.0609,-388.2783 437.1912,-384.9174 438.66,-390.2 438.66,-390.2"/>
</g>
<!-- person#looking at#shoe -->
<g id="node5" class="node">
<title>person#looking at#shoe</title>
<path fill="#c3e2b3" stroke="#000000" d="M474.2,-155.5C474.2,-155.5 425.2,-155.5 425.2,-155.5 419.2,-155.5 413.2,-149.5 413.2,-143.5 413.2,-143.5 413.2,-131.5 413.2,-131.5 413.2,-125.5 419.2,-119.5 425.2,-119.5 425.2,-119.5 474.2,-119.5 474.2,-119.5 480.2,-119.5 486.2,-125.5 486.2,-131.5 486.2,-131.5 486.2,-143.5 486.2,-143.5 486.2,-149.5 480.2,-155.5 474.2,-155.5"/>
<text text-anchor="middle" x="449.7" y="-133.8" font-family="Times,serif" font-size="14.00" fill="#000000">looking at</text>
</g>
<!-- person&#45;&gt;person#looking at#shoe -->
<g id="edge4" class="edge">
<title>person&#45;&gt;person#looking at#shoe</title>
<path fill="none" stroke="#7f7f7f" d="M332.69,-209.7C356.8,-194.82 391.02,-173.7 416.22,-158.15"/>
<polygon fill="#7f7f7f" stroke="#7f7f7f" points="420.5,-155.51 417.4257,-160.05 418.3722,-156.8225 416.2444,-158.135 416.2444,-158.135 416.2444,-158.135 418.3722,-156.8225 415.0632,-156.22 420.5,-155.51 420.5,-155.51"/>
</g>
<!-- person#looking at#laptop -->
<g id="node6" class="node">
<title>person#looking at#laptop</title>
<path fill="#c3e2b3" stroke="#000000" d="M165.79,-139.85C165.79,-139.85 116.79,-139.85 116.79,-139.85 110.79,-139.85 104.79,-133.85 104.79,-127.85 104.79,-127.85 104.79,-115.85 104.79,-115.85 104.79,-109.85 110.79,-103.85 116.79,-103.85 116.79,-103.85 165.79,-103.85 165.79,-103.85 171.79,-103.85 177.79,-109.85 177.79,-115.85 177.79,-115.85 177.79,-127.85 177.79,-127.85 177.79,-133.85 171.79,-139.85 165.79,-139.85"/>
<text text-anchor="middle" x="141.29" y="-118.15" font-family="Times,serif" font-size="14.00" fill="#000000">looking at</text>
</g>
<!-- person&#45;&gt;person#looking at#laptop -->
<g id="edge5" class="edge">
<title>person&#45;&gt;person#looking at#laptop</title>
<path fill="none" stroke="#7f7f7f" d="M275.57,-209.54C247.17,-191 203.19,-162.28 173.36,-142.8"/>
<polygon fill="#7f7f7f" stroke="#7f7f7f" points="169.07,-140 174.4869,-140.8487 171.1635,-141.3664 173.2571,-142.7329 173.2571,-142.7329 173.2571,-142.7329 171.1635,-141.3664 172.0273,-144.6171 169.07,-140 169.07,-140"/>
</g>
<!-- person#touching#table -->
<g id="node7" class="node">
<title>person#touching#table</title>
<path fill="#c3e2b3" stroke="#000000" d="M364.91,-335.06C364.91,-335.06 323.91,-335.06 323.91,-335.06 317.91,-335.06 311.91,-329.06 311.91,-323.06 311.91,-323.06 311.91,-311.06 311.91,-311.06 311.91,-305.06 317.91,-299.06 323.91,-299.06 323.91,-299.06 364.91,-299.06 364.91,-299.06 370.91,-299.06 376.91,-305.06 376.91,-311.06 376.91,-311.06 376.91,-323.06 376.91,-323.06 376.91,-329.06 370.91,-335.06 364.91,-335.06"/>
<text text-anchor="middle" x="344.41" y="-313.36" font-family="Times,serif" font-size="14.00" fill="#000000">touching</text>
</g>
<!-- person&#45;&gt;person#touching#table -->
<g id="edge6" class="edge">
<title>person&#45;&gt;person#touching#table</title>
<path fill="none" stroke="#7f7f7f" d="M311.73,-245.82C318.12,-259.74 326.99,-279.08 333.88,-294.1"/>
<polygon fill="#7f7f7f" stroke="#7f7f7f" points="336.13,-299.01 332.0015,-295.4019 335.0885,-296.7373 334.047,-294.4645 334.047,-294.4645 334.047,-294.4645 335.0885,-296.7373 336.0925,-293.5272 336.13,-299.01 336.13,-299.01"/>
</g>
<!-- person#holding#shoe -->
<g id="node8" class="node">
<title>person#holding#shoe</title>
<path fill="#c3e2b3" stroke="#000000" d="M369.2,-165.88C369.2,-165.88 334.2,-165.88 334.2,-165.88 328.2,-165.88 322.2,-159.88 322.2,-153.88 322.2,-153.88 322.2,-141.88 322.2,-141.88 322.2,-135.88 328.2,-129.88 334.2,-129.88 334.2,-129.88 369.2,-129.88 369.2,-129.88 375.2,-129.88 381.2,-135.88 381.2,-141.88 381.2,-141.88 381.2,-153.88 381.2,-153.88 381.2,-159.88 375.2,-165.88 369.2,-165.88"/>
<text text-anchor="middle" x="351.7" y="-144.18" font-family="Times,serif" font-size="14.00" fill="#000000">holding</text>
</g>
<!-- person&#45;&gt;person#holding#shoe -->
<g id="edge7" class="edge">
<title>person&#45;&gt;person#holding#shoe</title>
<path fill="none" stroke="#7f7f7f" d="M314.4,-209.62C321.43,-197.98 330.62,-182.77 338.12,-170.36"/>
<polygon fill="#7f7f7f" stroke="#7f7f7f" points="340.8,-165.93 340.137,-171.3727 339.5059,-168.069 338.2119,-170.2081 338.2119,-170.2081 338.2119,-170.2081 339.5059,-168.069 336.2867,-169.0434 340.8,-165.93 340.8,-165.93"/>
</g>
<!-- person#not looking at#table -->
<g id="node9" class="node">
<title>person#not looking at#table</title>
<path fill="#c3e2b3" stroke="#000000" d="M267.6,-328.7C267.6,-328.7 197.6,-328.7 197.6,-328.7 191.6,-328.7 185.6,-322.7 185.6,-316.7 185.6,-316.7 185.6,-304.7 185.6,-304.7 185.6,-298.7 191.6,-292.7 197.6,-292.7 197.6,-292.7 267.6,-292.7 267.6,-292.7 273.6,-292.7 279.6,-298.7 279.6,-304.7 279.6,-304.7 279.6,-316.7 279.6,-316.7 279.6,-322.7 273.6,-328.7 267.6,-328.7"/>
<text text-anchor="middle" x="232.6" y="-307" font-family="Times,serif" font-size="14.00" fill="#000000">not looking at</text>
</g>
<!-- person&#45;&gt;person#not looking at#table -->
<g id="edge8" class="edge">
<title>person&#45;&gt;person#not looking at#table</title>
<path fill="none" stroke="#7f7f7f" d="M288.07,-245.74C277.38,-258.27 263.04,-275.05 251.63,-288.42"/>
<polygon fill="#7f7f7f" stroke="#7f7f7f" points="248.18,-292.45 249.7224,-287.1885 249.8058,-290.5508 251.4317,-288.6517 251.4317,-288.6517 251.4317,-288.6517 249.8058,-290.5508 253.1409,-290.1149 248.18,-292.45 248.18,-292.45"/>
</g>
<!-- person#not contacting#table -->
<g id="node10" class="node">
<title>person#not contacting#table</title>
<path fill="#c3e2b3" stroke="#000000" d="M390.16,-442.7C390.16,-442.7 318.16,-442.7 318.16,-442.7 312.16,-442.7 306.16,-436.7 306.16,-430.7 306.16,-430.7 306.16,-418.7 306.16,-418.7 306.16,-412.7 312.16,-406.7 318.16,-406.7 318.16,-406.7 390.16,-406.7 390.16,-406.7 396.16,-406.7 402.16,-412.7 402.16,-418.7 402.16,-418.7 402.16,-430.7 402.16,-430.7 402.16,-436.7 396.16,-442.7 390.16,-442.7"/>
<text text-anchor="middle" x="354.16" y="-421" font-family="Times,serif" font-size="14.00" fill="#000000">not contacting</text>
</g>
<!-- person&#45;&gt;person#not contacting#table -->
<g id="edge9" class="edge">
<title>person&#45;&gt;person#not contacting#table</title>
<path fill="none" stroke="#7f7f7f" d="M308.12,-245.92C317.37,-281.83 337.96,-361.81 348.18,-401.48"/>
<polygon fill="#7f7f7f" stroke="#7f7f7f" points="349.49,-406.57 346.0647,-402.2886 348.8669,-404.1489 348.2437,-401.7278 348.2437,-401.7278 348.2437,-401.7278 348.8669,-404.1489 350.4227,-401.167 349.49,-406.57 349.49,-406.57"/>
</g>
<!-- person#sitting on#chair -->
<g id="node11" class="node">
<title>person#sitting on#chair</title>
<path fill="#c3e2b3" stroke="#000000" d="M140.43,-310.98C140.43,-310.98 95.43,-310.98 95.43,-310.98 89.43,-310.98 83.43,-304.98 83.43,-298.98 83.43,-298.98 83.43,-286.98 83.43,-286.98 83.43,-280.98 89.43,-274.98 95.43,-274.98 95.43,-274.98 140.43,-274.98 140.43,-274.98 146.43,-274.98 152.43,-280.98 152.43,-286.98 152.43,-286.98 152.43,-298.98 152.43,-298.98 152.43,-304.98 146.43,-310.98 140.43,-310.98"/>
<text text-anchor="middle" x="117.93" y="-289.28" font-family="Times,serif" font-size="14.00" fill="#000000">sitting on</text>
</g>
<!-- person&#45;&gt;person#sitting on#chair -->
<g id="edge10" class="edge">
<title>person&#45;&gt;person#sitting on#chair</title>
<path fill="none" stroke="#7f7f7f" d="M268.11,-240.16C236.45,-251.3 190.07,-267.61 157.24,-279.15"/>
<polygon fill="#7f7f7f" stroke="#7f7f7f" points="152.5,-280.82 156.4682,-277.0363 154.8579,-279.9892 157.2159,-279.1584 157.2159,-279.1584 157.2159,-279.1584 154.8579,-279.9892 157.9636,-281.2806 152.5,-280.82 152.5,-280.82"/>
</g>
<!-- person#not looking at#chair -->
<g id="node12" class="node">
<title>person#not looking at#chair</title>
<path fill="#c3e2b3" stroke="#000000" d="M225.14,-230.85C225.14,-230.85 155.14,-230.85 155.14,-230.85 149.14,-230.85 143.14,-224.85 143.14,-218.85 143.14,-218.85 143.14,-206.85 143.14,-206.85 143.14,-200.85 149.14,-194.85 155.14,-194.85 155.14,-194.85 225.14,-194.85 225.14,-194.85 231.14,-194.85 237.14,-200.85 237.14,-206.85 237.14,-206.85 237.14,-218.85 237.14,-218.85 237.14,-224.85 231.14,-230.85 225.14,-230.85"/>
<text text-anchor="middle" x="190.14" y="-209.15" font-family="Times,serif" font-size="14.00" fill="#000000">not looking at</text>
</g>
<!-- person&#45;&gt;person#not looking at#chair -->
<g id="edge11" class="edge">
<title>person&#45;&gt;person#not looking at#chair</title>
<path fill="none" stroke="#7f7f7f" d="M268.22,-223.11C260.15,-222.05 251.4,-220.9 242.77,-219.77"/>
<polygon fill="#7f7f7f" stroke="#7f7f7f" points="237.43,-219.06 242.683,-217.4887 239.9082,-219.3895 242.3864,-219.7191 242.3864,-219.7191 242.3864,-219.7191 239.9082,-219.3895 242.0898,-221.9494 237.43,-219.06 237.43,-219.06"/>
</g>
<!-- person#touching#laptop -->
<g id="node13" class="node">
<title>person#touching#laptop</title>
<path fill="#c3e2b3" stroke="#000000" d="M280.78,-140.38C280.78,-140.38 239.78,-140.38 239.78,-140.38 233.78,-140.38 227.78,-134.38 227.78,-128.38 227.78,-128.38 227.78,-116.38 227.78,-116.38 227.78,-110.38 233.78,-104.38 239.78,-104.38 239.78,-104.38 280.78,-104.38 280.78,-104.38 286.78,-104.38 292.78,-110.38 292.78,-116.38 292.78,-116.38 292.78,-128.38 292.78,-128.38 292.78,-134.38 286.78,-140.38 280.78,-140.38"/>
<text text-anchor="middle" x="260.28" y="-118.68" font-family="Times,serif" font-size="14.00" fill="#000000">touching</text>
</g>
<!-- person&#45;&gt;person#touching#laptop -->
<g id="edge12" class="edge">
<title>person&#45;&gt;person#touching#laptop</title>
<path fill="none" stroke="#7f7f7f" d="M295.93,-209.39C288.62,-191.56 277.52,-164.44 269.64,-145.23"/>
<polygon fill="#7f7f7f" stroke="#7f7f7f" points="267.72,-140.52 271.691,-144.3007 268.6637,-142.835 269.6075,-145.1501 269.6075,-145.1501 269.6075,-145.1501 268.6637,-142.835 267.5239,-145.9995 267.72,-140.52 267.72,-140.52"/>
</g>
<!-- sofa/couch -->
<g id="node14" class="node">
<title>sofa/couch</title>
<path fill="#ffb0b9" stroke="#000000" d="M601.97,-402.28C601.97,-402.28 522.97,-402.28 522.97,-402.28 516.97,-402.28 510.97,-396.28 510.97,-390.28 510.97,-390.28 510.97,-378.28 510.97,-378.28 510.97,-372.28 516.97,-366.28 522.97,-366.28 522.97,-366.28 601.97,-366.28 601.97,-366.28 607.97,-366.28 613.97,-372.28 613.97,-378.28 613.97,-378.28 613.97,-390.28 613.97,-390.28 613.97,-396.28 607.97,-402.28 601.97,-402.28"/>
<text text-anchor="middle" x="562.47" y="-379.28" font-family="Times,serif" font-size="20.00" fill="#000000">sofa/couch</text>
</g>
<!-- person#sitting on#sofa/couch&#45;&gt;sofa/couch -->
<g id="edge13" class="edge">
<title>person#sitting on#sofa/couch&#45;&gt;sofa/couch</title>
<path fill="none" stroke="#7f7f7f" d="M459.42,-284.81C481.08,-305.72 516.7,-340.11 539.87,-362.47"/>
<polygon fill="#7f7f7f" stroke="#7f7f7f" points="543.48,-365.95 538.3186,-364.0997 541.6801,-364.2149 539.8802,-362.4798 539.8802,-362.4798 539.8802,-362.4798 541.6801,-364.2149 541.4418,-360.8599 543.48,-365.95 543.48,-365.95"/>
</g>
<!-- person#not looking at#sofa/couch&#45;&gt;sofa/couch -->
<g id="edge14" class="edge">
<title>person#not looking at#sofa/couch&#45;&gt;sofa/couch</title>
<path fill="none" stroke="#7f7f7f" d="M500.78,-397.89C502.45,-397.53 504.12,-397.16 505.8,-396.79"/>
<polygon fill="#7f7f7f" stroke="#7f7f7f" points="510.83,-395.68 506.4324,-398.9547 508.3887,-396.2188 505.9475,-396.7575 505.9475,-396.7575 505.9475,-396.7575 508.3887,-396.2188 505.4626,-394.5604 510.83,-395.68 510.83,-395.68"/>
</g>
<!-- shoe -->
<g id="node15" class="node">
<title>shoe</title>
<path fill="#ffb0b9" stroke="#000000" d="M559.34,-59.591C559.34,-59.591 529.34,-59.591 529.34,-59.591 523.34,-59.591 517.34,-53.591 517.34,-47.591 517.34,-47.591 517.34,-35.591 517.34,-35.591 517.34,-29.591 523.34,-23.591 529.34,-23.591 529.34,-23.591 559.34,-23.591 559.34,-23.591 565.34,-23.591 571.34,-29.591 571.34,-35.591 571.34,-35.591 571.34,-47.591 571.34,-47.591 571.34,-53.591 565.34,-59.591 559.34,-59.591"/>
<text text-anchor="middle" x="544.34" y="-36.591" font-family="Times,serif" font-size="20.00" fill="#000000">shoe</text>
</g>
<!-- person#looking at#shoe&#45;&gt;shoe -->
<g id="edge15" class="edge">
<title>person#looking at#shoe&#45;&gt;shoe</title>
<path fill="none" stroke="#7f7f7f" d="M467.5,-119.46C483.13,-103.62 505.92,-80.527 522.62,-63.604"/>
<polygon fill="#7f7f7f" stroke="#7f7f7f" points="526.3,-59.875 524.3894,-65.0143 524.5439,-61.6544 522.7879,-63.4339 522.7879,-63.4339 522.7879,-63.4339 524.5439,-61.6544 521.1864,-61.8534 526.3,-59.875 526.3,-59.875"/>
</g>
<!-- laptop -->
<g id="node16" class="node">
<title>laptop</title>
<path fill="#ffb0b9" stroke="#000000" d="M68.465,-56.354C68.465,-56.354 26.465,-56.354 26.465,-56.354 20.465,-56.354 14.465,-50.354 14.465,-44.354 14.465,-44.354 14.465,-32.354 14.465,-32.354 14.465,-26.354 20.465,-20.354 26.465,-20.354 26.465,-20.354 68.465,-20.354 68.465,-20.354 74.465,-20.354 80.465,-26.354 80.465,-32.354 80.465,-32.354 80.465,-44.354 80.465,-44.354 80.465,-50.354 74.465,-56.354 68.465,-56.354"/>
<text text-anchor="middle" x="47.465" y="-33.354" font-family="Times,serif" font-size="20.00" fill="#000000">laptop</text>
</g>
<!-- person#looking at#laptop&#45;&gt;laptop -->
<g id="edge16" class="edge">
<title>person#looking at#laptop&#45;&gt;laptop</title>
<path fill="none" stroke="#7f7f7f" d="M120.93,-103.74C106.42,-90.824 86.862,-73.417 71.573,-59.81"/>
<polygon fill="#7f7f7f" stroke="#7f7f7f" points="67.783,-56.437 73.0139,-58.0803 69.6505,-58.0991 71.5181,-59.7611 71.5181,-59.7611 71.5181,-59.7611 69.6505,-58.0991 70.0222,-61.4419 67.783,-56.437 67.783,-56.437"/>
</g>
<!-- table -->
<g id="node17" class="node">
<title>table</title>
<path fill="#ffb0b9" stroke="#000000" d="M273.63,-436.1C273.63,-436.1 242.63,-436.1 242.63,-436.1 236.63,-436.1 230.63,-430.1 230.63,-424.1 230.63,-424.1 230.63,-412.1 230.63,-412.1 230.63,-406.1 236.63,-400.1 242.63,-400.1 242.63,-400.1 273.63,-400.1 273.63,-400.1 279.63,-400.1 285.63,-406.1 285.63,-412.1 285.63,-412.1 285.63,-424.1 285.63,-424.1 285.63,-430.1 279.63,-436.1 273.63,-436.1"/>
<text text-anchor="middle" x="258.13" y="-413.1" font-family="Times,serif" font-size="20.00" fill="#000000">table</text>
</g>
<!-- person#touching#table&#45;&gt;table -->
<g id="edge17" class="edge">
<title>person#touching#table&#45;&gt;table</title>
<path fill="none" stroke="#7f7f7f" d="M328.98,-335.13C314.47,-352.12 292.71,-377.61 277.13,-395.85"/>
<polygon fill="#7f7f7f" stroke="#7f7f7f" points="273.71,-399.86 275.2427,-394.5956 275.3323,-397.9578 276.9546,-396.0557 276.9546,-396.0557 276.9546,-396.0557 275.3323,-397.9578 278.6666,-397.5157 273.71,-399.86 273.71,-399.86"/>
</g>
<!-- person#holding#shoe&#45;&gt;shoe -->
<g id="edge18" class="edge">
<title>person#holding#shoe&#45;&gt;shoe</title>
<path fill="none" stroke="#7f7f7f" d="M381.38,-131.5C416.83,-111.94 475.91,-79.347 512.35,-59.239"/>
<polygon fill="#7f7f7f" stroke="#7f7f7f" points="517.12,-56.609 513.8278,-60.9936 514.9307,-57.8161 512.7414,-59.0232 512.7414,-59.0232 512.7414,-59.0232 514.9307,-57.8161 511.655,-57.0529 517.12,-56.609 517.12,-56.609"/>
</g>
<!-- person#not looking at#table&#45;&gt;table -->
<g id="edge19" class="edge">
<title>person#not looking at#table&#45;&gt;table</title>
<path fill="none" stroke="#7f7f7f" d="M236.93,-328.92C241.24,-347.05 247.87,-374.95 252.56,-394.71"/>
<polygon fill="#7f7f7f" stroke="#7f7f7f" points="253.77,-399.8 250.4245,-395.456 253.1918,-397.3678 252.6135,-394.9356 252.6135,-394.9356 252.6135,-394.9356 253.1918,-397.3678 254.8025,-394.4152 253.77,-399.8 253.77,-399.8"/>
</g>
<!-- person#not contacting#table&#45;&gt;table -->
<g id="edge20" class="edge">
<title>person#not contacting#table&#45;&gt;table</title>
<path fill="none" stroke="#7f7f7f" d="M306.14,-421.4C300.98,-421.05 295.81,-420.69 290.88,-420.35"/>
<polygon fill="#7f7f7f" stroke="#7f7f7f" points="285.64,-419.99 290.7825,-418.0881 288.1341,-420.1614 290.6282,-420.3328 290.6282,-420.3328 290.6282,-420.3328 288.1341,-420.1614 290.474,-422.5775 285.64,-419.99 285.64,-419.99"/>
</g>
<!-- chair -->
<g id="node18" class="node">
<title>chair</title>
<path fill="#ffb0b9" stroke="#000000" d="M45.572,-408.98C45.572,-408.98 13.572,-408.98 13.572,-408.98 7.572,-408.98 1.572,-402.98 1.572,-396.98 1.572,-396.98 1.572,-384.98 1.572,-384.98 1.572,-378.98 7.572,-372.98 13.572,-372.98 13.572,-372.98 45.572,-372.98 45.572,-372.98 51.572,-372.98 57.572,-378.98 57.572,-384.98 57.572,-384.98 57.572,-396.98 57.572,-396.98 57.572,-402.98 51.572,-408.98 45.572,-408.98"/>
<text text-anchor="middle" x="29.572" y="-385.98" font-family="Times,serif" font-size="20.00" fill="#000000">chair</text>
</g>
<!-- person#sitting on#chair&#45;&gt;chair -->
<g id="edge21" class="edge">
<title>person#sitting on#chair&#45;&gt;chair</title>
<path fill="none" stroke="#7f7f7f" d="M101.31,-311.41C86.528,-327.8 64.899,-351.79 49.258,-369.14"/>
<polygon fill="#7f7f7f" stroke="#7f7f7f" points="45.817,-372.96 47.4917,-367.739 47.4902,-371.1025 49.1635,-369.245 49.1635,-369.245 49.1635,-369.245 47.4902,-371.1025 50.8352,-370.7509 45.817,-372.96 45.817,-372.96"/>
</g>
<!-- person#not looking at#chair&#45;&gt;chair -->
<g id="edge22" class="edge">
<title>person#not looking at#chair&#45;&gt;chair</title>
<path fill="none" stroke="#7f7f7f" d="M173.86,-230.91C144.17,-263.85 81.327,-333.56 49.273,-369.12"/>
<polygon fill="#7f7f7f" stroke="#7f7f7f" points="45.895,-372.87 47.5697,-367.6491 47.5682,-371.0125 49.2415,-369.155 49.2415,-369.155 49.2415,-369.155 47.5682,-371.0125 50.9133,-370.6609 45.895,-372.87 45.895,-372.87"/>
</g>
<!-- person#touching#laptop&#45;&gt;laptop -->
<g id="edge23" class="edge">
<title>person#touching#laptop&#45;&gt;laptop</title>
<path fill="none" stroke="#7f7f7f" d="M227.5,-109.43C189.18,-94.306 125.88,-69.313 85.453,-53.353"/>
<polygon fill="#7f7f7f" stroke="#7f7f7f" points="80.64,-51.452 86.117,-51.1962 82.9652,-52.3704 85.2904,-53.2888 85.2904,-53.2888 85.2904,-53.2888 82.9652,-52.3704 84.4638,-55.3815 80.64,-51.452 80.64,-51.452"/>
</g>
<!-- sofa/couch#behind#person -->
<g id="node20" class="node">
<title>sofa/couch#behind#person</title>
<path fill="#c3e2b3" stroke="#000000" d="M576.3,-229.62C576.3,-229.62 545.3,-229.62 545.3,-229.62 539.3,-229.62 533.3,-223.62 533.3,-217.62 533.3,-217.62 533.3,-205.62 533.3,-205.62 533.3,-199.62 539.3,-193.62 545.3,-193.62 545.3,-193.62 576.3,-193.62 576.3,-193.62 582.3,-193.62 588.3,-199.62 588.3,-205.62 588.3,-205.62 588.3,-217.62 588.3,-217.62 588.3,-223.62 582.3,-229.62 576.3,-229.62"/>
<text text-anchor="middle" x="560.8" y="-207.92" font-family="Times,serif" font-size="14.00" fill="#000000">behind</text>
</g>
<!-- sofa/couch&#45;&gt;sofa/couch#behind#person -->
<g id="edge25" class="edge">
<title>sofa/couch&#45;&gt;sofa/couch#behind#person</title>
<path fill="none" stroke="#7f7f7f" d="M562.29,-366.13C561.99,-334.65 561.36,-269.97 561.03,-235.11"/>
<polygon fill="#7f7f7f" stroke="#7f7f7f" points="560.98,-229.79 563.277,-234.7686 561.0035,-232.2899 561.0271,-234.7898 561.0271,-234.7898 561.0271,-234.7898 561.0035,-232.2899 558.7772,-234.811 560.98,-229.79 560.98,-229.79"/>
</g>
<!-- shoe&#45;&gt;shoe#in front of#person -->
<g id="edge28" class="edge">
<title>shoe&#45;&gt;shoe#in front of#person</title>
<path fill="none" stroke="#7f7f7f" d="M517,-38.681C490.3,-35.84 449.3,-31.477 418.47,-28.196"/>
<polygon fill="#7f7f7f" stroke="#7f7f7f" points="413.23,-27.638 418.4402,-25.9302 415.7159,-27.9028 418.2019,-28.1675 418.2019,-28.1675 418.2019,-28.1675 415.7159,-27.9028 417.9636,-30.4049 413.23,-27.638 413.23,-27.638"/>
</g>
<!-- laptop#in front of#person -->
<g id="node21" class="node">
<title>laptop#in front of#person</title>
<path fill="#c3e2b3" stroke="#000000" d="M242.36,-36C242.36,-36 193.36,-36 193.36,-36 187.36,-36 181.36,-30 181.36,-24 181.36,-24 181.36,-12 181.36,-12 181.36,-6 187.36,0 193.36,0 193.36,0 242.36,0 242.36,0 248.36,0 254.36,-6 254.36,-12 254.36,-12 254.36,-24 254.36,-24 254.36,-30 248.36,-36 242.36,-36"/>
<text text-anchor="middle" x="217.86" y="-14.3" font-family="Times,serif" font-size="14.00" fill="#000000">in front of</text>
</g>
<!-- laptop&#45;&gt;laptop#in front of#person -->
<g id="edge29" class="edge">
<title>laptop&#45;&gt;laptop#in front of#person</title>
<path fill="none" stroke="#7f7f7f" d="M80.724,-34.382C108.01,-31.122 146.78,-26.491 176.15,-22.983"/>
<polygon fill="#7f7f7f" stroke="#7f7f7f" points="181.14,-22.386 176.4427,-25.2141 178.6577,-22.683 176.1754,-22.98 176.1754,-22.98 176.1754,-22.98 178.6577,-22.683 175.9081,-20.746 181.14,-22.386 181.14,-22.386"/>
</g>
<!-- table#in front of#person -->
<g id="node22" class="node">
<title>table#in front of#person</title>
<path fill="#c3e2b3" stroke="#000000" d="M174.99,-436.98C174.99,-436.98 125.99,-436.98 125.99,-436.98 119.99,-436.98 113.99,-430.98 113.99,-424.98 113.99,-424.98 113.99,-412.98 113.99,-412.98 113.99,-406.98 119.99,-400.98 125.99,-400.98 125.99,-400.98 174.99,-400.98 174.99,-400.98 180.99,-400.98 186.99,-406.98 186.99,-412.98 186.99,-412.98 186.99,-424.98 186.99,-424.98 186.99,-430.98 180.99,-436.98 174.99,-436.98"/>
<text text-anchor="middle" x="150.49" y="-415.28" font-family="Times,serif" font-size="14.00" fill="#000000">in front of</text>
</g>
<!-- table&#45;&gt;table#in front of#person -->
<g id="edge30" class="edge">
<title>table&#45;&gt;table#in front of#person</title>
<path fill="none" stroke="#7f7f7f" d="M230.41,-418.33C218.75,-418.42 204.93,-418.54 192.1,-418.64"/>
<polygon fill="#7f7f7f" stroke="#7f7f7f" points="187.04,-418.68 192.022,-416.3904 189.5399,-418.6602 192.0398,-418.6404 192.0398,-418.6404 192.0398,-418.6404 189.5399,-418.6602 192.0577,-420.8903 187.04,-418.68 187.04,-418.68"/>
</g>
<!-- chair#beneath#person -->
<g id="node19" class="node">
<title>chair#beneath#person</title>
<path fill="#c3e2b3" stroke="#000000" d="M48,-222.73C48,-222.73 12,-222.73 12,-222.73 6,-222.73 0,-216.73 0,-210.73 0,-210.73 0,-198.73 0,-198.73 0,-192.73 6,-186.73 12,-186.73 12,-186.73 48,-186.73 48,-186.73 54,-186.73 60,-192.73 60,-198.73 60,-198.73 60,-210.73 60,-210.73 60,-216.73 54,-222.73 48,-222.73"/>
<text text-anchor="middle" x="30" y="-201.03" font-family="Times,serif" font-size="14.00" fill="#000000">beneath</text>
</g>
<!-- chair&#45;&gt;chair#beneath#person -->
<g id="edge32" class="edge">
<title>chair&#45;&gt;chair#beneath#person</title>
<path fill="none" stroke="#7f7f7f" d="M29.613,-372.78C29.692,-338.84 29.859,-265.93 29.946,-228.29"/>
<polygon fill="#7f7f7f" stroke="#7f7f7f" points="29.958,-223 32.1966,-228.0051 29.9523,-225.5 29.9466,-228 29.9466,-228 29.9466,-228 29.9523,-225.5 27.6966,-227.9948 29.958,-223 29.958,-223"/>
</g>
<!-- chair#beneath#person&#45;&gt;person -->
<g id="edge24" class="edge">
<title>chair#beneath#person&#45;&gt;person</title>
<path fill="none" stroke="#7f7f7f" d="M60.045,-207.26C109.37,-211.41 207.56,-219.67 262.96,-224.33"/>
<polygon fill="#7f7f7f" stroke="#7f7f7f" points="268.19,-224.77 263.0189,-226.5928 265.6988,-224.5604 263.2076,-224.3507 263.2076,-224.3507 263.2076,-224.3507 265.6988,-224.5604 263.3963,-222.1087 268.19,-224.77 268.19,-224.77"/>
</g>
<!-- sofa/couch#behind#person&#45;&gt;person -->
<g id="edge26" class="edge">
<title>sofa/couch#behind#person&#45;&gt;person</title>
<path fill="none" stroke="#7f7f7f" d="M533.26,-213.34C487.75,-216.19 396.66,-221.9 343.85,-225.21"/>
<polygon fill="#7f7f7f" stroke="#7f7f7f" points="338.55,-225.54 343.4005,-222.9835 341.0452,-225.3846 343.5403,-225.2292 343.5403,-225.2292 343.5403,-225.2292 341.0452,-225.3846 343.6802,-227.4748 338.55,-225.54 338.55,-225.54"/>
</g>
<!-- laptop#in front of#person&#45;&gt;person -->
<g id="edge27" class="edge">
<title>laptop#in front of#person&#45;&gt;person</title>
<path fill="none" stroke="#7f7f7f" d="M225.31,-36.246C240.9,-74.459 276.96,-162.83 294.09,-204.8"/>
<polygon fill="#7f7f7f" stroke="#7f7f7f" points="296.08,-209.69 292.1112,-205.9069 295.1376,-207.3744 294.1953,-205.0588 294.1953,-205.0588 294.1953,-205.0588 295.1376,-207.3744 296.2793,-204.2107 296.08,-209.69 296.08,-209.69"/>
</g>
<!-- table#in front of#person&#45;&gt;person -->
<g id="edge31" class="edge">
<title>table#in front of#person&#45;&gt;person</title>
<path fill="none" stroke="#7f7f7f" d="M165.15,-400.64C193.43,-365.28 255.4,-287.81 285.85,-249.74"/>
<polygon fill="#7f7f7f" stroke="#7f7f7f" points="289.05,-245.74 287.6835,-251.0499 287.4882,-247.6922 285.9265,-249.6444 285.9265,-249.6444 285.9265,-249.6444 287.4882,-247.6922 284.1695,-248.2388 289.05,-245.74 289.05,-245.74"/>
</g>
</g>
</svg>
