<?xml version="1.0" ?><!DOCTYPE svg  PUBLIC '-//W3C//DTD SVG 1.1//EN'  'http://www.w3.org/Graphics/SVG/1.1/DTD/svg11.dtd'><!-- Generated by graphviz version 2.40.1 (20161225.0304)
 --><!-- Pages: 1 --><svg height="523pt" viewBox="0.00 0.00 736.98 522.69" width="737pt" xmlns="http://www.w3.org/2000/svg" xmlns:xlink="http://www.w3.org/1999/xlink">
<g class="graph" id="graph0" transform="scale(1 1) rotate(0) translate(4 518.69)">
<polygon fill="#ffffff" points="-4,4 -4,-518.69 732.98,-518.69 732.98,4 -4,4" stroke="transparent"/>
<!-- person#sitting on#bed -->
<g class="node" id="node1">
<title>person#sitting on#bed</title>
<path d="M191.4,-280.17C191.4,-280.17 146.4,-280.17 146.4,-280.17 140.4,-280.17 134.4,-274.17 134.4,-268.17 134.4,-268.17 134.4,-256.17 134.4,-256.17 134.4,-250.17 140.4,-244.17 146.4,-244.17 146.4,-244.17 191.4,-244.17 191.4,-244.17 197.4,-244.17 203.4,-250.17 203.4,-256.17 203.4,-256.17 203.4,-268.17 203.4,-268.17 203.4,-274.17 197.4,-280.17 191.4,-280.17" fill="#c3e2b3" stroke="#000000"/>
<text fill="#000000" font-family="Times,serif" font-size="14.00" text-anchor="middle" x="168.9" y="-258.47">sitting on</text>
</g>
<!-- bed -->
<g class="node" id="node2">
<title>bed</title>
<path d="M63.995,-213.64C63.995,-213.64 33.995,-213.64 33.995,-213.64 27.995,-213.64 21.995,-207.64 21.995,-201.64 21.995,-201.64 21.995,-189.64 21.995,-189.64 21.995,-183.64 27.995,-177.64 33.995,-177.64 33.995,-177.64 63.995,-177.64 63.995,-177.64 69.995,-177.64 75.995,-183.64 75.995,-189.64 75.995,-189.64 75.995,-201.64 75.995,-201.64 75.995,-207.64 69.995,-213.64 63.995,-213.64" fill="#ffb0b9" stroke="#000000"/>
<text fill="#000000" font-family="Times,serif" font-size="20.00" text-anchor="middle" x="48.995" y="-190.64">bed</text>
</g>
<!-- person#sitting on#bed&#45;&gt;bed -->
<g class="edge" id="edge1">
<title>person#sitting on#bed-&gt;bed</title>
<path d="M136.45,-244.16C119.21,-234.6 98.089,-222.88 80.924,-213.35" fill="none" stroke="#7f7f7f"/>
<polygon fill="#7f7f7f" points="76.194,-210.73 81.6581,-211.1845 78.3809,-211.9414 80.5678,-213.1528 80.5678,-213.1528 80.5678,-213.1528 78.3809,-211.9414 79.4776,-215.121 76.194,-210.73 76.194,-210.73" stroke="#7f7f7f"/>
</g>
<!-- bed#beneath#person -->
<g class="node" id="node3">
<title>bed#beneath#person</title>
<path d="M69.361,-67.569C69.361,-67.569 33.361,-67.569 33.361,-67.569 27.361,-67.569 21.361,-61.569 21.361,-55.569 21.361,-55.569 21.361,-43.569 21.361,-43.569 21.361,-37.569 27.361,-31.569 33.361,-31.569 33.361,-31.569 69.361,-31.569 69.361,-31.569 75.361,-31.569 81.361,-37.569 81.361,-43.569 81.361,-43.569 81.361,-55.569 81.361,-55.569 81.361,-61.569 75.361,-67.569 69.361,-67.569" fill="#c3e2b3" stroke="#000000"/>
<text fill="#000000" font-family="Times,serif" font-size="14.00" text-anchor="middle" x="51.361" y="-45.869">beneath</text>
</g>
<!-- bed&#45;&gt;bed#beneath#person -->
<g class="edge" id="edge2">
<title>bed-&gt;bed#beneath#person</title>
<path d="M49.289,-177.43C49.716,-151.08 50.507,-102.29 50.978,-73.196" fill="none" stroke="#7f7f7f"/>
<polygon fill="#7f7f7f" points="51.062,-68.003 53.2307,-73.0388 51.0215,-70.5027 50.981,-73.0023 50.981,-73.0023 50.981,-73.0023 51.0215,-70.5027 48.7313,-72.9659 51.062,-68.003 51.062,-68.003" stroke="#7f7f7f"/>
</g>
<!-- bed#on the side of#person -->

<!-- bed&#45;&gt;bed#on the side of#person -->

<!-- person -->
<g class="node" id="node5">
<title>person</title>
<path d="M376.01,-325.87C376.01,-325.87 330.01,-325.87 330.01,-325.87 324.01,-325.87 318.01,-319.87 318.01,-313.87 318.01,-313.87 318.01,-301.87 318.01,-301.87 318.01,-295.87 324.01,-289.87 330.01,-289.87 330.01,-289.87 376.01,-289.87 376.01,-289.87 382.01,-289.87 388.01,-295.87 388.01,-301.87 388.01,-301.87 388.01,-313.87 388.01,-313.87 388.01,-319.87 382.01,-325.87 376.01,-325.87" fill="#ffb0b9" stroke="#000000"/>
<text fill="#000000" font-family="Times,serif" font-size="20.00" text-anchor="middle" x="353.01" y="-302.87">person</text>
</g>
<!-- bed#beneath#person&#45;&gt;person -->
<g class="edge" id="edge4">
<title>bed#beneath#person-&gt;person</title>
<path d="M72.572,-67.732C126.66,-114.05 269.55,-236.41 327.78,-286.26" fill="none" stroke="#7f7f7f"/>
<polygon fill="#7f7f7f" points="331.82,-289.73 326.561,-288.179 329.9235,-288.1011 328.027,-286.4721 328.027,-286.4721 328.027,-286.4721 329.9235,-288.1011 329.493,-284.7653 331.82,-289.73 331.82,-289.73" stroke="#7f7f7f"/>
</g>
<!-- bed#on the side of#person&#45;&gt;person -->

<!-- person&#45;&gt;person#sitting on#bed -->
<g class="edge" id="edge7">
<title>person-&gt;person#sitting on#bed</title>
<path d="M317.95,-299.17C286.75,-291.42 241.16,-280.1 208.63,-272.03" fill="none" stroke="#7f7f7f"/>
<polygon fill="#7f7f7f" points="203.52,-270.76 208.9151,-269.7825 205.9462,-271.363 208.3724,-271.966 208.3724,-271.966 208.3724,-271.966 205.9462,-271.363 207.8297,-274.1496 203.52,-270.76 203.52,-270.76" stroke="#7f7f7f"/>
</g>
<!-- person#touching#shoe -->

<!-- person&#45;&gt;person#touching#shoe -->

<!-- person#not looking at#clothes -->

<!-- person&#45;&gt;person#not looking at#clothes -->

<!-- person#not contacting#laptop -->

<!-- person&#45;&gt;person#not contacting#laptop -->

<!-- person#holding#food -->

<!-- person&#45;&gt;person#holding#food -->

<!-- person#looking at#shoe -->

<!-- person&#45;&gt;person#looking at#shoe -->

<!-- person#looking at#laptop -->

<!-- person&#45;&gt;person#looking at#laptop -->

<!-- person#not looking at#bed -->
<g class="node" id="node13">
<title>person#not looking at#bed</title>
<path d="M312.18,-254.22C312.18,-254.22 242.18,-254.22 242.18,-254.22 236.18,-254.22 230.18,-248.22 230.18,-242.22 230.18,-242.22 230.18,-230.22 230.18,-230.22 230.18,-224.22 236.18,-218.22 242.18,-218.22 242.18,-218.22 312.18,-218.22 312.18,-218.22 318.18,-218.22 324.18,-224.22 324.18,-230.22 324.18,-230.22 324.18,-242.22 324.18,-242.22 324.18,-248.22 318.18,-254.22 312.18,-254.22" fill="#c3e2b3" stroke="#000000"/>
<text fill="#000000" font-family="Times,serif" font-size="14.00" text-anchor="middle" x="277.18" y="-232.52">not looking at</text>
</g>
<!-- person&#45;&gt;person#not looking at#bed -->
<g class="edge" id="edge14">
<title>person-&gt;person#not looking at#bed</title>
<path d="M333.88,-289.79C323.64,-280.11 310.96,-268.13 300.19,-257.95" fill="none" stroke="#7f7f7f"/>
<polygon fill="#7f7f7f" points="296.31,-254.29 301.4911,-256.0842 298.1286,-256.0055 299.9472,-257.7209 299.9472,-257.7209 299.9472,-257.7209 298.1286,-256.0055 298.4032,-259.3577 296.31,-254.29 296.31,-254.29" stroke="#7f7f7f"/>
</g>
<!-- person#looking at#clothes -->

<!-- person&#45;&gt;person#looking at#clothes -->

<!-- person#not contacting#shoe -->

<!-- person&#45;&gt;person#not contacting#shoe -->

<!-- person#looking at#food -->

<!-- person&#45;&gt;person#looking at#food -->

<!-- person#lying on#bed -->

<!-- person&#45;&gt;person#lying on#bed -->

<!-- person#not looking at#shoe -->

<!-- person&#45;&gt;person#not looking at#shoe -->

<!-- person#holding#clothes -->

<!-- person&#45;&gt;person#holding#clothes -->

<!-- person#lying on#shoe -->

<!-- person&#45;&gt;person#lying on#shoe -->

<!-- person#lying on#clothes -->

<!-- person&#45;&gt;person#lying on#clothes -->

<!-- person#wearing#clothes -->

<!-- person&#45;&gt;person#wearing#clothes -->

<!-- person#touching#laptop -->

<!-- person&#45;&gt;person#touching#laptop -->

<!-- person#wearing#shoe -->
<g class="node" id="node24">
<title>person#wearing#shoe</title>
<path d="M482.86,-206.35C482.86,-206.35 444.86,-206.35 444.86,-206.35 438.86,-206.35 432.86,-200.35 432.86,-194.35 432.86,-194.35 432.86,-182.35 432.86,-182.35 432.86,-176.35 438.86,-170.35 444.86,-170.35 444.86,-170.35 482.86,-170.35 482.86,-170.35 488.86,-170.35 494.86,-176.35 494.86,-182.35 494.86,-182.35 494.86,-194.35 494.86,-194.35 494.86,-200.35 488.86,-206.35 482.86,-206.35" fill="#c3e2b3" stroke="#000000"/>
<text fill="#000000" font-family="Times,serif" font-size="14.00" text-anchor="middle" x="463.86" y="-184.65">wearing</text>
</g>
<!-- person&#45;&gt;person#wearing#shoe -->
<g class="edge" id="edge25">
<title>person-&gt;person#wearing#shoe</title>
<path d="M369.85,-289.72C389.54,-268.48 422.14,-233.33 443.31,-210.51" fill="none" stroke="#7f7f7f"/>
<polygon fill="#7f7f7f" points="446.86,-206.67 445.118,-211.8689 445.1629,-208.5057 443.4658,-210.3415 443.4658,-210.3415 443.4658,-210.3415 445.1629,-208.5057 441.8136,-208.8141 446.86,-206.67 446.86,-206.67" stroke="#7f7f7f"/>
</g>
<!-- shoe#in front of#person -->

<!-- shoe#in front of#person&#45;&gt;person -->

<!-- shoe -->
<g class="node" id="node25">
<title>shoe</title>
<path d="M392.45,-36C392.45,-36 362.45,-36 362.45,-36 356.45,-36 350.45,-30 350.45,-24 350.45,-24 350.45,-12 350.45,-12 350.45,-6 356.45,0 362.45,0 362.45,0 392.45,0 392.45,0 398.45,0 404.45,-6 404.45,-12 404.45,-12 404.45,-24 404.45,-24 404.45,-30 398.45,-36 392.45,-36" fill="#ffb0b9" stroke="#000000"/>
<text fill="#000000" font-family="Times,serif" font-size="20.00" text-anchor="middle" x="377.45" y="-13">shoe</text>
</g>
<!-- person#touching#shoe&#45;&gt;shoe -->

<!-- clothes -->

<!-- person#not looking at#clothes&#45;&gt;clothes -->

<!-- laptop -->

<!-- person#not contacting#laptop&#45;&gt;laptop -->

<!-- food -->

<!-- person#holding#food&#45;&gt;food -->

<!-- person#looking at#shoe&#45;&gt;shoe -->

<!-- person#looking at#laptop&#45;&gt;laptop -->

<!-- person#not looking at#bed&#45;&gt;bed -->
<g class="edge" id="edge32">
<title>person#not looking at#bed-&gt;bed</title>
<path d="M230.18,-227.86C185.73,-219.95 120.21,-208.3 81.34,-201.39" fill="none" stroke="#7f7f7f"/>
<polygon fill="#7f7f7f" points="76.27,-200.49 81.5863,-199.1486 78.7315,-200.927 81.193,-201.364 81.193,-201.364 81.193,-201.364 78.7315,-200.927 80.7997,-203.5794 76.27,-200.49 76.27,-200.49" stroke="#7f7f7f"/>
</g>
<!-- person#looking at#clothes&#45;&gt;clothes -->

<!-- person#not contacting#shoe&#45;&gt;shoe -->

<!-- person#looking at#food&#45;&gt;food -->

<!-- person#lying on#bed&#45;&gt;bed -->

<!-- person#not looking at#shoe&#45;&gt;shoe -->

<!-- person#holding#clothes&#45;&gt;clothes -->

<!-- person#lying on#shoe&#45;&gt;shoe -->

<!-- person#lying on#clothes&#45;&gt;clothes -->

<!-- person#wearing#clothes&#45;&gt;clothes -->

<!-- person#touching#laptop&#45;&gt;laptop -->

<!-- person#wearing#shoe&#45;&gt;shoe -->
<g class="edge" id="edge43">
<title>person#wearing#shoe-&gt;shoe</title>
<path d="M454.61,-170.12C438.76,-138.87 406.43,-75.139 389.08,-40.926" fill="none" stroke="#7f7f7f"/>
<polygon fill="#7f7f7f" points="386.63,-36.099 390.8994,-39.5392 387.7615,-38.3283 388.893,-40.5576 388.893,-40.5576 388.893,-40.5576 387.7615,-38.3283 386.8867,-41.576 386.63,-36.099 386.63,-36.099" stroke="#7f7f7f"/>
</g>
<!-- shoe&#45;&gt;shoe#in front of#person -->

<!-- shoe#beneath#person -->
<g class="node" id="node29">
<title>shoe#beneath#person</title>
<path d="M398.91,-152.89C398.91,-152.89 362.91,-152.89 362.91,-152.89 356.91,-152.89 350.91,-146.89 350.91,-140.89 350.91,-140.89 350.91,-128.89 350.91,-128.89 350.91,-122.89 356.91,-116.89 362.91,-116.89 362.91,-116.89 398.91,-116.89 398.91,-116.89 404.91,-116.89 410.91,-122.89 410.91,-128.89 410.91,-128.89 410.91,-140.89 410.91,-140.89 410.91,-146.89 404.91,-152.89 398.91,-152.89" fill="#c3e2b3" stroke="#000000"/>
<text fill="#000000" font-family="Times,serif" font-size="14.00" text-anchor="middle" x="380.91" y="-131.19">beneath</text>
</g>
<!-- shoe&#45;&gt;shoe#beneath#person -->
<g class="edge" id="edge45">
<title>shoe-&gt;shoe#beneath#person</title>
<path d="M377.98,-36.008C378.58,-56.283 379.56,-89.295 380.22,-111.54" fill="none" stroke="#7f7f7f"/>
<polygon fill="#7f7f7f" points="380.37,-116.67 377.9747,-111.7379 380.2969,-114.1711 380.2238,-111.6721 380.2238,-111.6721 380.2238,-111.6721 380.2969,-114.1711 382.4728,-111.6063 380.37,-116.67 380.37,-116.67" stroke="#7f7f7f"/>
</g>
<!-- clothes#in front of#person -->

<!-- clothes&#45;&gt;clothes#in front of#person -->

<!-- clothes#in#person -->

<!-- clothes&#45;&gt;clothes#in#person -->

<!-- laptop#in front of#person -->

<!-- laptop&#45;&gt;laptop#in front of#person -->

<!-- food#in front of#person -->

<!-- food&#45;&gt;food#in front of#person -->

<!-- shoe#beneath#person&#45;&gt;person -->
<g class="edge" id="edge46">
<title>shoe#beneath#person-&gt;person</title>
<path d="M377.97,-153.07C372.89,-184.61 362.44,-249.41 356.81,-284.33" fill="none" stroke="#7f7f7f"/>
<polygon fill="#7f7f7f" points="355.95,-289.67 354.5237,-284.3758 356.3475,-287.2018 356.7451,-284.7336 356.7451,-284.7336 356.7451,-284.7336 356.3475,-287.2018 358.9665,-285.0914 355.95,-289.67 355.95,-289.67" stroke="#7f7f7f"/>
</g>
<!-- clothes#in front of#person&#45;&gt;person -->

<!-- clothes#in#person&#45;&gt;person -->

<!-- laptop#in front of#person&#45;&gt;person -->

<!-- food#in front of#person&#45;&gt;person -->

</g>
</svg>