<?xml version="1.0" ?><!DOCTYPE svg  PUBLIC '-//W3C//DTD SVG 1.1//EN'  'http://www.w3.org/Graphics/SVG/1.1/DTD/svg11.dtd'><!-- Generated by graphviz version 2.40.1 (20161225.0304)
 --><!-- Pages: 1 --><svg height="523pt" viewBox="0.00 0.00 736.98 522.69" width="737pt" xmlns="http://www.w3.org/2000/svg" xmlns:xlink="http://www.w3.org/1999/xlink">
<g class="graph" id="graph0" transform="scale(1 1) rotate(0) translate(4 518.69)">
<polygon fill="#ffffff" points="-4,4 -4,-518.69 732.98,-518.69 732.98,4 -4,4" stroke="transparent"/>
<!-- person#sitting on#bed -->

<!-- bed -->
<g class="node" id="node2">
<title>bed</title>
<path d="M63.995,-213.64C63.995,-213.64 33.995,-213.64 33.995,-213.64 27.995,-213.64 21.995,-207.64 21.995,-201.64 21.995,-201.64 21.995,-189.64 21.995,-189.64 21.995,-183.64 27.995,-177.64 33.995,-177.64 33.995,-177.64 63.995,-177.64 63.995,-177.64 69.995,-177.64 75.995,-183.64 75.995,-189.64 75.995,-189.64 75.995,-201.64 75.995,-201.64 75.995,-207.64 69.995,-213.64 63.995,-213.64" fill="#ffb0b9" stroke="#000000"/>
<text fill="#000000" font-family="Times,serif" font-size="20.00" text-anchor="middle" x="48.995" y="-190.64">bed</text>
</g>
<!-- person#sitting on#bed&#45;&gt;bed -->

<!-- bed#beneath#person -->
<g class="node" id="node3">
<title>bed#beneath#person</title>
<path d="M69.361,-67.569C69.361,-67.569 33.361,-67.569 33.361,-67.569 27.361,-67.569 21.361,-61.569 21.361,-55.569 21.361,-55.569 21.361,-43.569 21.361,-43.569 21.361,-37.569 27.361,-31.569 33.361,-31.569 33.361,-31.569 69.361,-31.569 69.361,-31.569 75.361,-31.569 81.361,-37.569 81.361,-43.569 81.361,-43.569 81.361,-55.569 81.361,-55.569 81.361,-61.569 75.361,-67.569 69.361,-67.569" fill="#c3e2b3" stroke="#000000"/>
<text fill="#000000" font-family="Times,serif" font-size="14.00" text-anchor="middle" x="51.361" y="-45.869">beneath</text>
</g>
<!-- bed&#45;&gt;bed#beneath#person -->
<g class="edge" id="edge2">
<title>bed-&gt;bed#beneath#person</title>
<path d="M49.289,-177.43C49.716,-151.08 50.507,-102.29 50.978,-73.196" fill="none" stroke="#7f7f7f"/>
<polygon fill="#7f7f7f" points="51.062,-68.003 53.2307,-73.0388 51.0215,-70.5027 50.981,-73.0023 50.981,-73.0023 50.981,-73.0023 51.0215,-70.5027 48.7313,-72.9659 51.062,-68.003 51.062,-68.003" stroke="#7f7f7f"/>
</g>
<!-- bed#on the side of#person -->

<!-- bed&#45;&gt;bed#on the side of#person -->

<!-- person -->
<g class="node" id="node5">
<title>person</title>
<path d="M376.01,-325.87C376.01,-325.87 330.01,-325.87 330.01,-325.87 324.01,-325.87 318.01,-319.87 318.01,-313.87 318.01,-313.87 318.01,-301.87 318.01,-301.87 318.01,-295.87 324.01,-289.87 330.01,-289.87 330.01,-289.87 376.01,-289.87 376.01,-289.87 382.01,-289.87 388.01,-295.87 388.01,-301.87 388.01,-301.87 388.01,-313.87 388.01,-313.87 388.01,-319.87 382.01,-325.87 376.01,-325.87" fill="#ffb0b9" stroke="#000000"/>
<text fill="#000000" font-family="Times,serif" font-size="20.00" text-anchor="middle" x="353.01" y="-302.87">person</text>
</g>
<!-- bed#beneath#person&#45;&gt;person -->
<g class="edge" id="edge4">
<title>bed#beneath#person-&gt;person</title>
<path d="M72.572,-67.732C126.66,-114.05 269.55,-236.41 327.78,-286.26" fill="none" stroke="#7f7f7f"/>
<polygon fill="#7f7f7f" points="331.82,-289.73 326.561,-288.179 329.9235,-288.1011 328.027,-286.4721 328.027,-286.4721 328.027,-286.4721 329.9235,-288.1011 329.493,-284.7653 331.82,-289.73 331.82,-289.73" stroke="#7f7f7f"/>
</g>
<!-- bed#on the side of#person&#45;&gt;person -->

<!-- person&#45;&gt;person#sitting on#bed -->

<!-- person#touching#shoe -->

<!-- person&#45;&gt;person#touching#shoe -->

<!-- person#not looking at#clothes -->

<!-- person&#45;&gt;person#not looking at#clothes -->

<!-- person#not contacting#laptop -->

<!-- person&#45;&gt;person#not contacting#laptop -->

<!-- person#holding#food -->

<!-- person&#45;&gt;person#holding#food -->

<!-- person#looking at#shoe -->

<!-- person&#45;&gt;person#looking at#shoe -->

<!-- person#looking at#laptop -->

<!-- person&#45;&gt;person#looking at#laptop -->

<!-- person#not looking at#bed -->
<g class="node" id="node13">
<title>person#not looking at#bed</title>
<path d="M312.18,-254.22C312.18,-254.22 242.18,-254.22 242.18,-254.22 236.18,-254.22 230.18,-248.22 230.18,-242.22 230.18,-242.22 230.18,-230.22 230.18,-230.22 230.18,-224.22 236.18,-218.22 242.18,-218.22 242.18,-218.22 312.18,-218.22 312.18,-218.22 318.18,-218.22 324.18,-224.22 324.18,-230.22 324.18,-230.22 324.18,-242.22 324.18,-242.22 324.18,-248.22 318.18,-254.22 312.18,-254.22" fill="#c3e2b3" stroke="#000000"/>
<text fill="#000000" font-family="Times,serif" font-size="14.00" text-anchor="middle" x="277.18" y="-232.52">not looking at</text>
</g>
<!-- person&#45;&gt;person#not looking at#bed -->
<g class="edge" id="edge14">
<title>person-&gt;person#not looking at#bed</title>
<path d="M333.88,-289.79C323.64,-280.11 310.96,-268.13 300.19,-257.95" fill="none" stroke="#7f7f7f"/>
<polygon fill="#7f7f7f" points="296.31,-254.29 301.4911,-256.0842 298.1286,-256.0055 299.9472,-257.7209 299.9472,-257.7209 299.9472,-257.7209 298.1286,-256.0055 298.4032,-259.3577 296.31,-254.29 296.31,-254.29" stroke="#7f7f7f"/>
</g>
<!-- person#looking at#clothes -->

<!-- person&#45;&gt;person#looking at#clothes -->

<!-- person#not contacting#shoe -->
<g class="node" id="node15">
<title>person#not contacting#shoe</title>
<path d="M410.77,-244.35C410.77,-244.35 338.77,-244.35 338.77,-244.35 332.77,-244.35 326.77,-238.35 326.77,-232.35 326.77,-232.35 326.77,-220.35 326.77,-220.35 326.77,-214.35 332.77,-208.35 338.77,-208.35 338.77,-208.35 410.77,-208.35 410.77,-208.35 416.77,-208.35 422.77,-214.35 422.77,-220.35 422.77,-220.35 422.77,-232.35 422.77,-232.35 422.77,-238.35 416.77,-244.35 410.77,-244.35" fill="#c3e2b3" stroke="#000000"/>
<text fill="#000000" font-family="Times,serif" font-size="14.00" text-anchor="middle" x="374.77" y="-222.65">not contacting</text>
</g>
<!-- person&#45;&gt;person#not contacting#shoe -->
<g class="edge" id="edge16">
<title>person-&gt;person#not contacting#shoe</title>
<path d="M357.84,-289.78C361.02,-277.85 365.22,-262.13 368.64,-249.32" fill="none" stroke="#7f7f7f"/>
<polygon fill="#7f7f7f" points="369.96,-244.39 370.8402,-249.8018 369.3134,-246.8049 368.6667,-249.2199 368.6667,-249.2199 368.6667,-249.2199 369.3134,-246.8049 366.4933,-248.6379 369.96,-244.39 369.96,-244.39" stroke="#7f7f7f"/>
</g>
<!-- person#looking at#food -->

<!-- person&#45;&gt;person#looking at#food -->

<!-- person#lying on#bed -->
<g class="node" id="node17">
<title>person#lying on#bed</title>
<path d="M205.9,-172.39C205.9,-172.39 166.9,-172.39 166.9,-172.39 160.9,-172.39 154.9,-166.39 154.9,-160.39 154.9,-160.39 154.9,-148.39 154.9,-148.39 154.9,-142.39 160.9,-136.39 166.9,-136.39 166.9,-136.39 205.9,-136.39 205.9,-136.39 211.9,-136.39 217.9,-142.39 217.9,-148.39 217.9,-148.39 217.9,-160.39 217.9,-160.39 217.9,-166.39 211.9,-172.39 205.9,-172.39" fill="#c3e2b3" stroke="#000000"/>
<text fill="#000000" font-family="Times,serif" font-size="14.00" text-anchor="middle" x="186.4" y="-150.69">lying on</text>
</g>
<!-- person&#45;&gt;person#lying on#bed -->
<g class="edge" id="edge18">
<title>person-&gt;person#lying on#bed</title>
<path d="M333.24,-289.66C302.43,-261.28 243.06,-206.59 210.03,-176.16" fill="none" stroke="#7f7f7f"/>
<polygon fill="#7f7f7f" points="206.14,-172.57 211.3404,-174.3076 207.9772,-174.2655 209.8144,-175.961 209.8144,-175.961 209.8144,-175.961 207.9772,-174.2655 208.2884,-177.6145 206.14,-172.57 206.14,-172.57" stroke="#7f7f7f"/>
</g>
<!-- person#not looking at#shoe -->
<g class="node" id="node18">
<title>person#not looking at#shoe</title>
<path d="M583.24,-44.927C583.24,-44.927 513.24,-44.927 513.24,-44.927 507.24,-44.927 501.24,-38.927 501.24,-32.927 501.24,-32.927 501.24,-20.927 501.24,-20.927 501.24,-14.927 507.24,-8.927 513.24,-8.927 513.24,-8.927 583.24,-8.927 583.24,-8.927 589.24,-8.927 595.24,-14.927 595.24,-20.927 595.24,-20.927 595.24,-32.927 595.24,-32.927 595.24,-38.927 589.24,-44.927 583.24,-44.927" fill="#c3e2b3" stroke="#000000"/>
<text fill="#000000" font-family="Times,serif" font-size="14.00" text-anchor="middle" x="548.24" y="-23.227">not looking at</text>
</g>
<!-- person&#45;&gt;person#not looking at#shoe -->
<g class="edge" id="edge19">
<title>person-&gt;person#not looking at#shoe</title>
<path d="M365.52,-289.87C399.74,-240.63 494.83,-103.79 532.54,-49.519" fill="none" stroke="#7f7f7f"/>
<polygon fill="#7f7f7f" points="535.58,-45.142 534.5757,-50.5322 534.1539,-47.1953 532.7277,-49.2487 532.7277,-49.2487 532.7277,-49.2487 534.1539,-47.1953 530.8797,-47.9652 535.58,-45.142 535.58,-45.142" stroke="#7f7f7f"/>
</g>
<!-- person#holding#clothes -->

<!-- person&#45;&gt;person#holding#clothes -->

<!-- person#lying on#shoe -->

<!-- person&#45;&gt;person#lying on#shoe -->

<!-- person#lying on#clothes -->

<!-- person&#45;&gt;person#lying on#clothes -->

<!-- person#wearing#clothes -->

<!-- person&#45;&gt;person#wearing#clothes -->

<!-- person#touching#laptop -->

<!-- person&#45;&gt;person#touching#laptop -->

<!-- person#wearing#shoe -->

<!-- person&#45;&gt;person#wearing#shoe -->

<!-- shoe#in front of#person -->

<!-- shoe#in front of#person&#45;&gt;person -->

<!-- shoe -->
<g class="node" id="node25">
<title>shoe</title>
<path d="M392.45,-36C392.45,-36 362.45,-36 362.45,-36 356.45,-36 350.45,-30 350.45,-24 350.45,-24 350.45,-12 350.45,-12 350.45,-6 356.45,0 362.45,0 362.45,0 392.45,0 392.45,0 398.45,0 404.45,-6 404.45,-12 404.45,-12 404.45,-24 404.45,-24 404.45,-30 398.45,-36 392.45,-36" fill="#ffb0b9" stroke="#000000"/>
<text fill="#000000" font-family="Times,serif" font-size="20.00" text-anchor="middle" x="377.45" y="-13">shoe</text>
</g>
<!-- person#touching#shoe&#45;&gt;shoe -->

<!-- clothes -->

<!-- person#not looking at#clothes&#45;&gt;clothes -->

<!-- laptop -->

<!-- person#not contacting#laptop&#45;&gt;laptop -->

<!-- food -->

<!-- person#holding#food&#45;&gt;food -->

<!-- person#looking at#shoe&#45;&gt;shoe -->

<!-- person#looking at#laptop&#45;&gt;laptop -->

<!-- person#not looking at#bed&#45;&gt;bed -->
<g class="edge" id="edge32">
<title>person#not looking at#bed-&gt;bed</title>
<path d="M230.18,-227.86C185.73,-219.95 120.21,-208.3 81.34,-201.39" fill="none" stroke="#7f7f7f"/>
<polygon fill="#7f7f7f" points="76.27,-200.49 81.5863,-199.1486 78.7315,-200.927 81.193,-201.364 81.193,-201.364 81.193,-201.364 78.7315,-200.927 80.7997,-203.5794 76.27,-200.49 76.27,-200.49" stroke="#7f7f7f"/>
</g>
<!-- person#looking at#clothes&#45;&gt;clothes -->

<!-- person#not contacting#shoe&#45;&gt;shoe -->
<g class="edge" id="edge34">
<title>person#not contacting#shoe-&gt;shoe</title>
<path d="M375.01,-208.22C375.49,-170.44 376.61,-83.278 377.15,-41.355" fill="none" stroke="#7f7f7f"/>
<polygon fill="#7f7f7f" points="377.21,-36.232 379.4012,-41.2581 377.1807,-38.7318 377.1513,-41.2317 377.1513,-41.2317 377.1513,-41.2317 377.1807,-38.7318 374.9015,-41.2053 377.21,-36.232 377.21,-36.232" stroke="#7f7f7f"/>
</g>
<!-- person#looking at#food&#45;&gt;food -->

<!-- person#lying on#bed&#45;&gt;bed -->
<g class="edge" id="edge36">
<title>person#lying on#bed-&gt;bed</title>
<path d="M154.87,-163.85C132.78,-170.48 103.33,-179.32 81.108,-186" fill="none" stroke="#7f7f7f"/>
<polygon fill="#7f7f7f" points="76.195,-187.47 80.3402,-183.8811 78.5901,-186.7533 80.9852,-186.0367 80.9852,-186.0367 80.9852,-186.0367 78.5901,-186.7533 81.6302,-188.1923 76.195,-187.47 76.195,-187.47" stroke="#7f7f7f"/>
</g>
<!-- person#not looking at#shoe&#45;&gt;shoe -->
<g class="edge" id="edge37">
<title>person#not looking at#shoe-&gt;shoe</title>
<path d="M501.12,-24.464C472.05,-22.945 435.53,-21.036 409.73,-19.687" fill="none" stroke="#7f7f7f"/>
<polygon fill="#7f7f7f" points="404.72,-19.425 409.8307,-17.4393 407.2166,-19.5556 409.7132,-19.6862 409.7132,-19.6862 409.7132,-19.6862 407.2166,-19.5556 409.5956,-21.9331 404.72,-19.425 404.72,-19.425" stroke="#7f7f7f"/>
</g>
<!-- person#holding#clothes&#45;&gt;clothes -->

<!-- person#lying on#shoe&#45;&gt;shoe -->

<!-- person#lying on#clothes&#45;&gt;clothes -->

<!-- person#wearing#clothes&#45;&gt;clothes -->

<!-- person#touching#laptop&#45;&gt;laptop -->

<!-- person#wearing#shoe&#45;&gt;shoe -->

<!-- shoe&#45;&gt;shoe#in front of#person -->

<!-- shoe#beneath#person -->
<g class="node" id="node29">
<title>shoe#beneath#person</title>
<path d="M398.91,-152.89C398.91,-152.89 362.91,-152.89 362.91,-152.89 356.91,-152.89 350.91,-146.89 350.91,-140.89 350.91,-140.89 350.91,-128.89 350.91,-128.89 350.91,-122.89 356.91,-116.89 362.91,-116.89 362.91,-116.89 398.91,-116.89 398.91,-116.89 404.91,-116.89 410.91,-122.89 410.91,-128.89 410.91,-128.89 410.91,-140.89 410.91,-140.89 410.91,-146.89 404.91,-152.89 398.91,-152.89" fill="#c3e2b3" stroke="#000000"/>
<text fill="#000000" font-family="Times,serif" font-size="14.00" text-anchor="middle" x="380.91" y="-131.19">beneath</text>
</g>
<!-- shoe&#45;&gt;shoe#beneath#person -->
<g class="edge" id="edge45">
<title>shoe-&gt;shoe#beneath#person</title>
<path d="M377.98,-36.008C378.58,-56.283 379.56,-89.295 380.22,-111.54" fill="none" stroke="#7f7f7f"/>
<polygon fill="#7f7f7f" points="380.37,-116.67 377.9747,-111.7379 380.2969,-114.1711 380.2238,-111.6721 380.2238,-111.6721 380.2238,-111.6721 380.2969,-114.1711 382.4728,-111.6063 380.37,-116.67 380.37,-116.67" stroke="#7f7f7f"/>
</g>
<!-- clothes#in front of#person -->

<!-- clothes&#45;&gt;clothes#in front of#person -->

<!-- clothes#in#person -->

<!-- clothes&#45;&gt;clothes#in#person -->

<!-- laptop#in front of#person -->

<!-- laptop&#45;&gt;laptop#in front of#person -->

<!-- food#in front of#person -->

<!-- food&#45;&gt;food#in front of#person -->

<!-- shoe#beneath#person&#45;&gt;person -->
<g class="edge" id="edge46">
<title>shoe#beneath#person-&gt;person</title>
<path d="M377.97,-153.07C372.89,-184.61 362.44,-249.41 356.81,-284.33" fill="none" stroke="#7f7f7f"/>
<polygon fill="#7f7f7f" points="355.95,-289.67 354.5237,-284.3758 356.3475,-287.2018 356.7451,-284.7336 356.7451,-284.7336 356.7451,-284.7336 356.3475,-287.2018 358.9665,-285.0914 355.95,-289.67 355.95,-289.67" stroke="#7f7f7f"/>
</g>
<!-- clothes#in front of#person&#45;&gt;person -->

<!-- clothes#in#person&#45;&gt;person -->

<!-- laptop#in front of#person&#45;&gt;person -->

<!-- food#in front of#person&#45;&gt;person -->

</g>
</svg>