<?xml version="1.0" ?><!DOCTYPE svg  PUBLIC '-//W3C//DTD SVG 1.1//EN'  'http://www.w3.org/Graphics/SVG/1.1/DTD/svg11.dtd'><!-- Generated by graphviz version 2.40.1 (20161225.0304)
 --><!-- Pages: 1 --><svg height="550pt" viewBox="0.00 0.00 687.21 550.04" width="687pt" xmlns="http://www.w3.org/2000/svg" xmlns:xlink="http://www.w3.org/1999/xlink">
<g class="graph" id="graph0" transform="scale(1 1) rotate(0) translate(4 546.04)">
<polygon fill="#ffffff" points="-4,4 -4,-546.04 683.21,-546.04 683.21,4 -4,4" stroke="transparent"/>
<!-- person#wearing#clothes -->

<!-- clothes -->

<!-- person#wearing#clothes&#45;&gt;clothes -->

<!-- clothes#in#person -->

<!-- clothes&#45;&gt;clothes#in#person -->

<!-- clothes#in front of#person -->

<!-- clothes&#45;&gt;clothes#in front of#person -->

<!-- person -->
<g class="node" id="node5">
<title>person</title>
<path d="M378.87,-283.59C378.87,-283.59 332.87,-283.59 332.87,-283.59 326.87,-283.59 320.87,-277.59 320.87,-271.59 320.87,-271.59 320.87,-259.59 320.87,-259.59 320.87,-253.59 326.87,-247.59 332.87,-247.59 332.87,-247.59 378.87,-247.59 378.87,-247.59 384.87,-247.59 390.87,-253.59 390.87,-259.59 390.87,-259.59 390.87,-271.59 390.87,-271.59 390.87,-277.59 384.87,-283.59 378.87,-283.59" fill="#ffb0b9" stroke="#000000"/>
<text fill="#000000" font-family="Times,serif" font-size="20.00" text-anchor="middle" x="355.87" y="-260.59">person</text>
</g>
<!-- clothes#in#person&#45;&gt;person -->

<!-- clothes#in front of#person&#45;&gt;person -->

<!-- person&#45;&gt;person#wearing#clothes -->

<!-- person#touching#laptop -->

<!-- person&#45;&gt;person#touching#laptop -->

<!-- person#not contacting#laptop -->

<!-- person&#45;&gt;person#not contacting#laptop -->

<!-- person#lying on#clothes -->

<!-- person&#45;&gt;person#lying on#clothes -->

<!-- person#looking at#food -->

<!-- person&#45;&gt;person#looking at#food -->

<!-- person#touching#shoe -->

<!-- person&#45;&gt;person#touching#shoe -->

<!-- person#lying on#shoe -->

<!-- person&#45;&gt;person#lying on#shoe -->

<!-- person#not looking at#shoe -->
<g class="node" id="node13">
<title>person#not looking at#shoe</title>
<path d="M576.93,-292.49C576.93,-292.49 506.93,-292.49 506.93,-292.49 500.93,-292.49 494.93,-286.49 494.93,-280.49 494.93,-280.49 494.93,-268.49 494.93,-268.49 494.93,-262.49 500.93,-256.49 506.93,-256.49 506.93,-256.49 576.93,-256.49 576.93,-256.49 582.93,-256.49 588.93,-262.49 588.93,-268.49 588.93,-268.49 588.93,-280.49 588.93,-280.49 588.93,-286.49 582.93,-292.49 576.93,-292.49" fill="#c3e2b3" stroke="#000000"/>
<text fill="#000000" font-family="Times,serif" font-size="14.00" text-anchor="middle" x="541.93" y="-270.79">not looking at</text>
</g>
<!-- person&#45;&gt;person#not looking at#shoe -->
<g class="edge" id="edge14">
<title>person-&gt;person#not looking at#shoe</title>
<path d="M391.3,-267.29C419.01,-268.61 457.96,-270.47 489.3,-271.97" fill="none" stroke="#7f7f7f"/>
<polygon fill="#7f7f7f" points="494.67,-272.23 489.567,-274.2355 492.1729,-272.1091 489.6759,-271.9881 489.6759,-271.9881 489.6759,-271.9881 492.1729,-272.1091 489.7847,-269.7407 494.67,-272.23 494.67,-272.23" stroke="#7f7f7f"/>
</g>
<!-- person#looking at#shoe -->

<!-- person&#45;&gt;person#looking at#shoe -->

<!-- person#wearing#shoe -->

<!-- person&#45;&gt;person#wearing#shoe -->

<!-- person#looking at#clothes -->

<!-- person&#45;&gt;person#looking at#clothes -->

<!-- person#not looking at#clothes -->

<!-- person&#45;&gt;person#not looking at#clothes -->

<!-- person#holding#clothes -->

<!-- person&#45;&gt;person#holding#clothes -->

<!-- person#not looking at#bed -->
<g class="node" id="node19">
<title>person#not looking at#bed</title>
<path d="M452.41,-132.03C452.41,-132.03 382.41,-132.03 382.41,-132.03 376.41,-132.03 370.41,-126.03 370.41,-120.03 370.41,-120.03 370.41,-108.03 370.41,-108.03 370.41,-102.03 376.41,-96.03 382.41,-96.03 382.41,-96.03 452.41,-96.03 452.41,-96.03 458.41,-96.03 464.41,-102.03 464.41,-108.03 464.41,-108.03 464.41,-120.03 464.41,-120.03 464.41,-126.03 458.41,-132.03 452.41,-132.03" fill="#c3e2b3" stroke="#000000"/>
<text fill="#000000" font-family="Times,serif" font-size="14.00" text-anchor="middle" x="417.41" y="-110.33">not looking at</text>
</g>
<!-- person&#45;&gt;person#not looking at#bed -->
<g class="edge" id="edge20">
<title>person-&gt;person#not looking at#bed</title>
<path d="M363.29,-247.31C374.52,-219.66 395.81,-167.23 408.07,-137.03" fill="none" stroke="#7f7f7f"/>
<polygon fill="#7f7f7f" points="409.96,-132.38 410.1617,-137.8593 409.0186,-134.696 408.0773,-137.012 408.0773,-137.012 408.0773,-137.012 409.0186,-134.696 405.9928,-136.1648 409.96,-132.38 409.96,-132.38" stroke="#7f7f7f"/>
</g>
<!-- person#lying on#bed -->

<!-- person&#45;&gt;person#lying on#bed -->

<!-- person#not contacting#shoe -->
<g class="node" id="node21">
<title>person#not contacting#shoe</title>
<path d="M667.21,-518.14C667.21,-518.14 595.21,-518.14 595.21,-518.14 589.21,-518.14 583.21,-512.14 583.21,-506.14 583.21,-506.14 583.21,-494.14 583.21,-494.14 583.21,-488.14 589.21,-482.14 595.21,-482.14 595.21,-482.14 667.21,-482.14 667.21,-482.14 673.21,-482.14 679.21,-488.14 679.21,-494.14 679.21,-494.14 679.21,-506.14 679.21,-506.14 679.21,-512.14 673.21,-518.14 667.21,-518.14" fill="#c3e2b3" stroke="#000000"/>
<text fill="#000000" font-family="Times,serif" font-size="14.00" text-anchor="middle" x="631.21" y="-496.44">not contacting</text>
</g>
<!-- person&#45;&gt;person#not contacting#shoe -->
<g class="edge" id="edge22">
<title>person-&gt;person#not contacting#shoe</title>
<path d="M377.02,-283.61C426.97,-326.16 552.09,-432.74 605.93,-478.6" fill="none" stroke="#7f7f7f"/>
<polygon fill="#7f7f7f" points="609.99,-482.06 604.725,-480.5293 608.0872,-480.4384 606.1844,-478.8168 606.1844,-478.8168 606.1844,-478.8168 608.0872,-480.4384 607.6439,-477.1043 609.99,-482.06 609.99,-482.06" stroke="#7f7f7f"/>
</g>
<!-- person#holding#food -->

<!-- person&#45;&gt;person#holding#food -->

<!-- person#looking at#laptop -->

<!-- person&#45;&gt;person#looking at#laptop -->

<!-- person#sitting on#bed -->
<g class="node" id="node24">
<title>person#sitting on#bed</title>
<path d="M315.12,-133.9C315.12,-133.9 270.12,-133.9 270.12,-133.9 264.12,-133.9 258.12,-127.9 258.12,-121.9 258.12,-121.9 258.12,-109.9 258.12,-109.9 258.12,-103.9 264.12,-97.9 270.12,-97.9 270.12,-97.9 315.12,-97.9 315.12,-97.9 321.12,-97.9 327.12,-103.9 327.12,-109.9 327.12,-109.9 327.12,-121.9 327.12,-121.9 327.12,-127.9 321.12,-133.9 315.12,-133.9" fill="#c3e2b3" stroke="#000000"/>
<text fill="#000000" font-family="Times,serif" font-size="14.00" text-anchor="middle" x="292.62" y="-112.2">sitting on</text>
</g>
<!-- person&#45;&gt;person#sitting on#bed -->
<g class="edge" id="edge25">
<title>person-&gt;person#sitting on#bed</title>
<path d="M348.24,-247.54C336.75,-220.34 315,-168.87 302.37,-138.98" fill="none" stroke="#7f7f7f"/>
<polygon fill="#7f7f7f" points="300.28,-134.02 304.295,-137.7539 301.2508,-136.3238 302.2216,-138.6277 302.2216,-138.6277 302.2216,-138.6277 301.2508,-136.3238 300.1481,-139.5014 300.28,-134.02 300.28,-134.02" stroke="#7f7f7f"/>
</g>
<!-- laptop#in front of#person -->

<!-- laptop#in front of#person&#45;&gt;person -->

<!-- laptop -->

<!-- person#touching#laptop&#45;&gt;laptop -->

<!-- person#not contacting#laptop&#45;&gt;laptop -->

<!-- person#lying on#clothes&#45;&gt;clothes -->

<!-- food -->

<!-- person#looking at#food&#45;&gt;food -->

<!-- shoe -->
<g class="node" id="node27">
<title>shoe</title>
<path d="M660.16,-366.87C660.16,-366.87 630.16,-366.87 630.16,-366.87 624.16,-366.87 618.16,-360.87 618.16,-354.87 618.16,-354.87 618.16,-342.87 618.16,-342.87 618.16,-336.87 624.16,-330.87 630.16,-330.87 630.16,-330.87 660.16,-330.87 660.16,-330.87 666.16,-330.87 672.16,-336.87 672.16,-342.87 672.16,-342.87 672.16,-354.87 672.16,-354.87 672.16,-360.87 666.16,-366.87 660.16,-366.87" fill="#ffb0b9" stroke="#000000"/>
<text fill="#000000" font-family="Times,serif" font-size="20.00" text-anchor="middle" x="645.16" y="-343.87">shoe</text>
</g>
<!-- person#touching#shoe&#45;&gt;shoe -->

<!-- person#lying on#shoe&#45;&gt;shoe -->

<!-- person#not looking at#shoe&#45;&gt;shoe -->
<g class="edge" id="edge32">
<title>person#not looking at#shoe-&gt;shoe</title>
<path d="M566.91,-292.5C581.64,-303.11 600.35,-316.59 615.78,-327.7" fill="none" stroke="#7f7f7f"/>
<polygon fill="#7f7f7f" points="620.04,-330.77 614.6681,-329.6721 618.0118,-329.3083 615.9836,-327.8467 615.9836,-327.8467 615.9836,-327.8467 618.0118,-329.3083 617.2991,-326.0213 620.04,-330.77 620.04,-330.77" stroke="#7f7f7f"/>
</g>
<!-- person#looking at#shoe&#45;&gt;shoe -->

<!-- person#wearing#shoe&#45;&gt;shoe -->

<!-- person#looking at#clothes&#45;&gt;clothes -->

<!-- person#not looking at#clothes&#45;&gt;clothes -->

<!-- person#holding#clothes&#45;&gt;clothes -->

<!-- bed -->
<g class="node" id="node28">
<title>bed</title>
<path d="M505.95,-39.893C505.95,-39.893 475.95,-39.893 475.95,-39.893 469.95,-39.893 463.95,-33.893 463.95,-27.893 463.95,-27.893 463.95,-15.893 463.95,-15.893 463.95,-9.893 469.95,-3.893 475.95,-3.893 475.95,-3.893 505.95,-3.893 505.95,-3.893 511.95,-3.893 517.95,-9.893 517.95,-15.893 517.95,-15.893 517.95,-27.893 517.95,-27.893 517.95,-33.893 511.95,-39.893 505.95,-39.893" fill="#ffb0b9" stroke="#000000"/>
<text fill="#000000" font-family="Times,serif" font-size="20.00" text-anchor="middle" x="490.95" y="-16.893">bed</text>
</g>
<!-- person#not looking at#bed&#45;&gt;bed -->
<g class="edge" id="edge38">
<title>person#not looking at#bed-&gt;bed</title>
<path d="M431.94,-95.829C443.82,-80.937 460.67,-59.824 473.33,-43.97" fill="none" stroke="#7f7f7f"/>
<polygon fill="#7f7f7f" points="476.45,-40.059 475.0907,-45.3708 474.8909,-42.0133 473.3319,-43.9677 473.3319,-43.9677 473.3319,-43.9677 474.8909,-42.0133 471.573,-42.5645 476.45,-40.059 476.45,-40.059" stroke="#7f7f7f"/>
</g>
<!-- person#lying on#bed&#45;&gt;bed -->

<!-- person#not contacting#shoe&#45;&gt;shoe -->
<g class="edge" id="edge40">
<title>person#not contacting#shoe-&gt;shoe</title>
<path d="M632.89,-481.89C635.43,-454.41 640.22,-402.39 643.01,-372.19" fill="none" stroke="#7f7f7f"/>
<polygon fill="#7f7f7f" points="643.47,-367.18 645.2533,-372.3648 643.2414,-369.6695 643.0128,-372.1591 643.0128,-372.1591 643.0128,-372.1591 643.2414,-369.6695 640.7722,-371.9533 643.47,-367.18 643.47,-367.18" stroke="#7f7f7f"/>
</g>
<!-- person#holding#food&#45;&gt;food -->

<!-- person#looking at#laptop&#45;&gt;laptop -->

<!-- person#sitting on#bed&#45;&gt;bed -->
<g class="edge" id="edge43">
<title>person#sitting on#bed-&gt;bed</title>
<path d="M327.17,-99.526C364.34,-81.905 422.97,-54.113 459.08,-37" fill="none" stroke="#7f7f7f"/>
<polygon fill="#7f7f7f" points="463.8,-34.761 460.2468,-38.9369 461.5412,-35.8325 459.2825,-36.904 459.2825,-36.904 459.2825,-36.904 461.5412,-35.8325 458.3181,-34.8711 463.8,-34.761 463.8,-34.761" stroke="#7f7f7f"/>
</g>
<!-- laptop&#45;&gt;laptop#in front of#person -->

<!-- food#in front of#person -->

<!-- food&#45;&gt;food#in front of#person -->

<!-- shoe#in front of#person -->

<!-- shoe&#45;&gt;shoe#in front of#person -->

<!-- shoe#beneath#person -->
<g class="node" id="node31">
<title>shoe#beneath#person</title>
<path d="M462.5,-339.03C462.5,-339.03 426.5,-339.03 426.5,-339.03 420.5,-339.03 414.5,-333.03 414.5,-327.03 414.5,-327.03 414.5,-315.03 414.5,-315.03 414.5,-309.03 420.5,-303.03 426.5,-303.03 426.5,-303.03 462.5,-303.03 462.5,-303.03 468.5,-303.03 474.5,-309.03 474.5,-315.03 474.5,-315.03 474.5,-327.03 474.5,-327.03 474.5,-333.03 468.5,-339.03 462.5,-339.03" fill="#c3e2b3" stroke="#000000"/>
<text fill="#000000" font-family="Times,serif" font-size="14.00" text-anchor="middle" x="444.5" y="-317.33">beneath</text>
</g>
<!-- shoe&#45;&gt;shoe#beneath#person -->
<g class="edge" id="edge48">
<title>shoe-&gt;shoe#beneath#person</title>
<path d="M618.1,-345.11C582.37,-340.16 519.38,-331.42 479.9,-325.94" fill="none" stroke="#7f7f7f"/>
<polygon fill="#7f7f7f" points="474.73,-325.23 479.9897,-323.6813 477.2068,-325.5702 479.6835,-325.9104 479.6835,-325.9104 479.6835,-325.9104 477.2068,-325.5702 479.3773,-328.1394 474.73,-325.23 474.73,-325.23" stroke="#7f7f7f"/>
</g>
<!-- bed#beneath#person -->
<g class="node" id="node32">
<title>bed#beneath#person</title>
<path d="M378.69,-204.67C378.69,-204.67 342.69,-204.67 342.69,-204.67 336.69,-204.67 330.69,-198.67 330.69,-192.67 330.69,-192.67 330.69,-180.67 330.69,-180.67 330.69,-174.67 336.69,-168.67 342.69,-168.67 342.69,-168.67 378.69,-168.67 378.69,-168.67 384.69,-168.67 390.69,-174.67 390.69,-180.67 390.69,-180.67 390.69,-192.67 390.69,-192.67 390.69,-198.67 384.69,-204.67 378.69,-204.67" fill="#c3e2b3" stroke="#000000"/>
<text fill="#000000" font-family="Times,serif" font-size="14.00" text-anchor="middle" x="360.69" y="-182.97">beneath</text>
</g>
<!-- bed&#45;&gt;bed#beneath#person -->
<g class="edge" id="edge49">
<title>bed-&gt;bed#beneath#person</title>
<path d="M476.51,-40.157C452.49,-70.55 404.38,-131.41 378.36,-164.32" fill="none" stroke="#7f7f7f"/>
<polygon fill="#7f7f7f" points="375,-168.58 376.3298,-163.2607 376.5482,-166.6171 378.0965,-164.6542 378.0965,-164.6542 378.0965,-164.6542 376.5482,-166.6171 379.8631,-166.0476 375,-168.58 375,-168.58" stroke="#7f7f7f"/>
</g>
<!-- bed#on the side of#person -->

<!-- bed&#45;&gt;bed#on the side of#person -->

<!-- food#in front of#person&#45;&gt;person -->

<!-- shoe#in front of#person&#45;&gt;person -->

<!-- shoe#beneath#person&#45;&gt;person -->
<g class="edge" id="edge52">
<title>shoe#beneath#person-&gt;person</title>
<path d="M415.48,-302.88C407.13,-297.66 397.96,-291.92 389.36,-286.54" fill="none" stroke="#7f7f7f"/>
<polygon fill="#7f7f7f" points="384.65,-283.6 390.0829,-284.3389 386.7708,-284.9238 388.8915,-286.2476 388.8915,-286.2476 388.8915,-286.2476 386.7708,-284.9238 387.7001,-288.1563 384.65,-283.6 384.65,-283.6" stroke="#7f7f7f"/>
</g>
<!-- bed#beneath#person&#45;&gt;person -->
<g class="edge" id="edge53">
<title>bed#beneath#person-&gt;person</title>
<path d="M359.58,-204.98C358.9,-216.03 358.03,-230.24 357.31,-242.11" fill="none" stroke="#7f7f7f"/>
<polygon fill="#7f7f7f" points="356.98,-247.39 355.0464,-242.2593 357.136,-244.8949 357.292,-242.3997 357.292,-242.3997 357.292,-242.3997 357.136,-244.8949 359.5376,-242.5401 356.98,-247.39 356.98,-247.39" stroke="#7f7f7f"/>
</g>
<!-- bed#on the side of#person&#45;&gt;person -->

</g>
</svg>