<?xml version="1.0" ?><!DOCTYPE svg  PUBLIC '-//W3C//DTD SVG 1.1//EN'  'http://www.w3.org/Graphics/SVG/1.1/DTD/svg11.dtd'><!-- Generated by graphviz version 2.40.1 (20161225.0304)
 --><!-- Pages: 1 --><svg height="562pt" viewBox="0.00 0.00 659.54 562.44" width="660pt" xmlns="http://www.w3.org/2000/svg" xmlns:xlink="http://www.w3.org/1999/xlink">
<g class="graph" id="graph0" transform="scale(1 1) rotate(0) translate(4 558.44)">
<polygon fill="#ffffff" points="-4,4 -4,-558.44 655.54,-558.44 655.54,4 -4,4" stroke="transparent"/>
<!-- person#sitting on#bed -->
<g class="node" id="node1">
<title>person#sitting on#bed</title>
<path d="M490.1,-187.97C490.1,-187.97 445.1,-187.97 445.1,-187.97 439.1,-187.97 433.1,-181.97 433.1,-175.97 433.1,-175.97 433.1,-163.97 433.1,-163.97 433.1,-157.97 439.1,-151.97 445.1,-151.97 445.1,-151.97 490.1,-151.97 490.1,-151.97 496.1,-151.97 502.1,-157.97 502.1,-163.97 502.1,-163.97 502.1,-175.97 502.1,-175.97 502.1,-181.97 496.1,-187.97 490.1,-187.97" fill="#c3e2b3" stroke="#000000"/>
<text fill="#000000" font-family="Times,serif" font-size="14.00" text-anchor="middle" x="467.6" y="-166.27">sitting on</text>
</g>
<!-- bed -->
<g class="node" id="node2">
<title>bed</title>
<path d="M630.71,-201.76C630.71,-201.76 600.71,-201.76 600.71,-201.76 594.71,-201.76 588.71,-195.76 588.71,-189.76 588.71,-189.76 588.71,-177.76 588.71,-177.76 588.71,-171.76 594.71,-165.76 600.71,-165.76 600.71,-165.76 630.71,-165.76 630.71,-165.76 636.71,-165.76 642.71,-171.76 642.71,-177.76 642.71,-177.76 642.71,-189.76 642.71,-189.76 642.71,-195.76 636.71,-201.76 630.71,-201.76" fill="#ffb0b9" stroke="#000000"/>
<text fill="#000000" font-family="Times,serif" font-size="20.00" text-anchor="middle" x="615.71" y="-178.76">bed</text>
</g>
<!-- person#sitting on#bed&#45;&gt;bed -->
<g class="edge" id="edge1">
<title>person#sitting on#bed-&gt;bed</title>
<path d="M502.33,-173.21C526.81,-175.49 559.37,-178.52 583.32,-180.75" fill="none" stroke="#7f7f7f"/>
<polygon fill="#7f7f7f" points="588.59,-181.24 583.4031,-183.0174 586.1007,-181.0085 583.6115,-180.777 583.6115,-180.777 583.6115,-180.777 586.1007,-181.0085 583.8198,-178.5367 588.59,-181.24 588.59,-181.24" stroke="#7f7f7f"/>
</g>
<!-- bed#beneath#person -->
<g class="node" id="node3">
<title>bed#beneath#person</title>
<path d="M443.35,-292.81C443.35,-292.81 407.35,-292.81 407.35,-292.81 401.35,-292.81 395.35,-286.81 395.35,-280.81 395.35,-280.81 395.35,-268.81 395.35,-268.81 395.35,-262.81 401.35,-256.81 407.35,-256.81 407.35,-256.81 443.35,-256.81 443.35,-256.81 449.35,-256.81 455.35,-262.81 455.35,-268.81 455.35,-268.81 455.35,-280.81 455.35,-280.81 455.35,-286.81 449.35,-292.81 443.35,-292.81" fill="#c3e2b3" stroke="#000000"/>
<text fill="#000000" font-family="Times,serif" font-size="14.00" text-anchor="middle" x="425.35" y="-271.11">beneath</text>
</g>
<!-- bed&#45;&gt;bed#beneath#person -->
<g class="edge" id="edge2">
<title>bed-&gt;bed#beneath#person</title>
<path d="M588.43,-196.81C554.69,-212.95 497.18,-240.45 460.24,-258.12" fill="none" stroke="#7f7f7f"/>
<polygon fill="#7f7f7f" points="455.4,-260.44 458.9362,-256.2498 457.6544,-259.3594 459.9088,-258.2787 459.9088,-258.2787 459.9088,-258.2787 457.6544,-259.3594 460.8814,-260.3077 455.4,-260.44 455.4,-260.44" stroke="#7f7f7f"/>
</g>
<!-- person -->
<g class="node" id="node4">
<title>person</title>
<path d="M333.93,-281.92C333.93,-281.92 287.93,-281.92 287.93,-281.92 281.93,-281.92 275.93,-275.92 275.93,-269.92 275.93,-269.92 275.93,-257.92 275.93,-257.92 275.93,-251.92 281.93,-245.92 287.93,-245.92 287.93,-245.92 333.93,-245.92 333.93,-245.92 339.93,-245.92 345.93,-251.92 345.93,-257.92 345.93,-257.92 345.93,-269.92 345.93,-269.92 345.93,-275.92 339.93,-281.92 333.93,-281.92" fill="#ffb0b9" stroke="#000000"/>
<text fill="#000000" font-family="Times,serif" font-size="20.00" text-anchor="middle" x="310.93" y="-258.92">person</text>
</g>
<!-- bed#beneath#person&#45;&gt;person -->
<g class="edge" id="edge3">
<title>bed#beneath#person-&gt;person</title>
<path d="M395.29,-271.95C381.84,-270.67 365.79,-269.14 351.32,-267.76" fill="none" stroke="#7f7f7f"/>
<polygon fill="#7f7f7f" points="346.07,-267.26 351.2608,-265.4943 348.5587,-267.4971 351.0475,-267.7341 351.0475,-267.7341 351.0475,-267.7341 348.5587,-267.4971 350.8341,-269.974 346.07,-267.26 346.07,-267.26" stroke="#7f7f7f"/>
</g>
<!-- person&#45;&gt;person#sitting on#bed -->
<g class="edge" id="edge8">
<title>person-&gt;person#sitting on#bed</title>
<path d="M341.14,-245.8C367.47,-230.01 405.66,-207.12 433.17,-190.62" fill="none" stroke="#7f7f7f"/>
<polygon fill="#7f7f7f" points="437.49,-188.03 434.3586,-192.5308 435.3458,-189.3155 433.2016,-190.6011 433.2016,-190.6011 433.2016,-190.6011 435.3458,-189.3155 432.0447,-188.6713 437.49,-188.03 437.49,-188.03" stroke="#7f7f7f"/>
</g>
<!-- person#looking at#book -->
<g class="node" id="node8">
<title>person#looking at#book</title>
<path d="M61,-351.13C61,-351.13 12,-351.13 12,-351.13 6,-351.13 0,-345.13 0,-339.13 0,-339.13 0,-327.13 0,-327.13 0,-321.13 6,-315.13 12,-315.13 12,-315.13 61,-315.13 61,-315.13 67,-315.13 73,-321.13 73,-327.13 73,-327.13 73,-339.13 73,-339.13 73,-345.13 67,-351.13 61,-351.13" fill="#c3e2b3" stroke="#000000"/>
<text fill="#000000" font-family="Times,serif" font-size="14.00" text-anchor="middle" x="36.5" y="-329.43">looking at</text>
</g>
<!-- person&#45;&gt;person#looking at#book -->
<g class="edge" id="edge9">
<title>person-&gt;person#looking at#book</title>
<path d="M275.9,-272.75C225.36,-285.5 132.17,-309 78.175,-322.62" fill="none" stroke="#7f7f7f"/>
<polygon fill="#7f7f7f" points="73.074,-323.91 77.3697,-320.5027 75.4977,-323.297 77.9214,-322.6841 77.9214,-322.6841 77.9214,-322.6841 75.4977,-323.297 78.4731,-324.8654 73.074,-323.91 73.074,-323.91" stroke="#7f7f7f"/>
</g>
<!-- person#not looking at#bed -->
<g class="node" id="node9">
<title>person#not looking at#bed</title>
<path d="M639.54,-341.61C639.54,-341.61 569.54,-341.61 569.54,-341.61 563.54,-341.61 557.54,-335.61 557.54,-329.61 557.54,-329.61 557.54,-317.61 557.54,-317.61 557.54,-311.61 563.54,-305.61 569.54,-305.61 569.54,-305.61 639.54,-305.61 639.54,-305.61 645.54,-305.61 651.54,-311.61 651.54,-317.61 651.54,-317.61 651.54,-329.61 651.54,-329.61 651.54,-335.61 645.54,-341.61 639.54,-341.61" fill="#c3e2b3" stroke="#000000"/>
<text fill="#000000" font-family="Times,serif" font-size="14.00" text-anchor="middle" x="604.54" y="-319.91">not looking at</text>
</g>
<!-- person&#45;&gt;person#not looking at#bed -->
<g class="edge" id="edge10">
<title>person-&gt;person#not looking at#bed</title>
<path d="M346.06,-271.06C397.36,-281.49 493.12,-300.96 552.58,-313.04" fill="none" stroke="#7f7f7f"/>
<polygon fill="#7f7f7f" points="557.51,-314.05 552.1601,-315.2506 555.0609,-313.5482 552.6117,-313.0464 552.6117,-313.0464 552.6117,-313.0464 555.0609,-313.5482 553.0633,-310.8422 557.51,-314.05 557.51,-314.05" stroke="#7f7f7f"/>
</g>
<!-- person#not contacting#box -->

<!-- person&#45;&gt;person#not contacting#box -->

<!-- person#not looking at#box -->
<g class="node" id="node11">
<title>person#not looking at#box</title>
<path d="M406.73,-441.52C406.73,-441.52 336.73,-441.52 336.73,-441.52 330.73,-441.52 324.73,-435.52 324.73,-429.52 324.73,-429.52 324.73,-417.52 324.73,-417.52 324.73,-411.52 330.73,-405.52 336.73,-405.52 336.73,-405.52 406.73,-405.52 406.73,-405.52 412.73,-405.52 418.73,-411.52 418.73,-417.52 418.73,-417.52 418.73,-429.52 418.73,-429.52 418.73,-435.52 412.73,-441.52 406.73,-441.52" fill="#c3e2b3" stroke="#000000"/>
<text fill="#000000" font-family="Times,serif" font-size="14.00" text-anchor="middle" x="371.73" y="-419.82">not looking at</text>
</g>
<!-- person&#45;&gt;person#not looking at#box -->
<g class="edge" id="edge12">
<title>person-&gt;person#not looking at#box</title>
<path d="M317.91,-282.22C329.04,-311.45 350.81,-368.59 362.97,-400.53" fill="none" stroke="#7f7f7f"/>
<polygon fill="#7f7f7f" points="364.84,-405.43 360.9551,-401.5609 363.9486,-403.0943 363.0572,-400.7586 363.0572,-400.7586 363.0572,-400.7586 363.9486,-403.0943 365.1593,-399.9563 364.84,-405.43 364.84,-405.43" stroke="#7f7f7f"/>
</g>
<!-- person#holding#cup/glass/bottle -->

<!-- person&#45;&gt;person#holding#cup/glass/bottle -->

<!-- person#holding#book -->
<g class="node" id="node13">
<title>person#holding#book</title>
<path d="M208.54,-406.88C208.54,-406.88 173.54,-406.88 173.54,-406.88 167.54,-406.88 161.54,-400.88 161.54,-394.88 161.54,-394.88 161.54,-382.88 161.54,-382.88 161.54,-376.88 167.54,-370.88 173.54,-370.88 173.54,-370.88 208.54,-370.88 208.54,-370.88 214.54,-370.88 220.54,-376.88 220.54,-382.88 220.54,-382.88 220.54,-394.88 220.54,-394.88 220.54,-400.88 214.54,-406.88 208.54,-406.88" fill="#c3e2b3" stroke="#000000"/>
<text fill="#000000" font-family="Times,serif" font-size="14.00" text-anchor="middle" x="191.04" y="-385.18">holding</text>
</g>
<!-- person&#45;&gt;person#holding#book -->
<g class="edge" id="edge14">
<title>person-&gt;person#holding#book</title>
<path d="M293.5,-282.09C271.92,-304.58 235.21,-342.85 212.08,-366.95" fill="none" stroke="#7f7f7f"/>
<polygon fill="#7f7f7f" points="208.49,-370.69 210.3293,-365.5247 210.2212,-368.8864 211.9525,-367.0828 211.9525,-367.0828 211.9525,-367.0828 210.2212,-368.8864 213.5757,-368.641 208.49,-370.69 208.49,-370.69" stroke="#7f7f7f"/>
</g>
<!-- person#touching#box -->
<g class="node" id="node14">
<title>person#touching#box</title>
<path d="M331.2,-550.05C331.2,-550.05 290.2,-550.05 290.2,-550.05 284.2,-550.05 278.2,-544.05 278.2,-538.05 278.2,-538.05 278.2,-526.05 278.2,-526.05 278.2,-520.05 284.2,-514.05 290.2,-514.05 290.2,-514.05 331.2,-514.05 331.2,-514.05 337.2,-514.05 343.2,-520.05 343.2,-526.05 343.2,-526.05 343.2,-538.05 343.2,-538.05 343.2,-544.05 337.2,-550.05 331.2,-550.05" fill="#c3e2b3" stroke="#000000"/>
<text fill="#000000" font-family="Times,serif" font-size="14.00" text-anchor="middle" x="310.7" y="-528.35">touching</text>
</g>
<!-- person&#45;&gt;person#touching#box -->
<g class="edge" id="edge15">
<title>person-&gt;person#touching#box</title>
<path d="M310.92,-281.93C310.88,-329.04 310.77,-455.91 310.72,-508.61" fill="none" stroke="#7f7f7f"/>
<polygon fill="#7f7f7f" points="310.72,-513.77 308.4701,-508.77 310.72,-511.27 310.7201,-508.77 310.7201,-508.77 310.7201,-508.77 310.72,-511.27 312.9701,-508.77 310.72,-513.77 310.72,-513.77" stroke="#7f7f7f"/>
</g>
<!-- person#touching#pillow -->

<!-- person&#45;&gt;person#touching#pillow -->

<!-- person#not looking at#pillow -->

<!-- person&#45;&gt;person#not looking at#pillow -->

<!-- person#not looking at#cup/glass/bottle -->

<!-- person&#45;&gt;person#not looking at#cup/glass/bottle -->

<!-- person#touching#book -->

<!-- person&#45;&gt;person#touching#book -->

<!-- box -->
<g class="node" id="node5">
<title>box</title>
<path d="M468.98,-554.44C468.98,-554.44 438.98,-554.44 438.98,-554.44 432.98,-554.44 426.98,-548.44 426.98,-542.44 426.98,-542.44 426.98,-530.44 426.98,-530.44 426.98,-524.44 432.98,-518.44 438.98,-518.44 438.98,-518.44 468.98,-518.44 468.98,-518.44 474.98,-518.44 480.98,-524.44 480.98,-530.44 480.98,-530.44 480.98,-542.44 480.98,-542.44 480.98,-548.44 474.98,-554.44 468.98,-554.44" fill="#ffb0b9" stroke="#000000"/>
<text fill="#000000" font-family="Times,serif" font-size="20.00" text-anchor="middle" x="453.98" y="-531.44">box</text>
</g>
<!-- box#on the side of#person -->
<g class="node" id="node6">
<title>box#on the side of#person</title>
<path d="M501.83,-392.67C501.83,-392.67 433.83,-392.67 433.83,-392.67 427.83,-392.67 421.83,-386.67 421.83,-380.67 421.83,-380.67 421.83,-368.67 421.83,-368.67 421.83,-362.67 427.83,-356.67 433.83,-356.67 433.83,-356.67 501.83,-356.67 501.83,-356.67 507.83,-356.67 513.83,-362.67 513.83,-368.67 513.83,-368.67 513.83,-380.67 513.83,-380.67 513.83,-386.67 507.83,-392.67 501.83,-392.67" fill="#c3e2b3" stroke="#000000"/>
<text fill="#000000" font-family="Times,serif" font-size="14.00" text-anchor="middle" x="467.83" y="-370.97">on the side of</text>
</g>
<!-- box&#45;&gt;box#on the side of#person -->
<g class="edge" id="edge4">
<title>box-&gt;box#on the side of#person</title>
<path d="M455.54,-518.2C458.07,-488.71 463.04,-430.59 465.83,-398.09" fill="none" stroke="#7f7f7f"/>
<polygon fill="#7f7f7f" points="466.25,-393.1 468.0726,-398.2711 466.0403,-395.5912 465.8305,-398.0824 465.8305,-398.0824 465.8305,-398.0824 466.0403,-395.5912 463.5885,-397.8936 466.25,-393.1 466.25,-393.1" stroke="#7f7f7f"/>
</g>
<!-- box#in front of#person -->
<g class="node" id="node7">
<title>box#in front of#person</title>
<path d="M636.4,-520.71C636.4,-520.71 587.4,-520.71 587.4,-520.71 581.4,-520.71 575.4,-514.71 575.4,-508.71 575.4,-508.71 575.4,-496.71 575.4,-496.71 575.4,-490.71 581.4,-484.71 587.4,-484.71 587.4,-484.71 636.4,-484.71 636.4,-484.71 642.4,-484.71 648.4,-490.71 648.4,-496.71 648.4,-496.71 648.4,-508.71 648.4,-508.71 648.4,-514.71 642.4,-520.71 636.4,-520.71" fill="#c3e2b3" stroke="#000000"/>
<text fill="#000000" font-family="Times,serif" font-size="14.00" text-anchor="middle" x="611.9" y="-499.01">in front of</text>
</g>
<!-- box&#45;&gt;box#in front of#person -->
<g class="edge" id="edge5">
<title>box-&gt;box#in front of#person</title>
<path d="M481.13,-530.64C505.62,-525.41 542.02,-517.64 570.2,-511.62" fill="none" stroke="#7f7f7f"/>
<polygon fill="#7f7f7f" points="575.36,-510.52 570.939,-513.7631 572.9149,-511.0413 570.4699,-511.5625 570.4699,-511.5625 570.4699,-511.5625 572.9149,-511.0413 570.0007,-509.362 575.36,-510.52 575.36,-510.52" stroke="#7f7f7f"/>
</g>
<!-- box#on the side of#person&#45;&gt;person -->
<g class="edge" id="edge6">
<title>box#on the side of#person-&gt;person</title>
<path d="M442.27,-356.63C414.46,-337 370.06,-305.65 340.7,-284.93" fill="none" stroke="#7f7f7f"/>
<polygon fill="#7f7f7f" points="336.48,-281.95 341.8622,-282.9963 338.5222,-283.3921 340.5643,-284.8342 340.5643,-284.8342 340.5643,-284.8342 338.5222,-283.3921 339.2664,-286.6722 336.48,-281.95 336.48,-281.95" stroke="#7f7f7f"/>
</g>
<!-- box#in front of#person&#45;&gt;person -->
<g class="edge" id="edge7">
<title>box#in front of#person-&gt;person</title>
<path d="M588.78,-484.37C533.94,-440.86 396.19,-331.56 337.78,-285.22" fill="none" stroke="#7f7f7f"/>
<polygon fill="#7f7f7f" points="333.72,-281.99 339.0336,-283.3422 335.6764,-283.5465 337.6328,-285.1029 337.6328,-285.1029 337.6328,-285.1029 335.6764,-283.5465 336.232,-286.8637 333.72,-281.99 333.72,-281.99" stroke="#7f7f7f"/>
</g>
<!-- book -->
<g class="node" id="node19">
<title>book</title>
<path d="M52.485,-526.23C52.485,-526.23 19.485,-526.23 19.485,-526.23 13.485,-526.23 7.485,-520.23 7.485,-514.23 7.485,-514.23 7.485,-502.23 7.485,-502.23 7.485,-496.23 13.485,-490.23 19.485,-490.23 19.485,-490.23 52.485,-490.23 52.485,-490.23 58.485,-490.23 64.485,-496.23 64.485,-502.23 64.485,-502.23 64.485,-514.23 64.485,-514.23 64.485,-520.23 58.485,-526.23 52.485,-526.23" fill="#ffb0b9" stroke="#000000"/>
<text fill="#000000" font-family="Times,serif" font-size="20.00" text-anchor="middle" x="35.985" y="-503.23">book</text>
</g>
<!-- person#looking at#book&#45;&gt;book -->
<g class="edge" id="edge20">
<title>person#looking at#book-&gt;book</title>
<path d="M36.447,-351.21C36.353,-383.06 36.159,-449.14 36.054,-484.58" fill="none" stroke="#7f7f7f"/>
<polygon fill="#7f7f7f" points="36.038,-489.99 33.8029,-484.9833 36.0454,-487.49 36.0529,-484.99 36.0529,-484.99 36.0529,-484.99 36.0454,-487.49 38.3029,-484.9967 36.038,-489.99 36.038,-489.99" stroke="#7f7f7f"/>
</g>
<!-- person#not looking at#bed&#45;&gt;bed -->
<g class="edge" id="edge24">
<title>person#not looking at#bed-&gt;bed</title>
<path d="M606,-305.33C608,-280.2 611.62,-234.97 613.83,-207.33" fill="none" stroke="#7f7f7f"/>
<polygon fill="#7f7f7f" points="614.25,-202.05 616.0964,-207.2127 614.0517,-204.5421 613.8534,-207.0343 613.8534,-207.0343 613.8534,-207.0343 614.0517,-204.5421 611.6105,-206.8558 614.25,-202.05 614.25,-202.05" stroke="#7f7f7f"/>
</g>
<!-- person#not contacting#box&#45;&gt;box -->

<!-- person#not looking at#box&#45;&gt;box -->
<g class="edge" id="edge26">
<title>person#not looking at#box-&gt;box</title>
<path d="M384.95,-441.66C399.34,-461.42 422.36,-493.02 437.81,-514.25" fill="none" stroke="#7f7f7f"/>
<polygon fill="#7f7f7f" points="440.8,-518.34 436.0327,-515.6315 439.3246,-516.3218 437.8491,-514.3036 437.8491,-514.3036 437.8491,-514.3036 439.3246,-516.3218 439.6655,-512.9757 440.8,-518.34 440.8,-518.34" stroke="#7f7f7f"/>
</g>
<!-- cup/glass/bottle -->

<!-- person#holding#cup/glass/bottle&#45;&gt;cup/glass/bottle -->

<!-- person#holding#book&#45;&gt;book -->
<g class="edge" id="edge28">
<title>person#holding#book-&gt;book</title>
<path d="M167.49,-407.01C139.63,-428.45 93.313,-464.1 63.738,-486.87" fill="none" stroke="#7f7f7f"/>
<polygon fill="#7f7f7f" points="59.501,-490.13 62.0917,-485.2977 61.4824,-488.6055 63.4638,-487.081 63.4638,-487.081 63.4638,-487.081 61.4824,-488.6055 64.8359,-488.8642 59.501,-490.13 59.501,-490.13" stroke="#7f7f7f"/>
</g>
<!-- person#touching#box&#45;&gt;box -->
<g class="edge" id="edge29">
<title>person#touching#box-&gt;box</title>
<path d="M343.22,-533.05C366.7,-533.77 398.29,-534.74 421.72,-535.45" fill="none" stroke="#7f7f7f"/>
<polygon fill="#7f7f7f" points="426.89,-535.61 421.8228,-537.7042 424.3912,-535.5326 421.8924,-535.4552 421.8924,-535.4552 421.8924,-535.4552 424.3912,-535.5326 421.962,-533.2063 426.89,-535.61 426.89,-535.61" stroke="#7f7f7f"/>
</g>
<!-- pillow -->

<!-- person#touching#pillow&#45;&gt;pillow -->

<!-- person#not looking at#pillow&#45;&gt;pillow -->

<!-- person#not looking at#cup/glass/bottle&#45;&gt;cup/glass/bottle -->

<!-- person#touching#book&#45;&gt;book -->

<!-- book#in front of#person -->
<g class="node" id="node20">
<title>book#in front of#person</title>
<path d="M211.74,-549.56C211.74,-549.56 162.74,-549.56 162.74,-549.56 156.74,-549.56 150.74,-543.56 150.74,-537.56 150.74,-537.56 150.74,-525.56 150.74,-525.56 150.74,-519.56 156.74,-513.56 162.74,-513.56 162.74,-513.56 211.74,-513.56 211.74,-513.56 217.74,-513.56 223.74,-519.56 223.74,-525.56 223.74,-525.56 223.74,-537.56 223.74,-537.56 223.74,-543.56 217.74,-549.56 211.74,-549.56" fill="#c3e2b3" stroke="#000000"/>
<text fill="#000000" font-family="Times,serif" font-size="14.00" text-anchor="middle" x="187.24" y="-527.86">in front of</text>
</g>
<!-- book&#45;&gt;book#in front of#person -->
<g class="edge" id="edge21">
<title>book-&gt;book#in front of#person</title>
<path d="M64.792,-512.67C87.613,-516.19 119.81,-521.16 145.47,-525.12" fill="none" stroke="#7f7f7f"/>
<polygon fill="#7f7f7f" points="150.5,-525.89 145.2171,-527.3574 148.0288,-525.5117 145.5576,-525.1333 145.5576,-525.1333 145.5576,-525.1333 148.0288,-525.5117 145.8981,-522.9092 150.5,-525.89 150.5,-525.89" stroke="#7f7f7f"/>
</g>
<!-- book#in front of#person&#45;&gt;person -->
<g class="edge" id="edge22">
<title>book#in front of#person-&gt;person</title>
<path d="M195.75,-513.16C217.69,-465.68 276.19,-339.09 300.31,-286.9" fill="none" stroke="#7f7f7f"/>
<polygon fill="#7f7f7f" points="302.54,-282.09 302.4782,-287.5726 301.4884,-284.3581 300.4369,-286.6262 300.4369,-286.6262 300.4369,-286.6262 301.4884,-284.3581 298.3956,-285.6798 302.54,-282.09 302.54,-282.09" stroke="#7f7f7f"/>
</g>
<!-- cup/glass/bottle#in front of#person -->

<!-- cup/glass/bottle#in front of#person&#45;&gt;person -->

<!-- cup/glass/bottle&#45;&gt;cup/glass/bottle#in front of#person -->

<!-- pillow#in front of#person -->

<!-- pillow&#45;&gt;pillow#in front of#person -->

<!-- pillow#in front of#person&#45;&gt;person -->

</g>
</svg>