<?xml version="1.0" ?><!DOCTYPE svg  PUBLIC '-//W3C//DTD SVG 1.1//EN'  'http://www.w3.org/Graphics/SVG/1.1/DTD/svg11.dtd'><!-- Generated by graphviz version 2.40.1 (20161225.0304)
 --><!-- Pages: 1 --><svg height="447pt" viewBox="0.00 0.00 660.75 446.50" width="661pt" xmlns="http://www.w3.org/2000/svg" xmlns:xlink="http://www.w3.org/1999/xlink">
<g class="graph" id="graph0" transform="scale(1 1) rotate(0) translate(4 442.5)">
<polygon fill="#ffffff" points="-4,4 -4,-442.5 656.75,-442.5 656.75,4 -4,4" stroke="transparent"/>
<!-- pillow#in front of#person -->

<!-- person -->
<g class="node" id="node2">
<title>person</title>
<path d="M389.49,-242.97C389.49,-242.97 343.49,-242.97 343.49,-242.97 337.49,-242.97 331.49,-236.97 331.49,-230.97 331.49,-230.97 331.49,-218.97 331.49,-218.97 331.49,-212.97 337.49,-206.97 343.49,-206.97 343.49,-206.97 389.49,-206.97 389.49,-206.97 395.49,-206.97 401.49,-212.97 401.49,-218.97 401.49,-218.97 401.49,-230.97 401.49,-230.97 401.49,-236.97 395.49,-242.97 389.49,-242.97" fill="#ffb0b9" stroke="#000000"/>
<text fill="#000000" font-family="Times,serif" font-size="20.00" text-anchor="middle" x="366.49" y="-219.97">person</text>
</g>
<!-- pillow#in front of#person&#45;&gt;person -->

<!-- person#holding#book -->
<g class="node" id="node3">
<title>person#holding#book</title>
<path d="M359.7,-36C359.7,-36 324.7,-36 324.7,-36 318.7,-36 312.7,-30 312.7,-24 312.7,-24 312.7,-12 312.7,-12 312.7,-6 318.7,0 324.7,0 324.7,0 359.7,0 359.7,0 365.7,0 371.7,-6 371.7,-12 371.7,-12 371.7,-24 371.7,-24 371.7,-30 365.7,-36 359.7,-36" fill="#c3e2b3" stroke="#000000"/>
<text fill="#000000" font-family="Times,serif" font-size="14.00" text-anchor="middle" x="342.2" y="-14.3">holding</text>
</g>
<!-- person&#45;&gt;person#holding#book -->
<g class="edge" id="edge2">
<title>person-&gt;person#holding#book</title>
<path d="M364.37,-206.96C359.97,-169.43 349.81,-82.845 344.92,-41.2" fill="none" stroke="#7f7f7f"/>
<polygon fill="#7f7f7f" points="344.32,-36.111 347.1401,-40.8131 344.6128,-38.5938 344.9055,-41.0766 344.9055,-41.0766 344.9055,-41.0766 344.6128,-38.5938 342.671,-41.3401 344.32,-36.111 344.32,-36.111" stroke="#7f7f7f"/>
</g>
<!-- person#not contacting#box -->

<!-- person&#45;&gt;person#not contacting#box -->

<!-- person#touching#box -->
<g class="node" id="node5">
<title>person#touching#box</title>
<path d="M309.89,-310.74C309.89,-310.74 268.89,-310.74 268.89,-310.74 262.89,-310.74 256.89,-304.74 256.89,-298.74 256.89,-298.74 256.89,-286.74 256.89,-286.74 256.89,-280.74 262.89,-274.74 268.89,-274.74 268.89,-274.74 309.89,-274.74 309.89,-274.74 315.89,-274.74 321.89,-280.74 321.89,-286.74 321.89,-286.74 321.89,-298.74 321.89,-298.74 321.89,-304.74 315.89,-310.74 309.89,-310.74" fill="#c3e2b3" stroke="#000000"/>
<text fill="#000000" font-family="Times,serif" font-size="14.00" text-anchor="middle" x="289.39" y="-289.04">touching</text>
</g>
<!-- person&#45;&gt;person#touching#box -->
<g class="edge" id="edge4">
<title>person-&gt;person#touching#box</title>
<path d="M345.83,-243.13C336.06,-251.72 324.33,-262.03 314.1,-271.03" fill="none" stroke="#7f7f7f"/>
<polygon fill="#7f7f7f" points="310.11,-274.53 312.3851,-269.5413 311.9894,-272.8814 313.8688,-271.2328 313.8688,-271.2328 313.8688,-271.2328 311.9894,-272.8814 315.3526,-272.9242 310.11,-274.53 310.11,-274.53" stroke="#7f7f7f"/>
</g>
<!-- person#touching#pillow -->

<!-- person&#45;&gt;person#touching#pillow -->

<!-- person#not looking at#pillow -->

<!-- person&#45;&gt;person#not looking at#pillow -->

<!-- person#not looking at#box -->
<g class="node" id="node8">
<title>person#not looking at#box</title>
<path d="M640.75,-425.91C640.75,-425.91 570.75,-425.91 570.75,-425.91 564.75,-425.91 558.75,-419.91 558.75,-413.91 558.75,-413.91 558.75,-401.91 558.75,-401.91 558.75,-395.91 564.75,-389.91 570.75,-389.91 570.75,-389.91 640.75,-389.91 640.75,-389.91 646.75,-389.91 652.75,-395.91 652.75,-401.91 652.75,-401.91 652.75,-413.91 652.75,-413.91 652.75,-419.91 646.75,-425.91 640.75,-425.91" fill="#c3e2b3" stroke="#000000"/>
<text fill="#000000" font-family="Times,serif" font-size="14.00" text-anchor="middle" x="605.75" y="-404.21">not looking at</text>
</g>
<!-- person&#45;&gt;person#not looking at#box -->
<g class="edge" id="edge7">
<title>person-&gt;person#not looking at#box</title>
<path d="M390.3,-243.18C434.82,-277.22 530.42,-350.32 577.87,-386.59" fill="none" stroke="#7f7f7f"/>
<polygon fill="#7f7f7f" points="582.03,-389.77 576.6912,-388.521 580.0438,-388.2517 578.0576,-386.7334 578.0576,-386.7334 578.0576,-386.7334 580.0438,-388.2517 579.4241,-384.9459 582.03,-389.77 582.03,-389.77" stroke="#7f7f7f"/>
</g>
<!-- person#not looking at#bed -->
<g class="node" id="node9">
<title>person#not looking at#bed</title>
<path d="M553.95,-147.88C553.95,-147.88 483.95,-147.88 483.95,-147.88 477.95,-147.88 471.95,-141.88 471.95,-135.88 471.95,-135.88 471.95,-123.88 471.95,-123.88 471.95,-117.88 477.95,-111.88 483.95,-111.88 483.95,-111.88 553.95,-111.88 553.95,-111.88 559.95,-111.88 565.95,-117.88 565.95,-123.88 565.95,-123.88 565.95,-135.88 565.95,-135.88 565.95,-141.88 559.95,-147.88 553.95,-147.88" fill="#c3e2b3" stroke="#000000"/>
<text fill="#000000" font-family="Times,serif" font-size="14.00" text-anchor="middle" x="518.95" y="-126.18">not looking at</text>
</g>
<!-- person&#45;&gt;person#not looking at#bed -->
<g class="edge" id="edge8">
<title>person-&gt;person#not looking at#bed</title>
<path d="M395.52,-206.86C421.17,-190.87 458.56,-167.54 485.46,-150.77" fill="none" stroke="#7f7f7f"/>
<polygon fill="#7f7f7f" points="490.02,-147.92 486.9725,-152.478 487.9,-149.245 485.78,-150.57 485.78,-150.57 485.78,-150.57 487.9,-149.245 484.5875,-148.662 490.02,-147.92 490.02,-147.92" stroke="#7f7f7f"/>
</g>
<!-- person#not looking at#cup/glass/bottle -->

<!-- person&#45;&gt;person#not looking at#cup/glass/bottle -->

<!-- person#looking at#book -->
<g class="node" id="node11">
<title>person#looking at#book</title>
<path d="M443.29,-146.85C443.29,-146.85 394.29,-146.85 394.29,-146.85 388.29,-146.85 382.29,-140.85 382.29,-134.85 382.29,-134.85 382.29,-122.85 382.29,-122.85 382.29,-116.85 388.29,-110.85 394.29,-110.85 394.29,-110.85 443.29,-110.85 443.29,-110.85 449.29,-110.85 455.29,-116.85 455.29,-122.85 455.29,-122.85 455.29,-134.85 455.29,-134.85 455.29,-140.85 449.29,-146.85 443.29,-146.85" fill="#c3e2b3" stroke="#000000"/>
<text fill="#000000" font-family="Times,serif" font-size="14.00" text-anchor="middle" x="418.79" y="-125.15">looking at</text>
</g>
<!-- person&#45;&gt;person#looking at#book -->
<g class="edge" id="edge10">
<title>person-&gt;person#looking at#book</title>
<path d="M376.32,-206.89C384.82,-191.28 397.13,-168.65 406.31,-151.77" fill="none" stroke="#7f7f7f"/>
<polygon fill="#7f7f7f" points="408.81,-147.17 408.3993,-152.6376 407.6162,-149.3666 406.4224,-151.5631 406.4224,-151.5631 406.4224,-151.5631 407.6162,-149.3666 404.4455,-150.4887 408.81,-147.17 408.81,-147.17" stroke="#7f7f7f"/>
</g>
<!-- person#touching#book -->

<!-- person&#45;&gt;person#touching#book -->

<!-- person#sitting on#bed -->
<g class="node" id="node13">
<title>person#sitting on#bed</title>
<path d="M498.77,-233.77C498.77,-233.77 453.77,-233.77 453.77,-233.77 447.77,-233.77 441.77,-227.77 441.77,-221.77 441.77,-221.77 441.77,-209.77 441.77,-209.77 441.77,-203.77 447.77,-197.77 453.77,-197.77 453.77,-197.77 498.77,-197.77 498.77,-197.77 504.77,-197.77 510.77,-203.77 510.77,-209.77 510.77,-209.77 510.77,-221.77 510.77,-221.77 510.77,-227.77 504.77,-233.77 498.77,-233.77" fill="#c3e2b3" stroke="#000000"/>
<text fill="#000000" font-family="Times,serif" font-size="14.00" text-anchor="middle" x="476.27" y="-212.07">sitting on</text>
</g>
<!-- person&#45;&gt;person#sitting on#bed -->
<g class="edge" id="edge12">
<title>person-&gt;person#sitting on#bed</title>
<path d="M401.53,-222.03C412.63,-221.1 424.98,-220.07 436.4,-219.11" fill="none" stroke="#7f7f7f"/>
<polygon fill="#7f7f7f" points="441.57,-218.68 436.7737,-221.3368 439.0786,-218.8873 436.5872,-219.0945 436.5872,-219.0945 436.5872,-219.0945 439.0786,-218.8873 436.4007,-216.8523 441.57,-218.68 441.57,-218.68" stroke="#7f7f7f"/>
</g>
<!-- person#holding#cup/glass/bottle -->

<!-- person&#45;&gt;person#holding#cup/glass/bottle -->

<!-- book -->
<g class="node" id="node15">
<title>book</title>
<path d="M481.93,-36.185C481.93,-36.185 448.93,-36.185 448.93,-36.185 442.93,-36.185 436.93,-30.185 436.93,-24.185 436.93,-24.185 436.93,-12.185 436.93,-12.185 436.93,-6.185 442.93,-.185 448.93,-.185 448.93,-.185 481.93,-.185 481.93,-.185 487.93,-.185 493.93,-6.185 493.93,-12.185 493.93,-12.185 493.93,-24.185 493.93,-24.185 493.93,-30.185 487.93,-36.185 481.93,-36.185" fill="#ffb0b9" stroke="#000000"/>
<text fill="#000000" font-family="Times,serif" font-size="20.00" text-anchor="middle" x="465.43" y="-13.185">book</text>
</g>
<!-- person#holding#book&#45;&gt;book -->
<g class="edge" id="edge14">
<title>person#holding#book-&gt;book</title>
<path d="M371.71,-18.044C389.68,-18.071 412.69,-18.106 431.42,-18.134" fill="none" stroke="#7f7f7f"/>
<polygon fill="#7f7f7f" points="436.58,-18.142 431.5765,-20.3841 434.08,-18.1381 431.58,-18.1342 431.58,-18.1342 431.58,-18.1342 434.08,-18.1381 431.5835,-15.8842 436.58,-18.142 436.58,-18.142" stroke="#7f7f7f"/>
</g>
<!-- box -->
<g class="node" id="node16">
<title>box</title>
<path d="M471.93,-434.73C471.93,-434.73 441.93,-434.73 441.93,-434.73 435.93,-434.73 429.93,-428.73 429.93,-422.73 429.93,-422.73 429.93,-410.73 429.93,-410.73 429.93,-404.73 435.93,-398.73 441.93,-398.73 441.93,-398.73 471.93,-398.73 471.93,-398.73 477.93,-398.73 483.93,-404.73 483.93,-410.73 483.93,-410.73 483.93,-422.73 483.93,-422.73 483.93,-428.73 477.93,-434.73 471.93,-434.73" fill="#ffb0b9" stroke="#000000"/>
<text fill="#000000" font-family="Times,serif" font-size="20.00" text-anchor="middle" x="456.93" y="-411.73">box</text>
</g>
<!-- person#not contacting#box&#45;&gt;box -->

<!-- person#touching#box&#45;&gt;box -->
<g class="edge" id="edge16">
<title>person#touching#box-&gt;box</title>
<path d="M313.75,-310.77C344.15,-333.27 396.06,-371.68 428.32,-395.55" fill="none" stroke="#7f7f7f"/>
<polygon fill="#7f7f7f" points="432.54,-398.68 427.1836,-397.5085 430.532,-397.1907 428.5241,-395.7013 428.5241,-395.7013 428.5241,-395.7013 430.532,-397.1907 429.8645,-393.8941 432.54,-398.68 432.54,-398.68" stroke="#7f7f7f"/>
</g>
<!-- pillow -->

<!-- person#touching#pillow&#45;&gt;pillow -->

<!-- person#not looking at#pillow&#45;&gt;pillow -->

<!-- person#not looking at#box&#45;&gt;box -->
<g class="edge" id="edge19">
<title>person#not looking at#box-&gt;box</title>
<path d="M558.66,-410.7C536.05,-412.04 509.53,-413.61 489.24,-414.81" fill="none" stroke="#7f7f7f"/>
<polygon fill="#7f7f7f" points="484.22,-415.11 489.0768,-412.5656 486.7155,-414.9608 489.2111,-414.8116 489.2111,-414.8116 489.2111,-414.8116 486.7155,-414.9608 489.3454,-417.0576 484.22,-415.11 484.22,-415.11" stroke="#7f7f7f"/>
</g>
<!-- bed -->
<g class="node" id="node18">
<title>bed</title>
<path d="M638.75,-205.64C638.75,-205.64 608.75,-205.64 608.75,-205.64 602.75,-205.64 596.75,-199.64 596.75,-193.64 596.75,-193.64 596.75,-181.64 596.75,-181.64 596.75,-175.64 602.75,-169.64 608.75,-169.64 608.75,-169.64 638.75,-169.64 638.75,-169.64 644.75,-169.64 650.75,-175.64 650.75,-181.64 650.75,-181.64 650.75,-193.64 650.75,-193.64 650.75,-199.64 644.75,-205.64 638.75,-205.64" fill="#ffb0b9" stroke="#000000"/>
<text fill="#000000" font-family="Times,serif" font-size="20.00" text-anchor="middle" x="623.75" y="-182.64">bed</text>
</g>
<!-- person#not looking at#bed&#45;&gt;bed -->
<g class="edge" id="edge20">
<title>person#not looking at#bed-&gt;bed</title>
<path d="M551.82,-148C564.66,-155.07 579.31,-163.14 592.03,-170.15" fill="none" stroke="#7f7f7f"/>
<polygon fill="#7f7f7f" points="596.62,-172.68 591.155,-172.2368 594.4306,-171.4732 592.2411,-170.2663 592.2411,-170.2663 592.2411,-170.2663 594.4306,-171.4732 593.3273,-168.2958 596.62,-172.68 596.62,-172.68" stroke="#7f7f7f"/>
</g>
<!-- cup/glass/bottle -->

<!-- person#not looking at#cup/glass/bottle&#45;&gt;cup/glass/bottle -->

<!-- person#looking at#book&#45;&gt;book -->
<g class="edge" id="edge22">
<title>person#looking at#book-&gt;book</title>
<path d="M426.49,-110.57C434.49,-91.591 447.03,-61.84 455.71,-41.251" fill="none" stroke="#7f7f7f"/>
<polygon fill="#7f7f7f" points="457.71,-36.486 457.8495,-41.9672 456.7424,-38.7912 455.7748,-41.0964 455.7748,-41.0964 455.7748,-41.0964 456.7424,-38.7912 453.7002,-40.2255 457.71,-36.486 457.71,-36.486" stroke="#7f7f7f"/>
</g>
<!-- person#touching#book&#45;&gt;book -->

<!-- person#sitting on#bed&#45;&gt;bed -->
<g class="edge" id="edge24">
<title>person#sitting on#bed-&gt;bed</title>
<path d="M510.85,-209.18C535.17,-204.54 567.5,-198.37 591.33,-193.82" fill="none" stroke="#7f7f7f"/>
<polygon fill="#7f7f7f" points="596.28,-192.88 591.7876,-196.0234 593.8239,-193.3465 591.3678,-193.8129 591.3678,-193.8129 591.3678,-193.8129 593.8239,-193.3465 590.948,-191.6024 596.28,-192.88 596.28,-192.88" stroke="#7f7f7f"/>
</g>
<!-- person#holding#cup/glass/bottle&#45;&gt;cup/glass/bottle -->

<!-- book#in front of#person -->
<g class="node" id="node21">
<title>book#in front of#person</title>
<path d="M353.5,-142.62C353.5,-142.62 304.5,-142.62 304.5,-142.62 298.5,-142.62 292.5,-136.62 292.5,-130.62 292.5,-130.62 292.5,-118.62 292.5,-118.62 292.5,-112.62 298.5,-106.62 304.5,-106.62 304.5,-106.62 353.5,-106.62 353.5,-106.62 359.5,-106.62 365.5,-112.62 365.5,-118.62 365.5,-118.62 365.5,-130.62 365.5,-130.62 365.5,-136.62 359.5,-142.62 353.5,-142.62" fill="#c3e2b3" stroke="#000000"/>
<text fill="#000000" font-family="Times,serif" font-size="14.00" text-anchor="middle" x="329" y="-120.92">in front of</text>
</g>
<!-- book&#45;&gt;book#in front of#person -->
<g class="edge" id="edge28">
<title>book-&gt;book#in front of#person</title>
<path d="M442.28,-36.24C418.57,-54.741 381.7,-83.505 356.5,-103.16" fill="none" stroke="#7f7f7f"/>
<polygon fill="#7f7f7f" points="352.25,-106.47 354.8122,-101.6225 354.2224,-104.9338 356.1948,-103.3977 356.1948,-103.3977 356.1948,-103.3977 354.2224,-104.9338 357.5773,-105.1728 352.25,-106.47 352.25,-106.47" stroke="#7f7f7f"/>
</g>
<!-- box#in front of#person -->
<g class="node" id="node22">
<title>box#in front of#person</title>
<path d="M486.66,-318.39C486.66,-318.39 437.66,-318.39 437.66,-318.39 431.66,-318.39 425.66,-312.39 425.66,-306.39 425.66,-306.39 425.66,-294.39 425.66,-294.39 425.66,-288.39 431.66,-282.39 437.66,-282.39 437.66,-282.39 486.66,-282.39 486.66,-282.39 492.66,-282.39 498.66,-288.39 498.66,-294.39 498.66,-294.39 498.66,-306.39 498.66,-306.39 498.66,-312.39 492.66,-318.39 486.66,-318.39" fill="#c3e2b3" stroke="#000000"/>
<text fill="#000000" font-family="Times,serif" font-size="14.00" text-anchor="middle" x="462.16" y="-296.69">in front of</text>
</g>
<!-- box&#45;&gt;box#in front of#person -->
<g class="edge" id="edge31">
<title>box-&gt;box#in front of#person</title>
<path d="M457.75,-398.55C458.66,-378.32 460.13,-345.57 461.12,-323.52" fill="none" stroke="#7f7f7f"/>
<polygon fill="#7f7f7f" points="461.35,-318.44 463.3715,-323.5367 461.2369,-320.9374 461.1238,-323.4349 461.1238,-323.4349 461.1238,-323.4349 461.2369,-320.9374 458.8761,-323.3331 461.35,-318.44 461.35,-318.44" stroke="#7f7f7f"/>
</g>
<!-- box#on the side of#person -->
<g class="node" id="node23">
<title>box#on the side of#person</title>
<path d="M355.47,-438.5C355.47,-438.5 287.47,-438.5 287.47,-438.5 281.47,-438.5 275.47,-432.5 275.47,-426.5 275.47,-426.5 275.47,-414.5 275.47,-414.5 275.47,-408.5 281.47,-402.5 287.47,-402.5 287.47,-402.5 355.47,-402.5 355.47,-402.5 361.47,-402.5 367.47,-408.5 367.47,-414.5 367.47,-414.5 367.47,-426.5 367.47,-426.5 367.47,-432.5 361.47,-438.5 355.47,-438.5" fill="#c3e2b3" stroke="#000000"/>
<text fill="#000000" font-family="Times,serif" font-size="14.00" text-anchor="middle" x="321.47" y="-416.8">on the side of</text>
</g>
<!-- box&#45;&gt;box#on the side of#person -->
<g class="edge" id="edge32">
<title>box-&gt;box#on the side of#person</title>
<path d="M429.84,-417.48C413.61,-417.94 392.44,-418.53 373.12,-419.06" fill="none" stroke="#7f7f7f"/>
<polygon fill="#7f7f7f" points="367.72,-419.22 372.6511,-416.8228 370.2189,-419.1459 372.7178,-419.0718 372.7178,-419.0718 372.7178,-419.0718 370.2189,-419.1459 372.7845,-421.3208 367.72,-419.22 367.72,-419.22" stroke="#7f7f7f"/>
</g>
<!-- pillow&#45;&gt;pillow#in front of#person -->

<!-- bed#beneath#person -->
<g class="node" id="node24">
<title>bed#beneath#person</title>
<path d="M611.61,-310.98C611.61,-310.98 575.61,-310.98 575.61,-310.98 569.61,-310.98 563.61,-304.98 563.61,-298.98 563.61,-298.98 563.61,-286.98 563.61,-286.98 563.61,-280.98 569.61,-274.98 575.61,-274.98 575.61,-274.98 611.61,-274.98 611.61,-274.98 617.61,-274.98 623.61,-280.98 623.61,-286.98 623.61,-286.98 623.61,-298.98 623.61,-298.98 623.61,-304.98 617.61,-310.98 611.61,-310.98" fill="#c3e2b3" stroke="#000000"/>
<text fill="#000000" font-family="Times,serif" font-size="14.00" text-anchor="middle" x="593.61" y="-289.28">beneath</text>
</g>
<!-- bed&#45;&gt;bed#beneath#person -->
<g class="edge" id="edge33">
<title>bed-&gt;bed#beneath#person</title>
<path d="M618.5,-205.99C613.44,-223.66 605.77,-250.46 600.28,-269.65" fill="none" stroke="#7f7f7f"/>
<polygon fill="#7f7f7f" points="598.8,-274.84 598.0075,-269.4146 599.4856,-272.4358 600.1712,-270.0317 600.1712,-270.0317 600.1712,-270.0317 599.4856,-272.4358 602.335,-270.6487 598.8,-274.84 598.8,-274.84" stroke="#7f7f7f"/>
</g>
<!-- cup/glass/bottle#in front of#person -->

<!-- cup/glass/bottle&#45;&gt;cup/glass/bottle#in front of#person -->

<!-- cup/glass/bottle#in front of#person&#45;&gt;person -->

<!-- book#in front of#person&#45;&gt;person -->
<g class="edge" id="edge29">
<title>book#in front of#person-&gt;person</title>
<path d="M335.87,-143.02C342.06,-159.57 351.17,-183.96 357.84,-201.83" fill="none" stroke="#7f7f7f"/>
<polygon fill="#7f7f7f" points="359.65,-206.68 355.7937,-202.7823 358.7759,-204.3378 357.9017,-201.9956 357.9017,-201.9956 357.9017,-201.9956 358.7759,-204.3378 360.0097,-201.2089 359.65,-206.68 359.65,-206.68" stroke="#7f7f7f"/>
</g>
<!-- box#in front of#person&#45;&gt;person -->
<g class="edge" id="edge34">
<title>box#in front of#person-&gt;person</title>
<path d="M439,-282.13C425.25,-271.29 407.76,-257.5 393.4,-246.18" fill="none" stroke="#7f7f7f"/>
<polygon fill="#7f7f7f" points="389.43,-243.06 394.7516,-244.3805 391.3956,-244.6048 393.3613,-246.1496 393.3613,-246.1496 393.3613,-246.1496 391.3956,-244.6048 391.971,-247.9187 389.43,-243.06 389.43,-243.06" stroke="#7f7f7f"/>
</g>
<!-- box#on the side of#person&#45;&gt;person -->
<g class="edge" id="edge35">
<title>box#on the side of#person-&gt;person</title>
<path d="M325.63,-402.46C333.83,-366.81 352.11,-287.4 361.18,-248.02" fill="none" stroke="#7f7f7f"/>
<polygon fill="#7f7f7f" points="362.34,-242.97 363.4135,-248.3468 361.7803,-245.4065 361.2206,-247.8431 361.2206,-247.8431 361.2206,-247.8431 361.7803,-245.4065 359.0277,-247.3393 362.34,-242.97 362.34,-242.97" stroke="#7f7f7f"/>
</g>
<!-- bed#beneath#person&#45;&gt;person -->
<g class="edge" id="edge36">
<title>bed#beneath#person-&gt;person</title>
<path d="M563.45,-283.95C523.05,-271.85 451.26,-250.36 406.42,-236.93" fill="none" stroke="#7f7f7f"/>
<polygon fill="#7f7f7f" points="401.62,-235.49 407.0557,-234.7717 404.0146,-236.2084 406.4091,-236.9268 406.4091,-236.9268 406.4091,-236.9268 404.0146,-236.2084 405.7626,-239.0819 401.62,-235.49 401.62,-235.49" stroke="#7f7f7f"/>
</g>
</g>
</svg>